<svg width="90" height="84" viewBox="0 0 90 84" fill="none" xmlns="http://www.w3.org/2000/svg">
<path d="M7.73073 72.3029L0.139425 28.661C0.0661243 28.2397 0.020431 27.8141 0.00264471 27.3867C-0.110173 22.4389 3.39845 18.1649 8.22314 17.3731L22.8723 14.7554L22.4757 72.3029H7.73073Z" fill="#2E8CC9"/>
<path d="M64.1111 70.3916C63.857 71.4595 63.0039 72.2745 61.9363 72.4691L18.8231 80.1698C16.1057 80.6502 13.3155 79.9223 11.1656 78.1722C9.01562 76.4221 7.71406 73.8193 7.59345 71.0287C7.48571 66.2981 10.7022 62.1529 15.2668 61.1396L27.3445 64.5745H27.3308L16.4568 66.5274C15.244 66.7432 14.1907 67.4983 13.5867 68.5848C12.9826 69.6713 12.8914 70.9748 13.3382 72.1367C14.1119 74.0081 16.0768 75.0723 18.0435 74.6851L50.9938 68.7988L64.1111 70.3916Z" fill="#0072BB"/>
<path d="M27.3323 64.5745L16.4583 66.5273C15.2455 66.7432 14.1922 67.4982 13.5881 68.5847C12.9841 69.6713 12.8929 70.9748 13.3397 72.1367C14.1134 74.008 16.0783 75.0722 18.0449 74.6851L50.9953 68.7988L27.3323 64.5745Z" fill="#FFE39D"/>
<path d="M17.4521 45.9335L25.053 2.28605C25.3251 0.78573 26.7369 -0.215031 28.2222 0.0395471L71.003 7.67792C75.8312 8.47039 79.3425 12.7471 79.2304 17.6985C79.2118 18.124 79.1661 18.5477 79.0936 18.9672L71.4927 62.6147L17.4521 45.9335Z" fill="#FFD56B"/>
<path d="M62.0569 14.4977C61.9766 14.4977 61.8966 14.4907 61.8175 14.4769L30.8354 8.94518C30.1362 8.77057 29.6905 8.07694 29.8161 7.35892C29.9416 6.6409 30.5955 6.14446 31.3114 6.22361L62.2921 11.7485C62.9909 11.8724 63.48 12.5167 63.4188 13.2323C63.3576 13.9479 62.7662 14.4973 62.0569 14.4977Z" fill="#FFB909"/>
<path d="M55.4821 20.3508C55.4018 20.3509 55.3217 20.3435 55.2428 20.3287L35.0376 16.7262C34.3106 16.5769 33.8336 15.8681 33.9624 15.1285C34.0911 14.3888 34.7786 13.8878 35.5122 13.9991L55.7188 17.6002C56.4215 17.7204 56.9153 18.367 56.8535 19.086C56.7916 19.805 56.1949 20.3554 55.4821 20.3508Z" fill="#FFB909"/>
<path d="M58.3356 26.537L30.0426 21.4761C29.2985 21.343 28.5888 21.8459 28.4573 22.5994L26.0773 36.2418C25.9459 36.9952 26.4425 37.7139 27.1866 37.847L55.4796 42.9079C56.2237 43.041 56.9335 42.5381 57.0649 41.7846L59.4449 28.1422C59.5763 27.3887 59.0797 26.6701 58.3356 26.537Z" fill="#FFEAB5"/>
<path d="M79.226 17.6915C79.2097 18.119 79.164 18.5448 79.0892 18.9658L71.4842 62.6077L60.9385 59.3529L67.0526 24.2565L68.5024 15.9741L69.9797 7.4978L71.0055 7.67786C75.828 8.47361 79.3346 12.7452 79.226 17.6915Z" fill="#FFC73A"/>
<path d="M63.4007 51.3197L20.6158 43.6883C20.4577 43.6607 20.2975 43.6468 20.1371 43.6467C18.7194 43.6504 17.5394 44.7501 17.4184 46.1804C17.2974 47.6107 18.2756 48.8976 19.672 49.1453L62.7715 56.8321C63.9832 57.0543 65.0333 57.8135 65.6343 58.9019C66.2352 59.9902 66.3241 61.2937 65.8764 62.4553C65.107 64.3225 63.145 65.3824 61.1849 64.9899L18.2495 57.3307C18.0914 57.3031 17.9312 57.2892 17.7708 57.2892C16.3505 57.2856 15.1638 58.3833 15.039 59.8159C14.9143 61.2485 15.8931 62.5395 17.2921 62.7877L60.4052 70.4745C63.1207 70.9566 65.9096 70.2312 68.0596 68.4838C70.2095 66.7363 71.5122 64.1361 71.6349 61.3473C71.7422 56.3937 68.2301 52.1167 63.4007 51.3197Z" fill="#FFB909"/>
<path d="M65.8759 62.4555C65.1065 64.3227 63.1445 65.3827 61.1844 64.9901L18.249 57.331L19.6715 49.1455L62.771 56.8324C63.9827 57.0545 65.0328 57.8138 65.6338 58.9021C66.2347 59.9905 66.3235 61.2939 65.8759 62.4555Z" fill="#FFE39D"/>
<path d="M72 48C62.0592 48 54 56.0564 54 66C54 75.9436 62.0592 84 72 84C81.9408 84 90 75.9387 90 66C90 56.0613 81.9408 48 72 48Z" fill="#FF5C5C"/>
<path d="M54 66C53.996 68.9753 54.7327 71.9047 56.1438 74.524C57.9416 75.0518 59.8059 75.3192 61.6795 75.3178C72.5006 75.3178 81.2728 66.5456 81.2728 55.7246C81.2744 53.8212 80.9987 51.9277 80.4544 50.1038C77.8522 48.7177 74.9483 47.9951 72 48C62.0592 48 54 56.0564 54 66Z" fill="#FF8080"/>
<path d="M79 59L65 73M65 59L79 73" stroke="white" stroke-width="6" stroke-linecap="round" stroke-linejoin="round"/>
</svg>
