<svg width="24" height="24" viewBox="0 0 24 24" fill="none" xmlns="http://www.w3.org/2000/svg">
<circle opacity="0.2" cx="12" cy="12" r="12" fill="#33B469"/>
<path d="M10.6748 16.6466L10.6737 16.6484C10.4015 17.079 9.91231 17.3396 9.38772 17.333C8.86301 17.3265 8.38106 17.0539 8.12071 16.6166C7.30103 15.2395 6.7178 14.8922 6.58587 14.8275C5.87622 14.722 5.33301 14.133 5.33301 13.4222C5.33301 12.6367 5.99627 12 6.81444 12C7.01652 12.0075 7.20724 12.0285 7.46038 12.1058C7.73838 12.1908 8.05762 12.3349 8.40471 12.5682C9.85004 13.5394 11.2171 15.8374 11.2171 15.8374C11.0321 16.1042 10.8502 16.3733 10.6748 16.6466Z" fill="#33B469"/>
<path d="M17.6862 9.33202C18.4587 8.8354 18.8578 8.33122 18.5732 7.59483C18.2886 6.85844 17.436 6.48297 16.6689 6.7562C15.4925 7.17522 14.3827 7.96776 13.4227 8.81443C12.4462 9.67572 11.5356 10.6734 10.7641 11.6035C9.72917 12.8512 8.77069 14.1704 7.90137 15.5409C7.78849 15.7188 7.73205 15.8078 7.73242 15.9053C7.7328 16.0028 7.79364 16.0971 7.91533 16.2857C7.98193 16.389 8.05037 16.4993 8.12049 16.6171C8.38084 17.0545 8.86279 17.327 9.38749 17.3335C9.90096 17.3399 10.3983 17.0824 10.6746 16.6471C10.8874 16.3155 11.1095 15.9898 11.3359 15.6673C11.7638 15.0577 12.3694 14.2343 13.0819 13.3753C13.7973 12.5128 14.6024 11.6365 15.4272 10.909C16.2687 10.1668 17.0628 9.73273 17.6862 9.33202Z" fill="#33B469"/>
</svg>
