<svg width="60" height="60" viewBox="0 0 60 60" fill="none" xmlns="http://www.w3.org/2000/svg">
<g clip-path="url(#clip0_88_5387)">
<rect width="60" height="60" rx="16" fill="#E4F4FF"/>
<path d="M25.9448 13.502C25.4932 13.7414 25.0754 14.0431 24.5588 14.3772C23.3311 15.1592 22.3062 15.8992 22.0047 16.903C21.3449 19.1 21.2732 23.6482 22.2576 25.8128L28.9613 25.8277L26.7979 19.1852C25.9988 18.2085 25.6459 15.6854 25.9448 13.502Z" fill="#75473D"/>
<path d="M35.1003 14.5993C29.0739 12.6512 27.3513 12.7473 25.9451 13.4967C25.6463 15.6856 25.9992 18.2087 26.8037 19.1787L28.9671 25.8211L37.5909 25.84C39.2485 20.6221 39.2959 21.6462 37.8451 17.815C37.0622 15.7736 36.9675 15.2135 35.1003 14.5993Z" fill="#8F5548"/>
<path d="M21.5349 20.5067C21.492 20.5064 21.4496 20.4971 21.4105 20.4797C21.3735 20.4634 21.3401 20.44 21.3123 20.4107C21.2844 20.3814 21.2627 20.3469 21.2484 20.3091C21.234 20.2713 21.2273 20.231 21.2287 20.1906C21.2301 20.1503 21.2395 20.1105 21.2563 20.0738C22.2177 17.9255 24.0417 16.0153 25.6912 15.4295C25.7659 15.4084 25.8458 15.4164 25.9147 15.4521C25.9836 15.4877 26.0364 15.5482 26.0624 15.6214C26.0884 15.6945 26.0856 15.7748 26.0546 15.8459C26.0235 15.9171 25.9666 15.9738 25.8954 16.0045C24.3892 16.5456 22.7098 18.3138 21.812 20.3227C21.7887 20.377 21.75 20.4233 21.7008 20.456C21.6516 20.4887 21.5939 20.5063 21.5349 20.5067Z" fill="#8F5548"/>
<path d="M34.2147 18.8436C31.3942 18.8436 27.9423 18.0901 25.6383 15.7483C25.6086 15.7203 25.5849 15.6865 25.5685 15.6491C25.5521 15.6116 25.5434 15.5713 25.543 15.5304C25.5425 15.4896 25.5503 15.449 25.5658 15.4112C25.5814 15.3734 25.6044 15.3392 25.6334 15.3105C25.6625 15.2818 25.697 15.2592 25.735 15.2441C25.7729 15.229 25.8136 15.2218 25.8544 15.2227C25.8952 15.2237 25.9354 15.2329 25.9726 15.2497C26.0098 15.2666 26.0433 15.2908 26.0709 15.3208C29.4593 18.7638 35.483 18.5757 37.8086 17.7194C37.8844 17.6916 37.9682 17.6951 38.0415 17.7291C38.1148 17.7631 38.1716 17.8248 38.1994 17.9007C38.2272 17.9766 38.2237 18.0604 38.1897 18.1337C38.1557 18.207 38.094 18.2638 38.0182 18.2916C37.1461 18.6123 35.7764 18.8436 34.2147 18.8436Z" fill="#A15F51"/>
<path d="M32.9581 17.0968C30.5324 17.0968 27.7849 16.4935 25.6567 14.7077C25.6261 14.682 25.6008 14.6506 25.5823 14.6151C25.5639 14.5797 25.5525 14.541 25.549 14.5011C25.5455 14.4613 25.5499 14.4212 25.5619 14.383C25.5738 14.3449 25.5932 14.3095 25.6189 14.2789C25.6445 14.2482 25.676 14.2229 25.7114 14.2044C25.7468 14.1859 25.7855 14.1746 25.8253 14.1711C25.8651 14.1676 25.9052 14.1719 25.9434 14.1839C25.9815 14.1959 26.0169 14.2153 26.0475 14.241C29.2926 16.9615 34.4306 16.8114 37.0469 15.8346C37.0844 15.8207 37.1242 15.8143 37.1641 15.8157C37.2041 15.8172 37.2434 15.8265 37.2797 15.8431C37.3161 15.8598 37.3488 15.8834 37.376 15.9127C37.4032 15.942 37.4244 15.9764 37.4383 16.0139C37.4523 16.0514 37.4587 16.0912 37.4572 16.1312C37.4558 16.1712 37.4465 16.2105 37.4298 16.2468C37.4132 16.2832 37.3896 16.3159 37.3603 16.3432C37.331 16.3704 37.2966 16.3916 37.2592 16.4055C36.2032 16.7992 34.6591 17.0968 32.9581 17.0968Z" fill="#A15F51"/>
<path d="M32.2521 15.3101C29.9346 15.3101 27.3547 14.8934 25.762 13.7422C25.7296 13.7186 25.7023 13.689 25.6814 13.6548C25.6606 13.6207 25.6466 13.5828 25.6404 13.5433C25.6342 13.5038 25.6358 13.4635 25.6452 13.4246C25.6546 13.3857 25.6715 13.349 25.695 13.3167C25.7186 13.2844 25.7482 13.257 25.7823 13.2361C25.8164 13.2153 25.8543 13.2013 25.8938 13.1951C25.9333 13.1889 25.9736 13.1905 26.0125 13.1999C26.0513 13.2093 26.0879 13.2262 26.1203 13.2497C28.3918 14.8975 32.8997 14.9232 35.3754 14.4159C35.4545 14.3997 35.5368 14.4157 35.6041 14.4602C35.6714 14.5047 35.7183 14.5742 35.7344 14.6533C35.7506 14.7324 35.7346 14.8147 35.6901 14.8821C35.6456 14.9494 35.5762 14.9963 35.4971 15.0125C34.4277 15.2171 33.3409 15.3168 32.2521 15.3101Z" fill="#A15F51"/>
<path d="M36.2148 20.8236C36.1367 20.8232 36.0618 20.7928 36.0055 20.7386C35.9492 20.6845 35.9159 20.6108 35.9124 20.5328C35.9089 20.4547 35.9356 20.3783 35.9868 20.3194C36.0381 20.2605 36.11 20.2235 36.1877 20.2162C36.9763 20.1262 37.736 19.8663 38.4146 19.4545C38.4835 19.4173 38.5639 19.4081 38.6394 19.4287C38.7148 19.4493 38.7794 19.4982 38.8198 19.5653C38.8601 19.6323 38.8731 19.7123 38.8561 19.7886C38.8391 19.865 38.7933 19.9319 38.7283 19.9754C37.9739 20.4354 37.1271 20.7228 36.2486 20.8168L36.2148 20.8236Z" fill="#A15F51"/>
<path d="M36.9754 22.5508C36.7764 22.5517 36.5784 22.5216 36.3886 22.4615C36.3117 22.4369 36.2477 22.3828 36.2106 22.311C36.1736 22.2392 36.1666 22.1556 36.1912 22.0787C36.2158 22.0017 36.2699 21.9377 36.3416 21.9006C36.4134 21.8636 36.4969 21.8566 36.5738 21.8811C37.1012 22.0502 37.8151 21.8541 38.6926 21.3008C38.7264 21.2795 38.7641 21.265 38.8035 21.2583C38.8429 21.2515 38.8833 21.2526 38.9222 21.2615C38.9612 21.2703 38.9981 21.2868 39.0307 21.3099C39.0633 21.333 39.0911 21.3623 39.1124 21.3961C39.1337 21.43 39.1482 21.4677 39.1549 21.5071C39.1616 21.5466 39.1606 21.5869 39.1517 21.6259C39.1429 21.6649 39.1264 21.7018 39.1033 21.7345C39.0802 21.7671 39.0509 21.7949 39.0171 21.8162C38.2383 22.3073 37.5649 22.5508 36.9754 22.5508Z" fill="#A15F51"/>
<path d="M26.8037 19.4846C26.759 19.4847 26.7149 19.475 26.6745 19.456C26.634 19.4371 26.5983 19.4094 26.5698 19.375C25.6598 18.2792 25.4313 15.6777 25.5624 14.2654C25.5624 14.2654 25.6071 13.4915 25.6706 13.3617C25.7044 13.294 25.7622 13.2413 25.8328 13.2139C25.9033 13.1866 25.9815 13.1865 26.0521 13.2137C26.1227 13.2409 26.1806 13.2934 26.2146 13.3611C26.2485 13.4287 26.2561 13.5066 26.2358 13.5795C26.2182 13.689 26.1722 14.2315 26.1709 14.3032C26.0451 15.6561 26.2818 18.0763 27.0376 18.9854C27.0746 19.0299 27.0982 19.084 27.1056 19.1414C27.113 19.1987 27.1038 19.257 27.0793 19.3094C27.0547 19.3618 27.0158 19.4061 26.967 19.4372C26.9181 19.4682 26.8615 19.4846 26.8037 19.4846Z" fill="#613B33"/>
<path d="M33.9759 31.0762L25.1642 31.7661C25.8214 35.481 26.0539 38.7711 24.2989 41.236C24.2313 41.332 24.1515 41.4186 24.0771 41.5066C27.9036 43.6386 31.6125 43.7874 35.6133 41.3388C34.2937 38.9754 33.8759 35.6894 33.9759 31.0762Z" fill="#EDAA7E"/>
<path d="M7.51465 61.0795H11.5074L9.05605 57.1562C8.52332 58.5307 8.01222 59.8281 7.51465 61.0795Z" fill="#F2C296"/>
<path d="M42.6504 61.0798H53.8594C51.3539 54.1667 48.7646 49.2032 48.0453 46.9629C44.2729 49.559 42.9438 54.7634 42.6504 61.0798Z" fill="#F6E6D8"/>
<path d="M12.9039 46.4805C10.3714 50.9124 7.85915 55.6798 6 61.0803H17.8174C18.4191 54.4284 17.616 48.898 12.9039 46.4805Z" fill="#F6E6D8"/>
<path d="M48.0487 46.9629C41.2692 46.2418 37.5022 44.7537 35.6093 41.3418C31.6084 43.7904 27.9023 43.6416 24.0731 41.5096C21.7813 44.3289 16.6243 44.9809 12.9033 46.4799C16.0794 53.01 15.9888 55.993 16.262 61.0797H44.8077C45.623 55.6197 45.9691 51.9048 48.0487 46.9629Z" fill="#F6E6D8"/>
<path d="M24.4309 44.7214C22.8855 44.7214 21.2521 44.693 19.4984 44.6213C19.4191 44.6167 19.3446 44.5811 19.2913 44.5221C19.2379 44.4632 19.2098 44.3856 19.2132 44.3061C19.2142 44.2659 19.2232 44.2264 19.2398 44.1898C19.2564 44.1532 19.2801 44.1203 19.3096 44.0931C19.3391 44.0658 19.3738 44.0448 19.4116 44.0312C19.4493 44.0176 19.4895 44.0117 19.5295 44.0139C25.6005 44.2587 30.2315 44.0044 34.711 43.7582C35.7589 43.7 36.7879 43.6445 37.8128 43.5958C37.8929 43.5936 37.9708 43.6224 38.03 43.6764C38.0893 43.7304 38.1253 43.8053 38.1305 43.8853C38.1342 43.9659 38.1058 44.0446 38.0515 44.1042C37.9973 44.1638 37.9216 44.1994 37.8412 44.2033C36.819 44.252 35.7914 44.3088 34.7435 44.3656C31.5363 44.5415 28.2561 44.7214 24.4309 44.7214Z" fill="#EBDBCC"/>
<path d="M22.615 47.1796C20.9141 47.1796 18.9387 47.1674 16.5752 47.139C16.5752 47.139 16.5251 47.139 16.4116 47.139C15.9451 47.1268 14.5186 47.0916 12.7447 47.0659C12.664 47.0659 12.5866 47.0339 12.5295 46.9768C12.4725 46.9197 12.4404 46.8423 12.4404 46.7615C12.4404 46.6808 12.4725 46.6034 12.5295 46.5463C12.5866 46.4892 12.664 46.4572 12.7447 46.4572C14.5146 46.4829 15.9492 46.5194 16.417 46.5302H16.5711C24.8568 46.6303 28.3547 46.5302 32.0568 46.4152C35.2167 46.3205 38.4847 46.2258 44.96 46.2421C45.0411 46.2421 45.1189 46.274 45.1766 46.331C45.2343 46.3879 45.2672 46.4654 45.2683 46.5465C45.2686 46.5862 45.2611 46.6256 45.2462 46.6624C45.2313 46.6992 45.2093 46.7328 45.1814 46.761C45.1535 46.7893 45.1203 46.8118 45.0837 46.8272C45.0471 46.8426 45.0078 46.8507 44.9681 46.8508C38.4915 46.8305 35.2329 46.9293 32.0744 47.024C29.4324 47.1038 26.885 47.1796 22.615 47.1796Z" fill="#EBDBCC"/>
<path d="M17.8051 50.0142C16.2177 50.0142 14.7913 49.9655 13.3229 49.9154C12.6252 49.8924 11.9207 49.868 11.1879 49.8505C11.1072 49.8494 11.0303 49.8163 10.974 49.7584C10.9177 49.7006 10.8866 49.6227 10.8877 49.542C10.8888 49.4613 10.9219 49.3843 10.9797 49.328C11.0375 49.2716 11.1153 49.2406 11.196 49.2417H11.2041C11.9383 49.2606 12.6441 49.2836 13.3445 49.3066C16.2826 49.4067 19.0572 49.5001 23.2906 49.2092C29.2642 48.8034 31.2681 48.8291 35.6665 48.8967C38.4924 48.94 42.3621 49.0009 48.9577 48.9616C49.0384 48.9616 49.1158 48.9937 49.1728 49.0508C49.2299 49.1079 49.2619 49.1853 49.2619 49.266C49.2619 49.3468 49.2299 49.4242 49.1728 49.4813C49.1158 49.5384 49.0384 49.5704 48.9577 49.5704C42.3567 49.6083 38.4829 49.5488 35.6529 49.5055C31.2748 49.4378 29.2764 49.4081 23.3285 49.8166C21.1867 49.9641 19.4128 50.0142 17.8051 50.0142Z" fill="#EBDBCC"/>
<path d="M16.4079 52.9648C14.8894 52.9648 13.3426 52.9256 11.8202 52.8877C11.0806 52.8688 10.3464 52.8512 9.62704 52.8377C9.54635 52.8368 9.46932 52.8038 9.41291 52.7461C9.35649 52.6884 9.32529 52.6106 9.32619 52.5299C9.32709 52.4492 9.36 52.3721 9.41769 52.3157C9.47537 52.2592 9.55311 52.228 9.63379 52.2289C10.3545 52.2424 11.0887 52.26 11.8296 52.279C15.0747 52.3601 18.4252 52.444 21.3566 52.1437C24.4421 51.8312 29.8465 51.6553 34.9669 51.9719C41.503 52.3777 46.0366 52.1071 49.3466 51.9164L50.2187 51.8663C50.2988 51.8633 50.377 51.8915 50.4368 51.945C50.4965 51.9985 50.5332 52.0731 50.5391 52.1531C50.5415 52.1931 50.536 52.233 50.5228 52.2708C50.5097 52.3086 50.4892 52.3434 50.4625 52.3732C50.4359 52.403 50.4036 52.4272 50.3676 52.4445C50.3315 52.4617 50.2924 52.4717 50.2525 52.4738L49.3817 52.5252C46.0569 52.7186 41.503 52.9865 34.929 52.5793C29.8424 52.2668 24.4786 52.444 21.4174 52.7484C19.8395 52.9134 18.1426 52.9648 16.4079 52.9648Z" fill="#EBDBCC"/>
<path d="M12.8944 56.0091C12.3603 56.0091 11.8235 55.9861 10.8946 55.9469C10.2362 55.9185 9.38298 55.8833 8.19042 55.84C8.14904 55.8409 8.10791 55.8333 8.06956 55.8177C8.03121 55.8021 7.99645 55.7788 7.9674 55.7493C7.93834 55.7198 7.91561 55.6847 7.9006 55.6461C7.88559 55.6075 7.8786 55.5662 7.88008 55.5248C7.88155 55.4834 7.89145 55.4428 7.90917 55.4053C7.9269 55.3679 7.95207 55.3345 7.98314 55.3071C8.01422 55.2798 8.05055 55.2591 8.08991 55.2462C8.12927 55.2334 8.17084 55.2288 8.21206 55.2326C9.40462 55.2745 10.2605 55.311 10.9163 55.3394C13.0918 55.4314 13.0932 55.4314 16.0448 55.2556C17.209 55.1866 18.8288 55.0892 21.2153 54.9606C25.4298 54.7347 27.6676 54.8348 30.5016 54.9606C32.2674 55.0405 34.2685 55.1311 37.1431 55.1622C39.5445 55.1893 42.1459 55.1068 44.6622 55.0269C47.1406 54.9485 49.4798 54.8741 51.5485 54.9025C51.6292 54.9025 51.7066 54.9345 51.7636 54.9916C51.8207 55.0487 51.8527 55.1261 51.8527 55.2069C51.8527 55.2876 51.8207 55.365 51.7636 55.4221C51.7066 55.4792 51.6292 55.5113 51.5485 55.5113C49.4933 55.4828 47.1609 55.5572 44.6892 55.6344C42.1662 55.7142 39.5512 55.7981 37.1445 55.7696C34.2604 55.7372 32.2526 55.6479 30.4826 55.5681C27.6662 55.4423 25.442 55.3408 21.2559 55.5681C18.8707 55.6966 17.2523 55.794 16.0894 55.863C14.3574 55.9658 13.63 56.0091 12.8944 56.0091Z" fill="#EBDBCC"/>
<path d="M11.8637 58.8928C11.1876 58.8928 10.5278 58.8766 9.88824 58.8387C9.14728 58.7954 8.41309 58.7345 7.7465 58.6804L6.99743 58.6196C6.91717 58.6127 6.84285 58.5745 6.79048 58.5132C6.73812 58.452 6.71193 58.3726 6.71755 58.2922C6.7201 58.252 6.73064 58.2128 6.74857 58.1768C6.76649 58.1408 6.79143 58.1088 6.82192 58.0825C6.85241 58.0563 6.88783 58.0365 6.92609 58.0241C6.96436 58.0118 7.00471 58.0073 7.04476 58.0108L7.79653 58.0717C8.45771 58.1271 9.18785 58.1867 9.92339 58.2299C12.3234 58.3652 15.0614 58.2002 17.6953 58.0365C19.3665 57.9323 20.9404 57.8336 22.3547 57.8187C23.769 57.8038 25.2671 57.8647 26.8599 57.9256C29.2842 58.0189 32.0317 58.1258 35.3092 58.0216C42.5308 57.7984 46.8468 57.8782 49.7024 57.9323C50.9464 57.9553 51.9307 57.9743 52.7879 57.9621L52.7974 58.5709C51.9267 58.583 50.941 58.5641 49.6876 58.5411C46.8387 58.487 42.5308 58.4058 35.3255 58.6304C32.0263 58.7332 29.2667 58.6304 26.8329 58.5343C25.2482 58.4735 23.7501 58.4139 22.3587 58.4275C20.9674 58.441 19.3936 58.5398 17.7305 58.6439C15.7713 58.767 13.7607 58.8928 11.8637 58.8928Z" fill="#EBDBCC"/>
<path d="M32.9827 42.898C32.9225 42.8979 32.8638 42.88 32.8138 42.8466C32.7638 42.8131 32.7249 42.7656 32.7019 42.71C32.6789 42.6544 32.6728 42.5933 32.6845 42.5343C32.6963 42.4753 32.7252 42.4211 32.7677 42.3785C32.7965 42.3499 32.8307 42.3273 32.8683 42.312C32.9059 42.2967 32.9461 42.2889 32.9867 42.2892C34.0049 42.2621 34.9297 42.1986 35.8113 42.0957L36.2318 42.047C36.3119 42.0375 36.3926 42.0603 36.456 42.1102C36.5194 42.1602 36.5603 42.2334 36.5698 42.3135C36.5793 42.3937 36.5566 42.4744 36.5066 42.5378C36.4567 42.6013 36.3836 42.6422 36.3034 42.6518L35.8802 42.7005C34.9797 42.806 34.0373 42.8709 32.9975 42.898H32.9827Z" fill="#EBDBCC"/>
<path d="M23.1083 42.7639L23.1016 42.1551L24.2116 42.1389H24.4266C24.9783 42.1308 25.525 42.1308 26.0667 42.1389C26.1473 42.1403 26.2241 42.1735 26.2803 42.2313C26.3365 42.2891 26.3676 42.3667 26.3669 42.4474C26.3622 42.5271 26.3278 42.6022 26.2705 42.6578C26.2131 42.7134 26.1371 42.7454 26.0573 42.7477C25.5218 42.7387 24.981 42.7387 24.4347 42.7477H24.2198C23.8358 42.7531 23.4653 42.7599 23.1083 42.7639Z" fill="#EBDBCC"/>
<path d="M17.7266 46.0042H15.4091C15.3334 46.0042 15.2482 46.0042 15.1387 46.0042C15.0988 46.0026 15.0596 45.9932 15.0233 45.9764C14.9871 45.9596 14.9545 45.9359 14.9275 45.9064C14.9005 45.877 14.8795 45.8425 14.8659 45.805C14.8522 45.7674 14.8462 45.7275 14.848 45.6876C14.8522 45.6071 14.8878 45.5315 14.9473 45.4771C15.0067 45.4227 15.0852 45.3938 15.1657 45.3968C15.2577 45.3968 15.3347 45.3968 15.4037 45.3968C31.7426 45.4211 33.768 45.1979 35.3973 45.0193C36.2829 44.9219 37.0482 44.8394 39.8931 44.8164C39.9738 44.8164 40.0511 44.8485 40.1082 44.9056C40.1652 44.9627 40.1973 45.0401 40.1973 45.1208C40.1973 45.2015 40.1652 45.2789 40.1082 45.336C40.0511 45.3931 39.9738 45.4252 39.8931 45.4252C37.0807 45.4468 36.3289 45.5294 35.4595 45.6241C33.9073 45.7932 31.9792 46.0042 17.7266 46.0042Z" fill="#EBDBCC"/>
<path d="M15.2197 48.6493C14.8532 48.6493 14.4598 48.6493 14.0325 48.6411C13.1334 48.629 12.4384 48.6168 11.8691 48.6006C11.8292 48.5993 11.7898 48.5903 11.7534 48.5738C11.717 48.5574 11.6841 48.5339 11.6567 48.5048C11.6294 48.4756 11.608 48.4413 11.5939 48.4039C11.5797 48.3665 11.5731 48.3267 11.5744 48.2867C11.5752 48.2467 11.584 48.2073 11.6003 48.1708C11.6165 48.1343 11.6398 48.1013 11.6689 48.0739C11.6979 48.0464 11.7322 48.025 11.7696 48.0109C11.8069 47.9969 11.8468 47.9903 11.8867 47.9918C12.4492 48.008 13.1415 48.0202 14.0366 48.0324C16.496 48.0635 17.8225 47.9958 19.2205 47.9241C21.0878 47.8294 23.2052 47.7212 28.4744 47.8294L28.88 47.8376C31.3544 47.8849 32.597 47.9093 38.6463 47.5778C41.894 47.4065 45.1484 47.4038 48.3963 47.5697C48.4741 47.577 48.546 47.614 48.5972 47.6729C48.6485 47.7319 48.6751 47.8083 48.6717 47.8863C48.6682 47.9643 48.6349 48.038 48.5786 48.0922C48.5223 48.1463 48.4474 48.1767 48.3693 48.1771C45.1416 48.0119 41.9075 48.0146 38.6801 48.1852C32.6091 48.518 31.3584 48.495 28.8678 48.445H28.4622C23.212 48.3381 21.1081 48.445 19.2503 48.5397C18.0888 48.5924 16.9747 48.6493 15.2197 48.6493Z" fill="#EBDBCC"/>
<path d="M10.2993 51.5352C10.2187 51.5352 10.1413 51.5031 10.0842 51.446C10.0272 51.3889 9.99512 51.3115 9.99512 51.2308C9.99512 51.15 10.0272 51.0726 10.0842 51.0155C10.1413 50.9585 10.2187 50.9264 10.2993 50.9264C17.4371 50.852 23.3499 50.6315 28.1012 50.4542C33.3961 50.2567 37.2239 50.1147 39.5603 50.2973C44.5428 50.6869 47.6919 50.6071 49.6268 50.5124L49.6457 51.1212C47.7041 51.2159 44.5293 51.2971 39.513 50.9047C37.2144 50.7235 33.3988 50.8655 28.1228 51.0617C23.3688 51.2389 17.452 51.4594 10.3061 51.5352H10.2993Z" fill="#EBDBCC"/>
<path d="M8.90774 54.3266C8.82705 54.3266 8.74967 54.2945 8.69262 54.2374C8.63557 54.1803 8.60352 54.1029 8.60352 54.0222C8.60352 53.9415 8.63557 53.864 8.69262 53.8069C8.74967 53.7499 8.82705 53.7178 8.90774 53.7178C20.0829 53.6339 21.5702 53.4892 22.7655 53.3755C23.5105 53.3025 24.1541 53.2402 26.6717 53.201C29.9641 53.1537 32.9266 53.3363 35.3077 53.4716C36.6814 53.5554 37.8686 53.6285 38.8962 53.6474C40.758 53.6853 43.0877 53.5784 45.5472 53.4702C47.2955 53.3931 49.1019 53.3133 50.8542 53.2781C50.8942 53.2773 50.9339 53.2844 50.9711 53.299C51.0083 53.3135 51.0423 53.3353 51.0711 53.363C51.0999 53.3907 51.123 53.4238 51.139 53.4604C51.1551 53.497 51.1637 53.5364 51.1645 53.5764C51.1653 53.6164 51.1582 53.6561 51.1437 53.6934C51.1291 53.7306 51.1074 53.7646 51.0797 53.7934C51.052 53.8223 51.0189 53.8454 50.9823 53.8614C50.9457 53.8774 50.9063 53.8861 50.8664 53.8869C49.1208 53.9221 47.3184 54.0019 45.5742 54.079C43.1012 54.1872 40.7675 54.2914 38.884 54.2562C37.8442 54.2373 36.6517 54.1642 35.2698 54.0804C32.8996 53.9356 29.9479 53.7557 26.6812 53.8098C24.1879 53.849 23.5565 53.9099 22.8236 53.9802C21.554 54.1034 20.1194 54.2413 8.91315 54.3266H8.90774Z" fill="#EBDBCC"/>
<path d="M12.4543 57.4346C11.6335 57.4346 10.8047 57.4116 9.95557 57.3575C9.03478 57.3021 8.25867 57.2628 7.58397 57.2398C7.50693 57.2335 7.43519 57.198 7.38332 57.1407C7.33146 57.0833 7.30336 57.0084 7.30474 56.931C7.30611 56.8537 7.33686 56.7798 7.39074 56.7243C7.44461 56.6689 7.51757 56.636 7.59479 56.6324H7.60425C8.28031 56.6554 9.06724 56.6933 9.99343 56.7501C12.8653 56.9341 15.4181 56.7582 18.3765 56.5539C22.1421 56.2969 26.4107 56.0033 32.3735 56.4187C35.167 56.6202 37.1302 56.5715 40.3807 56.4931C42.9376 56.4308 46.4219 56.3456 51.8168 56.3456H52.1603C52.241 56.3456 52.3184 56.3777 52.3754 56.4348C52.4325 56.4918 52.4645 56.5693 52.4645 56.65C52.4645 56.7307 52.4325 56.8081 52.3754 56.8652C52.3184 56.9223 52.241 56.9544 52.1603 56.9544H51.8168C46.4287 56.9544 42.9497 57.0383 40.3956 57.1018C37.1262 57.1817 35.1535 57.2371 32.3316 57.0261C26.4094 56.6067 22.1638 56.8976 18.4184 57.1614C16.3889 57.3007 14.4473 57.4346 12.4543 57.4346Z" fill="#EBDBCC"/>
<path d="M12.9306 60.3112C12.4493 60.3112 11.9666 60.3112 11.4676 60.2936C10.3859 60.2652 9.56657 60.2341 8.88781 60.2084C7.93322 60.1719 7.24635 60.1448 6.43508 60.1516C6.3544 60.1516 6.27702 60.1195 6.21996 60.0624C6.16291 60.0054 6.13086 59.9279 6.13086 59.8472C6.13086 59.7665 6.16291 59.6891 6.21996 59.632C6.27702 59.5749 6.3544 59.5428 6.43508 59.5428C7.25311 59.5428 7.9508 59.5645 8.9135 59.5996C9.58955 59.6253 10.4008 59.6565 11.4825 59.6849C13.27 59.7322 14.8628 59.6849 16.8666 59.6199C18.5649 59.5672 20.4889 59.5077 23.0863 59.4847C25.1239 59.4684 26.0947 59.4982 26.8722 59.5225C28.3812 59.5699 29.0045 59.5888 35.3391 59.1478C39.125 58.8772 40.8909 59.022 42.7595 59.1708C44.9702 59.3439 47.2566 59.5252 53.1261 59.1194H53.1721C53.2532 59.1076 53.3356 59.1281 53.4018 59.1764C53.468 59.2247 53.5127 59.2969 53.5263 59.3778C53.5333 59.4166 53.5323 59.4564 53.5235 59.4948C53.5147 59.5333 53.4983 59.5695 53.4752 59.6015C53.4521 59.6334 53.4228 59.6604 53.3891 59.6807C53.3554 59.7011 53.3179 59.7145 53.2789 59.72C53.2565 59.7237 53.2339 59.726 53.2113 59.7268H53.168C47.2539 60.1327 44.8404 59.9446 42.7122 59.7769C40.8665 59.6308 39.1237 59.4928 35.3824 59.7552C29.018 60.1976 28.3839 60.1787 26.8533 60.13C26.0785 60.107 25.1145 60.0772 23.089 60.0934C20.4984 60.1151 18.577 60.1746 16.8828 60.2287C15.428 60.2734 14.1867 60.3112 12.9306 60.3112Z" fill="#EBDBCC"/>
<path d="M30.6192 45.2527C27.3227 45.2527 24.8416 44.537 22.6052 42.9528C22.5712 42.9304 22.542 42.9012 22.5195 42.8672C22.4969 42.8332 22.4815 42.7951 22.4739 42.755C22.4664 42.7149 22.4671 42.6737 22.4758 42.6338C22.4845 42.5939 22.5012 42.5563 22.5247 42.523C22.5483 42.4897 22.5783 42.4615 22.613 42.44C22.6477 42.4185 22.6863 42.4043 22.7266 42.3981C22.7669 42.3919 22.8081 42.3938 22.8476 42.4038C22.8872 42.4138 22.9243 42.4317 22.9568 42.4564C25.1485 44.0121 27.604 44.6872 30.9099 44.6453C32.6595 44.6223 34.6687 43.8484 36.4211 42.5186C36.4854 42.4698 36.5665 42.4486 36.6465 42.4596C36.7265 42.4706 36.7989 42.513 36.8477 42.5774C36.8964 42.6418 36.9176 42.723 36.9066 42.803C36.8956 42.8831 36.8532 42.9555 36.7888 43.0043C34.9351 44.4099 32.7947 45.2297 30.918 45.254L30.6192 45.2527Z" fill="white"/>
<path d="M16.2654 61.383C16.1876 61.3828 16.1127 61.3528 16.0562 61.2993C15.9996 61.2457 15.9657 61.1726 15.9612 61.0948C15.9396 60.6998 15.9206 60.3183 15.9031 59.9476C15.68 55.5117 15.5326 52.5814 12.6282 46.6127C12.6105 46.5767 12.6 46.5376 12.5973 46.4976C12.5947 46.4575 12.6 46.4174 12.6128 46.3794C12.6257 46.3414 12.6459 46.3063 12.6723 46.2761C12.6988 46.2459 12.7309 46.2212 12.7668 46.2035C12.8028 46.1857 12.8419 46.1752 12.8819 46.1725C12.9219 46.1699 12.9621 46.1752 13 46.188C13.038 46.2009 13.0731 46.2212 13.1033 46.2476C13.1334 46.274 13.1581 46.3061 13.1758 46.3421C16.1329 52.4299 16.2857 55.4062 16.5101 59.9125C16.5291 60.2831 16.548 60.6646 16.5696 61.057C16.5718 61.0969 16.5661 61.137 16.5528 61.1747C16.5395 61.2125 16.5189 61.2473 16.4921 61.2771C16.4654 61.3068 16.433 61.3311 16.3969 61.3483C16.3608 61.3656 16.3216 61.3755 16.2816 61.3776L16.2654 61.383Z" fill="#E0D1C1"/>
<path d="M44.793 61.3833H44.7471C44.7076 61.3774 44.6697 61.3637 44.6355 61.343C44.6014 61.3224 44.5716 61.2952 44.548 61.263C44.5244 61.2308 44.5074 61.1943 44.4979 61.1555C44.4884 61.1167 44.4867 61.0764 44.4929 61.037L44.5456 60.6852C44.6984 59.6706 45.0283 57.5006 45.1324 56.8675C45.557 54.2971 46.6549 49.4972 47.769 46.8484C47.7846 46.8115 47.8072 46.7781 47.8357 46.75C47.8641 46.7219 47.8978 46.6996 47.9349 46.6846C47.9719 46.6695 48.0115 46.6619 48.0515 46.6621C48.0915 46.6624 48.1311 46.6705 48.1679 46.686C48.2047 46.7016 48.2382 46.7242 48.2663 46.7527C48.2944 46.7812 48.3166 46.8149 48.3316 46.852C48.3467 46.889 48.3543 46.9287 48.3541 46.9687C48.3538 47.0087 48.3457 47.0483 48.3302 47.0851C47.2349 49.688 46.1519 54.4311 45.7328 56.9609C45.6286 57.5926 45.3001 59.7585 45.1473 60.7705L45.0932 61.1222C45.0828 61.1945 45.0468 61.2607 44.9917 61.3086C44.9366 61.3566 44.8661 61.3831 44.793 61.3833Z" fill="#E0D1C1"/>
<path d="M36.4439 25.7548L35.7949 28.4456C36.832 29.5522 37.239 28.2223 37.9353 26.8749C39.739 23.3778 36.9429 24.5846 36.4439 25.7548Z" fill="#EDAA7E"/>
<path d="M21.0429 24.82C20.9077 25.2259 21.5554 26.641 21.6027 26.7519C22.3045 28.3875 22.5005 29.5117 24.0892 29.0152L23.4673 26.0633C23.0008 25.3436 21.5216 24.0029 21.0429 24.82Z" fill="#EDAA7E"/>
<path d="M23.7842 27.6424C23.7145 27.6421 23.6469 27.6179 23.5928 27.5738C23.5387 27.5298 23.5013 27.4685 23.4868 27.4003C23.4178 27.0715 22.8702 26.5696 22.1968 26.3762C22.1567 26.3668 22.1189 26.3493 22.0857 26.3248C22.0525 26.3004 22.0246 26.2694 22.0038 26.2338C21.9829 26.1983 21.9695 26.1588 21.9643 26.1179C21.9591 26.077 21.9623 26.0354 21.9737 25.9958C21.9851 25.9562 22.0044 25.9192 22.0305 25.8873C22.0565 25.8553 22.0888 25.829 22.1254 25.8099C22.1619 25.7908 22.202 25.7794 22.2431 25.7763C22.2842 25.7731 22.3255 25.7784 22.3645 25.7917C23.0892 26.0001 23.9384 26.5899 24.0817 27.2799C24.0981 27.3586 24.0827 27.4406 24.0389 27.5081C23.9951 27.5755 23.9264 27.6228 23.8478 27.6397C23.8267 27.6426 23.8054 27.6435 23.7842 27.6424Z" fill="#D1926B"/>
<path d="M36.2147 27.3656C36.162 27.3663 36.1101 27.3531 36.064 27.3275C36.018 27.3019 35.9794 27.2648 35.9521 27.2197C35.9248 27.1746 35.9097 27.1232 35.9083 27.0705C35.9069 27.0178 35.9193 26.9656 35.9443 26.9192C36.2877 26.2725 36.6366 25.7233 37.4221 25.5447C37.5008 25.5268 37.5835 25.5409 37.6518 25.5839C37.7201 25.6269 37.7686 25.6953 37.7865 25.774C37.8045 25.8528 37.7904 25.9354 37.7474 26.0038C37.7044 26.0722 37.6361 26.1207 37.5573 26.1386C37.0165 26.2604 36.7718 26.6568 36.4757 27.2047C36.4504 27.2523 36.4129 27.2923 36.367 27.3206C36.3212 27.3489 36.2686 27.3645 36.2147 27.3656Z" fill="#D1926B"/>
<path d="M26.3059 17.0488C21.8724 18.8292 22.205 23.813 23.5638 28.3978C25.5596 35.2039 26.502 36.7489 30.3244 36.5933C31.4155 36.523 32.508 36.5189 33.368 35.4042C34.3483 34.1271 36.9362 27.0747 37.189 24.4719C37.4148 22.1896 36.9186 20.9815 36.5833 20.1428C31.3831 20.9423 27.9568 19.2431 26.3059 17.0488Z" fill="#F2C296"/>
<path d="M24.2649 23.1366C24.2048 23.1365 24.146 23.1186 24.096 23.0852C24.046 23.0517 24.0071 23.0042 23.9841 22.9486C23.9611 22.8931 23.9551 22.8319 23.9668 22.7729C23.9785 22.7139 24.0074 22.6597 24.0499 22.6171C25.452 21.2128 26.9272 21.5348 28.0535 21.9786C28.1275 22.0088 28.1866 22.0669 28.2181 22.1404C28.2496 22.2139 28.2509 22.2968 28.2218 22.3713C28.1927 22.4458 28.1354 22.5058 28.0624 22.5383C27.9895 22.5709 27.9066 22.5734 27.8318 22.5454C26.7663 22.1301 25.6238 21.9028 24.4799 23.0473C24.4517 23.0757 24.4183 23.0982 24.3813 23.1135C24.3444 23.1289 24.3049 23.1367 24.2649 23.1366Z" fill="#75473D"/>
<path d="M35.4224 22.8036C35.3622 22.8038 35.3033 22.7859 35.2534 22.7522C35.2209 22.7306 35.1844 22.7035 35.1438 22.6738C34.9113 22.4992 34.5219 22.2084 33.6254 22.2084C33.1035 22.218 32.5998 22.4023 32.1949 22.7319C32.1311 22.7809 32.0504 22.8025 31.9706 22.792C31.8909 22.7815 31.8186 22.7397 31.7697 22.6758C31.7207 22.6119 31.6991 22.5312 31.7096 22.4514C31.7202 22.3716 31.7619 22.2993 31.8258 22.2503C32.3336 21.8384 32.965 21.6092 33.6187 21.5996C34.7166 21.5996 35.2277 21.9811 35.5008 22.1854C35.5332 22.2084 35.5603 22.23 35.586 22.2463C35.6403 22.2826 35.6815 22.3355 35.7034 22.3971C35.7253 22.4587 35.7268 22.5257 35.7077 22.5883C35.6886 22.6508 35.6499 22.7055 35.5973 22.7443C35.5447 22.7831 35.481 22.8039 35.4156 22.8036H35.4224Z" fill="#75473D"/>
<path d="M33.4188 25.2184H33.3985C33.2911 25.2131 33.1902 25.1654 33.118 25.0858C33.0457 25.0061 33.008 24.901 33.0132 24.7936C33.0132 24.6853 33.0199 24.3796 33.0213 24.2524C33.0192 24.2137 33.0192 24.1748 33.0213 24.1361C33.0317 24.0284 33.0844 23.9294 33.1678 23.8606C33.2512 23.7918 33.3585 23.7591 33.4661 23.7695C33.5737 23.7799 33.6727 23.8326 33.7415 23.9161C33.8102 23.9996 33.8429 24.1069 33.8325 24.2146V24.2592C33.8325 24.3945 33.8325 24.7124 33.8231 24.8274C33.8192 24.9322 33.775 25.0314 33.6996 25.1043C33.6243 25.1772 33.5236 25.2181 33.4188 25.2184Z" fill="#4D2323"/>
<path d="M26.7433 25.2722C26.656 25.2704 26.5713 25.2423 26.5002 25.1916C26.429 25.141 26.3748 25.0701 26.3444 24.9882C26.3039 24.832 26.2879 24.6704 26.2971 24.5092C26.2979 24.4243 26.2943 24.3394 26.2863 24.2549C26.2678 24.1489 26.2922 24.0399 26.3541 23.9518C26.416 23.8638 26.5102 23.804 26.6162 23.7855C26.7202 23.7671 26.8273 23.79 26.9146 23.8494C27.002 23.9088 27.0628 23.9999 27.084 24.1034C27.1013 24.233 27.1094 24.3636 27.1084 24.4944C27.1073 24.5797 27.1104 24.665 27.1178 24.7501C27.1356 24.7991 27.1432 24.8512 27.1403 24.9033C27.1373 24.9554 27.1239 25.0064 27.1008 25.0531C27.0777 25.0999 27.0454 25.1415 27.0058 25.1754C26.9662 25.2093 26.9201 25.2349 26.8704 25.2506C26.8296 25.265 26.7866 25.2723 26.7433 25.2722Z" fill="#4D2323"/>
<path d="M29.7458 29.6615C29.0102 29.6615 28.134 28.5454 28.1232 28.5345C28.0875 28.4857 28.0671 28.4273 28.0647 28.3668C28.0623 28.3063 28.078 28.2465 28.1097 28.195C28.1414 28.1435 28.188 28.103 28.2433 28.0788C28.2987 28.0546 28.3601 28.048 28.4193 28.0597C28.5965 28.0895 28.7465 28.1111 28.8736 28.13H28.9223C28.9223 28.0895 28.9223 28.0435 28.9223 27.9948C28.9129 27.4103 28.8966 26.3389 28.848 24.7709C28.8467 24.731 28.8533 24.6911 28.8675 24.6537C28.8816 24.6163 28.9029 24.582 28.9303 24.5529C28.9577 24.5237 28.9905 24.5003 29.027 24.4838C29.0634 24.4674 29.1028 24.4583 29.1427 24.4571C29.2231 24.4556 29.3009 24.4856 29.3595 24.5407C29.4181 24.5958 29.4529 24.6716 29.4564 24.752C29.5051 26.324 29.5213 27.3995 29.5308 27.9853C29.5308 28.2559 29.5375 28.4128 29.5402 28.4737C29.5424 28.514 29.5366 28.5543 29.523 28.5924C29.5095 28.6304 29.4885 28.6653 29.4613 28.6952C29.4341 28.725 29.4013 28.7491 29.3647 28.7662C29.3281 28.7832 29.2885 28.7927 29.2482 28.7943C29.4375 28.9417 29.6241 29.05 29.7458 29.05C29.9161 29.05 30.2866 28.751 30.557 28.3073C30.5782 28.2733 30.6058 28.2439 30.6383 28.2206C30.6708 28.1974 30.7075 28.1808 30.7464 28.1717C30.7854 28.1627 30.8257 28.1614 30.8651 28.1679C30.9045 28.1745 30.9423 28.1887 30.9762 28.2099C31.0101 28.231 31.0395 28.2586 31.0628 28.2911C31.086 28.3237 31.1026 28.3604 31.1117 28.3994C31.1207 28.4383 31.122 28.4787 31.1154 28.5181C31.1089 28.5575 31.0947 28.5953 31.0735 28.6292C30.9694 28.8038 30.4029 29.6615 29.7458 29.6615Z" fill="#E6A57A"/>
<g opacity="0.3">
<path d="M32.4301 28.8606C32.6154 29.8995 33.8458 29.5478 33.9175 28.7916C34.0135 27.7485 32.2206 27.6904 32.4301 28.8606Z" fill="#ED7278"/>
<path d="M25.5133 28.838C25.5688 29.7457 26.9777 29.6849 26.9141 28.635C26.8749 27.9194 25.4417 27.6732 25.5133 28.838Z" fill="#ED7278"/>
</g>
<path d="M31.1649 30.5478C30.624 30.8657 30.4293 31.3041 29.783 31.3217C28.869 31.3474 28.8162 30.794 28.1294 30.6209C27.1207 30.3652 28.2484 32.293 29.7695 32.293C31.3163 32.2889 32.0938 30.0067 31.1649 30.5478Z" fill="white"/>
<path d="M36.1881 28.4785C35.4958 29.8584 33.4838 33.5381 32.4711 33.9954C31.7166 34.3485 30.8567 34.266 30.9459 33.369C30.9487 33.3419 30.946 33.3145 30.9379 33.2885C30.9297 33.2624 30.9164 33.2383 30.8987 33.2176C30.881 33.1968 30.8593 33.1799 30.8349 33.1678C30.8105 33.1557 30.7838 33.1487 30.7566 33.1472C28.815 33.1999 28.815 32.9835 28.7379 33.3582C28.6135 33.9765 28.3756 34.0049 27.732 33.9846C27.4615 33.9846 26.7422 33.8926 26.0405 33.0782C25.4063 32.3395 23.5553 28.4866 23.5377 28.4488C23.5162 28.4016 23.4774 28.3644 23.4294 28.3449C23.3814 28.3255 23.3277 28.3251 23.2794 28.344C23.2311 28.3629 23.1919 28.3995 23.1698 28.4464C23.1477 28.4933 23.1443 28.5469 23.1605 28.5962C23.2349 28.8384 24.2854 34.6948 25.0453 35.6012C26.0986 36.8553 27.8712 36.8188 29.3613 36.8188C34.4263 36.8188 34.4546 36.3521 35.0861 34.7435C35.4566 33.7965 35.846 32.9172 36.5639 28.6314C36.5842 28.5815 36.5838 28.5256 36.5629 28.476C36.542 28.4264 36.5022 28.3872 36.4524 28.3669C36.4025 28.3467 36.3467 28.347 36.2971 28.368C36.2475 28.3889 36.2083 28.4287 36.1881 28.4785Z" fill="#8F5548"/>
</g>
<defs>
<clipPath id="clip0_88_5387">
<rect width="60" height="60" rx="16" fill="white"/>
</clipPath>
</defs>
</svg>
