<svg width="32" height="32" viewBox="0 0 32 32" fill="none" xmlns="http://www.w3.org/2000/svg">
<rect width="32" height="32" rx="8" fill="#0072BB"/>
<path d="M10.2211 7.01664L10.1606 7.00526C9.45089 6.87172 8.82267 6.75351 8.29246 6.75008C7.69637 6.74622 7.15603 6.88428 6.6642 7.30052C6.15627 7.73039 5.9382 8.28384 5.84024 8.90524C5.74991 9.47823 5.74995 10.1966 5.75 11.0381L5.75 17.5477C5.74998 18.326 5.74997 18.9719 5.80658 19.4845C5.86525 20.0157 5.99403 20.5159 6.33584 20.9337C6.6914 21.3683 7.20741 21.5918 7.75686 21.753C8.30333 21.9135 9.02115 22.0484 9.90302 22.2142L9.9439 22.2219C11.506 22.5157 12.7089 22.9807 13.5625 23.4357L13.5807 23.4454C14.0192 23.6791 14.3725 23.8674 14.6432 23.9959C14.7812 24.0615 14.9161 24.1204 15.0425 24.1639C15.1606 24.2045 15.3223 24.25 15.5 24.25C15.9142 24.25 16.25 23.9142 16.25 23.5V11.2C16.25 11.1465 16.25 11.1197 16.2525 11.1004C16.2608 11.0373 16.2683 11.0179 16.3051 10.966C16.3164 10.9501 16.3477 10.9161 16.4104 10.8482C16.823 10.4013 18.3226 9.36104 21.0522 8.85494C21.8138 8.71372 22.2604 8.63453 22.5953 8.63239C22.8655 8.63067 22.9631 8.68019 23.0596 8.76068C23.1355 8.82406 23.2192 8.92041 23.2751 9.27023C23.3381 9.6642 23.3409 10.206 23.3409 11.0762V13.8088C23.3409 14.3286 23.7683 14.75 24.2954 14.75C24.8226 14.75 25.25 14.3286 25.25 13.8088L25.25 11.0072C25.2501 10.2274 25.2501 9.535 25.1609 8.97711C25.0621 8.35869 24.8361 7.77715 24.2929 7.32382C23.7701 6.8876 23.1946 6.74617 22.5829 6.75008C22.0548 6.75345 21.4361 6.86827 20.7707 6.99178L20.6994 7.00501C18.4855 7.41549 16.8604 8.16544 15.85 8.8642C15.6574 8.99742 15.5611 9.06404 15.4684 9.06459C15.3758 9.06515 15.2792 9.00006 15.086 8.86986C14.0557 8.17558 12.4293 7.43188 10.2211 7.01664Z" fill="white"/>
<path d="M22.5785 17.0539C22.9119 16.7205 23.0785 16.5539 23.2519 16.4537C23.7225 16.1821 24.3022 16.1821 24.7727 16.4537C24.9461 16.5539 25.1128 16.7205 25.4461 17.0539C25.7795 17.3872 25.9461 17.5539 26.0463 17.7273C26.3179 18.1978 26.3179 18.7775 26.0463 19.2481C25.9461 19.4215 25.7795 19.5881 25.4461 19.9215L21.1383 24.2293C20.4774 24.8902 19.4801 24.9171 18.5977 25.1057C17.9078 25.2532 17.5628 25.327 17.3679 25.1321C17.173 24.9372 17.2468 24.5922 17.3943 23.9023C17.5829 23.0199 17.6098 22.0226 18.2707 21.3617L22.5785 17.0539Z" fill="white"/>
</svg>
