<svg width="79" height="88" viewBox="0 0 79 88" fill="none" xmlns="http://www.w3.org/2000/svg">
<path fill-rule="evenodd" clip-rule="evenodd" d="M0.998387 72.1536V10.921C1.00704 8.16339 2.10669 5.52123 4.05713 3.57175C6.00757 1.62226 8.65027 0.523903 11.4079 0.516602L62.7256 0.516602V63.8022V80.5101H9.35489C7.14056 80.5035 5.01881 79.6209 3.45303 78.0551C1.88726 76.4893 1.00468 74.3676 0.998047 72.1533L0.998387 72.1536Z" fill="#2E8CC9"/>
<path fill-rule="evenodd" clip-rule="evenodd" d="M0.998387 72.1536V10.921C1.00704 8.16339 2.10669 5.52123 4.05713 3.57175C6.00757 1.62226 8.65027 0.523903 11.4079 0.516602V80.5101H9.35489C7.14056 80.5035 5.01881 79.6209 3.45303 78.0551C1.88726 76.4893 1.00468 74.3676 0.998047 72.1533L0.998387 72.1536Z" fill="#0072BB"/>
<path fill-rule="evenodd" clip-rule="evenodd" d="M62.7255 66.2646H9.35485C7.79298 66.2646 6.29508 66.8851 5.19068 67.9895C4.08627 69.0939 3.46582 70.5918 3.46582 72.1537C3.46582 73.7155 4.08627 75.2134 5.19068 76.3178C6.29508 77.4222 7.79298 78.0427 9.35485 78.0427H62.7255V66.2646Z" fill="#E4F4FF"/>
<path fill-rule="evenodd" clip-rule="evenodd" d="M16.3781 72.5381H27.8813V86.9484C27.8821 87.0541 27.8512 87.1576 27.7925 87.2455C27.7338 87.3334 27.6501 87.4017 27.5522 87.4415C27.4542 87.4813 27.3466 87.4908 27.2432 87.4688C27.1399 87.4468 27.0455 87.3942 26.9723 87.318L22.5117 82.6677C22.4626 82.6156 22.4034 82.5741 22.3377 82.5457C22.272 82.5174 22.2011 82.5027 22.1295 82.5027C22.058 82.5027 21.9871 82.5174 21.9214 82.5457C21.8557 82.5741 21.7965 82.6156 21.7474 82.6677L17.2919 87.318C17.2183 87.3943 17.1236 87.4468 17.02 87.4688C16.9163 87.4909 16.8084 87.4814 16.7102 87.4417C16.6119 87.402 16.5278 87.3338 16.4686 87.2459C16.4094 87.158 16.3778 87.0544 16.3779 86.9484L16.3781 72.5381Z" fill="#FFC73A"/>
<path fill-rule="evenodd" clip-rule="evenodd" d="M19.7091 9.36816H53.0901C53.2993 9.36861 53.4997 9.45192 53.6476 9.59985C53.7955 9.74779 53.8788 9.94829 53.8792 10.1575V20.8515C53.8788 21.0607 53.7955 21.2611 53.6476 21.409C53.4997 21.5569 53.2992 21.6402 53.0901 21.6407H19.7091C19.4999 21.6402 19.2995 21.5569 19.1516 21.409C19.0037 21.2611 18.9204 21.0607 18.9199 20.8515V10.1575C18.9203 9.94829 19.0036 9.74779 19.1515 9.59985C19.2994 9.45192 19.4999 9.36861 19.7091 9.36816Z" fill="#E4F4FF"/>
<path d="M20.1539 31.7244C19.8292 31.7206 19.5191 31.5889 19.2908 31.358C19.0626 31.127 18.9346 30.8154 18.9346 30.4907C18.9346 30.1659 19.0626 29.8543 19.2908 29.6233C19.5191 29.3924 19.8292 29.2607 20.1539 29.2569H43.1405C43.3037 29.255 43.4657 29.2855 43.6171 29.3466C43.7685 29.4078 43.9062 29.4984 44.0223 29.6131C44.1384 29.7279 44.2306 29.8645 44.2935 30.0152C44.3564 30.1658 44.3888 30.3274 44.3888 30.4907C44.3888 30.6539 44.3564 30.8155 44.2935 30.9662C44.2306 31.1168 44.1384 31.2535 44.0223 31.3682C43.9062 31.483 43.7685 31.5735 43.6171 31.6347C43.4657 31.6958 43.3037 31.7263 43.1405 31.7244H20.1539Z" fill="#E4F4FF"/>
<path d="M20.1539 40.576C19.8292 40.5721 19.5191 40.4405 19.2908 40.2095C19.0626 39.9786 18.9346 39.6669 18.9346 39.3422C18.9346 39.0175 19.0626 38.7059 19.2908 38.4749C19.5191 38.244 19.8292 38.1123 20.1539 38.1085H43.1405C43.3037 38.1066 43.4657 38.1371 43.6171 38.1982C43.7685 38.2593 43.9062 38.3499 44.0223 38.4647C44.1384 38.5794 44.2306 38.7161 44.2935 38.8667C44.3564 39.0174 44.3888 39.179 44.3888 39.3422C44.3888 39.5055 44.3564 39.6671 44.2935 39.8177C44.2306 39.9684 44.1384 40.105 44.0223 40.2198C43.9062 40.3345 43.7685 40.4251 43.6171 40.4862C43.4657 40.5474 43.3037 40.5779 43.1405 40.576H20.1539Z" fill="#E4F4FF"/>
<path d="M20.1539 49.4275C19.8292 49.4237 19.5191 49.2921 19.2908 49.0611C19.0626 48.8301 18.9346 48.5185 18.9346 48.1938C18.9346 47.8691 19.0626 47.5574 19.2908 47.3265C19.5191 47.0955 19.8292 46.9639 20.1539 46.96H43.1405C43.3037 46.9581 43.4657 46.9886 43.6171 47.0498C43.7685 47.1109 43.9062 47.2015 44.0223 47.3162C44.1384 47.431 44.2306 47.5676 44.2935 47.7183C44.3564 47.8689 44.3888 48.0305 44.3888 48.1938C44.3888 48.357 44.3564 48.5187 44.2935 48.6693C44.2306 48.8199 44.1384 48.9566 44.0223 49.0713C43.9062 49.1861 43.7685 49.2767 43.6171 49.3378C43.4657 49.3989 43.3037 49.4294 43.1405 49.4275H20.1539Z" fill="#E4F4FF"/>
<path fill-rule="evenodd" clip-rule="evenodd" d="M76.287 9.85238C77.532 10.5757 78.4403 11.7622 78.8137 13.1528C79.1871 14.5435 78.9953 16.0253 78.28 17.275L58.2654 51.9394L48.8555 57.369V46.505L68.8696 11.8404C69.5924 10.5962 70.7784 9.68874 72.1683 9.31636C73.5582 8.94397 75.0389 9.13693 76.287 9.85306V9.85238Z" fill="#FFD56B"/>
<path fill-rule="evenodd" clip-rule="evenodd" d="M76.287 9.85254C77.532 10.5759 78.4403 11.7624 78.8137 13.153C79.1871 14.5436 78.9953 16.0255 78.28 17.2752L58.2654 51.9396L48.8555 57.3692L76.287 9.85254Z" fill="#FFC73A"/>
<path fill-rule="evenodd" clip-rule="evenodd" d="M76.286 9.85204C77.531 10.5754 78.4393 11.7619 78.8127 13.1525C79.1861 14.5431 78.9943 16.025 78.2791 17.2747L68.8691 11.8404C69.592 10.5962 70.7779 9.68874 72.1678 9.31636C73.5577 8.94397 75.0385 9.13693 76.2865 9.85306L76.286 9.85204Z" fill="#FF8080"/>
<path fill-rule="evenodd" clip-rule="evenodd" d="M58.2649 51.9394L48.8545 57.3689V46.5049L58.2649 51.9394Z" fill="#3F4254"/>
<path d="M9.47486 73.3875C9.31163 73.3894 9.14963 73.3589 8.99827 73.2978C8.84691 73.2366 8.70918 73.146 8.59307 73.0313C8.47697 72.9165 8.38478 72.7799 8.32187 72.6293C8.25896 72.4786 8.22656 72.317 8.22656 72.1537C8.22656 71.9905 8.25896 71.8289 8.32187 71.6782C8.38478 71.5276 8.47697 71.3909 8.59307 71.2762C8.70918 71.1614 8.84691 71.0709 8.99827 71.0097C9.14963 70.9486 9.31163 70.9181 9.47486 70.92H62.7256V73.3875H9.47486Z" fill="#CDE7F8"/>
<path fill-rule="evenodd" clip-rule="evenodd" d="M76.2861 9.85254C76.3311 9.87751 76.371 9.90248 76.411 9.92744C76.446 9.94749 76.4859 9.97246 76.526 9.99725C76.5659 10.0224 76.6009 10.0523 76.6408 10.0773C76.829 10.2059 77.0092 10.346 77.1802 10.4968C77.2451 10.5568 77.3102 10.6167 77.3751 10.6816C77.4399 10.7416 77.4999 10.8066 77.5599 10.8715C77.6799 11.0022 77.7933 11.1389 77.8996 11.281C77.9295 11.316 77.9544 11.351 77.9794 11.386C78.1082 11.5645 78.2251 11.7513 78.3291 11.9453C78.349 11.9803 78.369 12.0202 78.3889 12.0601C78.429 12.1352 78.4689 12.215 78.5039 12.295C78.5946 12.4931 78.673 12.6966 78.7386 12.9043C78.7536 12.9444 78.7636 12.9843 78.7786 13.0293C78.7886 13.0692 78.8035 13.1143 78.8136 13.1542C78.8336 13.2391 78.8586 13.324 78.8735 13.409C78.8835 13.4489 78.8936 13.4939 78.9034 13.5338C78.9085 13.5788 78.9185 13.6236 78.9234 13.6636C78.9325 13.7065 78.9392 13.7499 78.9435 13.7935C78.9584 13.8794 78.9684 13.9661 78.9734 14.0532C78.9834 14.1381 78.9883 14.228 78.9934 14.3129C78.9984 14.4029 78.9984 14.4877 78.9984 14.5777V14.7075C78.9993 14.7509 78.9976 14.7943 78.9934 14.8374C78.9934 14.8824 78.9883 14.9273 78.9883 14.9723C78.9834 15.0122 78.9785 15.0572 78.9734 15.1022C78.9685 15.1471 78.9634 15.1921 78.9584 15.232C78.9533 15.277 78.9484 15.3219 78.9435 15.3669C78.9384 15.4068 78.9284 15.4518 78.9234 15.4968C78.9134 15.5416 78.9085 15.5817 78.8985 15.6266C78.8885 15.6716 78.8784 15.7115 78.8686 15.7565C78.8586 15.8015 78.8485 15.8414 78.8385 15.8863C78.8292 15.9302 78.8176 15.9736 78.8035 16.0162C78.7935 16.0612 78.7786 16.1011 78.7685 16.146C78.7523 16.1883 78.739 16.2318 78.7286 16.2759C78.7137 16.3158 78.6987 16.3609 78.6838 16.4008C78.6687 16.4458 78.6488 16.4857 78.6338 16.5307C78.6193 16.5731 78.6026 16.6148 78.5837 16.6556C78.5639 16.6955 78.5489 16.7405 78.5289 16.7804C78.5088 16.8203 78.489 16.8653 78.4689 16.9052C78.454 16.9453 78.429 16.9902 78.409 17.0303C78.3889 17.0702 78.369 17.1101 78.3441 17.1551C78.324 17.195 78.2991 17.2349 78.2792 17.274L73.5742 14.5563L76.2861 9.85254Z" fill="#FF5C5C"/>
</svg>
