<svg width="16" height="14" viewBox="0 0 16 14" fill="none" xmlns="http://www.w3.org/2000/svg">
<path d="M10.6504 9.99227C9.15697 11.0445 8.29157 12.8088 8 13.3337V4.33366C8.22624 3.92642 8.79799 2.89728 9.74057 2.00602C10.4409 1.34377 10.7911 1.01264 11.3956 1.27297C12 1.5333 12 2.12835 12 3.31845V7.82506C12 8.45275 12 8.76659 11.8877 8.98312C11.7754 9.19964 11.4004 9.46385 10.6504 9.99226L10.6504 9.99227Z" stroke="#8B90A7" stroke-linecap="round" stroke-linejoin="round"/>
<path d="M7.99967 4.2037C7.54175 3.72268 6.21418 2.58026 3.98671 2.17972C2.85827 1.9768 2.29405 1.87534 1.81353 2.26422C1.33301 2.6531 1.33301 3.28458 1.33301 4.54756V9.08646C1.33301 10.2413 1.33301 10.8187 1.64141 11.1792C1.9498 11.5397 2.62877 11.6618 3.98671 11.9059C5.19723 12.1236 6.14197 12.4704 6.8258 12.819C7.49859 13.1619 7.83501 13.3333 7.99967 13.3333C8.16434 13.3333 8.50075 13.1619 9.17355 12.819C9.85738 12.4704 10.8021 12.1236 12.0126 11.9059C13.3706 11.6618 14.0495 11.5397 14.3579 11.1792C14.6663 10.8187 14.6663 10.2413 14.6663 9.08646V4.54756C14.6663 3.28458 14.6663 2.6531 14.1858 2.26422C13.7053 1.87534 12.6663 2.17972 11.9997 2.66667" stroke="#8B90A7" stroke-linecap="round" stroke-linejoin="round"/>
</svg>
