<svg width="80" height="80" viewBox="0 0 80 80" fill="none" xmlns="http://www.w3.org/2000/svg">
<path d="M40 0C17.9094 0 0 17.9031 0 40C0 62.0968 17.9094 80 40 80C62.0906 80 80 62.0859 80 40C80 17.9141 62.0906 0 40 0Z" fill="#FF6666"/>
<path d="M3.71469e-05 40C-0.00899241 46.6117 1.62827 53.1215 4.7641 58.9422C8.75922 60.1152 12.9019 60.7093 17.0657 60.7063C41.1125 60.7063 60.6063 41.2125 60.6063 17.1657C60.6098 12.9359 59.9972 8.72817 58.7875 4.67505C53.0049 1.59493 46.5517 -0.0108552 40 5.52282e-05C17.9094 5.52282e-05 3.71469e-05 17.9032 3.71469e-05 40Z" fill="#FF8585"/>
<path fill-rule="evenodd" clip-rule="evenodd" d="M56.8503 48.1258C56.6798 50.9107 56.5446 53.1206 56.2673 54.8859C55.983 56.6963 55.5279 58.2039 54.6175 59.5225C53.7846 60.729 52.7123 61.7472 51.4687 62.5123C50.1095 63.3487 48.5916 63.7145 46.785 63.8894L33.1723 63.8891C31.3637 63.7138 29.8441 63.3474 28.4839 62.5094C27.2395 61.7429 26.1669 60.7229 25.3343 59.5145C24.4242 58.1937 23.9705 56.6838 23.6883 54.8709C23.4131 53.1031 23.2808 50.8901 23.1142 48.1013L21.667 23.8894H58.3337L56.8503 48.1258ZM34.4448 53.247C33.5243 53.247 32.7781 52.5009 32.7781 51.5804L32.7781 38.247C32.7781 37.3266 33.5243 36.5804 34.4448 36.5804C35.3652 36.5804 36.1114 37.3266 36.1114 38.247L36.1114 51.5804C36.1114 52.5009 35.3652 53.247 34.4448 53.247ZM47.2225 38.247C47.2225 37.3266 46.4764 36.5804 45.5559 36.5804C44.6354 36.5804 43.8892 37.3266 43.8892 38.247V51.5804C43.8892 52.5009 44.6354 53.247 45.5559 53.247C46.4764 53.247 47.2225 52.5009 47.2225 51.5804V38.247Z" fill="white"/>
<path fill-rule="evenodd" clip-rule="evenodd" d="M42.9945 16.1844C44.2503 16.2967 45.4306 16.6799 46.444 17.4358C47.1936 17.9949 47.7144 18.6792 48.1592 19.4203C48.5715 20.1071 48.9865 20.9633 49.4573 21.9347L50.4056 23.8909H60.0005C61.2278 23.8909 62.2228 24.8858 62.2228 26.1131C62.2228 27.3404 61.2278 28.3354 60.0005 28.3354C46.6667 28.3354 33.3343 28.3354 20.0005 28.3354C18.7732 28.3354 17.7783 27.3404 17.7783 26.1131C17.7783 24.8858 18.7732 23.8909 20.0005 23.8909H29.8L30.5907 22.1564C31.0497 21.1493 31.4539 20.2623 31.86 19.5506C32.298 18.7828 32.8166 18.0724 33.5752 17.4904C34.6012 16.7033 35.8053 16.3042 37.0893 16.1873C38.0559 16.0993 39.0304 16.1114 40.0005 16.113C41.1356 16.1148 42.156 16.1094 42.9945 16.1844ZM34.6845 23.8909H45.4665C44.9629 22.8523 44.6405 22.1939 44.3485 21.7076C43.9213 20.9957 43.4093 20.6837 42.5986 20.6112C42.0224 20.5596 41.2715 20.5576 40.0773 20.5576C38.8532 20.5576 38.0827 20.5597 37.4922 20.6135C36.6609 20.6891 36.1425 21.0131 35.7203 21.753C35.4437 22.238 35.1425 22.8871 34.6845 23.8909Z" fill="white"/>
</svg>
