<svg width="68" height="68" viewBox="0 0 68 68" fill="none" xmlns="http://www.w3.org/2000/svg">
<path d="M26 4.6188C30.9504 1.76068 37.0496 1.76068 42 4.6188L55.4449 12.3812C60.3953 15.2393 63.4449 20.5214 63.4449 26.2376V41.7624C63.4449 47.4786 60.3953 52.7607 55.4449 55.6188L42 63.3812C37.0496 66.2393 30.9504 66.2393 26 63.3812L12.5551 55.6188C7.60472 52.7607 4.55514 47.4786 4.55514 41.7624V26.2376C4.55514 20.5214 7.60472 15.2393 12.5551 12.3812L26 4.6188Z" fill="#0072BB"/>
<path d="M24.375 34L43.625 34" stroke="white" stroke-width="3" stroke-linecap="round" stroke-linejoin="round"/>
<path d="M35.75 41.875L43.625 34L35.75 26.125" stroke="white" stroke-width="3" stroke-linecap="round" stroke-linejoin="round"/>
</svg>
