<svg clip-rule="evenodd" fill-rule="evenodd" height="512" image-rendering="optimizeQuality" shape-rendering="geometricPrecision" text-rendering="geometricPrecision" viewBox="0 0 29986 29986" width="512" xmlns="http://www.w3.org/2000/svg"><g id="Layer_x0020_1"><circle cx="14993" cy="14993" fill="#3583ea" r="14993"/><path d="m22693 22355h-15400c-734 0-1331-597-1331-1331v-10058h18062v10058c0 734-597 1331-1331 1331zm-12614-4835c-55 0-111-18-157-56l-340-278v114c0 136-111 246-247 246-137 0-247-110-247-246v-115l-341 279c-105 86-261 71-348-35-86-105-70-261 35-347l654-535v-1483c-108-93-123-206-123-260 0-143 90-346 515-502l5090-1861c356-130 910-204 1237-84l5551 2029c257 94 284 278 284 352 0 144-89 347-515 502l-2018 738v3511c1 1133-2217 1535-4116 1535-1037 0-2007-118-2731-332-1146-339-1386-841-1386-1203v-3738l-1294-474v1271l653 534c179 147 74 438-156 438zm1624-2693c-273 0-342-385-84-479l2890-1057c128-47 270 19 317 147s-19 270-147 317l-2891 1056c-28 11-57 16-85 16zm3290 4964c-1233 0-2737-142-3623-523v221c0 574 1625 1041 3623 1041s3623-467 3623-1041v-221c-886 381-2390 523-3623 523zm-3623-1072c1341 769 5905 769 7246 0v-2560l-2579 943c-317 116-888 211-1237 84l-3430-1255zm3737-1971c220 18 528-26 760-111l2910-1064 2181-797c5-2 10-3 14-5l-5335-1951c-157-57-575-34-897 84l-5090 1862c-5 1-10 3-15 5l5335 1951c34 12 81 21 137 26zm-3791-7449h-747c-136 0-247-111-247-247 0-137 111-247 247-247h747c137 0 247 110 247 247 0 136-110 247-247 247zm-1515 0h-747c-136 0-247-111-247-247 0-137 111-247 247-247h747c136 0 247 110 247 247 0 136-111 247-247 247zm-1515 0h-747c-136 0-247-111-247-247 0-137 111-247 247-247h747c136 0 247 110 247 247 0 136-111 247-247 247zm-2324 1173v-1510c0-733 597-1331 1331-1331h15400c734 0 1331 597 1331 1331v1510z" fill="#fff"/></g></svg>