<svg width="100" height="100" viewBox="0 0 100 100" fill="none" xmlns="http://www.w3.org/2000/svg">
<path d="M64.0431 30.7668C62.765 29.4943 60.6928 29.4943 59.4146 30.7668L53.272 36.8822V9.25834C53.272 7.45939 51.8061 6 49.9991 6C48.1922 6 46.7263 7.45939 46.7263 9.25834V36.8685L40.5871 30.7565C39.309 29.4841 37.2367 29.4841 35.9586 30.7565C34.6805 32.029 34.6805 34.092 35.9586 35.3645L47.6168 46.9728C48.0096 47.3878 48.5074 47.6999 49.0724 47.8662H49.0759C49.174 47.8954 49.2739 47.9194 49.3756 47.94C49.3894 47.9434 49.4049 47.9434 49.4186 47.9468C49.5065 47.9623 49.5943 47.976 49.6839 47.9846C49.7511 47.9914 49.8165 47.9914 49.8837 47.9949C49.9216 47.9949 49.9578 48 49.9974 48H50.0009C50.0009 48 50.0026 48 50.0043 48C50.1128 48 50.2214 47.9949 50.3299 47.9828C50.3368 47.9828 50.3437 47.9811 50.3505 47.9794C50.4522 47.9691 50.5538 47.9537 50.6537 47.9331C50.6606 47.9331 50.6675 47.9297 50.6761 47.928C51.2773 47.8028 51.8509 47.5095 52.3177 47.0448L64.0414 35.3731C65.3195 34.1006 65.3195 32.0376 64.0414 30.7651L64.0431 30.7668Z" fill="#4CCC82"/>
<path d="M50 93.9946C41.5523 94.0902 28.7767 92.8954 24.1962 91.972C16.6783 90.4427 9.4096 83.5967 7.75271 76.254C7.02052 72.7533 6.29692 65.1955 6.00473 58.0781C5.95832 56.9414 6.25567 55.8285 6.80052 54.8488C8.66538 51.6332 15.6969 51.0665 15.6969 51.0665C20.2292 50.6245 24.7702 50.2712 29.3129 50.0049C30.5625 49.9315 31.7123 50.691 32.1179 51.867C32.9997 54.4341 34.0344 57.0574 34.6136 58.2403C35.9938 61.0924 39.4141 63.8489 42.4598 64.4787C44.3023 64.8371 46.7687 65.1904 50 65.1955C53.2313 65.1904 55.6977 64.8371 57.5402 64.4787C60.5859 63.8489 64.0062 61.0906 65.3864 58.2403C65.9656 57.0574 67.0003 54.4341 67.882 51.867C68.2859 50.6893 69.4358 49.9315 70.6871 50.0049C75.2315 50.2712 79.7707 50.6262 84.3031 51.0665C84.3031 51.0665 91.3346 51.6332 93.1995 54.8488C93.746 55.8285 94.0417 56.9414 93.9952 58.0781C93.7031 65.1955 92.9795 72.7533 92.2455 76.2523C90.5887 83.595 83.32 90.441 75.8021 91.9703C71.2216 92.8954 58.4477 94.0902 49.9983 93.9929L50 93.9946Z" fill="#0072BB"/>
<path d="M64.6689 21.4239C68.5291 22.107 72.374 24.9873 74.4929 28.7755L84.1895 50.2067C84.1316 50.2016 84.0755 50.1965 84.0177 50.1914C84.0755 50.1999 84.1316 50.2084 84.1895 50.2135C84.1895 50.2135 91.1464 50.779 92.9915 53.9881C92.9932 53.9915 92.9983 53.9966 93 54C92.9966 53.9932 92.9949 53.9881 92.9915 53.9813L80.2731 25.8696L80.2136 25.7606C77.1543 20.1873 71.6292 16.0823 65.7946 15.0501C64.0363 14.7384 62.3612 15.9137 62.05 17.6732C61.7388 19.4327 62.9122 21.1122 64.6689 21.4239Z" fill="#005B96"/>
<path d="M7.0102 53.9864C8.8552 50.7756 15.8118 50.2118 15.8118 50.2118C15.8815 50.205 15.9529 50.1965 16.0226 50.1863C15.9529 50.1931 15.8832 50.1982 15.8118 50.2067L25.5078 28.7755C27.6265 24.9873 31.4713 22.107 35.3313 21.4239C37.0879 21.1122 38.2612 19.4345 37.95 17.6732C37.6388 15.9137 35.9639 14.7384 34.2056 15.0501C28.3696 16.0823 22.8448 20.1873 19.7874 25.7606L19.7279 25.8696L7.0102 53.9796C7.0102 53.9796 7.0034 53.9932 7 54C7.0034 53.9949 7.0085 53.9898 7.0102 53.9847V53.9864Z" fill="#005B96"/>
<path d="M56 64.6493C54.3112 64.9358 52.1852 65.1779 49.5388 65.1813C46.3414 65.1762 43.9009 64.8233 42.0776 64.4652C39.0639 63.8359 35.6794 61.0803 34.3137 58.2326C33.7406 57.0509 32.7167 54.4299 31.8442 51.8653C31.4445 50.6887 30.3067 49.9316 29.0686 50.0049C24.5718 50.2709 20.0801 50.6256 15.5952 51.0655C15.5952 51.0655 8.63747 51.6317 6.79215 54.8443C6.25131 55.8231 5.95878 56.9349 6.0047 58.0706C6.18498 62.4922 6.52853 67.0827 6.93841 70.7642C12.9012 73.4841 19.5257 75 26.5039 75C37.6591 75 47.9112 71.1257 56 64.6493Z" fill="#2E8CC9"/>
</svg>
