<svg width="20" height="16" viewBox="0 0 20 16" fill="none" xmlns="http://www.w3.org/2000/svg">
<path opacity="0.4" d="M8.01272 14.9699L8.01101 14.9726C7.60281 15.6185 6.86895 16.0093 6.08206 15.9995C5.295 15.9897 4.57208 15.5809 4.18156 14.9248C2.95203 12.8593 2.07719 12.3383 1.87929 12.2413C0.814822 12.083 0 11.1995 0 10.1333C0 8.95509 0.994893 8 2.22216 8C2.52527 8.01119 2.81135 8.04277 3.19105 8.15875C3.60806 8.28613 4.08693 8.50241 4.60756 8.85227C6.77554 10.3092 8.82613 13.7561 8.82613 13.7561C8.54861 14.1563 8.27579 14.56 8.01272 14.9699Z" fill="#0072BB"/>
<path d="M18.5302 3.99754C19.689 3.2526 20.2877 2.49635 19.8608 1.39176C19.4339 0.287177 18.155 -0.276028 17.0044 0.133808C15.2398 0.762348 13.575 1.95115 12.135 3.22116C10.6702 4.51309 9.30432 6.00967 8.14714 7.40472C6.59473 9.27624 5.15701 11.2552 3.85303 13.3108C3.68371 13.5777 3.59905 13.7112 3.59961 13.8574C3.60017 14.0037 3.69144 14.1452 3.87397 14.4281C3.97387 14.583 4.07653 14.7484 4.18171 14.9251C4.57223 15.5812 5.29516 15.99 6.08222 15.9998C6.85241 16.0094 7.59842 15.6231 8.01287 14.9702C8.3321 14.4728 8.66523 13.9843 9.00477 13.5005C9.64662 12.586 10.555 11.351 11.6238 10.0625C12.697 8.76873 13.9045 7.4543 15.1418 6.36298C16.404 5.24975 17.5952 4.5986 18.5302 3.99754Z" fill="#0072BB"/>
</svg>
