<svg width="20" height="20" viewBox="0 0 20 20" fill="none" xmlns="http://www.w3.org/2000/svg">
<path d="M2.91699 8.33366C2.91699 5.19096 2.91699 3.61961 3.95432 2.6433C4.99165 1.66699 6.66121 1.66699 10.0003 1.66699H10.6443C13.3619 1.66699 14.7208 1.66699 15.6644 2.33185C15.9348 2.52235 16.1748 2.74826 16.3772 3.00273C17.0837 3.89089 17.0837 5.16979 17.0837 7.7276V9.84881C17.0837 12.3181 17.0837 13.5528 16.6929 14.5389C16.0646 16.1241 14.736 17.3746 13.0517 17.9659C12.004 18.3337 10.6921 18.3337 8.06851 18.3337C6.56928 18.3337 5.81967 18.3337 5.22097 18.1235C4.25849 17.7856 3.49928 17.0711 3.1403 16.1652C2.91699 15.6017 2.91699 14.8962 2.91699 13.4852V8.33366Z" stroke="#8B90A7" stroke-width="1.5" stroke-linejoin="round"/>
<path d="M17.0833 10C17.0833 11.5341 15.8397 12.7778 14.3056 12.7778C13.7507 12.7778 13.0966 12.6806 12.5572 12.8251C12.0779 12.9535 11.7035 13.3279 11.5751 13.8072C11.4306 14.3466 11.5278 15.0007 11.5278 15.5556C11.5278 17.0897 10.2841 18.3333 8.75 18.3333" stroke="#8B90A7" stroke-width="1.5" stroke-linecap="round" stroke-linejoin="round"/>
<path d="M6.66699 5.83398H12.5003" stroke="#8B90A7" stroke-width="1.5" stroke-linecap="round" stroke-linejoin="round"/>
<path d="M6.66699 9.16699H9.16699" stroke="#8B90A7" stroke-width="1.5" stroke-linecap="round" stroke-linejoin="round"/>
</svg>
