<svg width="100" height="100" viewBox="0 0 100 100" fill="none" xmlns="http://www.w3.org/2000/svg">
<path d="M46 85.001C66.9868 85.001 84 67.9878 84 47.001C84 26.0142 66.9868 9.00098 46 9.00098C25.0132 9.00098 8 26.0142 8 47.001C8 67.9878 25.0132 85.001 46 85.001Z" fill="#2E8CC9"/>
<path d="M84 47.0009C84 26.0142 67.2142 9.00098 46.508 9.00098C45.6651 9.00098 44.8292 9.03202 44 9.08765C62.6635 10.3374 77.5935 25.4273 78.8904 44.3255C78.9786 45.6096 77.9401 46.6714 76.6705 46.6439C76.4759 46.6398 76.2807 46.6377 76.0851 46.6377C60.6222 46.6377 48.0869 59.3428 48.0869 75.0152C48.0869 76.4869 48.1979 77.9323 48.4114 79.3434C48.8335 82.1325 46.8345 84.7201 44.0568 84.9105C44.0379 84.9118 44.0189 84.913 44 84.9143C44.8292 84.9697 45.6651 85.001 46.508 85.001C67.3366 85.0008 84 67.8475 84 47.0009Z" fill="#0072BB"/>
<path d="M46 76C62.0163 76 75 63.0163 75 47C75 30.9837 62.0163 18 46 18C29.9837 18 17 30.9837 17 47C17 63.0163 29.9837 76 46 76Z" fill="#F4FBFF"/>
<path d="M75 47C75 30.9839 62.1546 18 46.3088 18C45.5314 18 44.7617 18.0323 44 18.0937C58.821 19.2867 70.4687 31.8625 70.3819 47.1701C70.3813 47.1708 70.3808 47.1713 70.3803 47.172C58.2738 49.5777 49.2444 59.78 48.024 71.954C47.8141 74.0468 46.1927 75.7205 44.1188 75.8964C44.0793 75.8998 44.0397 75.903 44 75.9062C60.7068 77.2518 75 63.9477 75 47Z" fill="#DAF1F4"/>
<path d="M46.0505 26.7746C45.2835 26.7746 44.6621 26.153 44.6621 25.3862V23.4235C44.6621 22.6566 45.2837 22.0352 46.0505 22.0352C46.8173 22.0352 47.4389 22.6567 47.4389 23.4235V25.3862C47.4389 26.153 46.8174 26.7746 46.0505 26.7746Z" fill="#365E7D"/>
<path d="M61.2967 33.0904C60.9412 33.0904 60.586 32.9547 60.3148 32.6836C59.7726 32.1414 59.7726 31.2623 60.315 30.72L61.7028 29.3323C62.245 28.7902 63.1241 28.7903 63.6664 29.3325C64.2086 29.8746 64.2086 30.7537 63.6662 31.2961L62.2784 32.6837C62.0074 32.9547 61.652 33.0904 61.2967 33.0904Z" fill="#365E7D"/>
<path d="M69.5739 48.3334H67.611C66.8441 48.3334 66.2227 47.7118 66.2227 46.945C66.2227 46.178 66.8442 45.5566 67.611 45.5566H69.5739C70.3409 45.5566 70.9623 46.1782 70.9623 46.945C70.9623 47.7118 70.3407 48.3334 69.5739 48.3334Z" fill="#365E7D"/>
<path d="M46.6208 72.4291C45.8538 72.4291 45.2324 71.8075 45.2324 71.0407V69.0778C45.2324 68.3109 45.854 67.6895 46.6208 67.6895C47.3876 67.6895 48.0092 68.311 48.0092 69.0778V71.0407C48.0093 71.8077 47.3878 72.4291 46.6208 72.4291Z" fill="#365E7D"/>
<path d="M29.4159 64.9675C29.0606 64.9675 28.7051 64.8318 28.434 64.5608C27.8918 64.0185 27.8918 63.1396 28.434 62.5971L29.8218 61.2092C30.3641 60.6672 31.2431 60.6672 31.7856 61.2092C32.3277 61.7516 32.3277 62.6305 31.7856 63.173L30.3977 64.5608C30.1264 64.832 29.7711 64.9675 29.4159 64.9675Z" fill="#365E7D"/>
<path d="M24.4897 48.3334H22.527C21.7601 48.3334 21.1387 47.7118 21.1387 46.945C21.1387 46.178 21.7603 45.5566 22.527 45.5566H24.4899C25.2569 45.5566 25.8783 46.1782 25.8783 46.945C25.8783 47.7118 25.2567 48.3334 24.4897 48.3334Z" fill="#365E7D"/>
<path d="M30.8037 33.0904C30.4484 33.0904 30.0929 32.9547 29.822 32.6837L28.4341 31.2961C27.8918 30.7539 27.8918 29.8748 28.4339 29.3325C28.9763 28.7902 29.8554 28.7903 30.3975 29.3323L31.7854 30.72C32.3277 31.2621 32.3277 32.1412 31.7855 32.6836C31.5144 32.9547 31.1589 33.0904 30.8037 33.0904Z" fill="#365E7D"/>
<path d="M46.0513 48.9083H39.3044C38.5374 48.9083 37.916 48.2867 37.916 47.52C37.916 46.7532 38.5376 46.1316 39.3044 46.1316H44.6629V34.3806C44.6629 33.6136 45.2845 32.9922 46.0513 32.9922C46.8181 32.9922 47.4396 33.6138 47.4396 34.3806V47.5201C47.4396 48.2867 46.8182 48.9083 46.0513 48.9083Z" fill="#2B4D66"/>
<path d="M74 55C64.0592 55 56 63.0592 56 73C56 82.9408 64.0592 91 74 91C83.9408 91 92 82.9408 92 73C92 63.0592 83.9408 55 74 55Z" fill="#FFB909"/>
<path d="M64.4453 83.0849C75.2656 83.0849 84.0378 74.3128 84.0378 63.4924C84.0403 61.4448 83.7214 59.4096 83.0928 57.461C80.3357 55.8442 77.1962 54.9945 74 55C64.0592 55 56 63.0592 56 73C55.9951 76.2265 56.8619 79.3943 58.5088 82.1688C60.4287 82.7778 62.4311 83.0868 64.4453 83.0849Z" fill="#FFD56B"/>
<path d="M73.9921 85.2106C73.4136 85.2106 72.848 85.0391 72.367 84.7178C71.8859 84.3964 71.5109 83.9397 71.2894 83.4052C71.0679 82.8708 71.0098 82.2827 71.1224 81.7152C71.2351 81.1477 71.5134 80.6264 71.9223 80.2172C72.3312 79.8079 72.8523 79.529 73.4196 79.4158C73.987 79.3026 74.5751 79.3601 75.1098 79.5811C75.6444 79.8022 76.1016 80.1767 76.4234 80.6575C76.7452 81.1382 76.9173 81.7036 76.9178 82.2821C76.9182 82.6666 76.8428 83.0473 76.6959 83.4026C76.549 83.7579 76.3336 84.0808 76.0619 84.3527C75.7902 84.6247 75.4675 84.8405 75.1124 84.9877C74.7572 85.1349 74.3766 85.2106 73.9921 85.2106ZM76.8278 75.1349C76.7786 75.587 76.5744 76.0081 76.2498 76.3267C75.9211 76.6475 75.4933 76.8475 75.0362 76.8941H75.0229C74.7362 76.9269 74.448 76.9433 74.1595 76.9433C73.8136 76.9451 73.4679 76.9286 73.1237 76.8941H73.1097C72.6529 76.8474 72.2254 76.6474 71.8968 76.3267C71.5723 76.0081 71.3681 75.587 71.3188 75.1349C71.2485 74.4746 71.2134 69.8896 71.2134 68.8679C71.2134 67.8463 71.2492 63.2492 71.3188 62.589C71.3673 62.1357 71.5715 61.7132 71.8968 61.3937C72.2257 61.0734 72.653 60.8735 73.1097 60.8263H73.1237C73.4678 60.7919 73.8139 60.7813 74.1595 60.7946C74.4474 60.7813 74.736 60.7919 75.0222 60.8263H75.0362C75.4939 60.8749 75.9216 61.0768 76.2498 61.3993C76.5751 61.7188 76.7794 62.1413 76.8278 62.5946C76.8981 63.2549 76.9333 67.8526 76.9333 68.8735C76.9333 69.8945 76.8974 74.4774 76.8278 75.1349Z" fill="white"/>
</svg>
