<svg width="335" height="260" viewBox="0 0 335 260" fill="none" xmlns="http://www.w3.org/2000/svg">
<g clip-path="url(#clip0_1437_45247)">
<path d="M203.322 258.203C203.322 258.203 236.18 242.014 241.83 233.571C247.48 225.128 239.182 224.65 239.182 224.65C239.182 224.65 253.846 210.4 251.782 204.403C249.719 198.405 242.123 203.905 242.123 203.905C242.123 203.905 251.553 182.934 247.107 180.826C238.827 176.899 227.21 199.463 227.21 199.463C227.21 199.463 229.706 189.66 224.004 189.98C215.406 190.46 215.76 212.632 215.76 212.632C215.76 212.632 214.789 204.131 209.606 206.892C200.3 211.847 203.322 258.203 203.322 258.203Z" fill="#355389"/>
<path d="M207.726 203.462C211.774 201.219 215.805 207.777 215.805 207.777C215.805 207.777 215.397 190.46 223.995 189.98C229.698 189.66 227.201 199.463 227.201 199.463C227.201 199.463 238.819 176.899 247.099 180.826L203.282 257.841C202.973 252.464 199.709 207.908 207.726 203.462Z" fill="#466EB6"/>
<path d="M204.17 258.401C204.17 258.401 231.043 261.736 238.001 258.764C244.959 255.791 239.973 252.12 239.973 252.12C239.973 252.12 254.915 249.187 256.068 244.607C257.221 240.028 250.328 240.393 250.328 240.393C250.328 240.393 264.653 231.125 262.738 228.004C259.17 222.193 242.748 231.55 242.748 231.55C242.748 231.55 248.292 226.45 244.606 224.333C239.046 221.142 230.252 235.117 230.252 235.117C230.252 235.117 230.798 231.672 226.442 231.291C218.626 230.606 204.17 258.401 204.17 258.401Z" fill="#355389"/>
<path d="M226.267 228.789C230.622 229.17 230.253 235.118 230.253 235.118C230.253 235.118 239.206 218.554 244.766 221.745C248.452 223.862 244.091 230.812 244.091 230.812C244.091 230.812 259.171 222.195 262.739 228.006L204.09 258.254C206.083 254.774 218.966 228.149 226.267 228.789Z" fill="#466EB6"/>
<path d="M133.923 257.356C133.923 257.356 101.065 241.167 95.4131 232.725C89.7616 224.282 98.0614 223.804 98.0614 223.804C98.0614 223.804 83.3969 209.554 85.4608 203.556C87.5247 197.558 95.2224 203.29 95.2224 203.29C95.2224 203.29 85.6885 182.087 90.1377 179.979C98.418 176.053 110.033 198.617 110.033 198.617C110.033 198.617 107.537 188.814 113.24 189.133C121.838 189.613 121.483 211.785 121.483 211.785C121.483 211.785 122.454 203.284 127.637 206.047C136.945 211 133.923 257.356 133.923 257.356Z" fill="#355389"/>
<path d="M129.518 202.616C125.469 200.372 121.439 206.931 121.439 206.931C121.439 206.931 121.847 189.613 113.248 189.133C107.546 188.814 110.042 198.617 110.042 198.617C110.042 198.617 98.4268 176.053 90.1465 179.979L133.956 256.989C134.271 251.618 137.535 207.066 129.518 202.616Z" fill="#466EB6"/>
<path d="M133.073 257.557C133.073 257.557 106.2 260.891 99.2425 257.92C92.2845 254.95 97.2704 251.277 97.2704 251.277C97.2704 251.277 82.3287 248.345 81.1776 243.759C80.0265 239.172 87.1574 239.629 87.1574 239.629C87.1574 239.629 72.5901 230.28 74.5057 227.154C78.0738 221.355 94.4949 230.705 94.4949 230.705C94.4949 230.705 88.9512 225.603 92.6376 223.488C98.1973 220.295 106.993 234.27 106.993 234.27C106.993 234.27 106.446 230.825 110.801 230.444C118.617 229.761 133.073 257.557 133.073 257.557Z" fill="#355389"/>
<path d="M110.344 225.779C105.987 226.162 106.056 230.388 106.056 230.388C106.056 230.388 98.0386 217.707 92.4789 220.898C88.7925 223.015 93.1534 229.965 93.1534 229.965C93.1534 229.965 78.074 221.355 74.5059 227.158L133.157 257.407C131.162 253.926 117.643 225.14 110.344 225.779Z" fill="#466EB6"/>
<path d="M289.996 178.688C290.805 176.748 291.628 174.797 293.725 173.812C295.422 173.015 297.196 173.315 298.704 174.449C302.978 177.66 299.255 181.198 304.119 187.286C305.63 189.179 307.461 190.707 308.367 192.931C309.634 196.034 308.125 197.518 305.704 199.012C294.124 206.123 288.049 191.52 288.272 188.181C288.439 185.688 289.476 179.941 289.996 178.688Z" fill="#13375B"/>
<path d="M283.024 243.441C283.415 245.182 283.947 246.888 284.613 248.543C284.672 248.67 285.205 249.125 285.268 249.249C285.092 252.424 283.15 254.377 281.296 255.776C281.649 254.165 282.505 252.3 282.375 251.949C281.634 249.782 280.729 247.674 279.67 245.643C281.245 245.424 281.773 244.447 283.024 243.441Z" fill="#F7A491"/>
<path d="M290.171 205.71L300.03 213.191C300.03 213.191 295.149 217.884 293.321 219.627C291.494 221.369 280.194 229.491 280.034 229.892C279.916 230.188 282.604 239.523 284.338 244.507C283.297 245.565 281.001 246.613 279.644 246.957C276.226 240.441 272.025 229.316 272.025 227.81C272.02 225.351 290.171 205.71 290.171 205.71Z" fill="#355389"/>
<path d="M317.825 220.635C317.503 220.949 315.364 225.114 314.548 227.339C313.356 226.589 312.636 225.695 311.305 225.19C312.355 223.671 314.403 220.014 314.573 219.145C314.972 217.081 315.441 216.777 315.441 216.777C315.441 216.777 322.366 219.118 322.828 219.776C323.291 220.434 319.121 219.374 317.825 220.635Z" fill="#F7A491"/>
<path d="M314.492 219.609C313.962 219.609 314.538 217.183 314.668 216.624C314.808 215.996 315.171 215.807 315.261 215.784C315.507 215.724 323.206 218.326 324.506 219.261C324.609 219.352 324.699 219.456 324.776 219.57C325.482 220.896 319.142 221.149 318.229 220.568C317.41 220.053 316.909 219.602 314.492 219.609Z" fill="#3C8F7C"/>
<path d="M288.066 207.918L296.672 204.444C296.636 204.458 296.723 204.797 296.73 204.82C297.537 207.958 301.85 206.748 303.615 212.201C304.871 216.054 306.709 230.462 306.709 230.462C306.709 230.462 308.012 227.993 312.06 223.427C312.374 223.074 316.362 225.812 316.362 225.812C313.396 233.669 306.114 240.053 305.127 239.602C298.464 236.547 290.46 212.448 290.473 212.45C289.719 210.975 288.066 207.918 288.066 207.918Z" fill="#466EB6"/>
<path d="M287.748 182.557C287.748 182.557 283.712 176.173 283.01 174.049C282.307 171.925 283.01 161.812 283.071 161.092C283.133 160.372 285.577 158.409 285.19 157.844C284.803 157.28 281.44 156.818 280.873 156.929C280.307 157.04 279.21 156.929 278.755 157.393C278.696 157.453 279.826 160.115 279.802 160.527C279.641 163.35 278.036 172.32 278.566 174.747C279.17 177.536 285.162 186.454 285.162 186.454L287.748 182.557Z" fill="#F7A491"/>
<path d="M302.404 186.275C302.404 186.275 313.2 186.543 315.57 186.737C317.939 186.931 326.541 186.208 326.869 186.178C327.198 186.148 329.406 182.412 329.772 182.812C330.137 183.213 328.546 184.661 329.039 185.037C329.532 185.412 334.821 184.571 334.751 184.961C334.62 185.693 331.534 185.599 331.535 185.952C331.537 186.305 334.766 185.755 334.985 186.34C335.204 186.926 331.882 186.578 331.747 186.84C331.613 187.101 334.83 187.58 334.502 188.126C334.325 188.422 331.654 187.632 331.666 188.036C331.679 188.44 333.628 189.357 333.388 189.678C333.147 189.999 331.859 188.692 330.729 188.676C329.599 188.66 328.787 188.069 326.986 188.565C325.185 189.061 319.041 191.535 315.183 191.354C311.325 191.172 302.824 190.793 302.824 190.793L302.404 186.275Z" fill="#F7A491"/>
<path d="M286.557 197.54C286.411 195.76 286.162 190.959 286.243 190.37C285.713 188.521 283.739 185.783 283.326 185.007C283.326 185.007 285.992 181.989 287.969 182.008C287.969 182.008 290.072 184.654 291.633 185.474C291.656 185.474 292.186 185.709 292.419 185.709C293.925 185.698 299.191 185.532 300.173 185.831L299.617 193.961C299.334 194.427 298.99 203.776 298.407 204.545C297.825 205.315 289.348 208.818 287.943 207.913C287.888 207.885 286.85 201.136 286.557 197.54Z" fill="#50BFA5"/>
<path d="M297.432 186.026C298.403 185.562 305.498 185.578 305.498 185.578C305.498 185.578 306.482 190.468 305.687 191.645C305.687 191.645 299.402 192.578 299.582 193.093L297.432 186.026Z" fill="#50BFA5"/>
<path d="M295.856 182.723C295.856 182.723 295.31 185.545 295.42 186.656C295.529 187.768 295.003 191.354 292.646 191.366C290.289 191.379 292.199 186.808 292.422 185.721C292.644 184.635 292.695 181.255 292.695 181.255L295.856 182.723Z" fill="#F7A491"/>
<path d="M292.645 182.943C292.68 182.02 292.692 181.249 292.692 181.249L295.854 182.722C295.854 182.722 295.743 183.299 295.63 184.034C294.246 184.31 293.243 183.798 292.645 182.943Z" fill="#F47458"/>
<path d="M297.01 174.937C297.804 175.428 298.396 176.187 298.68 177.077C299.125 178.539 298.618 182.314 295.472 183.226C292.326 184.138 290.963 181.148 291.611 178.816C292.259 176.484 293.66 173.512 297.01 174.937Z" fill="#F7A491"/>
<path d="M291.209 177.903C291.271 178.531 291.617 179.01 291.984 178.975C292.351 178.94 292.596 178.4 292.535 177.772C292.473 177.144 292.127 176.664 291.76 176.701C291.392 176.738 291.147 177.275 291.209 177.903Z" fill="#F7A491"/>
<path d="M284.644 248.62C284.82 248.114 286.884 249.634 287.368 249.939C287.914 250.292 287.967 250.689 287.958 250.783C287.931 251.028 283.046 257.486 281.584 258.402C281.419 258.48 281.234 258.504 281.055 258.47C280.214 258.179 281.385 253.002 282.439 251.943C283.126 251.264 283.828 250.892 284.644 248.62Z" fill="#3C8F7C"/>
<path d="M302.564 152.173L293.897 155.251C293.679 155.329 293.484 155.458 293.327 155.628C293.171 155.798 293.058 156.003 292.998 156.227L290.627 165.13C290.558 165.386 290.419 165.619 290.225 165.801C290.031 165.982 289.79 166.106 289.529 166.158C289.268 166.21 288.998 166.187 288.749 166.094C288.501 166 288.283 165.838 288.122 165.627L282.509 158.315C282.368 158.132 282.185 157.986 281.976 157.889C281.766 157.792 281.536 157.748 281.305 157.759L272.124 158.238C271.858 158.251 271.594 158.19 271.361 158.061C271.128 157.932 270.935 157.741 270.805 157.509C270.675 157.276 270.613 157.013 270.624 156.747C270.636 156.481 270.722 156.224 270.872 156.004L276.072 148.406C276.202 148.216 276.285 147.996 276.311 147.767C276.338 147.537 276.309 147.304 276.225 147.089L272.92 138.48C272.825 138.232 272.8 137.963 272.85 137.702C272.899 137.441 273.021 137.199 273.201 137.004C273.381 136.808 273.612 136.667 273.868 136.596C274.125 136.525 274.396 136.527 274.651 136.601L283.478 139.218C283.699 139.284 283.934 139.295 284.16 139.25C284.387 139.206 284.599 139.106 284.778 138.96L291.921 133.162C292.128 132.994 292.377 132.888 292.642 132.855C292.906 132.822 293.174 132.863 293.415 132.975C293.657 133.086 293.863 133.263 294.009 133.485C294.155 133.708 294.236 133.966 294.243 134.232L294.497 143.448C294.504 143.679 294.566 143.905 294.679 144.107C294.792 144.309 294.953 144.48 295.147 144.607L302.867 149.631C303.09 149.776 303.268 149.981 303.38 150.223C303.493 150.464 303.536 150.732 303.504 150.996C303.473 151.26 303.368 151.51 303.202 151.718C303.036 151.926 302.815 152.084 302.564 152.173Z" fill="#F7CC7F"/>
<path d="M285.135 157.932C285.458 158.407 283.707 159.91 283.221 160.74L282.121 159.243C282.663 159.137 284.766 157.39 285.135 157.932Z" fill="#F7A491"/>
<path d="M296.641 174.747C296.641 174.747 297.211 178.958 298.583 179.718C299.955 180.478 299.374 182.347 299.374 182.347C299.374 182.347 300.61 178.009 299.533 176.615C298.456 175.222 296.641 174.747 296.641 174.747Z" fill="#13375B"/>
<path d="M297.768 180.323C297.397 180.872 297.399 181.519 297.768 181.768C298.137 182.016 298.74 181.768 299.109 181.226C299.478 180.685 299.477 180.03 299.109 179.781C298.742 179.533 298.137 179.774 297.768 180.323Z" fill="#F7A491"/>
<path d="M282.488 158.285C282.488 158.296 282.506 158.305 282.513 158.315L282.912 158.836C282.619 158.756 282.061 158.597 281.516 158.97C281.516 158.97 281.696 158.585 282.488 158.285Z" fill="#F47257"/>
<path d="M45.6342 205.083C45.7401 205.127 44.2218 207.073 42.7599 208.447C41.5735 209.934 40.4647 211.695 40.0781 213.614C39.4972 216.533 39.981 230.951 39.4743 231.978C35.1222 236.229 31.969 246.9 31.0845 250.147C30.9121 250.782 30.5631 251.354 30.0781 251.799L30.2723 255.478L32.4386 257.475C32.4386 257.475 31.9566 254.476 32.9189 252.254C32.9189 252.254 43.8775 235.672 44.5272 234.405C45.7631 230.796 50.2969 212.302 50.2969 212.302L51.3563 208.05L45.6342 205.083Z" fill="#F7A491"/>
<path d="M27.709 252.99C27.709 252.99 29.079 255.107 29.1956 255.92C29.3121 256.733 30.0412 258.603 30.8481 258.721C31.0246 258.748 34.1673 258.979 34.1443 258.587C34.1267 258.287 32.9914 257.86 32.4636 257.495C31.5525 256.867 30.1383 251.746 30.1383 251.746C30.1383 251.746 27.769 252.334 27.709 252.99Z" fill="#F47458"/>
<path d="M54.9991 211.477C54.9991 211.477 62.0613 226.556 62.1036 229.207C62.1425 231.479 60.8678 244.23 61.2209 254.848C61.2332 255.232 61.7205 255.74 62.4267 256.065C62.8257 256.241 64.7466 257.106 64.7466 257.106L65.0115 257.792L58.3907 257.319L58.2954 255.513C58.2954 255.513 55.6612 239.636 55.9296 235.138C55.972 234.432 56.3145 230.198 56.3145 230.198L48.3555 214.842L53.3607 208.27L54.9991 211.477Z" fill="#F7A491"/>
<path d="M55.6615 177.629C54.6022 174.782 51.7985 173.057 48.8889 173.59C48.444 172.873 47.8614 172.252 47.1746 171.762C46.4879 171.272 45.7108 170.923 44.8882 170.735C41.6944 170.051 37.3742 171.312 37.4907 174.692C36.2548 176.962 36.2036 180.208 38.0998 181.935C37.4395 184.989 40.3014 187.933 44.0214 187.832C45.3173 189.969 47.7855 191.341 50.2396 191.048C50.8292 190.978 51.7279 190.831 51.8762 190.872C51.689 190.838 55.8186 194.001 59.3197 189.136C62.8896 184.167 60.3807 178.158 55.6615 177.629Z" fill="#355389"/>
<path d="M55.2406 160.552C55.4131 160.144 55.6261 159.755 55.8762 159.389L56.1516 158.987C56.1852 158.915 56.2117 158.855 56.2258 158.811C56.3458 158.458 56.254 157.308 56.254 157.308L53.8406 157.892L53.3109 159.285C52.7724 159.036 51.8543 157.168 51.5207 157.618C51.1234 158.147 52.6153 160.441 52.7336 161.063C52.8519 161.686 51.45 171.334 51.0457 173.249C50.6414 175.165 47.9102 180.514 47.9102 180.514L50.4084 183.689C50.4084 183.689 54.4144 175.534 54.6774 173.043C54.7057 172.782 54.7374 172.39 54.771 171.905L55.2406 160.552Z" fill="#F7A491"/>
<path d="M38.5966 190.765L35.6287 188.251C35.6287 188.251 33.2258 192.253 31.3014 195.517C29.3911 194.827 24.4582 191.615 24.2146 191.46C23.9709 191.304 23.4307 187.679 23.0122 187.871C22.5938 188.064 23.3336 189.789 22.8269 189.918C22.3202 190.047 18.5207 187.51 18.4431 187.849C18.2965 188.484 20.71 189.493 20.5882 189.777C20.4664 190.061 18.1623 188.482 17.7951 188.875C17.4279 189.269 20.1097 190.159 20.1238 190.415C20.138 190.671 17.495 189.927 17.5638 190.48C17.6027 190.78 19.9296 191.084 19.7831 191.405C19.6366 191.726 17.8234 191.777 17.8993 192.11C17.9752 192.444 19.4123 191.855 20.2898 192.239C21.1673 192.624 21.9918 192.435 23.217 193.474C24.4423 194.513 30.4557 200.391 32.336 199.886C33.9726 199.454 38.5966 190.765 38.5966 190.765Z" fill="#F7A491"/>
<path d="M48.9174 187.025C49.1081 185.866 50.9036 182.968 51.1861 182.253C51.1861 182.253 49.1045 179.607 47.4149 179.81C47.4149 179.81 45.1445 183.571 43.8521 183.691C42.5597 183.811 38.0258 184.014 37.2243 184.495C36.4227 184.977 33.0488 190.161 33.0488 190.161C33.0488 190.161 36.0855 193.259 37.3055 193.252C37.3055 193.252 37.9552 191.975 38.2148 191.696C38.3913 192.289 41.2267 201.444 41.2161 203.515L41.2391 203.533C41.8637 204.041 42.5853 204.417 43.3599 204.637C44.1345 204.858 44.9459 204.919 45.7448 204.816C46.5437 204.713 47.3133 204.45 48.0068 204.04C48.7003 203.631 49.3033 203.085 49.779 202.436C49.6376 200.61 49.6028 198.779 49.6748 196.949C49.8937 192.837 50.7288 190.645 48.9174 187.025Z" fill="#F47458"/>
<path d="M63.6385 222.445L49.7844 202.446C48.9554 202.806 48.0924 203.082 47.2085 203.27C45.2223 203.653 43.2343 203.591 41.2216 203.526C41.2222 203.591 41.2187 203.657 41.211 203.722C40.9798 205.371 38.7905 207.924 38.3403 212.927C37.8283 218.605 38.1373 228.47 38.3103 229.117C47.521 227.999 61.0256 225.185 63.6385 222.445Z" fill="#466EB6"/>
<path d="M55.5658 159.048C55.5658 159.048 54.6954 159.631 53.9557 159.444C53.5694 159.361 53.2029 159.204 52.877 158.981C52.877 158.981 53.2848 159.726 53.8886 160.05C54.9232 160.608 55.5658 159.048 55.5658 159.048Z" fill="#F47458"/>
<path d="M38.3816 154.923L46.4377 153.263C46.6413 153.222 46.8521 153.232 47.0505 153.294C47.249 153.356 47.4286 153.466 47.5729 153.616L53.4627 159.599C53.6327 159.77 53.8484 159.889 54.0841 159.941C54.3197 159.993 54.5654 159.977 54.7918 159.893C55.0182 159.81 55.2158 159.663 55.3611 159.47C55.5064 159.278 55.5933 159.048 55.6113 158.807L56.5718 150.301C56.594 150.09 56.6663 149.888 56.7827 149.711C56.8991 149.534 57.0562 149.387 57.2409 149.283L64.5061 145.3C64.7173 145.178 64.8918 145.002 65.011 144.789C65.1302 144.577 65.1898 144.336 65.1835 144.093C65.1772 143.849 65.1052 143.612 64.9751 143.406C64.8449 143.2 64.6616 143.033 64.4443 142.922L56.9796 139.327C56.7897 139.234 56.625 139.096 56.4996 138.925C56.3742 138.755 56.2918 138.557 56.2593 138.348L54.861 129.896C54.8302 129.657 54.7313 129.432 54.576 129.247C54.4207 129.063 54.2156 128.927 53.9851 128.855C53.7546 128.784 53.5084 128.78 53.2759 128.845C53.0433 128.909 52.8342 129.039 52.6735 129.219L47.1015 135.504C46.9651 135.66 46.7916 135.78 46.5969 135.851C46.4022 135.923 46.1926 135.944 45.9875 135.913L37.866 134.679C36.8226 134.52 36.0599 135.677 36.5754 136.637L40.592 144.118C40.6931 144.307 40.7486 144.517 40.7542 144.732C40.7597 144.946 40.715 145.159 40.6238 145.353L36.9992 153.035C36.5278 154.02 37.3487 155.136 38.3816 154.923Z" fill="#F7CC7F"/>
<path d="M41.5156 180.363C41.5156 180.363 42.0029 182.985 41.9058 184.018C41.8087 185.052 42.2766 188.386 44.3775 188.397C46.4785 188.407 44.7766 184.163 44.5788 183.147C44.3811 182.131 44.3334 178.996 44.3334 178.996L41.5156 180.363Z" fill="#F7A491"/>
<path d="M44.3827 180.57C44.3491 179.711 44.3385 178.996 44.3385 178.996L41.5137 180.363C41.5137 180.363 41.6125 180.892 41.7132 181.582C42.9526 181.84 43.8477 181.365 44.3827 180.57Z" fill="#F47458"/>
<path d="M40.4862 173.128C39.7713 173.594 39.2451 174.299 39.0013 175.116C38.6041 176.476 39.0561 179.985 41.865 180.832C44.674 181.678 45.8904 178.891 45.3113 176.727C44.7322 174.562 43.4752 171.803 40.4862 173.128Z" fill="#F7A491"/>
<path d="M45.662 175.885C45.6073 176.469 45.2965 176.915 44.9699 176.882C44.6433 176.848 44.4244 176.353 44.4791 175.763C44.5338 175.174 44.8428 174.735 45.1694 174.768C45.496 174.802 45.7167 175.301 45.662 175.885Z" fill="#F7A491"/>
<path d="M39.8092 178.135C40.1394 178.645 40.1376 179.247 39.8092 179.48C39.4808 179.712 38.9423 179.48 38.6122 178.975C38.282 178.47 38.2838 177.864 38.6122 177.631C38.9406 177.398 39.4791 177.624 39.8092 178.135Z" fill="#F7A491"/>
<path d="M55.9692 155.847C55.4237 155.741 53.1179 157.55 53.1444 157.819C53.1708 158.089 55.4148 156.937 55.4784 157.128C55.5296 157.273 52.9607 157.945 53.0949 158.202C53.1867 158.379 55.4907 157.894 55.5525 158.006C55.6479 158.183 53.6299 158.257 53.7605 158.453C53.9106 158.679 55.8333 158.585 55.8333 158.585C55.8333 158.585 56.2199 157.964 56.2587 157.731C56.2767 157.599 56.2796 157.465 56.2676 157.333C56.2676 157.206 56.317 157.094 56.2994 156.952C56.2217 156.369 56.2729 155.909 55.9692 155.847Z" fill="#F7A491"/>
<path d="M52.8961 157.23L52.038 158.288L51.4731 157.866C51.4587 157.828 51.4528 157.787 51.4559 157.746C51.4589 157.705 51.4708 157.666 51.4907 157.63C51.5578 157.485 52.8784 156.838 52.8961 157.23Z" fill="#F7A491"/>
<path d="M58.3735 258.576H66.7368C67.0457 258.548 67.1199 258.299 67.014 258.146C66.7933 257.828 65.8169 257.596 64.7188 257.088C62.7961 257.289 58.6065 255.974 58.3028 255.535C58.1298 256.422 58.2004 258.539 58.3735 258.576Z" fill="#F47458"/>
<path d="M52.0984 158.216C52.0984 158.216 53.2337 158.909 53.7033 159.717C53.8412 159.935 53.9346 160.178 53.9779 160.433C54.0213 160.687 54.0137 160.947 53.9558 161.199L52.0137 158.809L52.0984 158.216Z" fill="#F7A491"/>
<path d="M218.315 63.6895C218.112 64.6385 217.93 65.6193 217.432 66.4131C216.583 67.4387 215.779 68.4971 215.02 69.5884C215.55 69.5514 216.071 69.5267 216.609 69.5267C221.846 69.5267 226.719 71.3701 230.331 74.7165C233.56 77.7066 235.336 81.5399 235.336 85.509C235.336 89.4781 233.56 93.3114 230.331 96.3032C226.719 99.6549 221.846 101.491 216.609 101.491C211.373 101.491 206.523 99.6585 202.916 96.3279C202.653 97.1059 202.386 97.8785 202.128 98.6547C200.363 99.5491 199.127 101.654 199.127 104.111C199.127 107.378 201.322 110.028 204.028 110.028C206.157 110.028 207.965 108.385 208.641 106.097C211.213 106.952 213.905 107.386 216.615 107.383C229.653 107.383 240.225 97.5892 240.225 85.509C240.218 73.9527 230.557 64.5009 218.315 63.6895Z" fill="#E0973F"/>
<path d="M112.433 63.6895C112.634 64.6385 112.818 65.6193 113.316 66.4131C114.163 67.4387 114.967 68.4971 115.727 69.5884C115.198 69.5514 114.668 69.5267 114.138 69.5267C108.902 69.5267 104.027 71.3701 100.417 74.7165C97.1876 77.7066 95.4097 81.5399 95.4097 85.509C95.4097 89.4781 97.1893 93.3026 100.411 96.2944C104.022 99.6461 108.897 101.482 114.133 101.482C119.37 101.482 124.218 99.6496 127.827 96.3191C128.09 97.0971 128.356 97.8697 128.612 98.6459C130.378 99.5403 131.614 101.645 131.614 104.102C131.614 107.369 129.419 110.019 126.711 110.019C124.581 110.019 122.775 108.376 122.099 106.088C119.528 106.943 116.836 107.377 114.126 107.374C101.088 107.374 90.5156 97.5804 90.5156 85.5002C90.5245 73.9527 100.191 64.5009 112.433 63.6895Z" fill="#E0973F"/>
<path d="M221.712 61.1982V67.2384C221.712 94.53 199.564 116.66 172.249 116.66C159.668 116.484 151.036 117.793 139.091 112.509C121.879 104.968 109.488 87.6872 109.488 67.2384V61.1982H221.712Z" fill="#F7CC7F"/>
<path d="M139.09 112.513L139.127 112.529L156.908 61.1953H138.398L124.146 102.344C128.461 106.62 133.527 110.068 139.09 112.513Z" fill="#FAE0B2"/>
<path d="M150.658 115.972L169.42 61.1982H160.121L142.127 113.748C144.891 114.766 147.748 115.512 150.658 115.972Z" fill="#FAE0B2"/>
<path d="M122.345 100.466L136.376 61.1982H131.962L119.268 96.7262C120.233 98.0246 121.258 99.2712 122.345 100.466Z" fill="#FAE0B2"/>
<path d="M216.811 57.7764H114.668C110.941 57.7764 107.901 59.8491 107.688 62.4599H223.792C223.577 59.8491 220.538 57.7764 216.811 57.7764Z" fill="#F7CC7F"/>
<path d="M146.635 115.216L152.413 144.857H177.685L184.846 115.216H146.635Z" fill="#F7CC7F"/>
<path d="M184.848 115.217L183.233 121.906H147.941L146.637 115.217H184.848Z" fill="#B75742"/>
<path d="M184.848 181.53H146.637L149.5 166.816L152.412 151.885H177.689L181.296 166.816L184.848 181.53Z" fill="#F7CC7F"/>
<path d="M184.848 181.529H146.637L149.5 166.815H181.296L184.848 181.529Z" fill="#B75742"/>
<path d="M147.98 144.858H182.118C182.477 144.857 182.832 144.927 183.163 145.064C183.495 145.2 183.796 145.401 184.05 145.654C184.304 145.907 184.506 146.207 184.643 146.538C184.78 146.869 184.851 147.224 184.851 147.582V149.159C184.851 149.518 184.78 149.872 184.643 150.203C184.506 150.534 184.304 150.835 184.05 151.088C183.797 151.341 183.495 151.542 183.164 151.679C182.832 151.815 182.477 151.885 182.118 151.885H147.982C147.258 151.885 146.564 151.597 146.053 151.086C145.541 150.575 145.254 149.882 145.254 149.159V147.58C145.254 146.858 145.542 146.166 146.053 145.656C146.564 145.145 147.257 144.858 147.98 144.858Z" fill="#FAE0B2"/>
<path d="M144.109 169.843H186.087C186.508 169.843 186.912 170.01 187.21 170.308C187.508 170.606 187.676 171.009 187.676 171.43V179.531H142.529V171.423C142.531 171.005 142.698 170.604 142.994 170.308C143.29 170.012 143.691 169.845 144.109 169.843Z" fill="#F7CC7F"/>
<path d="M202.578 185.308V188.254H127.613V185.308C127.613 181.916 129.686 179.16 132.239 179.16H197.952C200.505 179.16 202.578 181.916 202.578 185.308Z" fill="#F7CC7F"/>
<path d="M145.261 179.162L142.89 188.254H139.762L142.133 179.162H145.261Z" fill="#FAE0B2"/>
<path d="M140.782 179.162L138.411 188.254H135.279L137.654 179.162H140.782Z" fill="#FAE0B2"/>
<path d="M149.245 179.162L146.874 188.254H143.74L146.117 179.162H149.245Z" fill="#FAE0B2"/>
<path d="M230.385 256.572V260H104.613V256.572C104.613 252.619 108.09 249.412 112.375 249.412H222.622C226.906 249.412 230.385 252.619 230.385 256.572Z" fill="#F7CC7F"/>
<path d="M134 249.412L130.451 260H125.771L129.32 249.412H134Z" fill="#FAE0B2"/>
<path d="M126.946 249.412L122.895 260H117.543L121.6 249.412H126.946Z" fill="#FAE0B2"/>
<path d="M141.052 249.412L137 260H131.648L135.708 249.412H141.052Z" fill="#FAE0B2"/>
<path d="M197.741 109.613V111.836C197.742 112.75 197.562 113.656 197.212 114.501C196.862 115.345 196.349 116.113 195.702 116.76C195.056 117.407 194.288 117.92 193.442 118.27C192.597 118.62 191.691 118.8 190.776 118.8H140.459C139.543 118.801 138.637 118.621 137.791 118.271C136.945 117.921 136.177 117.408 135.529 116.761C134.882 116.114 134.369 115.347 134.018 114.501C133.668 113.656 133.488 112.751 133.488 111.836V109.613H197.741Z" fill="#F7CC7F"/>
<path d="M213.061 249.378H118.529L119.682 188.256H211.793L213.061 249.378Z" fill="#3C8F7C"/>
<path d="M190.58 249.378H141.01L141.614 188.256H189.917L190.58 249.378Z" fill="#50BFA5"/>
<path d="M220.071 21.627C219.806 22.7083 219.331 24.4177 219.331 24.4177C219.37 24.8887 219.508 26.8433 219.674 29.2406L216.143 27.8294C216.143 27.8294 216.185 23.9237 216.026 23.6838C215.894 23.4827 215.673 23.735 214.589 22.1897C214.278 21.7434 214.22 20.946 214.22 20.946C214.22 20.946 214.155 19.9652 214.375 19.8735C214.479 19.8386 214.592 19.842 214.693 19.8831C214.795 19.9242 214.878 20.0003 214.928 20.0975C215.009 20.2739 214.988 20.662 215.067 20.8314C215.147 21.0007 215.657 21.2053 215.873 21.1948C216.088 21.1842 215.846 18.2929 215.846 18.2929C215.846 18.2929 215.726 17.4744 215.669 17.2045C215.618 16.9769 215.41 16.3066 215.41 16.3066C215.41 16.3066 215.165 15.3328 215.468 15.2587C215.645 15.2146 216.1 16.0049 216.411 16.8464C216.746 17.7496 216.941 18.7075 217.032 18.6951C217.258 18.6651 217.138 17.0792 217.138 17.0792C217.027 16.7318 216.954 16.3734 216.919 16.0102C216.708 15.5904 216.566 14.8124 216.941 14.7472C217.01 14.7366 217.5 15.7244 217.5 15.7244C217.5 15.7244 217.695 16.4212 217.808 16.7476C218.005 17.3209 218.035 18.2276 218.139 18.6281C218.226 18.9615 218.304 18.8239 218.339 18.838C218.336 18.4775 218.311 18.1175 218.263 17.7602C218.265 17.4099 218.238 17.0601 218.184 16.7141C218.106 16.3502 218.055 15.9811 218.032 15.6098C217.972 14.7895 218.489 14.8742 218.667 15.6239C218.734 15.9079 218.807 16.2201 218.877 16.5359C219.156 17.7707 219.148 18.9491 219.28 18.9597C219.457 18.9721 219.338 16.8164 219.338 16.8164C219.338 16.8164 219.603 15.6221 219.868 16.7299C220.055 17.5091 220.145 18.3084 220.136 19.1097C220.113 19.4237 220.334 20.5456 220.071 21.627Z" fill="#F8A492"/>
<path d="M219.842 26.3514C219.842 26.3514 215.868 25.4006 215.831 25.7199C214.996 32.7037 214.622 35.2281 214.479 35.3004C213.998 35.5491 207.616 29.7172 206.477 29.322C205.933 29.1333 205.34 29.165 204.772 29.1809C203.419 29.2215 203.151 29.2268 203.151 29.2268H203.102V30.5004C204.627 31.8711 208.119 52.6393 208.414 52.6269C208.742 52.6111 215.653 54.3469 215.522 53.7647C215.503 53.6712 210.843 49.8609 209.519 44.3641C209.076 42.5171 208.857 40.5308 208.617 38.7915C210.15 39.5588 216.14 42.496 217.092 42.1149C220.051 40.9066 219.842 26.3514 219.842 26.3514Z" fill="#3C8F7C"/>
<path d="M231.725 63.2273C231.725 63.2273 238.146 68.2531 238.361 69.1439C238.67 70.4281 244.549 68.7399 243.128 68.4789C242.802 68.4189 241.758 68.1543 241.672 68.1084C241.213 67.8632 235.492 60.9834 235.492 60.9834L231.725 63.2273Z" fill="#F7A491"/>
<path d="M245.891 68.4789L241.79 68.1455C241.79 68.1455 240.619 69.114 238.366 69.1598C238.144 69.8809 238.079 70.6414 238.177 71.3896C238.207 71.596 238.241 72.2222 238.451 72.2081C239.208 72.157 241.226 71.656 243.525 71.1956C243.525 71.1956 246.617 70.5429 248.402 69.4756C250.187 68.4084 245.891 68.4789 245.891 68.4789Z" fill="#B75742"/>
<path d="M202.956 50.6209C206.256 51.0664 209.609 50.9219 212.858 50.194C218.876 48.7828 225.531 47.488 227.48 48.6205C229.049 49.5307 238.848 64.3205 238.848 64.3205L235.064 67.0813L224.273 55.0081C224.273 55.0081 210.502 60.0833 207.416 59.5206C200.374 58.2451 200.275 52.6267 202.956 50.6209Z" fill="#13375B"/>
<path d="M208.096 47.6367L212.801 53.2235L204.073 55.8801L202.955 50.6215L208.096 47.6367Z" fill="#13375B"/>
<path d="M217.658 73.1533C217.658 73.1533 217.372 80.9151 217.194 82.2276C217.016 83.5401 220.49 87.4757 220.047 86.1085C219.945 85.7927 219.682 84.7502 219.682 84.6532C219.682 84.1328 220.969 75.2808 220.969 75.2808L217.658 73.1533Z" fill="#F7A491"/>
<path d="M222.265 88.9329L219.701 84.7662C219.701 84.7662 218.289 84.1964 217.18 82.2383C216.44 82.3846 215.74 82.6891 215.129 83.1309C214.952 83.2561 213.812 84.0958 213.893 84.2881C214.188 84.9937 215.752 86.5267 217.461 88.1955C217.461 88.1955 219.885 90.1483 221.672 91.2102C223.458 92.2722 222.265 88.9329 222.265 88.9329Z" fill="#B75742"/>
<path d="M225.279 57.8557C223.633 55.6647 210.364 53.5831 210.364 53.5831L206.656 46.4775L198.475 51.5192C198.475 51.5192 199.292 58.025 199.906 59.7626C200.724 62.0788 206.224 62.197 209.582 62.1617C212.671 62.13 218.316 62.7597 218.316 62.7597L216.407 79.587C216.407 79.587 220.159 80.4408 221.215 80.3032C221.349 80.2873 227.323 60.5794 225.279 57.8557Z" fill="#355389"/>
<path d="M203.147 29.25L198.53 29.5075C198.53 29.5075 198.424 29.5393 198.393 29.5464C198.017 29.6152 198.359 43.0572 198.695 48.0689C199.03 53.0806 199.71 55.1974 199.71 55.1974C199.71 55.1974 205.97 54.0878 207.891 53.3417C208.689 53.0329 210.619 50.6215 210.619 50.6215C210.619 50.6215 208.647 47.9754 207.655 43.6711C206.888 40.3529 205.944 34.4716 205.404 33.2438C204.162 30.4231 203.147 29.25 203.147 29.25Z" fill="#9BC1F9"/>
<path d="M198.662 25.4253L198.529 29.4985C198.529 29.4985 201.518 34.6425 203.053 33.9263C204.34 33.3247 203.197 29.4103 203.197 29.4103C203.197 29.4103 202.975 28.5142 202.668 27.4822C202.451 26.7625 202.272 25.9827 202.285 25.4094C202.315 24.0176 198.662 25.4253 198.662 25.4253Z" fill="#F7A491"/>
<path d="M202.282 25.4094C202.313 24.0176 198.661 25.4253 198.661 25.4253L198.646 25.824C198.759 25.9982 198.897 26.1546 199.056 26.2879C200.069 27.0681 201.341 27.4339 202.614 27.3111C202.416 26.6955 202.304 26.0556 202.282 25.4094Z" fill="#F47458"/>
<path d="M202.233 16.1377C202.233 16.1377 203.755 18.431 203.869 20.3608C203.949 21.4523 203.849 22.5494 203.573 23.6084L198.688 17.773L202.233 16.1377Z" fill="#184655"/>
<path d="M204.373 19.9659C204.442 20.6433 204.179 21.2236 203.787 21.2625C203.395 21.3013 203.019 20.7879 202.95 20.1123C202.882 19.4367 203.145 18.8563 203.538 18.8157C203.932 18.7751 204.305 19.2902 204.373 19.9659Z" fill="#F48C7F"/>
<path d="M197.105 18.7081C196.993 18.6834 197.004 24.3019 198.634 25.625C200.263 26.948 203.1 27.0627 203.93 25.7308C204.846 24.2578 203.976 18.3377 201.552 17.087C199.128 15.8362 197.105 18.7081 197.105 18.7081Z" fill="#F7A491"/>
<path d="M196.692 15.2235C195.456 16.3137 194.846 17.1093 194.003 19.048C192.969 21.4312 195.022 23.8991 196.745 24.8799C198.468 25.8607 198.61 27.0479 198.61 27.0479L198.68 26.3159C198.715 26.0925 198.708 25.8645 198.659 25.6438C198.598 25.4383 198.516 25.2397 198.414 25.051C198.267 24.737 197.796 23.6645 197.612 23.3822C197.128 22.6343 197.033 22.4738 197.271 21.7628C197.448 21.2177 197.243 20.0129 197.527 19.1168L199.846 18.6175C199.846 18.6175 201.297 18.2647 202.03 17.425C204.132 14.9942 199.974 12.2916 196.692 15.2235Z" fill="#184655"/>
<path d="M197.823 22.3784C198.107 22.994 198.049 23.6291 197.691 23.7896C197.332 23.9501 196.808 23.5903 196.524 22.9728C196.24 22.3554 196.298 21.7221 196.656 21.5616C197.015 21.4011 197.537 21.7609 197.823 22.3784Z" fill="#F7A491"/>
<path d="M182.027 6.87815C182.29 7.96128 182.767 9.67064 182.767 9.67064C182.728 10.1399 182.59 12.0962 182.424 14.4918L185.955 13.0806C185.955 13.0806 185.913 9.17495 186.07 8.9368C186.204 8.73393 186.423 8.98619 187.507 7.44088C187.819 6.99458 187.878 6.19723 187.878 6.19723C187.878 6.19723 187.943 5.21641 187.722 5.12468C187.618 5.09056 187.505 5.09453 187.404 5.13589C187.302 5.17725 187.219 5.2533 187.168 5.35048C187.089 5.52689 187.11 5.91498 187.03 6.08433C186.951 6.25367 186.441 6.4583 186.225 6.44772C186.01 6.43714 186.252 3.54586 186.252 3.54586C186.252 3.54586 186.372 2.72557 186.428 2.45744C186.481 2.22811 186.69 1.55777 186.69 1.55777C186.69 1.55777 186.933 0.585777 186.631 0.509923C186.455 0.465821 185.999 1.25788 185.688 2.09757C185.353 3.00076 185.159 3.96041 185.067 3.9463C184.841 3.91631 184.961 2.33219 184.961 2.33219C185.072 1.98467 185.145 1.62629 185.18 1.26318C185.392 0.843332 185.533 0.0636205 185.159 0.000114606C185.09 -0.0122338 184.597 0.9774 184.597 0.9774C184.597 0.9774 184.405 1.6742 184.292 1.99878C184.094 2.57386 184.064 3.48059 183.96 3.88103C183.874 4.21267 183.796 4.07684 183.761 4.08918C183.725 4.10153 183.78 3.64112 183.836 3.01135C183.834 2.66106 183.86 2.31115 183.916 1.96526C183.993 1.60138 184.043 1.23227 184.066 0.860972C184.128 0.0406886 183.61 0.125361 183.432 0.875082C183.363 1.16086 183.293 1.47309 183.22 1.78886C182.943 3.0237 182.952 4.20208 182.82 4.2109C182.643 4.22502 182.759 2.06758 182.759 2.06758C182.759 2.06758 182.496 0.875082 182.23 1.98291C182.041 2.76113 181.951 3.56008 181.961 4.36085C181.991 4.67485 181.764 5.79679 182.027 6.87815Z" fill="#F8A492"/>
<path d="M198.53 29.4981C198.53 29.4981 193.954 29.2847 192.773 28.7519C192.058 28.4273 186.177 23.6926 186.177 23.6926L186.242 11.0162L182.107 10.7021C182.107 10.7021 179.962 24.714 180.705 26.247C181.472 27.8346 190.08 34.3528 191.802 37.1841C192.794 38.8141 194.861 60.9829 195.176 61.1752C197.402 62.3342 204.28 63.4914 204.118 62.7875C199.634 43.3777 198.53 29.4981 198.53 29.4981Z" fill="#3C8F7C"/>
<path d="M116.408 86.4865C116.671 87.5679 117.146 89.279 117.146 89.279C117.109 89.7482 116.97 91.7046 116.805 94.1002L120.336 92.6889C120.336 92.6889 120.294 88.7833 120.451 88.5434C120.585 88.3423 120.804 88.5946 121.888 87.0493C122.201 86.6029 122.259 85.8144 122.259 85.8144C122.259 85.8144 122.323 84.8336 122.104 84.7419C122 84.7077 121.887 84.7117 121.785 84.7531C121.684 84.7944 121.6 84.8705 121.549 84.9677C121.47 85.1441 121.491 85.5322 121.41 85.7015C121.329 85.8709 120.82 86.0755 120.607 86.0649C120.393 86.0543 120.633 83.163 120.633 83.163C120.633 83.163 120.753 82.3428 120.81 82.0746C120.863 81.8453 121.071 81.175 121.071 81.175C121.071 81.175 121.315 80.2012 121.013 80.1271C120.836 80.083 120.381 80.8751 120.068 81.7148C119.733 82.6179 119.538 83.5776 119.447 83.5635C119.222 83.5335 119.341 81.9494 119.341 81.9494C119.452 81.6021 119.526 81.2436 119.56 80.8804C119.771 80.4605 119.913 79.6808 119.54 79.6173C119.471 79.605 118.979 80.5946 118.979 80.5946C118.979 80.5946 118.786 81.3002 118.673 81.616C118.474 82.191 118.444 83.0978 118.341 83.4964C118.255 83.8299 118.177 83.694 118.142 83.7064C118.107 83.7187 118.161 83.2583 118.216 82.6285C118.244 82.311 118.207 81.9441 118.297 81.5824C118.374 81.2184 118.424 80.8494 118.447 80.4782C118.509 79.6579 117.992 79.7425 117.813 80.4923C117.745 80.778 117.674 81.0885 117.602 81.406C117.324 82.6409 117.333 83.8193 117.199 83.8281C117.023 83.8404 117.141 81.6848 117.141 81.6848C117.141 81.6848 116.876 80.4923 116.611 81.6001C116.422 82.3783 116.332 83.1773 116.343 83.978C116.371 84.2885 116.145 85.4052 116.408 86.4865Z" fill="#F8A492"/>
<path d="M153.835 83.6376C153.572 84.719 153.095 86.4284 153.095 86.4284C153.134 86.8994 153.271 88.8539 153.437 91.2513L149.906 89.84C149.906 89.84 149.949 85.9344 149.792 85.6945C149.657 85.4934 149.438 85.7457 148.354 84.2004C148.042 83.7541 147.984 82.9655 147.984 82.9655C147.984 82.9655 147.918 81.9847 148.139 81.893C148.243 81.8581 148.356 81.8617 148.458 81.9032C148.56 81.9446 148.643 82.0211 148.693 82.1188C148.773 82.2952 148.752 82.6815 148.831 82.8509C148.911 83.0202 149.421 83.2248 149.636 83.2143C149.852 83.2037 149.61 80.3124 149.61 80.3124C149.61 80.3124 149.49 79.4939 149.433 79.2257C149.38 78.9964 149.172 78.3261 149.172 78.3261C149.172 78.3261 148.928 77.3523 149.23 77.2782C149.407 77.2341 149.862 78.0244 150.173 78.8659C150.508 79.7691 150.703 80.727 150.794 80.7146C151.02 80.6846 150.9 79.0987 150.9 79.0987C150.79 78.7547 150.717 78.3999 150.681 78.0403C150.47 77.6205 150.328 76.8407 150.703 76.7755C150.771 76.7649 151.264 77.7545 151.264 77.7545C151.264 77.7545 151.456 78.4496 151.569 78.7759C151.767 79.351 151.797 80.2577 151.901 80.6564C151.988 80.9898 152.066 80.8522 152.101 80.8663C152.136 80.8804 152.08 80.4182 152.025 79.7885C152.028 79.4382 152.001 79.0883 151.945 78.7424C151.869 78.3784 151.818 78.0093 151.794 77.6381C151.734 76.8178 152.251 76.9025 152.429 77.6522C152.498 77.938 152.569 78.2485 152.641 78.566C152.918 79.8008 152.909 80.9774 153.042 80.988C153.218 81.0004 153.102 78.8447 153.102 78.8447C153.102 78.8447 153.365 77.6522 153.632 78.7583C153.821 79.5288 153.914 80.3199 153.907 81.1133C153.87 81.4343 154.098 82.5563 153.835 83.6376Z" fill="#F8A492"/>
<path d="M131.837 96.3318C131.837 96.3318 133.632 94.4407 135.075 96.741C135.394 96.5684 135.766 96.5226 136.117 96.6129C136.468 96.7032 136.772 96.9229 136.968 97.2279C136.968 97.2279 138.977 96.6246 139.464 99.6252C139.464 99.6252 140.499 99.4312 140.635 100.659C140.722 101.377 140.549 102.103 140.147 102.705C140.147 102.705 140.728 103.141 140.465 104.268C140.418 104.531 140.298 104.775 140.117 104.971C139.936 105.167 139.703 105.308 139.445 105.376C139.445 105.376 139.231 106.994 138.528 107.481C137.826 107.967 136.87 107.733 136.87 107.733C136.87 107.733 136.616 108.615 135.797 108.532C134.978 108.449 133.964 107.675 133.046 108.026C132.128 108.377 129.75 108.006 129.75 108.006C129.75 108.006 127.077 106.817 127.877 104.088C127.877 104.088 126.464 102.822 127.7 101.301C127.7 101.301 126.803 98.9231 128.583 97.5207C130.363 96.1183 131.837 96.3318 131.837 96.3318Z" fill="#07345A"/>
<path d="M144.196 175.534C144.196 175.534 146.15 177.956 146.638 178.253C147.125 178.549 146.42 182.07 145.094 182.301C144.346 182.432 143.931 181.608 143.931 181.608L144.145 180.595L141.352 177.72L144.196 175.534Z" fill="#F7A491"/>
<path d="M134.117 176.132C134.117 176.132 135.746 178.778 136.191 179.141C136.636 179.505 135.485 182.899 134.143 182.957C133.384 182.992 133.084 182.123 133.084 182.123L133.426 181.145L131.023 177.936L134.117 176.132Z" fill="#F7A491"/>
<path d="M136.094 179.037C135.642 179.619 135.158 180.175 134.646 180.704C134.168 181.135 133.667 181.539 133.143 181.914C133.143 181.914 132.187 183.648 131.925 184.255C131.344 185.601 130.689 187.102 130.785 187.856C130.815 188.099 131.358 188.355 131.812 188.208C133.701 187.628 138.53 183.214 139.139 182.034C139.842 180.671 136.094 179.037 136.094 179.037Z" fill="#07345A"/>
<path d="M122.304 138.649C122.481 138.159 122.657 137.703 122.811 137.278C124.818 137.716 127.087 138.197 129.421 138.69L129.705 147.236C129.705 146.577 127.95 160.869 127.95 160.869C127.95 160.869 132.486 170.901 135.588 176.745C134.315 178.333 133.718 178.845 131.88 179.921C127.066 174.154 120.758 163.601 120.503 161.846C120.362 160.848 120.217 144.534 122.304 138.649Z" fill="#B75742"/>
<path d="M140.238 141.121C139.625 147.78 138.261 160.513 138.374 161.536C138.727 162.813 144.786 174.59 145.879 176.31C145.012 177.616 143.668 179.027 142.224 179.417C141.94 179.494 131.922 165.251 131.377 164.121C130.759 162.843 129.731 155.872 129.712 147.242L129.428 138.695C133.317 139.523 136.892 140.336 140.238 141.121Z" fill="#F47458"/>
<path d="M127.47 110.762L132.046 111.39C132.046 111.39 135.715 111.48 136.17 111.48C136.626 111.48 139.498 128.162 140.33 134.441C141.161 140.719 140.519 141.83 140.519 141.83C140.519 141.83 134.715 143.136 130.422 142.755C125.957 142.359 120.934 139.951 120.934 139.951C120.934 139.951 124.749 127.885 125.506 124.119C126.264 120.353 127.47 110.762 127.47 110.762Z" fill="#96D9C9"/>
<path d="M116.37 90.5526C116.37 90.5526 116.077 102.991 116.546 103.942C117.229 105.326 124.915 115.14 124.915 115.14C124.915 115.14 121.242 130.487 119.699 135.793C119.544 136.323 118.855 139.775 118.855 140.112C118.855 140.858 122.104 141.804 122.489 141.747C122.842 141.698 125.667 127.095 127.478 119.949C128.091 117.528 129.143 115.239 130.58 113.196L131.839 111.411L122.184 101.74C122.184 101.74 120.994 90.9795 120.994 90.0851C120.994 89.8505 116.839 89.6758 116.37 90.5526Z" fill="#13375B"/>
<path d="M136.004 111.454L148.043 99.196C148.043 99.196 149.722 87.6044 149.841 87.1687C149.959 86.7329 152.948 86.5071 154.154 86.3907C154.54 86.3519 153.951 98.7391 153.375 100.812C152.694 103.264 143.592 114.437 143.592 114.437C143.592 114.437 141.961 120.49 142.356 124.93C143.008 132.302 144.768 142.443 144.452 142.763C142.496 143.998 134.985 144.126 134.51 143.361C129.26 134.916 136.004 111.454 136.004 111.454Z" fill="#13375B"/>
<path d="M132.133 109.161L131.808 111.569C131.808 111.569 131.081 115.039 132.017 115.708C132.953 116.376 135.998 111.474 135.998 111.474L135.677 105.372L132.133 109.161Z" fill="#F7A491"/>
<path d="M135.782 107.352C135.009 109.433 133.168 110.703 131.859 111.208L132.135 109.167L135.678 105.374L135.782 107.352Z" fill="#F47458"/>
<path d="M140.665 101.223C140.665 102.153 140.135 102.906 139.484 102.906C138.832 102.906 138.303 102.153 138.303 101.223C138.303 100.293 138.832 99.54 139.484 99.54C140.135 99.54 140.665 100.297 140.665 101.223Z" fill="#07345A"/>
<path d="M135.677 98.577C136.471 98.577 137.115 98.1442 137.115 97.6103C137.115 97.0764 136.471 96.6436 135.677 96.6436C134.884 96.6436 134.24 97.0764 134.24 97.6103C134.24 98.1442 134.884 98.577 135.677 98.577Z" fill="#07345A"/>
<path d="M133.514 98.9637C133.068 98.813 132.595 98.7617 132.127 98.8135C131.659 98.8653 131.209 99.0188 130.807 99.2633C130.405 99.5078 130.062 99.8373 129.801 100.229C129.54 100.62 129.368 101.064 129.298 101.529C129.145 102.552 129.058 103.583 129.036 104.618C128.985 107.429 130.449 110.167 131.722 110.167C132.995 110.167 136.533 108.347 136.665 104.346C136.739 101.889 135.507 99.6499 133.514 98.9637Z" fill="#F7A491"/>
<path d="M135.721 104.67C135.721 105.289 136.134 105.792 136.641 105.792C137.147 105.792 137.56 105.289 137.56 104.67C137.56 104.05 137.149 103.546 136.641 103.546C136.132 103.546 135.721 104.045 135.721 104.67Z" fill="#F7A491"/>
<path d="M127.976 97.5648C126.656 98.6091 126.193 100.197 126.943 101.11C127.694 102.024 129.371 101.918 130.69 100.872C132.009 99.8263 132.473 98.2404 131.724 97.3266C130.976 96.4128 129.297 96.5187 127.976 97.5648Z" fill="#07345A"/>
<path d="M132.653 99.2437C133.33 99.2437 133.878 98.8757 133.878 98.4217C133.878 97.9676 133.33 97.5996 132.653 97.5996C131.976 97.5996 131.428 97.9676 131.428 98.4217C131.428 98.8757 131.976 99.2437 132.653 99.2437Z" fill="#07345A"/>
<path d="M127.777 101.916C127.78 102.122 127.843 102.323 127.96 102.494C128.076 102.664 128.241 102.796 128.432 102.873C128.624 102.951 128.834 102.97 129.036 102.928C129.238 102.886 129.424 102.786 129.569 102.639C129.714 102.492 129.813 102.306 129.852 102.103C129.891 101.901 129.87 101.691 129.79 101.5C129.711 101.31 129.577 101.147 129.405 101.033C129.233 100.918 129.031 100.857 128.824 100.857C128.546 100.861 128.279 100.974 128.083 101.172C127.887 101.37 127.777 101.637 127.777 101.916Z" fill="#07345A"/>
<path d="M146.521 178.162C146.146 178.796 145.739 179.41 145.299 180C144.88 180.489 144.434 180.955 143.963 181.394C143.963 181.394 143.235 183.236 143.053 183.864C142.649 185.275 142.192 186.977 142.383 187.713C142.443 187.949 142.963 188.399 143.392 188.12C145.048 187.042 149.473 181.997 149.925 180.745C150.447 179.305 146.521 178.162 146.521 178.162Z" fill="#07345A"/>
<path d="M232.708 126.771C232.708 126.771 227.427 127.585 223.527 131.471C219.627 135.357 217.297 141.6 217.297 141.6L225.284 143.927C225.284 143.927 222.092 136.484 232.708 126.771Z" fill="#FAE0B2"/>
<path d="M234.172 130.6L233.6 126.105L229.571 124.027C229.467 123.974 229.381 123.893 229.321 123.794C229.261 123.694 229.23 123.58 229.233 123.463C229.235 123.347 229.269 123.234 229.332 123.137C229.396 123.039 229.485 122.961 229.59 122.912L233.691 120.972L234.422 116.5C234.441 116.385 234.491 116.278 234.568 116.19C234.645 116.102 234.744 116.038 234.856 116.004C234.967 115.97 235.086 115.968 235.198 115.998C235.311 116.028 235.413 116.088 235.492 116.173L238.6 119.474L243.082 118.788C243.197 118.77 243.314 118.785 243.421 118.831C243.528 118.876 243.62 118.951 243.686 119.046C243.753 119.141 243.792 119.253 243.798 119.369C243.805 119.484 243.779 119.6 243.723 119.701L241.541 123.674L243.58 127.731C243.63 127.835 243.65 127.95 243.638 128.064C243.626 128.178 243.583 128.287 243.514 128.378C243.444 128.469 243.351 128.54 243.244 128.581C243.137 128.623 243.02 128.634 242.907 128.613L238.451 127.769L235.229 130.956C235.147 131.038 235.044 131.095 234.931 131.122C234.818 131.148 234.7 131.142 234.59 131.105C234.48 131.068 234.383 131.001 234.309 130.912C234.235 130.823 234.187 130.715 234.172 130.6Z" fill="#F7CC7F"/>
<path d="M93.7695 150.701C93.7695 150.701 99.0502 151.514 102.95 155.401C106.85 159.287 109.179 165.528 109.179 165.528L101.194 167.855C101.194 167.855 104.386 160.414 93.7695 150.701Z" fill="#FAE0B2"/>
<path d="M92.3062 154.529L92.8782 150.034L96.9089 147.956C97.0123 147.903 97.0987 147.822 97.1584 147.722C97.218 147.622 97.2486 147.508 97.2466 147.392C97.2445 147.276 97.21 147.162 97.1469 147.065C97.0838 146.967 96.9947 146.889 96.8895 146.839L92.7882 144.899L92.0555 140.429C92.0354 140.316 91.9847 140.211 91.9089 140.125C91.833 140.04 91.7349 139.976 91.6255 139.943C91.516 139.909 91.3994 139.906 91.2883 139.934C91.1773 139.962 91.0762 140.021 90.9962 140.102L87.8765 143.41L83.3938 142.722C83.2788 142.704 83.1611 142.719 83.0541 142.765C82.9471 142.811 82.855 142.885 82.7883 142.981C82.7216 143.076 82.6829 143.188 82.6767 143.304C82.6704 143.42 82.6968 143.536 82.7529 143.638L84.9386 147.617L82.8995 151.664C82.847 151.768 82.8246 151.884 82.8349 152C82.8452 152.116 82.8878 152.227 82.9578 152.32C83.0278 152.412 83.1225 152.484 83.231 152.526C83.3396 152.568 83.4578 152.578 83.5721 152.557L88.0265 151.712L91.2504 154.899C91.3335 154.981 91.4378 155.038 91.5516 155.063C91.6653 155.088 91.7839 155.081 91.8938 155.043C92.0038 155.004 92.1007 154.936 92.1736 154.845C92.2465 154.754 92.2924 154.645 92.3062 154.529Z" fill="#F7CC7F"/>
<path d="M268.43 130.699L269.666 128.614L268.648 126.416C268.621 126.36 268.611 126.297 268.618 126.235C268.626 126.173 268.651 126.115 268.69 126.066C268.729 126.018 268.781 125.981 268.84 125.961C268.899 125.941 268.963 125.938 269.024 125.952L271.388 126.481L273.166 124.834C273.211 124.791 273.268 124.762 273.329 124.75C273.39 124.738 273.454 124.744 273.512 124.766C273.57 124.788 273.621 124.826 273.659 124.876C273.696 124.926 273.719 124.985 273.725 125.047L273.951 127.458L276.07 128.639C276.124 128.669 276.17 128.713 276.2 128.768C276.231 128.822 276.245 128.884 276.242 128.946C276.239 129.008 276.218 129.068 276.182 129.12C276.147 129.171 276.097 129.211 276.04 129.235L273.815 130.196L273.346 132.572C273.334 132.634 273.305 132.691 273.263 132.736C273.22 132.782 273.166 132.815 273.106 132.831C273.045 132.847 272.982 132.846 272.922 132.828C272.862 132.81 272.809 132.775 272.768 132.728L271.167 130.911L268.759 131.198C268.697 131.206 268.634 131.196 268.578 131.17C268.522 131.144 268.474 131.102 268.44 131.05C268.405 130.998 268.387 130.938 268.385 130.876C268.383 130.814 268.399 130.753 268.43 130.699Z" fill="#466EB6"/>
<path d="M149.246 36.3998L150.805 33.7696L149.52 30.9965C149.487 30.9253 149.475 30.8465 149.485 30.7688C149.495 30.6912 149.526 30.6177 149.575 30.5568C149.624 30.4958 149.689 30.4497 149.763 30.4236C149.837 30.3975 149.917 30.3925 149.993 30.4091L152.979 31.0777L155.223 28.9996C155.28 28.9457 155.352 28.909 155.429 28.8937C155.506 28.8785 155.586 28.8852 155.66 28.9131C155.733 28.9411 155.798 28.9892 155.845 29.0519C155.893 29.1146 155.922 29.1894 155.929 29.2677L156.215 32.3107L158.886 33.8014C158.954 33.8396 159.011 33.8963 159.049 33.9648C159.086 34.0333 159.104 34.111 159.1 34.1891C159.096 34.2673 159.07 34.3427 159.026 34.407C158.981 34.4713 158.919 34.5218 158.847 34.5528L156.04 35.7647L155.447 38.7636C155.432 38.8406 155.396 38.9118 155.342 38.9692C155.289 39.0266 155.22 39.0679 155.145 39.0884C155.069 39.109 154.989 39.108 154.914 39.0855C154.839 39.063 154.771 39.02 154.72 38.9612L152.698 36.6679L149.661 37.0331C149.583 37.0428 149.504 37.0304 149.432 36.9972C149.36 36.9641 149.3 36.9115 149.256 36.8456C149.213 36.7797 149.189 36.7029 149.188 36.6241C149.186 36.5453 149.206 36.4676 149.246 36.3998Z" fill="#F79C8D"/>
<path d="M263.626 42.9316L259.512 45.6765L261.813 49.6686L257.879 52.5493L259.607 56.6348L257.016 59.272L258.352 60.5827L261.818 57.0564L260.179 53.1843L264.272 50.1854L262.009 46.2604L265.737 43.7731L263.626 42.9316Z" fill="#F48C7F"/>
<path d="M269.945 109.062L267.034 105.066L263.138 107.526L260.096 103.715L256.079 105.606L253.337 103.126L252.08 104.514L255.749 107.831L259.555 106.038L262.719 110.002L266.552 107.584L269.19 111.205L269.945 109.062Z" fill="#F48C7F"/>
<path d="M133.523 26.2844L134.51 21.4421L130.065 20.2267L130.826 15.4126L126.721 13.7279L126.701 10.0322L124.828 10.041L124.855 14.9839L128.746 16.5821L127.953 21.5885L132.326 22.7846L131.431 27.1735L133.523 26.2844Z" fill="#F48C7F"/>
<path d="M95.0564 32.7266L96.9402 36.2406L101.001 36.013L102.834 40.1003L107.085 38.5268L109.361 43.0586L113.455 42.0901L116.357 46.0928L114.841 47.19L112.671 44.1982L108.351 45.2196L106.163 40.8624L101.84 42.4641L99.8198 37.9534L95.8526 38.1757L94.1065 34.9175L91.5324 35.6073L91.0469 33.8009L95.0564 32.7266Z" fill="#F7CC7F"/>
<path d="M77.5345 60.4699L74.5366 60.7751L73.5144 56.0086L69.0758 55.9133L67.7287 52.4717L65.9844 53.1544L67.7887 57.7568L71.9942 57.8467L73.0571 62.8055L77.5698 62.3468L77.5345 60.4699Z" fill="#50BFA5"/>
<path d="M72.1434 112.139L71.0205 114.933L66.3224 113.626L64.1773 117.51L60.4997 117.106L60.2949 118.966L65.2137 119.505L67.2458 115.826L72.1345 117.186L73.8224 112.98L72.1434 112.139Z" fill="#50BFA5"/>
<path d="M80.1077 80.8832C81.2988 82.0249 82.1243 83.4939 82.4798 85.1044C82.8353 86.7149 82.7049 88.3945 82.105 89.9309C81.5052 91.4673 80.4628 92.7915 79.1098 93.736C77.7567 94.6806 76.1538 95.203 74.5035 95.2373C72.8533 95.2716 71.23 94.8162 69.8388 93.9287C68.4477 93.0412 67.3511 91.7614 66.6878 90.2513C66.0246 88.7411 65.8244 87.0683 66.1126 85.4445C66.4008 83.8206 67.1644 82.3186 68.3069 81.1284C69.8394 79.5326 71.9435 78.6103 74.1565 78.5643C76.3695 78.5183 78.5102 79.3524 80.1077 80.8832Z" fill="#FFF3D9"/>
<path d="M79.9302 87.8548L76.3779 88.945L75.2639 92.4872C75.2465 92.5539 75.21 92.6141 75.1589 92.6603C75.1077 92.7065 75.0441 92.7367 74.9759 92.7472C74.9078 92.7577 74.838 92.748 74.7753 92.7194C74.7126 92.6907 74.6596 92.6443 74.623 92.586L72.4867 89.5483L68.7791 89.5853C68.7115 89.5856 68.6453 89.567 68.5877 89.5318C68.5301 89.4965 68.4835 89.4459 68.4531 89.3856C68.4226 89.3254 68.4096 89.2578 68.4154 89.1906C68.4212 89.1234 68.4457 89.0591 68.486 89.0049L70.7176 86.0378L69.5241 82.5238C69.5029 82.4598 69.5 82.3911 69.5157 82.3255C69.5313 82.2599 69.565 82.1999 69.6128 82.1523C69.6606 82.1047 69.7208 82.0713 69.7865 82.056C69.8522 82.0406 69.9209 82.0438 69.9849 82.0652L73.5001 83.27L76.4838 81.0579C76.5383 81.0179 76.6028 80.9939 76.6701 80.9885C76.7374 80.9831 76.8049 80.9965 76.8651 81.0273C76.9252 81.058 76.9755 81.1049 77.0105 81.1627C77.0454 81.2204 77.0636 81.2868 77.0629 81.3543L77.0029 85.0588L80.029 87.2127C80.088 87.2491 80.135 87.3021 80.164 87.365C80.1931 87.4279 80.2029 87.498 80.1924 87.5664C80.1818 87.6349 80.1514 87.6988 80.1047 87.7501C80.0581 87.8013 79.9974 87.8378 79.9302 87.8548Z" fill="#FED333"/>
<path d="M298.151 94.7631C299.342 95.9048 300.167 97.3738 300.523 98.9843C300.878 100.595 300.748 102.274 300.148 103.811C299.548 105.347 298.506 106.671 297.153 107.616C295.8 108.56 294.197 109.083 292.547 109.117C290.896 109.151 289.273 108.696 287.882 107.809C286.491 106.921 285.394 105.641 284.731 104.131C284.068 102.621 283.867 100.948 284.156 99.3243C284.444 97.7005 285.207 96.1985 286.35 95.0083C287.882 93.4125 289.987 92.4902 292.2 92.4442C294.412 92.3982 296.553 93.2323 298.151 94.7631Z" fill="#FFF3D9"/>
<path d="M297.958 101.735L294.408 102.825L293.294 106.367C293.273 106.431 293.235 106.488 293.184 106.532C293.132 106.576 293.07 106.604 293.003 106.615C292.936 106.625 292.868 106.616 292.806 106.59C292.744 106.564 292.69 106.521 292.651 106.466L290.517 103.428L286.809 103.464C286.74 103.468 286.671 103.452 286.611 103.418C286.551 103.383 286.503 103.332 286.472 103.271C286.44 103.209 286.428 103.14 286.436 103.071C286.444 103.003 286.472 102.938 286.516 102.885L288.746 99.9178L287.565 96.3897C287.543 96.3256 287.539 96.2566 287.555 96.1907C287.57 96.1247 287.604 96.0644 287.652 96.0166C287.7 95.9688 287.76 95.9354 287.826 95.9203C287.892 95.9052 287.961 95.9089 288.025 95.931L291.541 97.1341L294.524 94.9237C294.578 94.8797 294.643 94.8523 294.711 94.8448C294.78 94.8374 294.849 94.8502 294.911 94.8818C294.972 94.9133 295.023 94.9622 295.057 95.0223C295.091 95.0825 295.107 95.1512 295.102 95.2201L295.043 98.9246L298.07 101.079C298.134 101.114 298.185 101.168 298.217 101.234C298.248 101.3 298.259 101.374 298.246 101.446C298.234 101.518 298.2 101.584 298.148 101.636C298.097 101.688 298.03 101.722 297.958 101.735Z" fill="#FED333"/>
<path d="M260.476 84.3L261.935 86.7221C261.97 86.7812 262.021 86.8293 262.083 86.8608C262.144 86.8924 262.213 86.906 262.282 86.9003C262.351 86.8946 262.416 86.8698 262.472 86.8286C262.527 86.7874 262.57 86.7316 262.595 86.6674L263.631 84.0372L266.387 83.4057C266.454 83.3902 266.516 83.3563 266.565 83.3077C266.614 83.2592 266.648 83.1979 266.664 83.1309C266.679 83.0639 266.676 82.9938 266.654 82.9286C266.632 82.8633 266.592 82.8055 266.539 82.7618L264.357 80.9642L264.601 78.1417C264.606 78.0731 264.593 78.0042 264.562 77.9428C264.531 77.8814 264.483 77.83 264.424 77.7944C264.365 77.7587 264.297 77.7403 264.228 77.7412C264.159 77.7422 264.092 77.7623 264.034 77.7995L261.649 79.3183L259.043 78.2158C258.979 78.1889 258.909 78.1802 258.841 78.1909C258.773 78.2015 258.709 78.231 258.657 78.276C258.605 78.321 258.567 78.3797 258.546 78.4454C258.526 78.5112 258.524 78.5814 258.541 78.648L259.247 81.3858L257.394 83.5203C257.348 83.5722 257.318 83.6358 257.307 83.7038C257.296 83.7719 257.305 83.8416 257.331 83.9052C257.358 83.9687 257.402 84.0235 257.458 84.0634C257.515 84.1032 257.581 84.1266 257.65 84.1307L260.476 84.3Z" fill="#F47458"/>
<path d="M255.355 139.771C255.357 140.106 255.26 140.433 255.076 140.712C254.892 140.992 254.628 141.21 254.32 141.34C254.011 141.469 253.671 141.504 253.343 141.441C253.014 141.377 252.712 141.218 252.474 140.982C252.236 140.747 252.073 140.446 252.007 140.119C251.94 139.791 251.972 139.451 252.099 139.141C252.226 138.832 252.442 138.567 252.719 138.38C252.997 138.193 253.324 138.093 253.659 138.092C254.106 138.09 254.536 138.266 254.854 138.581C255.172 138.896 255.353 139.324 255.355 139.771Z" fill="#50BFA5"/>
<path d="M57.4696 88.561C57.4696 89.4942 56.6486 90.251 55.6369 90.251C54.6253 90.251 53.8008 89.4942 53.8008 88.561C53.8008 87.6279 54.62 86.8711 55.6316 86.8711C56.6433 86.8711 57.4696 87.6279 57.4696 88.561Z" fill="#50BFA5"/>
<path d="M153.25 7.7481L155.471 8.18558C155.471 8.18558 158.714 6.67203 158.961 5.94171C159.209 5.21139 159.096 3.53025 159.57 3.42441C159.757 3.37621 159.952 3.36536 160.143 3.3925C160.335 3.41964 160.518 3.48424 160.685 3.58257C160.851 3.68091 160.996 3.81105 161.112 3.96554C161.227 4.12003 161.311 4.29583 161.359 4.48284C161.624 5.29254 160.706 7.83454 160.926 8.07445C161.066 8.2191 162.339 8.50664 163.264 8.70245C163.565 8.76705 163.843 8.91358 164.066 9.12587C164.29 9.33816 164.45 9.60796 164.53 9.90553C164.586 10.1068 164.572 10.3213 164.49 10.5136C164.409 10.706 164.264 10.8648 164.08 10.964L163.495 11.2762L163.771 11.8848C163.868 12.1034 163.877 12.3514 163.795 12.5764C163.714 12.8015 163.548 12.9861 163.333 13.0914L162.877 13.3084L163.079 13.6753C163.139 13.7873 163.176 13.9107 163.186 14.0375C163.196 14.1644 163.18 14.292 163.139 14.4123C163.097 14.5327 163.031 14.6431 162.945 14.7367C162.859 14.8303 162.754 14.905 162.637 14.956L162.238 15.1324L162.268 15.24C162.331 15.457 162.312 15.6895 162.214 15.8931C162.117 16.0968 161.947 16.2574 161.739 16.3443L161.339 16.5031L155.423 15.3141C154.869 15.205 154.343 14.9815 153.88 14.6579L151.869 13.9029C151.764 13.8621 151.677 13.7851 151.624 13.6857C151.571 13.5864 151.555 13.4713 151.58 13.3613L152.703 8.11326C152.728 7.9931 152.8 7.88767 152.902 7.81945C153.004 7.75124 153.129 7.72563 153.25 7.7481Z" fill="#96D9C9"/>
</g>
<defs>
<clipPath id="clip0_1437_45247">
<rect width="335" height="260" fill="white"/>
</clipPath>
</defs>
</svg>
