<svg width="20" height="20" viewBox="0 0 20 20" fill="none" xmlns="http://www.w3.org/2000/svg">
<path fill-rule="evenodd" clip-rule="evenodd" d="M16.7549 2.49015C17.3752 2.96964 17.9525 3.69986 18.3699 4.56143C18.7863 5.42102 18.992 6.30537 18.9543 7.05653C18.9188 7.76216 18.6441 8.5284 17.9132 8.83637L14.3295 10.9866C14.2144 11.0556 14.1569 11.0902 14.0879 11.1045C14.019 11.1189 13.9596 11.1112 13.8408 11.0957C11.0531 10.7332 9.88525 7.92501 9.77414 5.36026C9.76467 5.14161 9.75994 5.03229 9.81423 4.93136C9.86853 4.83044 9.96803 4.77073 10.167 4.65132L14.5935 1.99544L14.6468 1.97545C15.3845 1.69886 16.1643 2.03373 16.7549 2.49015ZM15.9904 3.47912C15.5165 3.11279 15.2079 3.09999 15.0857 3.14583C15.0012 3.17752 14.821 3.3207 14.7948 3.84163C14.77 4.33581 14.9077 5.01068 15.2557 5.72899C15.6027 6.44533 16.0661 7.01295 16.5102 7.35622C16.9842 7.72255 17.2927 7.73535 17.415 7.68951C17.4995 7.65782 17.6796 7.51464 17.7058 6.99371C17.7307 6.49953 17.5929 5.82466 17.2449 5.10635C16.8979 4.39001 16.4346 3.82239 15.9904 3.47912Z" fill="#0072BB"/>
<path d="M8.25459 5.7988C8.36682 5.73146 8.42293 5.69779 8.46483 5.7207C8.50674 5.74361 8.50871 5.81012 8.51265 5.94314C8.58748 8.46574 9.88407 10.8668 12.2515 11.9107C12.3909 11.9722 12.4607 12.0029 12.4638 12.0535C12.467 12.1041 12.4032 12.1424 12.2755 12.219L11.329 12.7869C11.162 12.8871 11.0785 12.9372 10.9799 12.9446C10.8814 12.9519 10.7984 12.9177 10.6326 12.8493C8.22392 11.856 7.14704 9.6615 6.83034 7.20366C6.7991 6.96122 6.78348 6.84 6.83762 6.72825C6.89175 6.6165 7.00151 6.55065 7.22102 6.41894L8.25459 5.7988Z" fill="#0072BB"/>
<path d="M5.3631 7.53369C5.46399 7.47316 5.51443 7.44289 5.55504 7.46265C5.59564 7.4824 5.60305 7.54146 5.61787 7.65956C5.92658 10.1204 7.09695 12.5068 9.3521 13.6617C9.47879 13.7266 9.54214 13.759 9.54378 13.808C9.54543 13.857 9.48577 13.8928 9.36646 13.9644L5.40714 16.34L5.35383 16.36C4.61614 16.6366 3.83631 16.3017 3.24578 15.8453C2.62542 15.3658 2.04815 14.6356 1.63077 13.774C1.21435 12.9144 1.00863 12.0301 1.0464 11.2789C1.08188 10.5733 1.35659 9.80704 2.08747 9.49907L5.3631 7.53369Z" fill="#0072BB"/>
<path d="M12.6315 17.8686C12.5128 18.0326 12.322 18.129 12.1196 18.1272C11.9171 18.1254 11.7281 18.0256 11.6123 17.8595L11.0937 17.1151L9.43674 17.9079C9.16487 18.038 8.83891 17.9555 8.6616 17.7118C8.48497 17.469 8.506 17.1351 8.71125 16.9164L8.7122 16.9154L8.71359 16.9139C8.76692 16.854 9.16332 16.386 9.38346 15.6513C9.42869 15.5004 9.4513 15.4249 9.48954 15.3757C9.52778 15.3265 9.58663 15.2912 9.70431 15.2206L13.4425 12.9777C13.6317 12.8641 13.7264 12.8074 13.8082 12.8482C13.8899 12.889 13.901 12.9946 13.9233 13.2058C14.0612 14.5163 13.8279 16.2149 12.6315 17.8686Z" fill="#0072BB"/>
</svg>
