<svg width="32" height="32" viewBox="0 0 32 32" xmlns="http://www.w3.org/2000/svg">
<g clip-path="url(#clip0_396_26103)">
<path d="M26.3084 15.9945V31.0626C26.3084 31.5877 25.8958 32.0004 25.3706 32.0004H6.61363C6.08837 32.0004 5.67578 31.5877 5.67578 31.0626V17.4575C5.67578 17.1198 5.86329 16.8198 6.1447 16.6509L8.67683 15.1879C8.82694 15.0941 8.99576 15.0566 9.14575 15.0566H13.1786L15.9921 17.4575L18.8056 15.0566H25.3706C25.8958 15.0566 26.3084 15.4692 26.3084 15.9945Z" fill="#E63950"/>
<path d="M26.3085 15.9945V31.0626C26.3085 31.5877 25.8959 32.0004 25.3706 32.0004H15.9922V17.4575L18.8057 15.0566H25.3706C25.8959 15.0566 26.3085 15.4692 26.3085 15.9945Z" fill="#D0004F"/>
<path d="M16.6297 1.8764C16.4608 1.57622 16.2357 1.29493 15.9919 1.08848C15.5417 0.619559 14.979 0.300754 14.36 0.132004C13.3846 -0.130593 12.3718 0.000705443 11.5089 0.50708C10.3084 1.20121 9.59575 2.49531 9.6332 3.88339C9.65196 4.07096 9.74574 6.85949 9.74574 6.85949C9.53942 6.74695 7.40113 5.41514 7.40113 5.41514C7.15729 5.3026 5.46923 4.02713 3.38721 5.24627C2.52433 5.75277 1.90535 6.55925 1.64269 7.51592C1.38015 8.49134 1.51151 9.50415 2.01783 10.367C3.04946 12.1676 5.35662 12.7679 7.13853 11.7362L9.55317 10.3421L6.1893 10.1178C5.90645 10.2793 5.58764 10.3642 5.26509 10.3642C4.59465 10.3642 3.97374 10.008 3.64493 9.43369C3.38302 8.98765 3.32068 8.49859 3.45348 8.00403C3.58447 7.52867 3.89858 7.12115 4.33637 6.86468C4.6423 6.68517 4.93353 6.59814 5.2257 6.59814C5.71113 6.59814 6.11315 6.83535 6.32842 6.96265L6.44746 7.03043C6.74145 7.21362 8.64827 8.39687 8.8461 8.50497L8.91662 8.54342L8.90068 8.55261L8.92663 8.55374L11.1775 9.86672L11.6151 6.99066L11.6259 6.95659L11.6203 6.79509C11.6203 6.79509 11.5186 3.88758 11.4985 3.69157C11.4884 3.12924 11.8493 2.47712 12.4474 2.13093C12.7395 1.95968 13.0473 1.8754 13.3715 1.8754C13.5381 1.8754 13.7066 1.89828 13.8733 1.94317C14.1746 2.02558 14.4357 2.17582 14.639 2.38827L14.78 2.52107C14.8332 2.56503 14.9202 2.66306 14.9934 2.79399C15.4422 3.55233 15.3039 4.55851 14.6866 5.15567C14.585 5.24814 14.4512 5.34893 14.3294 5.41852L14.2362 5.47235L13.9857 7.78277L15.2602 7.04693C15.5227 6.89688 15.7667 6.70931 15.9917 6.50304C17.1923 5.34018 17.5299 3.39571 16.6297 1.8764Z" fill="#FED843"/>
<path d="M13.1787 15.0566V25.4355C13.1787 25.8106 13.4038 26.1482 13.7602 26.2982C14.0978 26.4483 14.5105 26.3733 14.773 26.0919L15.9922 24.8915L17.2115 26.0919C17.474 26.3733 17.8868 26.4483 18.2243 26.2982C18.5807 26.1482 18.8058 25.8107 18.8058 25.4355V15.0566H13.1787Z" fill="#FED843"/>
<path d="M31.0603 11.3044H30.1225V10.3666C30.1225 9.84818 29.703 9.42871 29.1846 9.42871C28.6663 9.42871 28.2468 9.84818 28.2468 10.3666V11.3044H27.3089C26.7906 11.3044 26.3711 11.7239 26.3711 12.2422C26.3711 12.7606 26.7906 13.1801 27.3089 13.1801H28.2468V14.1179C28.2468 14.6363 28.6663 15.0558 29.1846 15.0558C29.703 15.0558 30.1225 14.6363 30.1225 14.1179V13.1801H31.0603C31.5787 13.1801 31.9982 12.7606 31.9982 12.2422C31.9982 11.7239 31.5787 11.3044 31.0603 11.3044Z" fill="#FFB64C"/>
<path d="M27.2464 7.55343C27.7644 7.55343 28.1843 7.13354 28.1843 6.61558C28.1843 6.09762 27.7644 5.67773 27.2464 5.67773C26.7285 5.67773 26.3086 6.09762 26.3086 6.61558C26.3086 7.13354 26.7285 7.55343 27.2464 7.55343Z" fill="#FFB64C"/>
<path d="M23.4945 13.1804C24.0124 13.1804 24.4323 12.7605 24.4323 12.2425C24.4323 11.7246 24.0124 11.3047 23.4945 11.3047C22.9765 11.3047 22.5566 11.7246 22.5566 12.2425C22.5566 12.7605 22.9765 13.1804 23.4945 13.1804Z" fill="#FFB64C"/>
<path d="M15.9922 15.0566H18.8057V25.4355C18.8057 25.8106 18.5806 26.1482 18.2243 26.2982C17.8866 26.4483 17.4739 26.3733 17.2115 26.0919L15.9922 24.8915V15.0566Z" fill="#FFB64C"/>
<path d="M15.9922 6.50343V1.08887C16.236 1.29526 16.4611 1.57655 16.63 1.87672C17.5303 3.39603 17.1926 5.34056 15.9922 6.50343Z" fill="#FFB64C"/>
<path d="M24.1137 7.3661L21.3002 2.4893C21.0376 2.03913 20.4561 1.88908 20.006 2.15168L15.992 4.47753L15.4546 4.78752L4.78949 10.9411L0.517534 13.4059C0.0673683 13.6497 -0.14521 14.2312 0.117387 14.6814L2.99345 19.5582C3.25604 20.0084 3.81875 20.1584 4.26892 19.8957L15.992 13.1245L23.7574 8.64157C24.2075 8.3791 24.3576 7.81639 24.1137 7.3661Z" fill="#FF641A"/>
<path d="M23.7576 8.64157L15.9922 13.1245V4.47753L20.0062 2.15168C20.4563 1.88908 21.0378 2.03913 21.3004 2.4893L24.1139 7.36604C24.3578 7.81639 24.2077 8.37904 23.7576 8.64157Z" fill="#E63950"/>
</g>
<defs>
<clipPath id="clip0_396_26103">
<rect width="32" height="32" fill="white"/>
</clipPath>
</defs>
</svg>
