<svg width="84" height="84" viewBox="0 0 84 84" fill="none" xmlns="http://www.w3.org/2000/svg">
<path d="M74.7817 84H9.21692C7.49939 84 6.10742 82.6071 6.10742 80.8885V30.7197H77.8918V80.8885C77.8918 82.6071 76.4992 84 74.7817 84Z" fill="#0072BB"/>
<path d="M6.10742 30.7197H77.8918V41.1593H6.10742V30.7197Z" fill="#005B96"/>
<path d="M84 19.8353V32.7689C84 34.1502 82.8798 35.2693 81.4993 35.2693H2.49875C1.11832 35.2693 0 34.1502 0 32.7689V19.8353C0 18.454 1.11832 17.335 2.49875 17.335H81.4993C82.8798 17.335 84 18.454 84 19.8353Z" fill="#0072BB"/>
<path d="M39.1444 23.283C38.5991 23.9185 38.0639 24.563 37.5416 25.2146C35.5953 27.638 33.8137 30.1775 32.2032 32.8132C31.7078 33.6238 31.2297 34.4427 30.7657 35.2713H13.7295C14.7248 33.0114 15.8162 30.7932 16.9986 28.625C19.1429 24.6913 21.5898 20.9167 24.3237 17.337C24.9767 16.4821 25.6452 15.6376 26.3303 14.8058C26.7404 14.3043 27.1576 13.8099 27.5806 13.3174C29.1353 14.6577 30.6888 15.9967 32.2442 17.337C32.4852 17.5435 32.7261 17.7525 32.9665 17.9597C34.8019 19.5411 36.6374 21.1219 38.4722 22.7052C38.6971 22.8963 38.9201 23.0906 39.1444 23.283Z" fill="#005085"/>
<path d="M64.5633 35.2713H47.5258C47.0638 34.4427 46.5837 33.6238 46.0883 32.8132C44.4778 30.1775 42.6943 27.638 40.7499 25.2146C40.2257 24.563 39.6906 23.9185 39.1445 23.283C39.3695 23.0906 39.5925 22.8976 39.8174 22.7052C41.6542 21.1219 43.4896 19.5392 45.3244 17.9597C45.5654 17.7525 45.8064 17.5435 46.0473 17.337C47.6021 15.9967 49.1575 14.6577 50.7109 13.3174C51.1339 13.8086 51.5511 14.3043 51.9613 14.8045C52.6476 15.6376 53.3167 16.4821 53.9678 17.337C56.7018 20.9167 59.1486 24.6913 61.2943 28.625C62.4767 30.7932 63.5681 33.0114 64.5633 35.2713Z" fill="#005085"/>
<path d="M41.9995 23.2817C41.4534 23.9166 40.9183 24.5611 40.396 25.2126C38.4503 27.6361 36.6681 30.1756 35.0576 32.8119C29.9447 41.175 26.5487 50.5173 25.1164 60.2957C22.9637 57.4387 20.977 54.3477 19.1896 51.0425C16.0455 53.0946 12.9726 55.4418 10.0137 58.0826C11.5332 47.7104 14.8811 37.7409 19.8536 28.623C22.5093 23.7505 25.6304 19.121 29.1846 14.8039C29.5948 14.3024 30.012 13.8086 30.435 13.3154C32.2307 14.8629 34.0251 16.4103 35.8215 17.9577C37.6563 19.5391 39.4917 21.1199 41.3272 22.7033C41.5515 22.8944 41.7745 23.0887 41.9995 23.2817Z" fill="#FFC73A"/>
<path d="M73.9861 58.0826C71.0272 55.4418 67.9542 53.0946 64.8101 51.0425C63.0227 54.3477 61.036 57.4387 58.8834 60.2957C57.451 50.5173 54.0557 41.175 48.9422 32.8119C47.3317 30.1756 45.5482 27.6361 43.6038 25.2126C43.0795 24.5611 42.5444 23.9166 41.999 23.2817C42.2233 23.0887 42.4464 22.8957 42.6713 22.7033C44.508 21.1199 46.3435 19.5372 48.1789 17.9577C49.9746 16.4084 51.771 14.8629 53.5648 13.3154C53.9878 13.8067 54.405 14.3024 54.8151 14.8026C58.37 19.1197 61.4911 23.7492 64.1481 28.623C69.1193 37.7409 72.4666 47.7104 73.9861 58.0826Z" fill="#FFC73A"/>
<path d="M35.3125 23.2812H48.6881V35.2682H35.3125V23.2812Z" fill="#F5AF00"/>
<path d="M64.1481 28.6241L48.9422 32.813C47.3317 30.1767 45.5482 27.6372 43.6038 25.2138L42.6713 22.7044L41.999 20.8947L48.1789 17.9589L54.8151 14.8037C58.37 19.1209 61.4911 23.7503 64.1481 28.6241Z" fill="#FFB909"/>
<path d="M41.9994 20.8954L41.3271 22.7051L40.3959 25.2144C38.4503 27.6379 36.668 30.1774 35.0575 32.8137L19.8535 28.6248C22.5093 23.7523 25.6303 19.1228 29.1846 14.8057L35.8214 17.9595L41.9994 20.8954Z" fill="#FFB909"/>
<path d="M66.2668 0.581519L41.999 12.1138L46.6607 24.6594L72.5634 17.525C75.951 16.592 77.8121 12.9539 76.5874 9.65833L74.4494 3.90596C73.2254 0.610377 69.441 -0.926794 66.2668 0.581519Z" fill="#FFC73A"/>
<path d="M17.7328 0.581519L42.0006 12.1138L37.3389 24.6594L11.4369 17.525C8.04929 16.592 6.18821 12.9539 7.41291 9.65833L9.55021 3.90596C10.7749 0.610377 14.5586 -0.926794 17.7328 0.581519Z" fill="#FFC73A"/>
<path d="M47.794 17.1549C47.3531 17.1549 46.9205 16.9368 46.6661 16.5373C46.2681 15.9146 46.4495 15.0874 47.0718 14.6891C47.2557 14.5718 51.6264 11.7886 56.6444 9.75759C63.8786 6.82946 68.7094 6.98658 71.0012 10.2245C71.4286 10.8279 71.2857 11.6635 70.6827 12.0906C70.0796 12.5177 69.2452 12.3753 68.8184 11.7719C65.7115 7.3829 52.7935 14.2075 48.5131 16.9445C48.2901 17.0869 48.0408 17.1549 47.794 17.1549Z" fill="#FFB909"/>
<path d="M36.0727 17.1549C35.826 17.1549 35.5767 17.0869 35.3537 16.9445C31.0733 14.2075 18.1553 7.3829 15.0484 11.7719C14.6209 12.3753 13.7865 12.5177 13.1835 12.0906C12.581 11.6629 12.4381 10.8279 12.8656 10.2245C15.1573 6.98658 19.9876 6.82946 27.2223 9.75759C32.2403 11.7879 36.6111 14.5718 36.795 14.6891C37.4173 15.0874 37.5986 15.9146 37.2013 16.5373C36.9456 16.9368 36.5137 17.1549 36.0727 17.1549Z" fill="#FFB909"/>
<path d="M45.8044 7.80078H38.1934C36.1106 7.80078 34.4219 9.49058 34.4219 11.5754V22.6396C34.4219 24.7244 36.1106 26.4142 38.1934 26.4142H45.8044C47.8872 26.4142 49.5759 24.7244 49.5759 22.6396V11.5754C49.5759 9.49058 47.8872 7.80078 45.8044 7.80078Z" fill="#F0AB00"/>
<path d="M35.3125 35.2715H48.6881V84.0012H35.3125V35.2715Z" fill="#FFC73A"/>
<path d="M35.3125 35.2715H48.6881V41.1604H35.3125V35.2715Z" fill="#FFB909"/>
</svg>
