<svg width="32" height="32" viewBox="0 0 32 32" fill="none" xmlns="http://www.w3.org/2000/svg">
<rect width="32" height="32" rx="8" fill="#E4F4FF"/>
<path d="M20.028 17.7677C20.5535 17.5091 21.1975 17 21.9993 17C22.8011 17 23.4453 17.5091 23.971 17.7676C24.1494 17.8554 24.3038 17.9363 24.4442 18.0099C24.7544 18.1725 24.996 18.2991 25.2769 18.3842C25.4566 18.4387 25.6443 18.4955 25.7752 18.5442C25.8874 18.586 26.106 18.6705 26.2761 18.85C26.426 19.0083 26.4969 19.1817 26.5373 19.3162C26.5707 19.4272 26.5988 19.5758 26.6186 19.6802C27.1761 22.6167 25.9481 25.456 22.9354 26.5518C22.6623 26.6513 22.3912 26.75 22.0007 26.75C21.6102 26.75 21.3391 26.6513 21.0659 26.5518C18.0533 25.4561 16.824 22.617 17.3814 19.6802C17.4012 19.5758 17.4293 19.4273 17.4626 19.3163C17.503 19.1818 17.5739 19.0084 17.7238 18.8501C17.8939 18.6706 18.1124 18.5861 18.2247 18.5443C18.3556 18.4956 18.5432 18.4387 18.723 18.3842C19.0037 18.2991 19.245 18.1726 19.555 18.01C19.6953 17.9364 19.8496 17.8555 20.028 17.7677Z" fill="#0072BB"/>
<g opacity="0.4">
<path d="M15 5.25C12.1005 5.25 9.75 7.6005 9.75 10.5C9.75 13.3995 12.1005 15.75 15 15.75C17.8995 15.75 20.25 13.3995 20.25 10.5C20.25 7.6005 17.8995 5.25 15 5.25Z" fill="#0072BB"/>
<path d="M17.7813 26.584C17.8642 26.418 17.6416 26.1221 17.1966 25.5303C15.9102 23.8197 15.4936 21.5892 15.9087 19.4013L15.9118 19.3849C15.9294 19.2913 15.9702 19.0743 16.0272 18.8847C16.105 18.6255 16.266 18.2092 16.6359 17.8186C16.6591 17.7941 16.6825 17.7704 16.7062 17.7475C16.8337 17.6237 16.7809 17.3874 16.6049 17.3625C15.5411 17.2125 14.4593 17.2125 13.3954 17.3625C11.931 17.5691 10.4989 18.0602 9.19404 18.8372C9.07778 18.9064 8.93408 18.9875 8.77151 19.0792C8.05869 19.4813 6.98106 20.0893 6.2429 20.8118C5.78123 21.2637 5.34257 21.8592 5.26283 22.5888C5.17802 23.3646 5.51649 24.0927 6.1955 24.7396C7.36695 25.8556 8.77274 26.75 10.591 26.75L16.6758 26.75C17.3575 26.75 17.6984 26.75 17.7813 26.584Z" fill="#0072BB"/>
</g>
</svg>
