<svg width="68" height="90" viewBox="0 0 68 90" fill="none" xmlns="http://www.w3.org/2000/svg">
<rect width="68" height="90" fill="white"/>
<path d="M25.9279 42.277C25.9279 37.8415 29.5442 34.25 34 34.25C38.4558 34.25 42.0721 37.8415 42.0721 42.277C42.0722 43.3088 42.1416 44.0874 42.6173 44.7873C42.7984 45.0498 43.1413 45.4936 43.3697 45.8505C43.6255 46.2503 43.8754 46.7324 43.9613 47.2942C44.2416 49.127 42.9494 50.3136 41.6625 50.8454C37.1298 52.7182 30.8702 52.7182 26.3375 50.8454C25.0506 50.3136 23.7584 49.127 24.0387 47.2942C24.1246 46.7324 24.3745 46.2503 24.6303 45.8505C24.8587 45.4936 25.2017 45.0497 25.3827 44.7872C25.8584 44.0873 25.9278 43.3087 25.9279 42.277Z" fill="#C1C1CC"/>
<path d="M36.7776 54.9511C35.9742 55.4563 35.0187 55.7477 33.9985 55.7477C32.9782 55.7477 32.0227 55.4563 31.2193 54.9511C30.5063 54.5027 30.1498 54.2784 30.2745 53.9057C30.3993 53.533 30.8913 53.5747 31.8752 53.6582C33.2824 53.7776 34.7146 53.7776 36.1217 53.6582C37.1057 53.5747 37.5976 53.533 37.7224 53.9057C37.8472 54.2784 37.4906 54.5027 36.7776 54.9511Z" fill="#C1C1CC"/>
</svg>
