<svg width="32" height="32" viewBox="0 0 32 32" fill="none" xmlns="http://www.w3.org/2000/svg">
<rect width="32" height="32" rx="8" fill="#E4F4FF"/>
<path d="M7.92786 13.277C7.92789 8.84151 11.5442 5.25 16 5.25C20.4558 5.25 24.0721 8.84155 24.0721 13.277C24.0722 14.3088 24.1416 15.0874 24.6173 15.7873C24.7984 16.0498 25.1413 16.4936 25.3697 16.8505C25.6255 17.2503 25.8754 17.7324 25.9613 18.2942C26.2416 20.127 24.9494 21.3136 23.6625 21.8454C19.1298 23.7182 12.8702 23.7182 8.33746 21.8454C7.05056 21.3136 5.75836 20.127 6.03868 18.2942C6.12459 17.7324 6.37452 17.2503 6.63033 16.8505C6.85873 16.4936 7.20168 16.0497 7.38271 15.7872C7.85838 15.0873 7.92776 14.3087 7.92786 13.277Z" fill="#0072BB"/>
<path opacity="0.4" d="M18.7776 25.9511C17.9742 26.4563 17.0187 26.7477 15.9985 26.7477C14.9782 26.7477 14.0227 26.4563 13.2193 25.9511C12.5063 25.5027 12.1498 25.2784 12.2745 24.9057C12.3993 24.533 12.8913 24.5747 13.8752 24.6582C15.2824 24.7776 16.7146 24.7776 18.1217 24.6582C19.1057 24.5747 19.5976 24.533 19.7224 24.9057C19.8472 25.2784 19.4906 25.5027 18.7776 25.9511Z" fill="#0072BB"/>
</svg>
