<svg width="24" height="24" viewBox="0 0 24 24" fill="none" xmlns="http://www.w3.org/2000/svg">
<path fill-rule="evenodd" clip-rule="evenodd" d="M11.9051 11.831C11.4519 9.07686 9.42806 7 7 7C4.23858 7 2 9.68629 2 13C2 14.8809 2.72126 16.5597 3.84999 17.6598L2 19.2862H14H14.337C14.3915 19.2862 14.4391 19.2703 14.4778 19.2439C16.3024 18.909 17 16.6467 17 14.6432C17 13.4507 16.5943 12.3823 15.9538 11.6618C16.2452 11.5509 16.5257 11.5044 16.7202 11.4966L16.6978 11.0855C16.4098 11.0971 16.0117 11.1677 15.6134 11.3304C15.3306 11.0937 15.0154 10.9174 14.6786 10.8154C14.5976 10.5135 14.4417 10.2202 14.1841 9.95727L13.8149 10.3944C13.9164 10.4981 13.9982 10.6057 14.0631 10.7153C14.0421 10.7148 14.0211 10.7145 14 10.7145C13.185 10.7145 12.4458 11.1401 11.9051 11.831Z" fill="#0072BB"/>
<path fill-rule="evenodd" clip-rule="evenodd" d="M19.2435 8.17497C19.549 7.92633 20.0235 7.94492 20.3032 8.21648C21.3556 9.2382 22 10.555 22 12C22 13.445 21.3556 14.7618 20.3032 15.7835C20.0235 16.0551 19.549 16.0737 19.2435 15.825C18.938 15.5764 18.9171 15.1547 19.1968 14.8831C20.0206 14.0834 20.5 13.0807 20.5 12C20.5 10.9193 20.0206 9.91664 19.1968 9.11686C18.9171 8.8453 18.938 8.4236 19.2435 8.17497Z" fill="#0072BB"/>
<path fill-rule="evenodd" clip-rule="evenodd" d="M18.2623 10.1025C18.555 9.93501 18.9734 9.9772 19.1967 10.1967C19.7012 10.6927 20 11.3209 20 12C20 12.6791 19.7012 13.3073 19.1967 13.8033C18.9734 14.0228 18.555 14.065 18.2623 13.8975C17.9696 13.73 17.9134 13.4162 18.1367 13.1967C18.466 12.873 18.6667 12.4574 18.6667 12C18.6667 11.5426 18.466 11.127 18.1367 10.8033C17.9134 10.5838 17.9696 10.27 18.2623 10.1025Z" fill="#0072BB"/>
</svg>
