<svg width="32" height="32" viewBox="0 0 32 32" fill="none" xmlns="http://www.w3.org/2000/svg">
<path fill-rule="evenodd" clip-rule="evenodd" d="M15.8066 9.18892L15.9257 9.26548C17.6812 10.394 19.0763 11.2909 20.0677 12.1115C21.0761 12.9463 21.8203 13.8226 22.0591 14.9602C22.203 15.6454 22.203 16.3547 22.0591 17.0399C21.8203 18.1775 21.0761 19.0538 20.0677 19.8886C19.0763 20.7092 17.6812 21.6061 15.9257 22.7346L15.8066 22.8112C13.8952 24.04 12.3814 25.0132 11.1462 25.61C9.90336 26.2104 8.72197 26.5437 7.55527 26.1869C6.86713 25.9765 6.23698 25.6076 5.71053 25.111C4.8295 24.28 4.48782 23.0862 4.32713 21.676C4.16697 20.2704 4.16698 18.4183 4.16699 16.0678V15.9323C4.16698 13.5818 4.16697 11.7297 4.32713 10.3241C4.48782 8.91391 4.8295 7.72006 5.71053 6.88906C6.23698 6.39251 6.86713 6.02361 7.55527 5.81319C8.72197 5.45644 9.90336 5.78966 11.1462 6.39012C12.3814 6.98687 13.8952 7.96007 15.8066 9.18892Z" fill="#0072BB"/>
<path fill-rule="evenodd" clip-rule="evenodd" d="M26.5007 4C25.7643 4 25.1673 4.59695 25.1673 5.33333L25.1673 26.6667C25.1673 27.403 25.7643 28 26.5007 28C27.237 28 27.834 27.403 27.834 26.6667L27.834 5.33333C27.834 4.59695 27.237 4 26.5007 4Z" fill="#0072BB"/>
</svg>
