<svg width="100" height="100" viewBox="0 0 100 100" fill="none" xmlns="http://www.w3.org/2000/svg">
<path d="M89.8107 44.3352L80.9152 35.4396C80.1884 34.7329 79.2126 34.3406 78.1989 34.3478C77.1851 34.3549 76.2149 34.7608 75.4982 35.4778C74.7815 36.1947 74.3758 37.165 74.369 38.1788C74.3621 39.1925 74.7547 40.1682 75.4617 40.8948L80.2458 45.6789H61.7558C61.24 45.6638 60.7264 45.7524 60.2455 45.9394C59.7646 46.1264 59.3261 46.408 58.9559 46.7675C58.5858 47.127 58.2915 47.5571 58.0906 48.0324C57.8897 48.5076 57.7861 49.0184 57.7861 49.5344C57.7861 50.0504 57.8897 50.5611 58.0906 51.0364C58.2915 51.5117 58.5858 51.9418 58.9559 52.3013C59.3261 52.6608 59.7646 52.9424 60.2455 53.1294C60.7264 53.3163 61.24 53.4049 61.7558 53.3899H80.418L75.6339 58.174C74.9269 58.9005 74.5344 59.8762 74.5412 60.89C74.5481 61.9037 74.9537 62.874 75.6705 63.591C76.3872 64.3079 77.3574 64.7139 78.3711 64.721C79.3849 64.7281 80.3607 64.3359 81.0874 63.6291L89.8107 54.9058C90.5051 54.2116 91.0559 53.3873 91.4316 52.4802C91.8074 51.5731 92.0008 50.6008 92.0008 49.6189C92.0008 48.637 91.8074 47.6647 91.4316 46.7575C91.0559 45.8504 90.5051 45.0262 89.8107 44.3319V44.3352Z" fill="#0072BB"/>
<path d="M68.5068 58.3331C67.5256 58.3499 66.5852 58.729 65.8668 59.3975C65.1483 60.0659 64.7025 60.9766 64.6152 61.954C64.4725 63.8325 64.3297 64.4642 64.1525 65.8637C63.8954 67.7373 63.0309 69.4749 61.6916 70.8102C60.3541 72.1674 58.6117 73.053 56.727 73.3335L56.6154 73.3483C55.467 73.5123 54.4006 73.6567 53.2898 73.7879C53.5064 69.4763 53.6442 64.4921 53.6787 59.5456C53.741 51.3653 53.5146 42.9259 53.0667 37.4789C52.7313 33.6701 51.6006 29.974 49.7477 26.6294C47.9151 23.335 45.5329 20.7461 43.0359 19.3761L42.9587 19.3335C40.7816 18.144 38.9375 17.135 35.7547 15.793C37.1099 15.747 38.4289 15.7208 40.1844 15.7191C48.8355 15.7552 51.8969 16.2737 56.1511 16.9168L56.2561 16.9332C58.1303 17.2528 59.8519 18.1668 61.1666 19.5402C62.5021 20.9016 63.3737 22.65 63.6571 24.5359C64.1115 27.832 64.4774 31.5907 64.6972 37.0163C64.7776 39.0605 66.5019 40.729 68.5987 40.7783C70.7545 40.8275 72.4624 39.1868 72.3639 37.1344C72.1113 31.799 71.6929 27.8484 71.1466 24.2816C70.6232 20.7969 68.8431 17.3745 66.2214 14.6445C63.5996 11.9145 60.2511 10.0195 56.7762 9.41087L56.6696 9.39118C52.4269 8.68571 49.0898 8.0557 40.1975 8.00977C31.3069 8.06227 28.1799 8.68407 23.9306 9.38626L23.824 9.40595C20.3491 10.013 17.0055 11.9128 14.3804 14.638C11.7554 17.3631 9.97859 20.7854 9.4421 24.2751C8.64639 29.4119 8.07052 37.4543 8.00982 45.3114C7.94912 53.1684 8.35928 61.201 9.07296 66.3214C9.39018 68.5035 10.1488 70.598 11.3026 72.4771C11.6231 73.1333 11.9676 73.7797 12.3362 74.4163C14.2508 77.6845 16.7101 80.3341 19.2433 81.8205L19.3204 81.8665C22.4081 83.6712 24.8559 85.1297 31.2364 87.8548C37.5988 90.5454 39.9318 91.0869 42.9062 91.7923L42.9801 91.8087C45.4115 92.3764 47.7068 91.5938 49.4852 89.6497C51.2079 87.7662 52.3711 84.8803 52.7501 81.5137C54.3103 81.33 55.7032 81.12 57.211 80.8854L57.3193 80.8673C60.8614 80.3144 64.2542 78.4851 66.8858 75.8223C69.5174 73.1596 71.2631 69.7864 71.7438 66.3066C71.9505 64.8005 72.1113 64.0606 72.2721 62.1263C72.4476 60.0181 70.7184 58.2888 68.5068 58.3331Z" fill="#0072BB"/>
<path d="M53.2964 73.7895C53.513 69.4778 53.6508 64.4936 53.6852 59.5471C53.7476 51.3668 53.5212 42.9274 53.0733 37.4804C52.7378 33.6716 51.6072 29.9755 49.7543 26.6309C47.9217 23.3365 45.5395 20.7476 43.0424 19.3776L42.9653 19.335C40.7882 18.1455 38.9441 17.1365 35.7612 15.7945C35.7612 15.7945 26.4408 11.6322 20.4196 12.1129C16.4821 12.4279 14.3804 14.6395 14.3804 14.6395C11.7587 17.3678 9.97859 20.7853 9.4421 24.2749C8.64639 29.4118 8.07052 37.4542 8.00982 45.3112C7.94912 53.1682 8.35928 61.2008 9.07296 66.3213C9.39018 68.5033 10.1488 70.5979 11.3026 72.4769C11.6231 73.1332 11.9676 73.7796 12.3362 74.4162C14.2508 77.6843 16.7101 80.334 19.2433 81.8204L19.3204 81.8663C22.4081 83.671 24.8559 85.1296 31.2364 87.8547C37.5988 90.5453 39.9318 91.0867 42.9062 91.7922L42.9801 91.8086C45.4115 92.3763 47.7067 91.5937 49.4852 89.6495C51.2079 87.7661 52.3711 84.8802 52.7501 81.5136" fill="#FFC73A"/>
<path d="M53.6899 54.9792C53.6539 48.3313 53.4324 41.9131 53.0731 37.4785C52.7376 33.6697 51.6069 29.9736 49.7541 26.6289C47.9215 23.3345 45.5392 20.7456 43.0422 19.3757L42.9651 19.333C40.788 18.1435 38.9439 17.1346 35.761 15.7925C35.761 15.7925 26.4406 11.6302 20.4194 12.1109C16.4819 12.4259 14.3802 14.6375 14.3802 14.6375C11.7585 17.3675 9.97838 20.785 9.44189 24.2746C8.64618 29.4115 8.07031 37.4539 8.00961 45.3109C7.96203 49.9556 8.09328 54.6626 8.35578 58.792C15.5884 62.1656 23.5777 63.5886 31.5304 62.9197C39.483 62.2508 47.1224 59.5134 53.6899 54.9792Z" fill="#FFD56B"/>
</svg>
