<svg width="68" height="90" viewBox="0 0 68 90" fill="none" xmlns="http://www.w3.org/2000/svg">
<rect width="68" height="90" fill="white"/>
<path d="M30.0147 35.1251C30.1779 35.0538 30.4177 34.9716 30.7021 35.0096C31.0112 35.051 31.2404 35.2275 31.3722 35.3377C31.5121 35.4546 31.864 35.8037 31.864 35.8037C32.4471 36.3818 33.2235 36.671 34 36.6712C34.7765 36.671 35.5529 36.3818 36.136 35.8037C36.136 35.8037 36.4879 35.4546 36.6278 35.3377C36.7596 35.2275 36.9888 35.051 37.2979 35.0096C37.5823 34.9716 37.8221 35.0538 37.9853 35.1251C38.1354 35.1905 38.3046 35.2861 38.4689 35.3788L40.718 36.6674C40.8638 36.7705 41.0609 36.9347 41.174 37.2004C41.2974 37.4905 41.2576 37.7829 41.2283 37.952C41.1965 38.135 41.1307 38.387 41.0677 38.6281C40.6714 40.1449 41.6393 41.7766 43.2062 42.1965L43.2338 42.2039C43.4709 42.2674 43.693 42.3269 43.8667 42.3896C44.0293 42.4482 44.3009 42.5581 44.4923 42.8065C44.6682 43.0347 44.7148 43.2848 44.7332 43.4618C44.7501 43.6251 44.75 43.8204 44.75 44.0105V45.9896C44.75 46.1797 44.7501 46.375 44.7332 46.5382C44.7148 46.7153 44.6682 46.9654 44.4923 47.1936C44.3009 47.4419 44.0293 47.5519 43.8668 47.6105C43.6931 47.6731 43.2063 47.8036 43.2063 47.8036C41.64 48.2234 40.6727 49.8549 41.0692 51.3719C41.0692 51.3719 41.1981 51.8649 41.2298 52.0479C41.2592 52.217 41.299 52.5094 41.1756 52.7995C41.0625 53.0652 40.8655 53.2295 40.7196 53.3326L38.4705 54.6211L38.4704 54.6212C38.3062 54.7139 38.1369 54.8095 37.9869 54.875C37.8236 54.9462 37.5838 55.0285 37.2994 54.9904C36.9902 54.9489 36.7611 54.7725 36.6293 54.6623C36.4894 54.5453 36.1375 54.1962 36.1375 54.1962C35.5541 53.6176 34.7771 53.3281 34 53.3279C33.2229 53.3281 32.4459 53.6176 31.8625 54.1962C31.8625 54.1962 31.5106 54.5453 31.3707 54.6623C31.2389 54.7725 31.0098 54.9489 30.7006 54.9904C30.4162 55.0285 30.1764 54.9462 30.0131 54.875C29.8631 54.8095 29.6938 54.7139 29.5296 54.6212L29.5295 54.6211L27.2804 53.3326C27.1345 53.2295 26.9375 53.0652 26.8244 52.7995C26.701 52.5094 26.7408 52.217 26.7702 52.0479C26.8019 51.8649 26.9308 51.3719 26.9308 51.3719C27.3273 49.8549 26.36 48.2234 24.7937 47.8036C24.7937 47.8036 24.3069 47.6731 24.1332 47.6105C23.9707 47.5519 23.6991 47.4419 23.5077 47.1936C23.3318 46.9654 23.2852 46.7153 23.2668 46.5382C23.2499 46.375 23.25 46.1797 23.25 45.9896V44.0105C23.25 43.8204 23.2499 43.6251 23.2668 43.4618C23.2852 43.2848 23.3318 43.0347 23.5077 42.8065C23.6991 42.5581 23.9707 42.4482 24.1333 42.3896C24.307 42.3269 24.5291 42.2674 24.7662 42.2039L24.7938 42.1965C26.3607 41.7766 27.3286 40.1449 26.9323 38.6281C26.8693 38.387 26.8035 38.135 26.7717 37.952C26.7424 37.7829 26.7026 37.4905 26.826 37.2004C26.9391 36.9347 27.1362 36.7705 27.282 36.6674L29.5311 35.3788C29.6954 35.2861 29.8646 35.1905 30.0147 35.1251Z" fill="#C1C1CC"/>
<path d="M37.5 45C37.5 46.933 35.933 48.5 34 48.5C32.067 48.5 30.5 46.933 30.5 45C30.5 43.067 32.067 41.5 34 41.5C35.933 41.5 37.5 43.067 37.5 45Z" fill="white"/>
</svg>
