<svg width="68" height="90" viewBox="0 0 68 90" fill="none" xmlns="http://www.w3.org/2000/svg">
<rect width="68" height="90" fill="white"/>
<path d="M30.9627 36H26.1282C24.9528 36 24 36.9528 24 38.1282V42.9627C24 44.1381 24.9528 45.0909 26.1282 45.0909H30.9627C32.1381 45.0909 33.0909 44.1381 33.0909 42.9627V38.1282C33.0909 36.9528 32.1381 36 30.9627 36Z" fill="#C1C1CC"/>
<path d="M41.8718 36H37.0373C35.8619 36 34.9091 36.9528 34.9091 38.1282V42.9627C34.9091 44.1381 35.8619 45.0909 37.0373 45.0909H41.8718C43.0472 45.0909 44 44.1381 44 42.9627V38.1282C44 36.9528 43.0472 36 41.8718 36Z" fill="#C1C1CC"/>
<path d="M41.8718 46.9091H37.0372C35.8619 46.9091 34.9091 47.8619 34.9091 49.0373V53.8718C34.9091 55.0472 35.8619 56 37.0372 56H41.8718C43.0471 56 44 55.0472 44 53.8718V49.0373C44 47.8619 43.0471 46.9091 41.8718 46.9091Z" fill="#C1C1CC"/>
<path d="M30.9627 46.9091H26.1282C24.9528 46.9091 24 47.8619 24 49.0373V53.8718C24 55.0472 24.9528 56 26.1282 56H30.9627C32.1381 56 33.0909 55.0472 33.0909 53.8718V49.0373C33.0909 47.8619 32.1381 46.9091 30.9627 46.9091Z" fill="#C1C1CC"/>
</svg>
