<svg width="32" height="32" viewBox="0 0 32 32" fill="none" xmlns="http://www.w3.org/2000/svg">
<path fill-rule="evenodd" clip-rule="evenodd" d="M16.1944 9.18892L16.0753 9.26548C14.3198 10.394 12.9247 11.2909 11.9333 12.1115C10.9248 12.9463 10.1807 13.8226 9.94188 14.9602C9.79802 15.6454 9.79802 16.3547 9.94187 17.0399C10.1807 18.1775 10.9248 19.0538 11.9333 19.8886C12.9247 20.7092 14.3198 21.6061 16.0752 22.7346L16.1943 22.8112C18.1058 24.04 19.6196 25.0132 20.8548 25.61C22.0976 26.2104 23.279 26.5437 24.4457 26.1869C25.1338 25.9765 25.764 25.6076 26.2904 25.111C27.1715 24.28 27.5132 23.0862 27.6738 21.676C27.834 20.2704 27.834 18.4183 27.834 16.0678V15.9323C27.834 13.5818 27.834 11.7297 27.6738 10.3241C27.5132 8.91391 27.1715 7.72006 26.2904 6.88906C25.764 6.39251 25.1338 6.02361 24.4457 5.81319C23.279 5.45644 22.0976 5.78966 20.8548 6.39012C19.6196 6.98687 18.1058 7.96007 16.1944 9.18892Z" fill="#0072BB"/>
<path fill-rule="evenodd" clip-rule="evenodd" d="M5.50033 4C6.23671 4 6.83366 4.59695 6.83366 5.33333L6.83366 26.6667C6.83366 27.403 6.2367 28 5.50032 28C4.76394 28 4.16699 27.403 4.16699 26.6667L4.16699 5.33333C4.16699 4.59695 4.76395 4 5.50033 4Z" fill="#0072BB"/>
</svg>
