<svg width="32" height="32" viewBox="0 0 32 32" fill="none" xmlns="http://www.w3.org/2000/svg">
<rect width="32" height="32" rx="8" fill="#E4F4FF"/>
<path d="M14.5163 6.04299C14.6958 6.27652 14.722 6.59348 14.5832 6.85329C13.9993 7.94693 13.6679 9.1961 13.6679 10.5249C13.6679 14.8367 17.1633 18.3321 21.4751 18.3321C22.8039 18.3321 24.0531 18.0008 25.1467 17.4168C25.4065 17.2781 25.7235 17.3043 25.957 17.4837C26.1906 17.6632 26.2974 17.9628 26.2302 18.2495C25.1556 22.835 21.0409 26.25 16.1269 26.25C10.3959 26.25 5.75 21.6041 5.75 15.8732C5.75 10.9591 9.16505 6.84448 13.7505 5.76982C14.0373 5.70261 14.3368 5.80947 14.5163 6.04299Z" fill="#0072BB"/>
</svg>
