<svg width="24" height="24" viewBox="0 0 24 24" fill="none" xmlns="http://www.w3.org/2000/svg">
<path fill-rule="evenodd" clip-rule="evenodd" d="M6.00023 10.75C6.00023 7.43629 8.68652 4.75 12.0002 4.75C15.3139 4.75 18.0002 7.43629 18.0002 10.75V12.006C17.9258 12.0388 17.8507 12.0732 17.7747 12.1079C17.4186 12.2671 16.5977 12.6348 16.342 13.3919C16.2489 13.6672 16.2497 13.9616 16.2503 14.2355V18.7645C16.2497 19.0384 16.2489 19.3327 16.342 19.6081C16.5977 20.3652 17.4186 20.7329 17.7747 20.8921L17.7747 20.8921C18.1376 21.0581 18.4791 21.2144 18.8368 21.2434C19.2342 21.2755 19.6365 21.1906 19.9855 20.9947C20.3025 20.8168 20.5405 20.5265 20.7816 20.2324L20.7816 20.2323C20.7816 20.2323 21.0338 19.9318 21.1496 19.7975L21.1497 19.7975C21.3615 19.552 21.6021 19.2733 21.8004 19.0137C22.1281 18.5849 22.4564 18.0711 22.6195 17.4741C22.7941 16.8348 22.7941 16.1652 22.6195 15.5259C22.5011 15.0927 22.287 14.7104 22.0044 14.3091C21.7307 13.9206 21.3619 13.4727 20.906 12.919L20.9059 12.9188L20.9059 12.9188L20.9058 12.9188C20.9058 12.9188 20.6338 12.5757 20.5591 12.4901C20.4264 12.3381 20.2438 12.1535 20.0002 12.0136V10.75C20.0002 6.33172 16.4185 2.75 12.0002 2.75C7.58195 2.75 4.00023 6.33172 4.00023 10.75V12.0136C3.75669 12.1535 3.57408 12.3381 3.44139 12.4901C3.36665 12.5757 3.09463 12.9188 3.09463 12.9188L3.0946 12.9188C2.6386 13.4726 2.26983 13.9205 1.99611 14.3091C1.71345 14.7104 1.49932 15.0927 1.38098 15.5259C1.20634 16.1652 1.20634 16.8348 1.38098 17.4741C1.54407 18.0711 1.8724 18.5849 2.20005 19.0137C2.39841 19.2733 2.63893 19.552 2.8508 19.7975L2.85082 19.7975C2.96671 19.9318 3.21887 20.2323 3.21887 20.2323C3.45992 20.5265 3.69791 20.8168 4.01491 20.9947C4.36396 21.1906 4.76625 21.2755 5.16362 21.2434C5.52132 21.2144 5.86282 21.0581 6.22572 20.8921L6.22574 20.8921C6.58189 20.7329 7.40272 20.3652 7.6585 19.6081C7.75152 19.3327 7.75079 19.0384 7.75011 18.7645V14.2355C7.75079 13.9616 7.75152 13.6672 7.6585 13.3919C7.40272 12.6348 6.5819 12.2671 6.22574 12.1079C6.14975 12.0732 6.07469 12.0388 6.00023 12.006V10.75Z" fill="white"/>
</svg>
