<svg width="32" height="32" viewBox="0 0 32 32" fill="none" xmlns="http://www.w3.org/2000/svg">
<rect width="32" height="32" rx="8" fill="#E4F4FF"/>
<path opacity="0.4" d="M18.92 5.78681C16.967 5.73773 15.033 5.73773 13.08 5.7868L13.0218 5.78826C11.497 5.82655 10.27 5.85735 9.2867 6.0286C8.2572 6.20789 7.42048 6.55177 6.71362 7.26132C6.00971 7.9679 5.66764 8.7926 5.49176 9.8054C5.32429 10.7698 5.29878 11.9668 5.26719 13.4496L5.26593 13.5084C5.24469 14.5047 5.24469 15.4953 5.26594 16.4916L5.26719 16.5504C5.29879 18.0332 5.32429 19.2302 5.49176 20.1946C5.66764 21.2074 6.00972 22.0321 6.71362 22.7387C7.42048 23.4482 8.2572 23.7921 9.2867 23.9714C10.27 24.1426 11.497 24.1735 13.0218 24.2117L13.08 24.2132C13.8896 24.2335 14.6959 24.2455 15.5017 24.2489C15.638 24.2495 15.7488 24.1411 15.7655 24.0057C15.8861 23.028 16.5123 22.4028 16.8339 22.1239C17.3599 21.6677 18.2123 21.245 18.5033 21.1006L18.5239 21.0904C18.7042 20.9959 18.7523 20.7537 18.628 20.5925C18.0749 19.8751 17.746 18.9759 17.746 18C17.746 15.6528 19.6488 13.75 21.996 13.75C23.7002 13.75 25.1701 14.753 25.8475 16.2009C25.897 16.3066 25.9217 16.3595 25.9519 16.3928C25.9906 16.4357 26.0312 16.4615 26.0865 16.4784C26.1294 16.4916 26.1817 16.4916 26.2862 16.4916C26.4301 16.4916 26.5021 16.4916 26.5591 16.4669C26.6274 16.4374 26.6829 16.3827 26.7135 16.3149C26.739 16.2582 26.7401 16.1868 26.7422 16.0438C26.7548 15.1981 26.7521 14.3554 26.7341 13.5084L26.7328 13.4497C26.7012 11.9668 26.6757 10.7698 26.5082 9.80542C26.3324 8.79261 25.9903 7.96792 25.2864 7.26134C24.5795 6.55179 23.7428 6.20791 22.7133 6.02862C21.73 5.85737 20.503 5.82656 18.9782 5.78827L18.92 5.78681Z" fill="#0072BB"/>
<path d="M10.1394 10.5029C10.4204 10.0275 11.0337 9.86999 11.5091 10.1511L14.4511 11.8905C15.2914 12.3873 15.6898 12.5119 16.0002 12.5119C16.3105 12.5119 16.7089 12.3873 17.5492 11.8905L20.4912 10.1511C20.9666 9.86999 21.5799 10.0275 21.861 10.5029C22.142 10.9783 21.9845 11.5916 21.5091 11.8727L18.5671 13.6121C17.6916 14.1298 16.8898 14.5119 16.0002 14.5119C15.1105 14.5119 14.3088 14.1298 13.4332 13.6121L10.4912 11.8727C10.0158 11.5916 9.85828 10.9783 10.1394 10.5029Z" fill="#0072BB"/>
<path d="M19.2071 22.426C20.9158 21.5247 23.0768 21.5247 24.7855 22.426C25.095 22.5801 25.8018 22.9329 26.1756 23.2571C26.4085 23.4591 26.6865 23.7713 26.7381 24.1894C26.795 24.6509 26.5579 25.0489 26.1926 25.3573C25.633 25.8296 24.9114 26.25 23.9559 26.25H20.0367C19.0812 26.25 18.3596 25.8296 17.8 25.3573C17.4347 25.0489 17.1976 24.6509 17.2545 24.1894C17.3061 23.7712 17.5841 23.4591 17.8169 23.2571C18.1908 22.9329 18.8975 22.5801 19.2071 22.426Z" fill="#0072BB"/>
<path d="M19.2463 18C19.2463 16.4812 20.4775 15.25 21.9963 15.25C23.5151 15.25 24.7463 16.4812 24.7463 18C24.7463 19.5188 23.5151 20.75 21.9963 20.75C20.4775 20.75 19.2463 19.5188 19.2463 18Z" fill="#0072BB"/>
</svg>
