<svg width="32" height="32" viewBox="0 0 32 32" fill="none" xmlns="http://www.w3.org/2000/svg">
<rect width="32" height="32" rx="8" fill="#E4F4FF"/>
<path fill-rule="evenodd" clip-rule="evenodd" d="M21.875 18.875C22.9796 18.875 23.875 19.7704 23.875 20.875L23.875 24.522C23.875 25.0742 24.3227 25.522 24.875 25.522C25.4273 25.522 25.875 25.0742 25.875 24.522L25.875 20.875C25.875 18.6659 24.0841 16.875 21.875 16.875C19.6659 16.875 17.875 18.6659 17.875 20.875L17.875 24.3749C17.875 25.7556 18.9943 26.8749 20.375 26.8749C21.7557 26.8749 22.875 25.7556 22.875 24.3749L22.875 21.875C22.875 21.3227 22.4273 20.875 21.875 20.875C21.3227 20.875 20.875 21.3227 20.875 21.875L20.875 24.3749C20.875 24.651 20.6511 24.8749 20.375 24.8749C20.0989 24.8749 19.875 24.651 19.875 24.3749L19.875 20.875C19.875 19.7704 20.7704 18.875 21.875 18.875Z" fill="#0072BB"/>
<path opacity="0.4" d="M21.0451 5.2759C19.8591 5.12496 18.3481 5.12498 16.4595 5.125H15.2905C13.4019 5.12498 11.8909 5.12496 10.7049 5.2759C9.48209 5.43154 8.4578 5.76258 7.64002 6.53673C6.81437 7.31833 6.454 8.30995 6.28592 9.49339C6.12495 10.6268 6.12497 12.0664 6.125 13.8454L6.125 17.9046C6.12497 19.6835 6.12495 21.1232 6.28592 22.2566C6.454 23.4401 6.81437 24.4317 7.64002 25.2133C8.4578 25.9874 9.48208 26.3185 10.7049 26.4741C11.8909 26.625 13.4019 26.625 15.2905 26.625H16.4595C16.5206 26.625 16.5511 26.625 16.562 26.6242C16.7814 26.6082 16.8997 26.4205 16.8195 26.2156C16.8155 26.2054 16.7985 26.1698 16.7644 26.0985C16.5148 25.5766 16.375 24.9921 16.375 24.3749L16.375 20.875C16.375 17.8374 18.8374 15.375 21.875 15.375C22.8294 15.375 23.727 15.6181 24.5093 16.0457C25.0571 16.3452 25.331 16.4949 25.478 16.4078C25.625 16.3206 25.625 16.0377 25.625 15.4718V13.8454C25.625 12.0665 25.6251 10.6268 25.4641 9.49339C25.296 8.30995 24.9356 7.31833 24.11 6.53673C23.2922 5.76258 22.2679 5.43154 21.0451 5.2759Z" fill="#0072BB"/>
<path fill-rule="evenodd" clip-rule="evenodd" d="M10.875 10.875C10.875 10.3227 11.3227 9.875 11.875 9.875L19.875 9.875C20.4273 9.875 20.875 10.3227 20.875 10.875C20.875 11.4273 20.4273 11.875 19.875 11.875L11.875 11.875C11.3227 11.875 10.875 11.4273 10.875 10.875Z" fill="#0072BB"/>
<path fill-rule="evenodd" clip-rule="evenodd" d="M10.875 15.875C10.875 15.3227 11.3227 14.875 11.875 14.875L14.875 14.875C15.4273 14.875 15.875 15.3227 15.875 15.875C15.875 16.4273 15.4273 16.875 14.875 16.875H11.875C11.3227 16.875 10.875 16.4273 10.875 15.875Z" fill="#0072BB"/>
</svg>
