<svg width="32" height="32" viewBox="0 0 32 32" fill="none" xmlns="http://www.w3.org/2000/svg">
<rect width="32" height="32" rx="8" fill="#E4F4FF"/>
<path opacity="0.4" d="M8.25 19C8.25 14.7198 11.7198 11.25 16 11.25C20.2802 11.25 23.75 14.7198 23.75 19C23.75 23.2802 20.2802 26.75 16 26.75C11.7198 26.75 8.25 23.2802 8.25 19Z" fill="#0072BB"/>
<path d="M16 5.25C12.9624 5.25 10.5 7.71243 10.5 10.75V13.5399C11.0817 12.954 11.7563 12.4605 12.5 12.0835V10.75C12.5 8.817 14.067 7.25 16 7.25C17.933 7.25 19.5 8.817 19.5 10.75V12.0835C20.2437 12.4605 20.9183 12.954 21.5 13.5399V10.75C21.5 7.71243 19.0376 5.25 16 5.25Z" fill="#0072BB"/>
<path fill-rule="evenodd" clip-rule="evenodd" d="M16 17C16.5523 17 17 17.4477 17 18V20C17 20.5523 16.5523 21 16 21C15.4477 21 15 20.5523 15 20V18C15 17.4477 15.4477 17 16 17Z" fill="#0072BB"/>
</svg>
