<svg width="50" height="50" viewBox="0 0 50 50" fill="none" xmlns="http://www.w3.org/2000/svg">
<circle cx="25" cy="25" r="25" fill="#E4F4FF"/>
<path d="M11.6897 35.4653L8.97851 19.8789C8.95233 19.7285 8.93601 19.5765 8.92966 19.4239C8.88936 17.6568 10.1424 16.1303 11.8655 15.8475L17.0974 14.9127L16.9557 35.4653H11.6897Z" fill="#2E8CC9"/>
<path d="M31.8255 34.7827C31.7347 35.1641 31.43 35.4552 31.0487 35.5247L15.6512 38.2749C14.6807 38.4465 13.6842 38.1866 12.9163 37.5615C12.1485 36.9365 11.6837 36.0069 11.6406 35.0103C11.6021 33.3207 12.7508 31.8403 14.3811 31.4785L18.6945 32.7052H18.6897L14.8061 33.4026C14.3729 33.4797 13.9968 33.7494 13.781 34.1374C13.5653 34.5255 13.5327 34.991 13.6923 35.406C13.9686 36.0743 14.6703 36.4544 15.3727 36.3161L27.1407 34.2139L31.8255 34.7827Z" fill="#0072BB"/>
<path d="M18.6902 32.7052L14.8066 33.4027C14.3735 33.4797 13.9973 33.7494 13.7815 34.1374C13.5658 34.5255 13.5332 34.991 13.6928 35.406C13.9691 36.0743 14.6709 36.4544 15.3733 36.3161L27.1413 34.2139L18.6902 32.7052Z" fill="#FFE39D"/>
<path d="M15.1621 26.0477L17.8767 10.4593C17.9739 9.9235 18.4781 9.56609 19.0086 9.65701L34.2874 12.385C36.0118 12.668 37.2658 14.1954 37.2258 15.9638C37.2191 16.1157 37.2028 16.2671 37.1769 16.4169L34.4623 32.0053L15.1621 26.0477Z" fill="#FFD56B"/>
<path d="M31.0915 14.8207C31.0628 14.8207 31.0342 14.8182 31.006 14.8132L19.9409 12.8376C19.6912 12.7753 19.532 12.5275 19.5769 12.2711C19.6217 12.0147 19.8553 11.8374 20.1109 11.8656L31.1755 13.8388C31.425 13.8831 31.5997 14.1131 31.5779 14.3687C31.556 14.6243 31.3448 14.8205 31.0915 14.8207Z" fill="#FFB909"/>
<path d="M28.7439 16.911C28.7152 16.9111 28.6866 16.9084 28.6584 16.9031L21.4423 15.6165C21.1826 15.5632 21.0123 15.3101 21.0583 15.0459C21.1042 14.7817 21.3498 14.6028 21.6118 14.6426L28.8284 15.9286C29.0794 15.9716 29.2558 16.2025 29.2337 16.4593C29.2116 16.7161 28.9984 16.9127 28.7439 16.911Z" fill="#FFB909"/>
<path d="M29.7626 19.1204L19.6579 17.3129C19.3922 17.2654 19.1387 17.445 19.0918 17.7141L18.2418 22.5864C18.1948 22.8555 18.3722 23.1122 18.6379 23.1597L28.7426 24.9671C29.0083 25.0147 29.2618 24.8351 29.3088 24.566L30.1588 19.6937C30.2057 19.4246 30.0283 19.1679 29.7626 19.1204Z" fill="#FFEAB5"/>
<path d="M37.2236 15.9613C37.2178 16.114 37.2015 16.266 37.1748 16.4164L34.4587 32.0028L30.6924 30.8404L32.876 18.3059L33.3938 15.3479L33.9214 12.3207L34.2878 12.385C36.0101 12.6692 37.2624 14.1947 37.2236 15.9613Z" fill="#FFC73A"/>
<path d="M31.5718 27.9714L16.2914 25.2459C16.235 25.236 16.1778 25.231 16.1205 25.231C15.6141 25.2323 15.1927 25.6251 15.1495 26.1359C15.1063 26.6467 15.4556 27.1063 15.9544 27.1948L31.347 29.9401C31.7798 30.0194 32.1548 30.2906 32.3695 30.6793C32.5841 31.068 32.6158 31.5335 32.4559 31.9484C32.1811 32.6152 31.4804 32.9938 30.7804 32.8536L15.4463 30.1182C15.3899 30.1083 15.3327 30.1033 15.2754 30.1033C14.7681 30.102 14.3443 30.4941 14.2997 31.0057C14.2552 31.5174 14.6047 31.9784 15.1044 32.0671L30.5019 34.8124C31.4717 34.9845 32.4678 34.7255 33.2356 34.1014C34.0035 33.4773 34.4687 32.5486 34.5125 31.5526C34.5509 29.7835 33.2965 28.256 31.5718 27.9714Z" fill="#FFB909"/>
<path d="M32.4559 31.9484C32.1811 32.6153 31.4804 32.9938 30.7803 32.8536L15.4463 30.1182L15.9543 27.1948L31.347 29.9401C31.7798 30.0195 32.1548 30.2906 32.3694 30.6793C32.584 31.068 32.6158 31.5335 32.4559 31.9484Z" fill="#FFE39D"/>
<path d="M34.6434 26.7858C31.0931 26.7858 28.2148 29.6631 28.2148 33.2143C28.2148 36.7656 31.0931 39.6429 34.6434 39.6429C38.1937 39.6429 41.072 36.7639 41.072 33.2143C41.072 29.6648 38.1937 26.7858 34.6434 26.7858Z" fill="#33B469"/>
<path d="M28.2148 33.2143C28.2134 34.2769 28.4765 35.3232 28.9805 36.2586C29.6226 36.4471 30.2884 36.5426 30.9575 36.5421C34.8222 36.5421 37.9551 33.4092 37.9551 29.5445C37.9557 28.8648 37.8572 28.1885 37.6628 27.5371C36.7335 27.0421 35.6964 26.784 34.6434 26.7858C31.0931 26.7858 28.2148 29.6631 28.2148 33.2143Z" fill="#4CCC82"/>
<path fill-rule="evenodd" clip-rule="evenodd" d="M34.6434 29.2858C34.0517 29.2858 33.572 29.7655 33.572 30.3572V32.1429H31.7863C31.1945 32.1429 30.7148 32.6226 30.7148 33.2143C30.7148 33.8061 31.1945 34.2858 31.7863 34.2858H33.572V36.0715C33.572 36.6632 34.0517 37.1429 34.6434 37.1429C35.2352 37.1429 35.7148 36.6632 35.7148 36.0715V34.2858H37.5006C38.0923 34.2858 38.572 33.8061 38.572 33.2143C38.572 32.6226 38.0923 32.1429 37.5006 32.1429H35.7148V30.3572C35.7148 29.7655 35.2352 29.2858 34.6434 29.2858Z" fill="white"/>
</svg>
