<svg width="32" height="32" viewBox="0 0 32 32" fill="none" xmlns="http://www.w3.org/2000/svg">
<rect width="32" height="32" rx="8" fill="#0072BB"/>
<g clip-path="url(#clip0_906_11050)">
<path d="M16 6.5C16.7797 6.5 17.4204 7.09489 17.4931 7.85554L17.5 8V24C17.5 24.8284 16.8284 25.5 16 25.5C15.2203 25.5 14.5796 24.9051 14.5069 24.1445L14.5 24V8C14.5 7.17157 15.1716 6.5 16 6.5ZM12 9.5C12.8284 9.5 13.5 10.1716 13.5 11V21C13.5 21.8284 12.8284 22.5 12 22.5C11.1716 22.5 10.5 21.8284 10.5 21V11C10.5 10.1716 11.1716 9.5 12 9.5ZM20 9.5C20.8284 9.5 21.5 10.1716 21.5 11V21C21.5 21.8284 20.8284 22.5 20 22.5C19.1716 22.5 18.5 21.8284 18.5 21V11C18.5 10.1716 19.1716 9.5 20 9.5ZM8 12.5C8.82843 12.5 9.5 13.1716 9.5 14V18C9.5 18.8284 8.82843 19.5 8 19.5C7.17157 19.5 6.5 18.8284 6.5 18V14C6.5 13.1716 7.17157 12.5 8 12.5ZM24 12.5C24.7797 12.5 25.4204 13.0949 25.4931 13.8555L25.5 14V18C25.5 18.8284 24.8284 19.5 24 19.5C23.2203 19.5 22.5796 18.9051 22.5069 18.1445L22.5 18V14C22.5 13.1716 23.1716 12.5 24 12.5Z" fill="white"/>
</g>
<defs>
<clipPath id="clip0_906_11050">
<rect width="24" height="24" fill="white" transform="translate(4 4)"/>
</clipPath>
</defs>
</svg>
