<svg width="18" height="18" viewBox="0 0 18 18" fill="none" xmlns="http://www.w3.org/2000/svg">
<path opacity="0.4" d="M6.45691 14.1903C6.17989 14.0727 6 13.8009 6 13.5L6 4.49998C6 4.19903 6.17989 3.92722 6.45692 3.80962C6.73394 3.69201 7.05443 3.75138 7.27094 3.96042L11.4041 7.95093C11.514 8.05689 11.6443 8.18255 11.7413 8.3053C11.8575 8.45234 12 8.68417 12 8.99998C12 9.31579 11.8575 9.54762 11.7413 9.69466C11.6443 9.81741 11.514 9.94307 11.4041 10.049L11.4041 10.049L7.27094 14.0395C7.05443 14.2486 6.73394 14.3079 6.45691 14.1903Z" fill="#0072BB"/>
<path d="M6.45691 3.80966C6.17989 3.92726 6 4.19907 6 4.50002L6 8.03404L9.67982 11.7139L11.4041 10.0491L11.4042 10.049C11.514 9.94309 11.6443 9.81744 11.7413 9.6947C11.8575 9.54766 12 9.31583 12 9.00002C12 8.68421 11.8575 8.45238 11.7413 8.30534C11.6443 8.18259 11.514 8.05693 11.4041 7.95097L11.4041 7.95097L7.27094 3.96046C7.05443 3.75142 6.73394 3.69205 6.45691 3.80966Z" fill="#0072BB"/>
</svg>
