<svg width="100" height="100" viewBox="0 0 100 100" fill="none" xmlns="http://www.w3.org/2000/svg">
<path d="M91.3566 37.9223C90.7643 32.6885 85.3172 27.7632 79.7274 27.1611C76.5871 26.8537 73.4457 26.5961 70.3032 26.3883C68.8184 23.7304 67.3369 21.0511 65.8816 18.362C64.6018 16.0093 62.359 14.3965 60.0538 14.2685C55.4238 13.9092 44.5756 13.9092 39.9455 14.2685C37.6404 14.3981 35.3959 16.0142 34.1178 18.3702C32.7626 20.8717 31.3904 23.3661 30.0013 25.8534C29.9132 26.0141 29.7872 26.1509 29.6342 26.2518C29.4813 26.3528 29.306 26.4148 29.1235 26.4326C26.1703 26.6349 23.2198 26.8799 20.272 27.1676C14.6822 27.7697 9.2351 32.6935 8.64281 37.9289C7.41589 49.5703 7.9474 61.33 10.2195 72.8133C10.7117 75.3514 12.3524 77.9585 14.6133 80.1078C16.8742 82.2571 19.5534 83.737 22.0916 84.1275C40.5871 86.9872 59.4123 86.9872 77.9078 84.1275C80.446 83.737 83.1219 82.2423 85.3861 80.1012C87.6503 77.9601 89.2811 75.3432 89.7799 72.8067C92.052 61.3235 92.5835 49.5637 91.3566 37.9223Z" fill="#0072BB"/>
<path d="M65.8822 18.362C64.6025 16.0093 62.3596 14.3965 60.0545 14.2685C55.4244 13.9092 44.5762 13.9092 39.9462 14.2685C37.641 14.3981 35.3965 16.0142 34.1184 18.3702C32.7632 20.8717 31.3911 23.3661 30.0019 25.8534C29.9138 26.0141 29.7878 26.1509 29.6349 26.2518C29.4819 26.3528 29.3066 26.4148 29.1242 26.4326C26.1709 26.6349 23.2204 26.8799 20.2727 27.1676C14.6828 27.7697 9.23573 32.6935 8.64344 37.9289C7.5102 48.6607 7.8752 59.4979 9.72794 70.1291C15.4082 72.5746 21.5288 73.8321 27.7132 73.8239C52.8354 73.8239 73.1997 53.458 73.1997 28.3374C73.1997 27.7555 73.1887 27.1764 73.1669 26.5999C72.212 26.5277 71.2576 26.4594 70.3039 26.3948C68.819 23.7304 67.3375 21.0511 65.8822 18.362Z" fill="#2E8CC9"/>
<path d="M49.8607 75.5418C40.1807 75.4992 31.5293 66.838 31.3209 56.9003C31.2356 46.961 39.8919 38.4688 49.8607 38.4229C59.8247 38.4688 68.4809 46.9544 68.4005 56.9003C68.1922 66.838 59.5343 75.4975 49.8607 75.5418Z" fill="#34344F"/>
<path d="M75.3092 42.8265C74.4687 42.7586 73.6652 42.4515 72.9936 41.9415C72.322 41.4315 71.8105 40.7399 71.5195 39.9485C71.2284 39.1571 71.17 38.2989 71.3512 37.4753C71.5323 36.6517 71.9454 35.8972 72.5417 35.301C73.138 34.7047 73.8924 34.2916 74.716 34.1104C75.5396 33.9293 76.3978 33.9877 77.1892 34.2787C77.9807 34.5698 78.6722 35.0813 79.1822 35.7529C79.6922 36.4244 79.9993 37.2279 80.0672 38.0685C80.1164 38.7058 80.0272 39.3463 79.8055 39.946C79.5838 40.5456 79.2349 41.0901 78.7829 41.5422C78.3308 41.9942 77.7863 42.343 77.1867 42.5647C76.5871 42.7864 75.9466 42.8757 75.3092 42.8265Z" fill="#FFEAB5"/>
<path d="M42.8346 55.1973C41.9941 55.1294 41.1905 54.8223 40.519 54.3123C39.8474 53.8024 39.3359 53.1108 39.0449 52.3194C38.7538 51.5279 38.6954 50.6697 38.8765 49.8461C39.0577 49.0226 39.4708 48.2681 40.0671 47.6718C40.6633 47.0755 41.4178 46.6624 42.2414 46.4813C43.065 46.3001 43.9232 46.3585 44.7146 46.6496C45.5061 46.9406 46.1976 47.4522 46.7076 48.1237C47.2176 48.7953 47.5247 49.5988 47.5926 50.4393C47.6418 51.0767 47.5525 51.7172 47.3309 52.3168C47.1092 52.9164 46.7603 53.461 46.3083 53.913C45.8562 54.3651 45.3117 54.7139 44.7121 54.9356C44.1125 55.1573 43.472 55.2466 42.8346 55.1973Z" fill="#58587A"/>
<g clip-path="url(#clip0_4596_81)">
<path d="M81 64C71.0592 64 63 72.0585 63 82C63 91.9415 71.0592 100 81 100C90.9408 100 99 91.9408 99 82C99 72.0592 90.9408 64 81 64Z" fill="#DD4247"/>
<path d="M71.4769 92.1827C82.279 92.1827 91.0357 83.426 91.0357 72.6246C91.0374 70.5181 90.6984 68.4253 90.0317 66.4272C87.2891 64.8329 84.1723 63.9953 81 64C71.0592 64 63 72.0592 63 82C62.9951 85.2683 63.8843 88.4757 65.5713 91.2749C67.4818 91.8782 69.4735 92.1844 71.4769 92.1827Z" fill="#E55353"/>
<path d="M88.43 89.43C88.056 89.8039 87.5488 90.0139 87.0199 90.0139C86.4911 90.0139 85.9839 89.8039 85.6098 89.43L81.0001 84.8203L76.3904 89.43C76.0164 89.8039 75.5092 90.0139 74.9803 90.0139C74.4515 90.0139 73.9442 89.8039 73.5702 89.43C73.1963 89.056 72.9863 88.5488 72.9863 88.0199C72.9863 87.4911 73.1963 86.9839 73.5702 86.6098L78.1799 82.0001L73.5702 77.3904C73.1963 77.0164 72.9863 76.5092 72.9863 75.9803C72.9863 75.4515 73.1963 74.9442 73.5702 74.5702C73.9442 74.1963 74.4515 73.9863 74.9803 73.9863C75.5092 73.9863 76.0164 74.1963 76.3904 74.5702L81.0001 79.1799L85.6098 74.5702C85.9839 74.1963 86.4911 73.9863 87.0199 73.9863C87.5488 73.9863 88.056 74.1963 88.43 74.5702C88.8039 74.9442 89.0139 75.4515 89.0139 75.9803C89.0139 76.5092 88.8039 77.0164 88.43 77.3904L83.8203 82.0001L88.43 86.6098C88.8039 86.9839 89.0139 87.4911 89.0139 88.0199C89.0139 88.5488 88.8039 89.056 88.43 89.43Z" fill="white"/>
</g>
<defs>
<clipPath id="clip0_4596_81">
<rect width="36" height="36" fill="white" transform="translate(63 64)"/>
</clipPath>
</defs>
</svg>
