<svg width="32" height="32" viewBox="0 0 32 32" fill="none" xmlns="http://www.w3.org/2000/svg">
<rect width="32" height="32" rx="8" fill="#E4F4FF"/>
<path opacity="0.4" d="M26.25 16.0572C26.25 18.2479 26.25 19.9686 26.0694 21.312C25.8843 22.6886 25.4973 23.7809 24.6391 24.6391C23.7809 25.4973 22.6886 25.8843 21.312 26.0694C19.9686 26.25 18.2479 26.25 16.0572 26.25L16.0572 26.25L15.9428 26.25L15.9428 26.25C13.7521 26.25 12.0314 26.25 10.688 26.0694C9.31136 25.8843 8.21911 25.4973 7.36091 24.6391C6.50271 23.7809 6.11568 22.6886 5.93059 21.312C5.74998 19.9686 5.74999 18.2479 5.75 16.0572L5.75 16.0572L5.75 15.9428L5.75 15.9428C5.74999 13.7521 5.74998 12.0314 5.93059 10.688C6.11568 9.31137 6.50271 8.21911 7.36091 7.36091C8.21911 6.50271 9.31137 6.11568 10.688 5.93059C12.0314 5.74998 13.7521 5.74999 15.9428 5.75L16.0572 5.75C18.2479 5.74999 19.9686 5.74998 21.312 5.93059C22.6886 6.11568 23.7809 6.50271 24.6391 7.36091C25.4973 8.21911 25.8843 9.31137 26.0694 10.688C26.25 12.0314 26.25 13.7521 26.25 15.9428L26.25 16.0572Z" fill="#0072BB"/>
<path d="M22 12.5C22 13.0523 21.5523 13.5 21 13.5L14.792 13.5C14.4062 14.383 13.5252 15 12.5 15C11.1193 15 10 13.8807 10 12.5C10 11.1193 11.1193 10 12.5 10C13.5252 10 14.4062 10.617 14.792 11.5L21 11.5C21.5523 11.5 22 11.9477 22 12.5Z" fill="#0072BB"/>
<path d="M19.5 17C20.8807 17 22 18.1193 22 19.5C22 20.8807 20.8807 22 19.5 22C18.4748 22 17.5938 21.383 17.208 20.5L11 20.5C10.4477 20.5 10 20.0523 10 19.5C10 18.9477 10.4477 18.5 11 18.5L17.208 18.5C17.5938 17.617 18.4748 17 19.5 17Z" fill="#0072BB"/>
</svg>
