<svg width="32" height="32" viewBox="0 0 32 32" fill="none" xmlns="http://www.w3.org/2000/svg">
<circle cx="16" cy="16" r="16" fill="white"/>
<path d="M6 16C6 10.4772 10.4772 6 16 6C21.5228 6 26 10.4772 26 16C26 21.5228 21.5228 26 16 26C10.4772 26 6 21.5228 6 16ZM24 16C24 11.5817 20.4183 8 16 8C11.5817 8 8 11.5817 8 16C8 20.4183 11.5817 24 16 24C20.4183 24 24 20.4183 24 16Z" fill="#F5F5FA"/>
<path d="M7 16C6.44772 16 5.99482 16.4488 6.04996 16.9984C6.21301 18.6234 6.7723 20.1893 7.68531 21.5557C8.78412 23.2002 10.3459 24.4819 12.1732 25.2388C14.0004 25.9957 16.0111 26.1937 17.9509 25.8079C19.8907 25.422 21.6725 24.4696 23.0711 23.0711C24.4696 21.6725 25.422 19.8907 25.8079 17.9509C26.1937 16.0111 25.9957 14.0004 25.2388 12.1732C24.4819 10.3459 23.2002 8.78412 21.5557 7.6853C20.1893 6.7723 18.6234 6.213 16.9984 6.04995C16.4488 5.99482 16 6.44771 16 7C16 7.55228 16.4494 7.99356 16.9974 8.06241C18.2262 8.21683 19.4072 8.65513 20.4446 9.34824C21.7602 10.2273 22.7855 11.4767 23.391 12.9385C23.9965 14.4003 24.155 16.0089 23.8463 17.5607C23.5376 19.1126 22.7757 20.538 21.6569 21.6569C20.538 22.7757 19.1126 23.5376 17.5607 23.8463C16.0089 24.155 14.4003 23.9965 12.9385 23.391C11.4767 22.7855 10.2273 21.7602 9.34824 20.4446C8.65513 19.4072 8.21683 18.2262 8.06242 16.9974C7.99356 16.4494 7.55229 16 7 16Z" fill="#33B469"/>
</svg>
