<svg width="16" height="16" viewBox="0 0 16 16" fill="none" xmlns="http://www.w3.org/2000/svg">
<g clip-path="url(#clip0_106_4007)">
<path opacity="0.4" d="M7.97873 0.833985H8.02062C8.42334 0.833978 8.75672 0.833973 9.032 0.857418C9.32049 0.881989 9.58118 0.934442 9.83262 1.05893C10.2806 1.28071 10.5638 1.63316 10.7626 1.98665C10.9167 2.26068 11.0363 2.56853 11.1377 2.82944C11.1617 2.891 11.1846 2.94996 11.2067 3.00524L11.3043 3.2492C11.353 3.37089 11.3773 3.43173 11.428 3.46611C11.4787 3.50049 11.5444 3.50059 11.6757 3.5008C12.2654 3.50172 12.7088 3.50846 13.0611 3.557C13.5166 3.61976 13.8459 3.7546 14.1882 4.01727C14.3616 4.15027 14.5167 4.30542 14.6497 4.47875C14.9343 4.84961 15.0548 5.28195 15.1115 5.7848C15.1664 6.27113 15.1664 6.88091 15.1663 7.63719V10.7039C15.1664 11.6156 15.1664 12.3505 15.0887 12.9285C15.008 13.5286 14.8354 14.0338 14.4341 14.4351C14.0328 14.8364 13.5276 15.009 12.9275 15.0896C12.3495 15.1673 11.6147 15.1673 10.7029 15.1673H5.29643C4.3847 15.1673 3.64982 15.1673 3.07184 15.0896C2.47177 15.009 1.96652 14.8364 1.56524 14.4351C1.16397 14.0338 0.991369 13.5286 0.910691 12.9285C0.832985 12.3505 0.832995 11.6156 0.833008 10.7039V7.63717C0.833 6.88091 0.832993 6.27112 0.887819 5.7848C0.944507 5.28195 1.06506 4.84961 1.34963 4.47875C1.48263 4.30542 1.63778 4.15027 1.81111 4.01727C2.15343 3.7546 2.48279 3.61976 2.93825 3.557C3.29051 3.50846 3.73392 3.50172 4.32362 3.5008C4.45499 3.50059 4.52068 3.50049 4.57137 3.46611C4.62206 3.43173 4.6464 3.37089 4.69507 3.2492L4.79266 3.00524C4.81477 2.94996 4.83768 2.89101 4.86161 2.82945C4.96302 2.56854 5.08268 2.26068 5.23679 1.98665C5.43559 1.63316 5.71878 1.28071 6.16673 1.05893C6.41818 0.934442 6.67887 0.881989 6.96736 0.857418C7.24264 0.833973 7.57601 0.833978 7.97873 0.833985Z" fill="#0072BB"/>
<path d="M5.33301 9.33464C5.33301 7.86188 6.52691 6.66797 7.99967 6.66797C9.47243 6.66797 10.6663 7.86188 10.6663 9.33464C10.6663 10.8074 9.47243 12.0013 7.99967 12.0013C6.52691 12.0013 5.33301 10.8074 5.33301 9.33464Z" fill="#0072BB"/>
<path fill-rule="evenodd" clip-rule="evenodd" d="M7.33301 4.00065C7.33301 3.63246 7.63015 3.33398 7.99669 3.33398C8.36189 3.33398 8.66634 3.63386 8.66634 4.00065C8.66634 4.36884 8.3692 4.66732 8.00265 4.66732C7.63746 4.66732 7.33301 4.36744 7.33301 4.00065Z" fill="#0072BB"/>
</g>
<defs>
<clipPath id="clip0_106_4007">
<rect width="16" height="16" fill="white"/>
</clipPath>
</defs>
</svg>
