<svg width="68" height="90" viewBox="0 0 68 90" fill="none" xmlns="http://www.w3.org/2000/svg">
<rect width="68" height="90" fill="white"/>
<path fill-rule="evenodd" clip-rule="evenodd" d="M34.5564 34.25H33.4436H33.4436C31.6058 34.25 30.1502 34.25 29.011 34.4031C27.8386 34.5608 26.8896 34.8929 26.1412 35.6412C25.3929 36.3896 25.0608 37.3386 24.9031 38.511C24.75 39.6502 24.75 41.1058 24.75 42.9436V52.3327C24.7474 52.3882 24.7461 52.4439 24.7461 52.5C24.7461 54.4192 26.2832 56 28.2099 56H42.24C42.2401 56 42.2401 56 42.2402 56C42.2445 56 42.2487 56 42.2529 55.9999C42.267 55.9997 42.2811 55.9993 42.2951 55.9985C42.8219 55.97 43.2402 55.5339 43.2402 55C43.2402 54.4477 42.7925 54 42.2402 54C41.4118 54 40.7402 53.3284 40.7402 52.5C40.7402 51.6716 41.4118 51 42.2402 51C42.7117 51 43.1069 50.6738 43.2125 50.2348C43.2368 50.1609 43.25 50.082 43.25 50V42.9436C43.25 41.1059 43.25 39.6502 43.0969 38.511C42.9392 37.3386 42.6071 36.3896 41.8588 35.6412C41.1104 34.8929 40.1614 34.5608 38.989 34.4031C37.8498 34.25 36.3942 34.25 34.5564 34.25H34.5564ZM39.0771 51H28.2099C27.4152 51 26.7461 51.6578 26.7461 52.5C26.7461 53.3422 27.4152 54 28.2099 54H39.0771C38.8611 53.5454 38.7402 53.0368 38.7402 52.5C38.7402 51.9632 38.8611 51.4546 39.0771 51Z" fill="#2E8CC9"/>
<path fill-rule="evenodd" clip-rule="evenodd" d="M30.6 36C30.1036 36 30 36.1036 30 36.6V39.69C30 40.4301 30 40.8002 30.2381 40.9437C30.4865 41.0934 30.8134 40.9135 31.4886 40.5163C31.904 40.272 32.2023 40.1501 32.5 40.15C32.7986 40.1499 33.0966 40.2723 33.5114 40.5163C34.1866 40.9135 34.5135 41.0934 34.7619 40.9437C35 40.8002 35 40.4301 35 39.69V36.6C35 36.1036 34.8964 36 34.4 36H30.6Z" fill="#FFB909"/>
<circle cx="34" cy="67" r="2" fill="#FFB909"/>
</svg>
