<svg width="24" height="24" viewBox="0 0 24 24" fill="none" xmlns="http://www.w3.org/2000/svg">
<path d="M12.3943 1.31147C11.1484 1.22943 9.84904 1.22959 8.6057 1.31147C4.67184 1.57054 1.54316 4.71804 1.28579 8.66337C1.23807 9.395 1.23807 10.1516 1.28579 10.8832C1.38191 12.3566 2.02885 13.6794 2.74047 14.7449C2.91772 15.0918 2.83576 15.6455 2.44323 16.3824L2.42293 16.4205C2.29167 16.6667 2.15745 16.9185 2.07916 17.1356C1.99551 17.3676 1.89847 17.7641 2.13223 18.159C2.34495 18.5183 2.68318 18.6457 2.9417 18.6953C3.15318 18.7358 3.40982 18.7419 3.63941 18.7473L3.68143 18.7483C4.91269 18.778 5.78628 18.4249 6.47881 17.919C6.58508 17.8413 6.66348 17.7842 6.7245 17.7413C6.81699 17.7765 6.93912 17.8262 7.10906 17.8955C7.58092 18.088 8.11505 18.2028 8.6057 18.2351C9.84904 18.317 11.1484 18.3172 12.3943 18.2351C16.3282 17.9761 19.4568 14.8286 19.7142 10.8832C19.7619 10.1516 19.7619 9.395 19.7142 8.66337C19.4568 4.71804 16.3282 1.57054 12.3943 1.31147Z" fill="white"/>
<path fill-rule="evenodd" clip-rule="evenodd" d="M7.5 12.75C7.08579 12.75 6.75 12.4142 6.75 12C6.75 11.5858 7.08579 11.25 7.5 11.25H13.5C13.9142 11.25 14.25 11.5858 14.25 12C14.25 12.4142 13.9142 12.75 13.5 12.75H7.5ZM7.5 8.75C7.08579 8.75 6.75 8.41421 6.75 8C6.75 7.58579 7.08579 7.25 7.5 7.25H10.5C10.9142 7.25 11.25 7.58579 11.25 8C11.25 8.41421 10.9142 8.75 10.5 8.75H7.5Z" fill="#0072BB"/>
<path d="M21.2107 10.9818C20.9047 15.6726 17.1832 19.4239 12.4926 19.7328C11.181 19.8192 9.81575 19.819 8.50684 19.7328C7.96745 19.6973 7.69775 19.6795 7.60454 19.7604C7.53003 19.8251 7.49328 19.9169 7.50253 20.0151C7.51411 20.138 7.69199 20.2867 8.04776 20.584C9.1942 21.5422 10.62 22.1635 12.2141 22.2681C13.3885 22.3452 14.6133 22.345 15.7853 22.2681C16.2511 22.2376 16.7583 22.1291 17.2069 21.9467L17.3041 21.9073C17.393 21.8712 17.4374 21.8532 17.4859 21.8501C17.5219 21.8478 17.5616 21.8527 17.596 21.8636C17.6423 21.8783 17.6813 21.9068 17.7595 21.9636C18.4187 22.4433 19.2499 22.7773 20.4182 22.7492L20.4587 22.7483C20.6737 22.7433 20.9186 22.7375 21.1212 22.6988C21.3701 22.6513 21.7029 22.5278 21.9126 22.1749C22.1439 21.7857 22.0467 21.3956 21.9664 21.1738C21.8915 20.9668 21.7636 20.7279 21.6408 20.4984L21.6209 20.4613C21.2531 19.7735 21.1872 19.2761 21.3403 18.974C22.0117 17.9722 22.6247 16.7246 22.7159 15.3322C22.761 14.6441 22.761 13.9326 22.7159 13.2446C22.658 12.3598 22.4465 11.5177 22.1078 10.7447C21.8763 10.2165 21.7606 9.95246 21.577 9.94183C21.533 9.93928 21.4818 9.94827 21.4413 9.96568C21.2723 10.0383 21.2518 10.3528 21.2107 10.9818Z" fill="white"/>
</svg>
