<svg width="84" height="84" viewBox="0 0 84 84" fill="none" xmlns="http://www.w3.org/2000/svg">
<g filter="url(#filter0_d_116_6085)">
<circle cx="42" cy="38" r="30" fill="#0072BB"/>
</g>
<path d="M42.3943 27.3115C41.1484 27.2294 39.849 27.2296 38.6057 27.3115C34.6718 27.5705 31.5432 30.718 31.2858 34.6634C31.2381 35.395 31.2381 36.1516 31.2858 36.8832C31.3819 38.3566 32.0288 39.6794 32.7405 40.7449C32.9177 41.0918 32.8358 41.6455 32.4432 42.3824L32.4229 42.4205C32.2917 42.6667 32.1575 42.9185 32.0792 43.1356C31.9955 43.3676 31.8985 43.7641 32.1322 44.159C32.345 44.5183 32.6832 44.6457 32.9417 44.6953C33.1532 44.7358 33.4098 44.7419 33.6394 44.7473L33.6814 44.7483C34.9127 44.778 35.7863 44.4249 36.4788 43.919C36.5851 43.8413 36.6635 43.7842 36.7245 43.7413C36.817 43.7765 36.9391 43.8262 37.1091 43.8955C37.5809 44.088 38.1151 44.2028 38.6057 44.2351C39.849 44.317 41.1484 44.3172 42.3943 44.2351C46.3282 43.9761 49.4568 40.8286 49.7142 36.8832C49.7619 36.1516 49.7619 35.395 49.7142 34.6634C49.4568 30.718 46.3282 27.5705 42.3943 27.3115Z" fill="white"/>
<path fill-rule="evenodd" clip-rule="evenodd" d="M37.5 38.75C37.0858 38.75 36.75 38.4142 36.75 38C36.75 37.5858 37.0858 37.25 37.5 37.25H43.5C43.9142 37.25 44.25 37.5858 44.25 38C44.25 38.4142 43.9142 38.75 43.5 38.75H37.5ZM37.5 34.75C37.0858 34.75 36.75 34.4142 36.75 34C36.75 33.5858 37.0858 33.25 37.5 33.25H40.5C40.9142 33.25 41.25 33.5858 41.25 34C41.25 34.4142 40.9142 34.75 40.5 34.75H37.5Z" fill="#0072BB"/>
<path d="M51.2107 36.9818C50.9047 41.6726 47.1832 45.4239 42.4926 45.7328C41.181 45.8192 39.8158 45.819 38.5068 45.7328C37.9674 45.6973 37.6978 45.6795 37.6045 45.7604C37.53 45.8251 37.4933 45.9169 37.5025 46.0151C37.5141 46.138 37.692 46.2867 38.0478 46.584C39.1942 47.5422 40.62 48.1635 42.2141 48.2681C43.3885 48.3452 44.6133 48.345 45.7853 48.2681C46.2511 48.2376 46.7583 48.1291 47.2069 47.9467L47.3041 47.9073C47.393 47.8712 47.4374 47.8532 47.4859 47.8501C47.5219 47.8478 47.5616 47.8527 47.596 47.8636C47.6423 47.8783 47.6813 47.9068 47.7595 47.9636C48.4187 48.4433 49.2499 48.7773 50.4182 48.7492L50.4587 48.7483C50.6737 48.7433 50.9186 48.7375 51.1212 48.6988C51.3701 48.6513 51.7029 48.5278 51.9126 48.1749C52.1439 47.7857 52.0467 47.3956 51.9664 47.1738C51.8915 46.9668 51.7636 46.7279 51.6408 46.4984L51.6209 46.4613C51.2531 45.7735 51.1872 45.2761 51.3403 44.974C52.0117 43.9722 52.6247 42.7246 52.7159 41.3322C52.761 40.6441 52.761 39.9326 52.7159 39.2446C52.658 38.3598 52.4465 37.5177 52.1078 36.7447C51.8763 36.2165 51.7606 35.9525 51.577 35.9418C51.533 35.9393 51.4818 35.9483 51.4413 35.9657C51.2723 36.0383 51.2518 36.3528 51.2107 36.9818Z" fill="white"/>
<defs>
<filter id="filter0_d_116_6085" x="0" y="0" width="84" height="84" filterUnits="userSpaceOnUse" color-interpolation-filters="sRGB">
<feFlood flood-opacity="0" result="BackgroundImageFix"/>
<feColorMatrix in="SourceAlpha" type="matrix" values="0 0 0 0 0 0 0 0 0 0 0 0 0 0 0 0 0 0 127 0" result="hardAlpha"/>
<feOffset dy="4"/>
<feGaussianBlur stdDeviation="6"/>
<feComposite in2="hardAlpha" operator="out"/>
<feColorMatrix type="matrix" values="0 0 0 0 0 0 0 0 0 0 0 0 0 0 0 0 0 0 0.14 0"/>
<feBlend mode="normal" in2="BackgroundImageFix" result="effect1_dropShadow_116_6085"/>
<feBlend mode="normal" in="SourceGraphic" in2="effect1_dropShadow_116_6085" result="shape"/>
</filter>
</defs>
</svg>
