<svg width="32" height="32" viewBox="0 0 32 32" fill="none" xmlns="http://www.w3.org/2000/svg">
<rect width="32" height="32" rx="8" fill="#E4F4FF"/>
<path opacity="0.4" d="M16.0572 5.75C18.2479 5.74999 19.9686 5.74998 21.312 5.93059C22.6886 6.11568 23.7809 6.50271 24.6391 7.36091C25.4973 8.21911 25.8843 9.31137 26.0694 10.688C26.25 12.0314 26.25 13.7521 26.25 15.9428V15.9428V16.0572V16.0572C26.25 18.2479 26.25 19.9686 26.0694 21.312C25.8843 22.6886 25.4973 23.7809 24.6391 24.6391C23.7809 25.4973 22.6886 25.8843 21.312 26.0694C19.9686 26.25 18.2479 26.25 16.0572 26.25H16.0572H15.9428H15.9428C13.7521 26.25 12.0314 26.25 10.688 26.0694C9.31137 25.8843 8.21911 25.4973 7.36091 24.6391C6.50271 23.7809 6.11568 22.6886 5.93059 21.312C5.74998 19.9686 5.74999 18.2479 5.75 16.0572V15.9428C5.74999 13.7521 5.74998 12.0314 5.93059 10.688C6.11568 9.31137 6.50272 8.21911 7.36091 7.36091C8.21911 6.50272 9.31137 6.11568 10.688 5.93059C12.0314 5.74998 13.7521 5.74999 15.9428 5.75H16.0572Z" fill="#0072BB"/>
<path fill-rule="evenodd" clip-rule="evenodd" d="M15.6819 14.5273C15.9289 14.5605 16.2707 14.6494 16.5607 14.9394C16.8507 15.2294 16.9396 15.5711 16.9728 15.8182C17.0003 16.0228 17.0001 16.2608 17 16.4606C17 16.474 17 16.4871 17 16.5V20.5C17 21.0523 16.5523 21.5 16 21.5C15.4477 21.5 15 21.0523 15 20.5V16.5C14.4477 16.5 14 16.0523 14 15.5C14 14.9477 14.4477 14.5 15 14.5C15.0129 14.5 15.0261 14.5 15.0394 14.5C15.2393 14.4999 15.4772 14.4997 15.6819 14.5273Z" fill="#0072BB"/>
<path fill-rule="evenodd" clip-rule="evenodd" d="M14.9999 11.5C14.9999 10.9477 15.4456 10.5 15.9954 10.5H16.0044C16.5542 10.5 16.9999 10.9477 16.9999 11.5C16.9999 12.0523 16.5542 12.5 16.0044 12.5H15.9954C15.4456 12.5 14.9999 12.0523 14.9999 11.5Z" fill="#0072BB"/>
</svg>
