<svg width="20" height="20" viewBox="0 0 20 20" fill="none" xmlns="http://www.w3.org/2000/svg">
<path d="M12.7901 17.3798L12.6333 16.6464H12.6333L12.7901 17.3798ZM11.7872 16.3769L12.5206 16.5338L11.7872 16.3769ZM12.5176 14.2598L11.9872 13.7295H11.9872L12.5176 14.2598ZM18.1639 12.0645L18.8134 11.6895V11.6895L18.1639 12.0645ZM18.1639 13.3318L18.8134 13.7068L18.1639 13.3318ZM17.1026 11.0032L17.4776 10.3536V10.3536L17.1026 11.0032ZM15.2741 11.5033L15.8044 12.0336L15.2741 11.5033ZM15.8353 11.0032L15.4603 10.3536V10.3536L15.8353 11.0032ZM17.1334 13.3626L14.3769 16.1191L15.4376 17.1798L18.1941 14.4233L17.1334 13.3626ZM13.0479 14.7901L15.8044 12.0336L14.7438 10.9729L11.9872 13.7295L13.0479 14.7901ZM12.6333 16.6464C12.4866 16.6778 12.3715 16.7023 12.2732 16.7206C12.1737 16.7391 12.113 16.7469 12.0754 16.7493C12.0363 16.7518 12.054 16.746 12.1003 16.7579C12.1591 16.7731 12.2329 16.8088 12.2956 16.8715L11.2349 17.9321C11.5424 18.2397 11.9244 18.262 12.1706 18.2463C12.4033 18.2315 12.6838 18.1695 12.9469 18.1132L12.6333 16.6464ZM11.0538 16.2201C10.9975 16.4833 10.9355 16.7638 10.9207 16.9965C10.9051 17.2426 10.9274 17.6246 11.2349 17.9321L12.2956 16.8715C12.3583 16.9342 12.3939 17.0079 12.4091 17.0667C12.4211 17.1131 12.4152 17.1307 12.4177 17.0917C12.4201 17.0541 12.428 16.9934 12.4465 16.8939C12.4647 16.7955 12.4893 16.6805 12.5206 16.5338L11.0538 16.2201ZM17.1334 12.0336C17.4454 12.3455 17.4927 12.402 17.5144 12.4395L18.8134 11.6895C18.6682 11.4379 18.4377 11.2166 18.1941 10.9729L17.1334 12.0336ZM18.1941 14.4233C18.4377 14.1796 18.6682 13.9583 18.8134 13.7068L17.5144 12.9568C17.4927 12.9942 17.4454 13.0507 17.1334 13.3626L18.1941 14.4233ZM17.5144 12.4395C17.6068 12.5995 17.6068 12.7967 17.5144 12.9568L18.8134 13.7068C19.1737 13.0826 19.1737 12.3136 18.8134 11.6895L17.5144 12.4395ZM18.1941 10.9729C17.9504 10.7293 17.7291 10.4989 17.4776 10.3536L16.7276 11.6527C16.765 11.6743 16.8215 11.7217 17.1334 12.0336L18.1941 10.9729ZM15.8044 12.0336C16.1163 11.7217 16.1728 11.6743 16.2103 11.6527L15.4603 10.3536C15.2087 10.4989 14.9874 10.7293 14.7438 10.9729L15.8044 12.0336ZM17.4776 10.3536C16.8534 9.99328 16.0844 9.99328 15.4603 10.3536L16.2103 11.6527C16.3703 11.5603 16.5675 11.5603 16.7276 11.6527L17.4776 10.3536ZM14.3769 16.1191C14.2364 16.2596 14.0383 16.3574 13.7323 16.4355C13.579 16.4747 13.4141 16.5053 13.226 16.5378C13.0467 16.5687 12.8359 16.6031 12.6333 16.6464L12.9469 18.1132C13.112 18.0779 13.2808 18.0505 13.4813 18.0159C13.673 17.9827 13.8882 17.9438 14.1034 17.8889C14.5345 17.7788 15.0273 17.5901 15.4376 17.1798L14.3769 16.1191ZM12.5206 16.5338C12.564 16.3312 12.5983 16.1204 12.6293 15.9411C12.6618 15.7529 12.6924 15.588 12.7315 15.4347C12.8096 15.1287 12.9074 14.9306 13.0479 14.7901L11.9872 13.7295C11.577 14.1397 11.3882 14.6326 11.2781 15.0636C11.2232 15.2788 11.1843 15.494 11.1512 15.6857C11.1165 15.8863 11.0891 16.0551 11.0538 16.2201L12.5206 16.5338Z" fill="white"/>
<path d="M3.75 2.5L3.75 17.5" stroke="white" stroke-width="1.5" stroke-linecap="round" stroke-linejoin="round"/>
<path d="M14.583 2.5V8.75" stroke="white" stroke-width="1.5" stroke-linecap="round" stroke-linejoin="round"/>
<path d="M9.16699 2.5V5.83333" stroke="white" stroke-width="1.5" stroke-linecap="round" stroke-linejoin="round"/>
<path d="M9.16699 8.33337L9.16699 11.6667" stroke="white" stroke-width="1.5" stroke-linecap="round" stroke-linejoin="round"/>
<path d="M9.16699 14.1666L9.16699 17.5" stroke="white" stroke-width="1.5" stroke-linecap="round" stroke-linejoin="round"/>
</svg>
