<svg width="50" height="50" viewBox="0 0 50 50" fill="none" xmlns="http://www.w3.org/2000/svg">
<circle cx="25" cy="25" r="25" fill="#E4F4FF"/>
<path d="M34.1637 37.1421H12.9784C12.4234 37.1421 11.9736 36.692 11.9736 36.1367V19.9261H35.1686V36.1367C35.1686 36.692 34.7187 37.1421 34.1637 37.1421Z" fill="#0072BB"/>
<path d="M11.9736 19.9261H35.1686V23.2994H11.9736V19.9261Z" fill="#005B96"/>
<path d="M37.1421 16.4091V20.5882C37.1421 21.0345 36.7801 21.3961 36.3341 21.3961H10.8074C10.3614 21.3961 10 21.0345 10 20.5882V16.4091C10 15.9627 10.3614 15.6011 10.8074 15.6011H36.3341C36.7801 15.6011 37.1421 15.9627 37.1421 16.4091Z" fill="#0072BB"/>
<path d="M22.6488 17.5232C22.4726 17.7286 22.2997 17.9368 22.1309 18.1474C21.502 18.9305 20.9263 19.7511 20.4059 20.6027C20.2458 20.8647 20.0914 21.1293 19.9414 21.397H14.4365C14.7581 20.6668 15.1108 19.95 15.4929 19.2494C16.1858 17.9783 16.9764 16.7586 17.8598 15.6019C18.0708 15.3257 18.2868 15.0528 18.5082 14.784C18.6407 14.622 18.7756 14.4622 18.9122 14.303C19.4146 14.7361 19.9166 15.1688 20.4192 15.6019C20.497 15.6686 20.5749 15.7362 20.6526 15.8031C21.2456 16.3141 21.8387 16.8249 22.4316 17.3365C22.5043 17.3983 22.5764 17.4611 22.6488 17.5232Z" fill="#005085"/>
<path d="M30.862 21.397H25.3567C25.2074 21.1293 25.0523 20.8647 24.8922 20.6027C24.3718 19.7511 23.7955 18.9305 23.1672 18.1474C22.9978 17.9368 22.8249 17.7286 22.6484 17.5232C22.7211 17.4611 22.7932 17.3987 22.8659 17.3365C23.4594 16.8249 24.0525 16.3135 24.6453 15.8031C24.7232 15.7362 24.8011 15.6686 24.8789 15.6019C25.3813 15.1688 25.8839 14.7361 26.3859 14.303C26.5226 14.4618 26.6574 14.622 26.7899 14.7836C27.0117 15.0528 27.2279 15.3257 27.4383 15.6019C28.3217 16.7586 29.1124 17.9783 29.8057 19.2494C30.1877 19.95 30.5404 20.6668 30.862 21.397Z" fill="#005085"/>
<path d="M23.5706 17.5229C23.3942 17.728 23.2213 17.9363 23.0525 18.1468C22.4238 18.9298 21.8479 19.7504 21.3275 20.6023C19.6755 23.3045 18.5782 26.3232 18.1154 29.4828C17.4198 28.5597 16.7778 27.5609 16.2003 26.4929C15.1844 27.156 14.1914 27.9144 13.2354 28.7677C13.7263 25.4163 14.8081 22.1949 16.4148 19.2487C17.273 17.6743 18.2814 16.1785 19.4299 14.7835C19.5624 14.6215 19.6972 14.4619 19.8339 14.3026C20.4141 14.8026 20.9939 15.3026 21.5744 15.8026C22.1672 16.3136 22.7603 16.8243 23.3534 17.336C23.4259 17.3977 23.4979 17.4605 23.5706 17.5229Z" fill="#FFC73A"/>
<path d="M33.906 28.7677C32.9499 27.9144 31.957 27.156 30.941 26.4929C30.3635 27.5609 29.7216 28.5597 29.026 29.4828C28.5632 26.3232 27.4661 23.3045 25.8138 20.6023C25.2934 19.7504 24.7171 18.9298 24.0888 18.1468C23.9194 17.9363 23.7465 17.728 23.5703 17.5229C23.6428 17.4605 23.7149 17.3981 23.7875 17.336C24.381 16.8243 24.9741 16.3129 25.5672 15.8026C26.1474 15.3019 26.7278 14.8026 27.3074 14.3026C27.4441 14.4613 27.5789 14.6215 27.7115 14.7831C28.8601 16.178 29.8686 17.6739 30.7271 19.2487C32.3334 22.1949 33.415 25.4163 33.906 28.7677Z" fill="#FFC73A"/>
<path d="M21.4102 17.5227H25.7322V21.3961H21.4102V17.5227Z" fill="#F5AF00"/>
<path d="M30.7273 19.2492L25.8139 20.6027C25.2935 19.7509 24.7171 18.9303 24.0889 18.1472L23.7875 17.3363L23.5703 16.7516L25.5672 15.8029L27.7116 14.7834C28.8603 16.1784 29.8688 17.6743 30.7273 19.2492Z" fill="#FFB909"/>
<path d="M23.571 16.7518L23.3538 17.3365L23.0529 18.1474C22.4242 18.9305 21.8483 19.7511 21.3279 20.6029L16.415 19.2494C17.2732 17.6749 18.2817 16.179 19.4302 14.784L21.5747 15.8031L23.571 16.7518Z" fill="#FFB909"/>
<path d="M31.412 10.1879L23.5703 13.9143L25.0766 17.9682L33.4466 15.6629C34.5412 15.3614 35.1426 14.1858 34.7468 13.1209L34.056 11.2621C33.6605 10.1972 32.4376 9.70053 31.412 10.1879Z" fill="#FFC73A"/>
<path d="M15.7302 10.1879L23.5718 13.9143L22.0655 17.9682L13.6958 15.6629C12.6011 15.3614 11.9998 14.1858 12.3955 13.1209L13.0861 11.2621C13.4819 10.1972 14.7045 9.70053 15.7302 10.1879Z" fill="#FFC73A"/>
<path d="M25.4434 15.5432C25.3009 15.5432 25.1611 15.4727 25.0789 15.3436C24.9503 15.1424 25.0089 14.8751 25.21 14.7464C25.2694 14.7085 26.6818 13.8092 28.3032 13.1529C30.6408 12.2067 32.2018 12.2575 32.9423 13.3037C33.0804 13.4987 33.0343 13.7687 32.8394 13.9068C32.6445 14.0448 32.3749 13.9988 32.237 13.8038C31.233 12.3856 27.0589 14.5908 25.6757 15.4752C25.6037 15.5212 25.5231 15.5432 25.4434 15.5432Z" fill="#FFB909"/>
<path d="M21.6557 15.5432C21.576 15.5432 21.4954 15.5212 21.4234 15.4752C20.0402 14.5908 15.8661 12.3856 14.8621 13.8038C14.724 13.9988 14.4544 14.0448 14.2595 13.9068C14.0648 13.7685 14.0187 13.4987 14.1568 13.3037C14.8973 12.2575 16.4581 12.2067 18.7959 13.1529C20.4173 13.8089 21.8297 14.7085 21.8891 14.7464C22.0902 14.8751 22.1488 15.1424 22.0204 15.3436C21.9377 15.4727 21.7982 15.5432 21.6557 15.5432Z" fill="#FFB909"/>
<path d="M24.8001 12.5206H22.3408C21.6677 12.5206 21.1221 13.0667 21.1221 13.7403V17.3155C21.1221 17.9892 21.6677 18.5352 22.3408 18.5352H24.8001C25.4731 18.5352 26.0188 17.9892 26.0188 17.3155V13.7403C26.0188 13.0667 25.4731 12.5206 24.8001 12.5206Z" fill="#F0AB00"/>
<path d="M21.4102 21.3969H25.7321V37.1425H21.4102V21.3969Z" fill="#FFC73A"/>
<path d="M21.4102 21.3969H25.7322V23.2998H21.4102V21.3969Z" fill="#FFB909"/>
<path d="M33.5711 27.1425C30.0209 27.1425 27.1426 30.0197 27.1426 33.571C27.1426 37.1223 30.0209 39.9996 33.5711 39.9996C37.1214 39.9996 39.9997 37.1206 39.9997 33.571C39.9997 30.0215 37.1214 27.1425 33.5711 27.1425Z" fill="#33B469"/>
<path d="M27.1426 33.571C27.1411 34.6336 27.4043 35.6798 27.9082 36.6153C28.5503 36.8038 29.2161 36.8993 29.8853 36.8988C33.7499 36.8988 36.8829 33.7659 36.8829 29.9012C36.8834 29.2214 36.785 28.5452 36.5906 27.8938C35.6612 27.3988 34.6241 27.1407 33.5712 27.1425C30.0209 27.1425 27.1426 30.0198 27.1426 33.571Z" fill="#4CCC82"/>
<path fill-rule="evenodd" clip-rule="evenodd" d="M33.5712 29.6425C32.9794 29.6425 32.4997 30.1222 32.4997 30.7139V32.4996H30.714C30.1223 32.4996 29.6426 32.9793 29.6426 33.571C29.6426 34.1628 30.1223 34.6425 30.714 34.6425H32.4997V36.4282C32.4997 37.0199 32.9794 37.4996 33.5712 37.4996C34.1629 37.4996 34.6426 37.0199 34.6426 36.4282V34.6425H36.4283C37.02 34.6425 37.4997 34.1628 37.4997 33.571C37.4997 32.9793 37.02 32.4996 36.4283 32.4996H34.6426V30.7139C34.6426 30.1222 34.1629 29.6425 33.5712 29.6425Z" fill="white"/>
</svg>
