<svg width="16" height="16" viewBox="0 0 16 16" fill="none" xmlns="http://www.w3.org/2000/svg">
<path d="M10.6504 10.9918C9.15697 12.044 8.29157 13.8083 8 14.3332V5.33317C8.22624 4.92593 8.79799 3.89679 9.74057 3.00553C10.4409 2.34328 10.7911 2.01215 11.3956 2.27248C12 2.53281 12 3.12786 12 4.31796V8.82457C12 9.45226 12 9.7661 11.8877 9.98263C11.7754 10.1992 11.4004 10.4634 10.6504 10.9918L10.6504 10.9918Z" stroke="#8B90A7" stroke-linecap="round" stroke-linejoin="round"/>
<path d="M7.99967 5.2037C7.54175 4.72268 6.21418 3.58026 3.98671 3.17972C2.85827 2.9768 2.29405 2.87534 1.81353 3.26422C1.33301 3.6531 1.33301 4.28458 1.33301 5.54756V10.0865C1.33301 11.2413 1.33301 11.8187 1.64141 12.1792C1.9498 12.5397 2.62877 12.6618 3.98671 12.9059C5.19723 13.1236 6.14197 13.4704 6.8258 13.819C7.49859 14.1619 7.83501 14.3333 7.99967 14.3333C8.16434 14.3333 8.50075 14.1619 9.17355 13.819C9.85738 13.4704 10.8021 13.1236 12.0126 12.9059C13.3706 12.6618 14.0495 12.5397 14.3579 12.1792C14.6663 11.8187 14.6663 11.2413 14.6663 10.0865V5.54756C14.6663 4.28458 14.6663 3.6531 14.1858 3.26422C13.7053 2.87534 12.6663 3.17972 11.9997 3.66667" stroke="#8B90A7" stroke-linecap="round" stroke-linejoin="round"/>
</svg>
