<svg width="68" height="90" viewBox="0 0 68 90" fill="none" xmlns="http://www.w3.org/2000/svg">
<rect width="68" height="90" fill="white"/>
<path d="M40.527 39.25C40.9713 39.25 41.3447 39.25 41.6492 39.2721C41.9652 39.295 42.2721 39.3448 42.5645 39.4799C42.8957 39.6329 43.1916 39.8623 43.4072 40.1611C43.6109 40.4434 43.687 40.7475 43.7201 41.0396C43.7501 41.3041 43.75 41.6212 43.75 41.964V42.036C43.75 42.3788 43.7501 42.6959 43.7201 42.9604C43.687 43.2525 43.6109 43.5566 43.4072 43.8389C43.1916 44.1377 42.8957 44.3671 42.5645 44.5201C42.2721 44.6552 41.9652 44.705 41.6492 44.7279C41.3447 44.75 40.9713 44.75 40.5269 44.75H27.4731C27.0287 44.75 26.6553 44.75 26.3508 44.7279C26.0348 44.705 25.7279 44.6552 25.4355 44.5201C25.1043 44.3671 24.8084 44.1377 24.5928 43.8389C24.3891 43.5566 24.313 43.2525 24.2799 42.9604C24.2499 42.6959 24.25 42.3788 24.25 42.036V41.964C24.25 41.6212 24.2499 41.3041 24.2799 41.0396C24.313 40.7475 24.3891 40.4434 24.5928 40.1611C24.8084 39.8623 25.1043 39.6329 25.4355 39.4799C25.7279 39.3448 26.0348 39.295 26.3508 39.2721C26.6553 39.25 27.0287 39.25 27.4731 39.25H40.527Z" fill="#C1C1CC"/>
<path d="M25.7868 45.9182C25.5234 45.8738 25.3917 45.8516 25.3209 45.9115C25.25 45.9714 25.25 46.0943 25.25 46.34V48.0543C25.25 49.6569 25.25 50.9359 25.3848 51.939C25.5242 52.9752 25.8197 53.8287 26.4948 54.5038C27.1699 55.1789 28.0233 55.4744 29.0596 55.6138C30.0627 55.7486 31.3417 55.7486 32.9443 55.7486C32.975 55.7486 33 55.7236 33 55.6929L33 46.3986C33 46.21 33 46.1158 32.9414 46.0572C32.8828 45.9986 32.7886 45.9986 32.6 45.9986H27.4391C27.0224 45.9986 26.6106 45.9987 26.2604 45.9733C26.115 45.9627 25.9556 45.9466 25.7868 45.9182Z" fill="#C1C1CC"/>
<path d="M35.4 45.9986C35.2114 45.9986 35.1172 45.9986 35.0586 46.0572C35 46.1158 35 46.21 35 46.3986V55.6929C35 55.7236 35.025 55.7486 35.0557 55.7486C36.6583 55.7486 37.9373 55.7486 38.9404 55.6138C39.9767 55.4744 40.8301 55.1789 41.5052 54.5038C42.1803 53.8287 42.4758 52.9752 42.6152 51.939C42.75 50.9359 42.75 49.6569 42.75 48.0543V46.3399C42.75 46.0943 42.75 45.9714 42.6791 45.9115C42.6083 45.8516 42.4766 45.8738 42.2132 45.9182C42.0444 45.9466 41.8849 45.9627 41.7396 45.9733C41.3894 45.9987 40.9776 45.9986 40.5609 45.9986H35.4Z" fill="#C1C1CC"/>
<path fill-rule="evenodd" clip-rule="evenodd" d="M29.7857 34.25C28.2472 34.25 27 35.4972 27 37.0357C27 39.3632 28.8868 41.25 31.2143 41.25H34H36.7857C39.1132 41.25 41 39.3632 41 37.0357C41 35.4972 39.7528 34.25 38.2143 34.25H37.8571C36.2852 34.25 34.8877 34.9967 34 36.1547C33.1123 34.9967 31.7148 34.25 30.1429 34.25H29.7857ZM33 39.1071C33 37.5292 31.7208 36.25 30.1429 36.25H29.7857C29.3518 36.25 29 36.6018 29 37.0357C29 38.2586 29.9914 39.25 31.2143 39.25H33V39.1071ZM35 39.25H36.7857C38.0086 39.25 39 38.2586 39 37.0357C39 36.6018 38.6482 36.25 38.2143 36.25H37.8571C36.2792 36.25 35 37.5292 35 39.1071V39.25Z" fill="#C1C1CC"/>
</svg>
