<svg width="32" height="32" viewBox="0 0 32 32" fill="none" xmlns="http://www.w3.org/2000/svg">
<rect width="32" height="32" rx="8" fill="#E4F4FF"/>
<path d="M14.9916 7.9756C15.6784 7.44801 16.4957 7.01957 17.367 7.38808C18.2302 7.75318 18.5076 8.63267 18.6274 9.49785C18.7502 10.3846 18.7502 11.6056 18.7502 13.1237L18.7502 18.8794C18.7502 20.3975 18.7502 21.6185 18.6274 22.5052C18.5076 23.3704 18.2302 24.2499 17.367 24.615C16.4957 24.9835 15.6784 24.5551 14.9916 24.0275C14.2892 23.488 13.3966 22.5765 12.3467 21.5044L12.3466 21.5044C11.8072 20.9535 11.4492 20.6873 11.0866 20.5374C10.7222 20.3868 10.2791 20.3229 9.50619 20.3229C8.83768 20.3229 8.23963 20.3229 7.78679 20.2758C7.31184 20.2265 6.87088 20.1191 6.47421 19.8485C5.7184 19.3328 5.42917 18.5777 5.31957 17.8838C5.23785 17.3663 5.24723 16.7981 5.25479 16.3405L5.25479 15.6626C5.24723 15.205 5.23785 14.6368 5.31957 14.1193C5.42917 13.4254 5.7184 12.6703 6.47421 12.1546C6.87088 11.884 7.31184 11.7766 7.78679 11.7272C8.23963 11.6802 8.83768 11.6802 9.50619 11.6802C10.2791 11.6802 10.7222 11.6163 11.0866 11.4656C11.4492 11.3157 11.8072 11.0495 12.3466 10.4987L12.3466 10.4987C13.3966 9.42655 14.2892 8.51511 14.9916 7.9756Z" fill="#0072BB"/>
<path opacity="0.4" fill-rule="evenodd" clip-rule="evenodd" d="M20.3935 12.205C20.8325 11.87 21.4601 11.9544 21.7951 12.3935C22.5519 13.3854 23.0001 14.6418 23.0001 16.0001C23.0001 17.3583 22.5519 18.6147 21.7951 19.6066C21.4601 20.0457 20.8325 20.1301 20.3935 19.7951C19.9544 19.4601 19.87 18.8325 20.205 18.3935C20.699 17.746 21.0001 16.9149 21.0001 16.0001C21.0001 15.0852 20.699 14.2541 20.205 13.6066C19.87 13.1676 19.9544 12.54 20.3935 12.205Z" fill="#0072BB"/>
<path opacity="0.4" fill-rule="evenodd" clip-rule="evenodd" d="M23.3247 10.2625C23.7321 9.8895 24.3646 9.91738 24.7376 10.3247C26.1408 11.8573 27 13.8325 27 16C27 18.1675 26.1408 20.1427 24.7376 21.6753C24.3646 22.0826 23.7321 22.1105 23.3247 21.7376C22.9174 21.3646 22.8895 20.7321 23.2625 20.3247C24.3609 19.125 25 17.621 25 16C25 14.379 24.3609 12.875 23.2625 11.6753C22.8895 11.268 22.9174 10.6354 23.3247 10.2625Z" fill="#0072BB"/>
</svg>
