<svg width="84" height="84" viewBox="0 0 84 84" fill="none" xmlns="http://www.w3.org/2000/svg">
<g filter="url(#filter0_d_116_6086)">
<circle cx="42" cy="38" r="30" fill="#0072BB"/>
</g>
<path d="M35.1923 27.4116C35.7589 27.5287 36.2102 27.9094 36.4906 28.4125L37.3838 30.0149C37.7129 30.6051 37.9897 31.1018 38.1705 31.5336C38.3623 31.9916 38.4763 32.4432 38.4242 32.9426C38.3721 33.442 38.1675 33.8604 37.8853 34.269C37.6193 34.6542 37.2459 35.083 36.8022 35.5927L35.4892 37.1009C35.2539 37.3711 35.1362 37.5062 35.1255 37.6751C35.1147 37.844 35.2112 37.9883 35.404 38.2768C37.0476 40.7359 39.2627 42.9518 41.7238 44.5968C42.0124 44.7897 42.1566 44.8861 42.3255 44.8753C42.4944 44.8646 42.6296 44.7469 42.8998 44.5116L44.4081 43.1986C44.9177 42.7549 45.3466 42.3815 45.7318 42.1155C46.1403 41.8333 46.5588 41.6286 47.0581 41.5766C47.5575 41.5245 48.0092 41.6384 48.4672 41.8302C48.8989 42.011 49.3956 42.2879 49.9857 42.6168L49.9859 42.6169L51.5883 43.5101C52.0913 43.7905 52.4721 44.2418 52.5892 44.8085C52.7075 45.3811 52.533 45.9566 52.1474 46.4297C50.7485 48.146 48.5072 49.2389 46.156 48.7646C44.7108 48.473 43.2848 47.9873 41.5601 46.9982C38.0947 45.0108 34.9876 41.902 33.0026 38.4407C32.0134 36.716 31.5277 35.29 31.2362 33.8447C30.7619 31.4935 31.8547 29.2522 33.5711 27.8533C34.0441 27.4678 34.6197 27.2932 35.1923 27.4116Z" fill="white"/>
<path fill-rule="evenodd" clip-rule="evenodd" d="M43.5685 27.848C43.7216 27.3174 44.2759 27.0113 44.8065 27.1645C48.6739 28.2805 51.7199 31.3263 52.836 35.1936C52.9892 35.7242 52.6832 36.2785 52.1526 36.4317C51.6219 36.5848 51.0676 36.2788 50.9145 35.7482C49.9889 32.5412 47.4591 30.0115 44.252 29.0861C43.7214 28.9329 43.4154 28.3786 43.5685 27.848ZM42.9548 32.5662C43.1707 32.0579 43.7578 31.8208 44.2661 32.0367C45.9278 32.7423 47.2582 34.0727 47.9639 35.7344C48.1798 36.2427 47.9427 36.8298 47.4343 37.0457C46.926 37.2616 46.3389 37.0245 46.123 36.5161C45.6199 35.3314 44.6692 34.3807 43.4844 33.8776C42.976 33.6617 42.7389 33.0746 42.9548 32.5662Z" fill="white"/>
<defs>
<filter id="filter0_d_116_6086" x="0" y="0" width="84" height="84" filterUnits="userSpaceOnUse" color-interpolation-filters="sRGB">
<feFlood flood-opacity="0" result="BackgroundImageFix"/>
<feColorMatrix in="SourceAlpha" type="matrix" values="0 0 0 0 0 0 0 0 0 0 0 0 0 0 0 0 0 0 127 0" result="hardAlpha"/>
<feOffset dy="4"/>
<feGaussianBlur stdDeviation="6"/>
<feComposite in2="hardAlpha" operator="out"/>
<feColorMatrix type="matrix" values="0 0 0 0 0 0 0 0 0 0 0 0 0 0 0 0 0 0 0.14 0"/>
<feBlend mode="normal" in2="BackgroundImageFix" result="effect1_dropShadow_116_6086"/>
<feBlend mode="normal" in="SourceGraphic" in2="effect1_dropShadow_116_6086" result="shape"/>
</filter>
</defs>
</svg>
