<svg width="44" height="44" viewBox="0 0 44 44" fill="none" xmlns="http://www.w3.org/2000/svg">
<circle cx="22" cy="22" r="21" fill="white" stroke="url(#paint0_linear_81_3730)" stroke-width="2"/>
<path d="M23.16 13.4597C23.6376 13.4616 23.8765 13.4626 23.9482 13.5873C24.02 13.712 23.8872 13.9429 23.6215 14.4047C23.2524 15.0461 23.0413 15.79 23.0413 16.5833C23.0413 18.9995 25.0001 20.9583 27.4163 20.9583C28.2095 20.9583 28.9534 20.7472 29.5949 20.3781C30.0567 20.1124 30.2876 19.9796 30.4123 20.0514C30.537 20.1231 30.5379 20.362 30.5399 20.8396C30.5413 21.1933 30.5413 21.5639 30.5413 21.9523V22.0476C30.5414 23.8731 30.5414 25.3071 30.3908 26.4266C30.2366 27.5738 29.9141 28.484 29.1989 29.1992C28.4837 29.9143 27.5735 30.2369 26.4263 30.3911C25.3068 30.5416 23.8729 30.5416 22.0473 30.5416H21.952C20.1265 30.5416 18.6925 30.5416 17.573 30.3911C16.4258 30.2369 15.5156 29.9143 14.8004 29.1992C14.0853 28.484 13.7627 27.5738 13.6085 26.4266C13.458 25.3071 13.458 23.8732 13.458 22.0476V21.9523C13.458 20.1267 13.458 18.6928 13.6085 17.5733C13.7627 16.4261 14.0853 15.5158 14.8004 14.8007C15.5156 14.0855 16.4258 13.763 17.573 13.6087C18.6925 13.4582 20.1264 13.4582 21.952 13.4583H22.0473C22.4357 13.4582 22.8063 13.4582 23.16 13.4597Z" fill="#FFB909"/>
<path fill-rule="evenodd" clip-rule="evenodd" d="M21.9997 19.2915C22.3449 19.2915 22.6247 19.5713 22.6247 19.9165L22.6247 26.5832C22.6247 26.9283 22.3449 27.2082 21.9997 27.2082C21.6545 27.2082 21.3747 26.9283 21.3747 26.5832L21.3747 19.9165C21.3747 19.5713 21.6545 19.2915 21.9997 19.2915ZM26.1663 22.6248C26.5115 22.6248 26.7913 22.9047 26.7913 23.2498V26.5832C26.7913 26.9283 26.5115 27.2082 26.1663 27.2082C25.8212 27.2082 25.5413 26.9283 25.5413 26.5832V23.2498C25.5413 22.9047 25.8212 22.6248 26.1663 22.6248ZM17.833 23.4582C18.1782 23.4582 18.458 23.738 18.458 24.0832L18.458 26.5832C18.458 26.9283 18.1782 27.2082 17.833 27.2082C17.4878 27.2082 17.208 26.9283 17.208 26.5832L17.208 24.0832C17.208 23.738 17.4878 23.4582 17.833 23.4582Z" fill="white"/>
<path d="M24.291 16.5833C24.291 14.8574 25.6901 13.4583 27.416 13.4583C29.1419 13.4583 30.541 14.8574 30.541 16.5833C30.541 18.3091 29.1419 19.7083 27.416 19.7083C25.6901 19.7083 24.291 18.3091 24.291 16.5833Z" fill="#ED3A3A"/>
<defs>
<linearGradient id="paint0_linear_81_3730" x1="16.5" y1="-6.5" x2="27" y2="47" gradientUnits="userSpaceOnUse">
<stop stop-color="#FFD56B"/>
<stop offset="1" stop-color="#FFC738"/>
</linearGradient>
</defs>
</svg>
