<svg width="32" height="32" viewBox="0 0 32 32" fill="none" xmlns="http://www.w3.org/2000/svg">
<rect width="32" height="32" rx="8" fill="#E4F4FF"/>
<path opacity="0.4" d="M15.8244 5.25657C15.9413 5.24781 16.0587 5.24781 16.1756 5.25657C16.6792 5.29431 17.0873 5.52155 17.4602 5.81329C17.8109 6.0877 18.1989 6.47573 18.6527 6.92956L18.8949 7.13696L18.8949 7.13697C19.1518 7.35689 19.2802 7.46685 19.4344 7.52828C19.5886 7.58971 19.7574 7.59821 20.0951 7.61521L20.4673 7.63394C21.1785 7.6339 21.7864 7.63387 22.2722 7.69919C22.7909 7.76892 23.2811 7.92526 23.6779 8.32206C24.0747 8.71886 24.2311 9.20911 24.3008 9.7278C24.3661 10.2136 24.3661 10.8215 24.3661 11.5327L24.3848 11.9049V11.9049C24.4018 12.2426 24.4103 12.4114 24.4717 12.5656C24.5331 12.7198 24.6431 12.8482 24.863 13.105L24.863 13.1051L25.0704 13.3473C25.5242 13.8011 25.9123 14.1891 26.1867 14.5398C26.4785 14.9127 26.7057 15.3208 26.7434 15.8244C26.7522 15.9413 26.7522 16.0587 26.7434 16.1756C26.7057 16.6792 26.4785 17.0873 26.1867 17.4602C25.9123 17.8109 25.5243 18.1989 25.0705 18.6527L24.863 18.8949C24.6431 19.1518 24.5331 19.2802 24.4717 19.4344C24.4103 19.5886 24.4018 19.7574 24.3848 20.0951V20.0951L24.3661 20.4673C24.3661 21.1785 24.3661 21.7864 24.3008 22.2722C24.2311 22.7909 24.0747 23.2811 23.6779 23.6779C23.2811 24.0747 22.7909 24.2311 22.2722 24.3008C21.7864 24.3661 21.1785 24.3661 20.4673 24.3661L20.0377 24.3959C19.6994 24.4195 19.5302 24.4312 19.3769 24.4959C19.2236 24.5606 19.0971 24.6735 18.8442 24.8994L18.6527 25.0704C18.1989 25.5242 17.8109 25.9123 17.4602 26.1867C17.0873 26.4785 16.6792 26.7057 16.1756 26.7434C16.0587 26.7522 15.9413 26.7522 15.8244 26.7434C15.3208 26.7057 14.9127 26.4785 14.5398 26.1867C14.1891 25.9123 13.8011 25.5243 13.3473 25.0705L13.3473 25.0704L13.1051 24.863L13.105 24.863C12.8482 24.6431 12.7198 24.5331 12.5656 24.4717C12.4114 24.4103 12.2426 24.4018 11.9049 24.3848H11.9049L11.5327 24.3661C10.8215 24.3661 10.2136 24.3661 9.7278 24.3008C9.20911 24.2311 8.71886 24.0747 8.32206 23.6779C7.92526 23.2811 7.76892 22.7909 7.69919 22.2722C7.63387 21.7864 7.6339 21.1785 7.63394 20.4673L7.61521 20.0951C7.59821 19.7574 7.58971 19.5886 7.52828 19.4344C7.46685 19.2802 7.35689 19.1518 7.13697 18.8949L7.13696 18.8949L6.92956 18.6527C6.47573 18.1989 6.0877 17.8109 5.81329 17.4602C5.52155 17.0873 5.29431 16.6792 5.25657 16.1756C5.24781 16.0587 5.24781 15.9413 5.25657 15.8244C5.29431 15.3208 5.52155 14.9127 5.81329 14.5398C6.0877 14.1891 6.47573 13.8011 6.92954 13.3473L6.92956 13.3473L7.13696 13.1051C7.35689 12.8482 7.46685 12.7198 7.52828 12.5656C7.58971 12.4114 7.59821 12.2426 7.61521 11.9049L7.63394 11.5327C7.6339 10.8215 7.63387 10.2136 7.69919 9.7278C7.76892 9.20911 7.92526 8.71886 8.32206 8.32206C8.71886 7.92526 9.20911 7.76892 9.7278 7.69919C10.2136 7.63387 10.8215 7.6339 11.5327 7.63394L11.9623 7.60407C12.3006 7.58055 12.4698 7.56878 12.6231 7.5041C12.7764 7.43942 12.9029 7.32646 13.1558 7.10055L13.3473 6.92956C13.8011 6.47573 14.1891 6.0877 14.5398 5.81329C14.9127 5.52155 15.3208 5.29431 15.8244 5.25657Z" fill="#0072BB"/>
<path fill-rule="evenodd" clip-rule="evenodd" d="M15.6819 14.5273C15.9289 14.5605 16.2707 14.6494 16.5607 14.9394C16.8507 15.2294 16.9396 15.5711 16.9728 15.8182C17.0003 16.0228 17.0001 16.2608 17 16.4606C17 16.474 17 16.4871 17 16.5L17 20.5C17 21.0523 16.5523 21.5 16 21.5C15.4477 21.5 15 21.0523 15 20.5V16.5C14.4477 16.5 14 16.0523 14 15.5C14 14.9477 14.4477 14.5 15 14.5C15.0129 14.5 15.0261 14.5 15.0394 14.5C15.2393 14.4999 15.4772 14.4997 15.6819 14.5273Z" fill="#0072BB"/>
<path fill-rule="evenodd" clip-rule="evenodd" d="M14.9999 11.5C14.9999 10.9477 15.4456 10.5 15.9954 10.5H16.0044C16.5542 10.5 16.9999 10.9477 16.9999 11.5C16.9999 12.0523 16.5542 12.5 16.0044 12.5H15.9954C15.4456 12.5 14.9999 12.0523 14.9999 11.5Z" fill="#0072BB"/>
</svg>
