<svg width="20" height="20" viewBox="0 0 20 20" fill="none" xmlns="http://www.w3.org/2000/svg">
<path d="M2.91797 8.33366C2.91797 5.19096 2.91797 3.61961 3.9553 2.6433C4.99263 1.66699 6.66219 1.66699 10.0013 1.66699H10.6452C13.3629 1.66699 14.7217 1.66699 15.6654 2.33185C15.9358 2.52235 16.1758 2.74826 16.3782 3.00273C17.0846 3.89089 17.0846 5.16979 17.0846 7.7276V9.84881C17.0846 12.3181 17.0846 13.5528 16.6939 14.5389C16.0656 16.1241 14.737 17.3746 13.0527 17.9659C12.0049 18.3337 10.6931 18.3337 8.06948 18.3337C6.57026 18.3337 5.82065 18.3337 5.22195 18.1235C4.25946 17.7856 3.50026 17.0711 3.14127 16.1652C2.91797 15.6017 2.91797 14.8962 2.91797 13.4852V8.33366Z" stroke="#8B90A7" stroke-width="1.5" stroke-linejoin="round"/>
<path d="M17.0833 10C17.0833 11.5341 15.8397 12.7778 14.3056 12.7778C13.7507 12.7778 13.0966 12.6806 12.5572 12.8251C12.0779 12.9535 11.7035 13.3279 11.5751 13.8072C11.4306 14.3466 11.5278 15.0007 11.5278 15.5556C11.5278 17.0897 10.2841 18.3333 8.75 18.3333" stroke="#8B90A7" stroke-width="1.5" stroke-linecap="round" stroke-linejoin="round"/>
<path d="M6.66797 5.83398H12.5013" stroke="#8B90A7" stroke-width="1.5" stroke-linecap="round" stroke-linejoin="round"/>
<path d="M6.66797 9.16699H9.16797" stroke="#8B90A7" stroke-width="1.5" stroke-linecap="round" stroke-linejoin="round"/>
</svg>
