<svg width="24" height="24" viewBox="0 0 24 24" fill="none" xmlns="http://www.w3.org/2000/svg">
<circle cx="12" cy="12" r="12" fill="#FDE8E8"/>
<path d="M7.62158 6.39967C8.16005 6.08878 8.82347 6.08878 9.36194 6.39967C9.56191 6.51512 9.74252 6.696 9.9703 6.92412L10.0147 6.9686L11.1842 8.13802C11.4698 8.42365 11.6492 8.60155 11.7969 8.71424C11.933 8.81813 11.982 8.81848 12 8.81848C12.018 8.81848 12.067 8.81813 12.2032 8.71424C12.3509 8.60155 12.5303 8.42365 12.8159 8.13802L13.9853 6.9686L14.0297 6.92412C14.2575 6.696 14.4381 6.51512 14.6381 6.39967C15.1766 6.08878 15.84 6.08878 16.3785 6.39967C16.5784 6.51512 16.759 6.696 16.9868 6.92412L17.0313 6.9686L17.0757 7.01304L17.0757 7.01304C17.3039 7.24082 17.4847 7.42143 17.6002 7.62139C17.9111 8.15986 17.9111 8.82328 17.6002 9.36175C17.4847 9.56172 17.3039 9.74234 17.0757 9.97012L17.0313 10.0145L15.8618 11.184C15.5762 11.4696 15.3983 11.649 15.2856 11.7967C15.1817 11.9329 15.1814 11.9819 15.1814 11.9998C15.1814 12.0178 15.1817 12.0668 15.2856 12.203C15.3983 12.3507 15.5762 12.5301 15.8618 12.8157L17.0313 13.9851L17.0757 14.0296L17.0758 14.0296C17.3039 14.2573 17.4847 14.438 17.6002 14.6379C17.9111 15.1764 17.9111 15.8398 17.6002 16.3783C17.4847 16.5782 17.3039 16.7589 17.0757 16.9866L17.0313 17.0311L16.9868 17.0756L16.9868 17.0756C16.759 17.3037 16.5784 17.4846 16.3785 17.6C15.84 17.9109 15.1766 17.9109 14.6381 17.6C14.4381 17.4846 14.2575 17.3037 14.0297 17.0756L13.9853 17.0311L12.8159 15.8617C12.5303 15.576 12.3509 15.3981 12.2032 15.2854C12.067 15.1815 12.018 15.1812 12 15.1812C11.982 15.1812 11.933 15.1815 11.7969 15.2854C11.6492 15.3981 11.4698 15.576 11.1842 15.8617L10.0147 17.0311L9.97029 17.0756L9.97029 17.0756C9.74252 17.3037 9.5619 17.4846 9.36194 17.6C8.82347 17.9109 8.16005 17.9109 7.62158 17.6C7.42161 17.4846 7.241 17.3037 7.01322 17.0756L7.01322 17.0756L6.96878 17.0311L6.9243 16.9866C6.69619 16.7589 6.5153 16.5782 6.39985 16.3783C6.08897 15.8398 6.08897 15.1764 6.39985 14.6379C6.5153 14.438 6.69618 14.2573 6.92429 14.0296L6.92431 14.0296L6.96878 13.9851L8.1382 12.8157C8.42383 12.5301 8.60174 12.3507 8.71442 12.203C8.81831 12.0668 8.81866 12.0178 8.81866 11.9998C8.81866 11.9819 8.81831 11.9329 8.71442 11.7967C8.60174 11.649 8.42383 11.4696 8.1382 11.184L6.96878 10.0145L6.92431 9.97012C6.69619 9.74234 6.5153 9.56172 6.39985 9.36175C6.08897 8.82328 6.08897 8.15986 6.39985 7.62139C6.5153 7.42142 6.69619 7.24081 6.92431 7.01303L6.96878 6.9686L7.01321 6.92413L7.01321 6.92412C7.24099 6.696 7.42161 6.51512 7.62158 6.39967Z" fill="#ED3A3A"/>
<path d="M7.62158 6.39967C8.16005 6.08878 8.82347 6.08878 9.36194 6.39967C9.56191 6.51512 9.74252 6.696 9.9703 6.92412C10.3746 7.32905 10.7795 7.7334 11.1842 8.13802L15.8618 12.8157L17.0313 13.9851C17.2804 14.2342 17.4773 14.4251 17.6002 14.6379C17.9111 15.1764 17.9111 15.8398 17.6002 16.3783C17.4847 16.5782 17.3039 16.7589 17.0757 16.9866L16.9868 17.0756L16.9868 17.0756C16.759 17.3037 16.5784 17.4846 16.3785 17.6C15.84 17.9109 15.1766 17.9109 14.6381 17.6C14.4253 17.4771 14.2344 17.2802 13.9853 17.0311L12.8159 15.8617L8.1382 11.184C7.73358 10.7793 7.32923 10.3744 6.92431 9.97012C6.69619 9.74234 6.5153 9.56172 6.39985 9.36175C6.08897 8.82328 6.08897 8.15986 6.39985 7.62139C6.5153 7.42142 6.69619 7.24081 6.92431 7.01303L7.01321 6.92413L7.01321 6.92412C7.24099 6.696 7.42161 6.51512 7.62158 6.39967Z" fill="#ED3A3A"/>
</svg>
