<svg width="24" height="24" viewBox="0 0 24 24" fill="none" xmlns="http://www.w3.org/2000/svg">
<circle cx="12" cy="12" r="12" fill="#C3EED5"/>
<path d="M10.6751 16.6466L10.674 16.6484C10.4019 17.079 9.91261 17.3396 9.38802 17.333C8.86332 17.3265 8.38137 17.0539 8.12102 16.6166C7.30134 15.2395 6.7181 14.8922 6.58617 14.8275C5.87653 14.722 5.33331 14.133 5.33331 13.4222C5.33331 12.6367 5.99657 12 6.81475 12C7.01683 12.0075 7.20755 12.0285 7.46068 12.1058C7.73869 12.1908 8.05793 12.3349 8.40502 12.5682C9.85034 13.5394 11.2174 15.8374 11.2174 15.8374C11.0324 16.1042 10.8505 16.3733 10.6751 16.6466Z" fill="#33B469"/>
<path d="M17.6867 9.33153C18.4592 8.83491 18.8584 8.33073 18.5737 7.59435C18.2891 6.85796 17.4366 6.48249 16.6695 6.75571C15.4931 7.17474 14.3832 7.96727 13.4232 8.81394C12.4467 9.67523 11.5361 10.6729 10.7647 11.603C9.72972 12.8507 8.77124 14.17 7.90192 15.5404C7.78904 15.7183 7.7326 15.8073 7.73297 15.9048C7.73334 16.0023 7.79419 16.0966 7.91588 16.2852C7.98248 16.3885 8.05092 16.4988 8.12104 16.6166C8.38139 17.054 8.86334 17.3265 9.38804 17.333C9.90151 17.3395 10.3988 17.0819 10.6751 16.6466C10.888 16.315 11.1101 15.9893 11.3364 15.6668C11.7643 15.0572 12.3699 14.2338 13.0824 13.3748C13.7979 12.5123 14.6029 11.636 15.4278 10.9085C16.2692 10.1663 17.0634 9.73224 17.6867 9.33153Z" fill="#33B469"/>
</svg>
