<svg id="Layer_2" height="512" viewBox="0 0 512 512" width="512" xmlns="http://www.w3.org/2000/svg" data-name="Layer 2"><g id="Icon"><g id="_31" data-name="31"><rect id="Background" fill="#2492ff" height="512" rx="150" transform="matrix(-1 0 0 -1 512 512)" width="512"/><path d="m377.05 260.6c-11.85 45.97-49.19 81.7-96.05 91.21v43.82c0 13.81-11.19 25-25 25-13.81 0-25-11.19-25-25v-43.82c-46.86-9.51-84.2-45.24-96.05-91.21-4.08-15.84 7.86-31.29 24.22-31.29 11.47 0 21.36 7.84 24.26 18.94 8.41 32.22 37.76 56.06 72.58 56.06s64.17-23.85 72.58-56.06c2.9-11.1 12.78-18.94 24.26-18.94 16.36 0 28.3 15.45 24.22 31.29zm-72.41-31.05v-89.53c0-26.86-21.78-48.64-48.64-48.64-26.86 0-48.64 21.78-48.64 48.64v89.53c0 26.86 21.78 48.64 48.64 48.64 26.86 0 48.64-21.78 48.64-48.64z" fill="#fff"/></g></g></svg>