<?xml version="1.0" encoding="UTF-8" standalone="no"?>
<!-- Created with Inkscape (http://www.inkscape.org/) -->

<svg
   version="1.1"
   id="svg207"
   xml:space="preserve"
   width="682.66669"
   height="682.66669"
   viewBox="0 0 682.66669 682.66669"
   xmlns="http://www.w3.org/2000/svg"
   xmlns:svg="http://www.w3.org/2000/svg"><defs
     id="defs211"><clipPath
       clipPathUnits="userSpaceOnUse"
       id="clipPath221"><path
         d="M 0,512 H 512 V 0 H 0 Z"
         id="path219" /></clipPath></defs><g
     id="g213"
     transform="matrix(1.3333333,0,0,-1.3333333,0,682.66667)"><g
       id="g215"><g
         id="g217"
         clip-path="url(#clipPath221)"><g
           id="g223"
           transform="translate(176,20.0356)"><path
             d="M 0,0 H 160"
             style="fill:none;stroke:#000000;stroke-width:40;stroke-linecap:round;stroke-linejoin:round;stroke-miterlimit:10;stroke-dasharray:none;stroke-opacity:1"
             id="path225" /></g><g
           id="g227"
           transform="translate(256,92.0356)"><path
             d="M 0,0 V -72"
             style="fill:none;stroke:#000000;stroke-width:40;stroke-linecap:round;stroke-linejoin:round;stroke-miterlimit:10;stroke-dasharray:none;stroke-opacity:1"
             id="path229" /></g><g
           id="g231"
           transform="translate(416,252.0356)"><path
             d="m 0,0 c 0,-88.223 -71.777,-160 -160,-160 -88.223,0 -160,71.777 -160,160"
             style="fill:none;stroke:#000000;stroke-width:40;stroke-linecap:round;stroke-linejoin:round;stroke-miterlimit:10;stroke-dasharray:none;stroke-opacity:1"
             id="path233" /></g><g
           id="g235"
           transform="translate(256,172.0356)"><path
             d="m 0,0 c -44.183,0 -80,35.817 -80,80 v 160 c 0,44.183 35.817,80 80,80 44.183,0 80,-35.817 80,-80 V 80 C 80,35.817 44.183,0 0,0 Z"
             style="fill:none;stroke:#000000;stroke-width:40;stroke-linecap:round;stroke-linejoin:round;stroke-miterlimit:10;stroke-dasharray:none;stroke-opacity:1"
             id="path237" /></g><g
           id="g239"
           transform="translate(96,332.0356)"><path
             d="M 0,0 V 40"
             style="fill:none;stroke:#000000;stroke-width:40;stroke-linecap:round;stroke-linejoin:round;stroke-miterlimit:10;stroke-dasharray:none;stroke-opacity:1"
             id="path241" /></g><g
           id="g243"
           transform="translate(20,292.0356)"><path
             d="M 0,0 V 120"
             style="fill:none;stroke:#000000;stroke-width:40;stroke-linecap:round;stroke-linejoin:round;stroke-miterlimit:10;stroke-dasharray:none;stroke-opacity:1"
             id="path245" /></g><g
           id="g247"
           transform="translate(416,332.0356)"><path
             d="M 0,0 V 40"
             style="fill:none;stroke:#000000;stroke-width:40;stroke-linecap:round;stroke-linejoin:round;stroke-miterlimit:10;stroke-dasharray:none;stroke-opacity:1"
             id="path249" /></g><g
           id="g251"
           transform="translate(492,292.0356)"><path
             d="M 0,0 V 120"
             style="fill:none;stroke:#000000;stroke-width:40;stroke-linecap:round;stroke-linejoin:round;stroke-miterlimit:10;stroke-dasharray:none;stroke-opacity:1"
             id="path253" /></g></g></g></g></svg>
