<svg width="16" height="16" viewBox="0 0 16 16" fill="none" xmlns="http://www.w3.org/2000/svg">
<g opacity="0.7">
<path fill-rule="evenodd" clip-rule="evenodd" d="M7.90281 4.59421L7.96236 4.6325C8.84009 5.19676 9.53766 5.64521 10.0333 6.05552C10.5376 6.47291 10.9096 6.91105 11.0291 7.47988C11.101 7.82248 11.101 8.17709 11.0291 8.51969C10.9096 9.08851 10.5376 9.52665 10.0333 9.94405C9.53766 10.3544 8.8401 10.8028 7.96238 11.3671L7.90283 11.4053C6.94711 12.0198 6.19021 12.5064 5.57262 12.8047C4.95119 13.105 4.3605 13.2716 3.77715 13.0932C3.43308 12.988 3.118 12.8036 2.85478 12.5553C2.41426 12.1398 2.24342 11.5429 2.16308 10.8378C2.08299 10.135 2.083 9.20892 2.08301 8.03368V7.96589C2.083 6.79065 2.08299 5.8646 2.16308 5.1618C2.24342 4.45671 2.41426 3.85979 2.85478 3.44429C3.118 3.19601 3.43308 3.01156 3.77715 2.90635C4.3605 2.72798 4.95119 2.89459 5.57262 3.19482C6.1902 3.49319 6.9471 3.97979 7.90281 4.59421Z" fill="white"/>
<path fill-rule="evenodd" clip-rule="evenodd" d="M13.2493 2C12.8812 2 12.5827 2.29848 12.5827 2.66667L12.5827 13.3333C12.5827 13.7015 12.8812 14 13.2493 14C13.6175 14 13.916 13.7015 13.916 13.3333L13.916 2.66667C13.916 2.29848 13.6175 2 13.2493 2Z" fill="white"/>
</g>
</svg>
