<svg id="Layer_1" height="512" viewBox="0 0 512 512" width="512" xmlns="http://www.w3.org/2000/svg" data-name="Layer 1"><path d="m475.875 173.859a21.334 21.334 0 1 0 -39.975 14.907 192.586 192.586 0 0 1 -44.125 203c-74.875 74.854-196.688 74.854-271.542 0s-74.854-196.672 0-271.532c66.012-66.015 169.159-73.586 244.142-22.434l-19.042 6.347a21.335 21.335 0 1 0 13.5 40.479l55.3-18.437a21.342 21.342 0 0 0 14.25-24.016l-11.383-63.282a21.337 21.337 0 0 0 -42 7.552l1.534 8.526c-90.141-53.884-209.142-42.244-286.472 35.099-91.489 91.494-91.489 240.37 0 331.864a234.7 234.7 0 0 0 385.813-248.073z"/><path d="m192 362.667a21.334 21.334 0 0 0 21.333-21.334v-149.333a21.336 21.336 0 0 0 -32.312-18.292l-53.333 32a21.334 21.334 0 0 0 21.958 36.584l21.021-12.615v111.656a21.334 21.334 0 0 0 21.333 21.334z"/><path d="m309.333 170.667c-41.864 0-74.666 42.166-74.666 96s32.8 96 74.666 96 74.667-42.167 74.667-96-32.8-96-74.667-96zm0 149.333c-15.135 0-32-21.9-32-53.333s16.865-53.334 32-53.334 32 21.9 32 53.334-16.864 53.333-32 53.333z"/></svg>