<svg width="230" height="230" viewBox="0 0 230 230" fill="none" xmlns="http://www.w3.org/2000/svg">
<path opacity="0.35" d="M115.217 126.794C55.2797 126.794 9.58916 147.277 3.95566 165.513C-1.71928 155.099 0.924448 138.375 10.6234 131.831C13.0946 130.164 15.896 128.976 18.0731 126.918C24.7798 120.579 23.0309 109.461 24.7489 100.221C26.5958 90.3172 33.3284 81.5195 42.2329 77.3882C51.7461 72.979 63.3849 73.5759 71.5929 66.9236C78.8878 61.0121 81.4518 50.9745 85.6565 42.465C95.2884 22.9145 115.409 9.80031 136.519 7.42339C157.63 5.04647 179.272 12.8358 195.642 26.8143C204.412 34.2898 211.929 43.7923 215.117 55.0544C219.951 72.1404 214.276 90.2503 212.311 107.949C212.043 110.362 211.857 112.867 212.61 115.151C214.359 120.497 220.302 122.817 224.177 126.794C232.06 134.877 230.367 148.238 228.144 159.479L227.183 164.11C221.55 147.978 176.414 126.794 115.217 126.794Z" fill="#8BCDE5"/>
<path opacity="0.67" d="M36.2515 141.165C-7.75021 157.323 -7.74558 183.508 36.2515 199.68C80.2486 215.853 151.591 215.838 195.592 199.68C239.594 183.522 239.59 157.338 195.592 141.165C151.595 124.992 80.2532 125.007 36.2515 141.165Z" fill="#8BCDE5"/>
<path d="M220.458 155.725L213.279 147.605L137.605 104.018C135.721 102.736 132.899 105.336 131.801 107.959C131.63 108.351 131.501 108.759 131.415 109.177C131.203 110.266 131.387 111.25 132.201 111.804L208.491 155.748L218.96 157.808L221.809 158.371C221.894 158.39 221.983 158.381 222.063 158.346C222.142 158.312 222.209 158.252 222.252 158.177C222.296 158.102 222.314 158.015 222.305 157.929C222.295 157.843 222.259 157.762 222.2 157.698L220.458 155.725Z" fill="#E0E0E0"/>
<path d="M93.104 99.7843L9.41479 155.698C8.16934 156.531 8.17393 157.79 9.41479 158.513L122.563 223.514C123.273 223.865 124.061 224.031 124.853 223.996C125.644 223.961 126.414 223.725 127.09 223.312L210.779 167.398C212.024 166.565 212.02 165.302 210.779 164.579L97.6308 99.5829C96.9209 99.2318 96.1331 99.0661 95.3413 99.1013C94.5495 99.1366 93.7796 99.3716 93.104 99.7843Z" fill="#61BBDC"/>
<path d="M140.953 112.906L141.932 113.465L143.109 114.142L209.844 152.593C209.476 151.774 209.761 150.139 210.602 148.574C211.577 146.743 213.07 145.301 214.15 145.246L147.732 106.978L145.475 105.688C146.891 106.603 142.378 113.803 140.953 112.906Z" fill="#455A64"/>
<path d="M147.629 106.916L145.441 105.671C144.821 105.291 143.645 106.403 142.61 107.873C141.232 109.823 140.12 112.404 140.942 112.908L142.555 113.823L143.134 114.139C142.312 113.636 143.424 111.049 144.803 109.104C145.791 107.699 146.926 106.614 147.56 106.875C147.587 106.882 147.611 106.896 147.629 106.916Z" fill="#EBEBEB"/>
<path d="M147.082 106.608C145.639 105.72 141.145 112.957 142.583 113.845L144.766 115.094C143.328 114.206 147.822 106.969 149.265 107.857L147.082 106.608Z" fill="#739AF0"/>
<path d="M151.343 109.054L149.188 107.818C147.781 106.934 143.369 113.878 144.564 114.981C144.587 115.005 144.614 115.025 144.642 115.041L146.821 116.268C145.41 115.38 149.914 108.152 151.343 109.054Z" fill="#EBEBEB"/>
<path d="M145.475 105.675H145.442C144.827 105.281 143.65 106.402 142.616 107.876C141.237 109.79 140.143 112.321 140.911 112.884L131.807 107.67C131.076 107.172 130.888 106.297 131.099 105.304C131.604 102.658 134.711 99.3028 136.678 100.639L145.475 105.675Z" fill="#739AF0"/>
<path d="M219.969 152.915C219.215 153.931 219.289 154.43 219.289 154.43L209.844 152.576C208.925 151.153 209.523 148.836 210.819 147.188L211.232 147.422L219.969 152.915Z" fill="#F28F8F"/>
<path d="M221.858 154.936L219.289 154.437C219.289 154.437 219.174 153.938 219.969 152.922L222.212 154.332C222.275 154.404 222.307 154.498 222.302 154.594C222.296 154.689 222.254 154.779 222.184 154.844C222.142 154.886 222.09 154.916 222.033 154.932C221.976 154.948 221.916 154.95 221.858 154.936Z" fill="#37474F"/>
<path d="M214.145 145.237L220.625 152.561C220.369 152.606 220.134 152.735 219.959 152.927L211.227 147.434L210.813 147.201C211.7 146.07 212.905 145.251 214.145 145.237Z" fill="#FFA8A7"/>
<path d="M219.967 152.914C220.044 152.808 220.144 152.72 220.259 152.657C220.374 152.593 220.502 152.556 220.633 152.548L222.21 154.324L219.967 152.914Z" fill="#455A64"/>
<path opacity="0.2" d="M210.817 147.198L132.013 103.099C131.578 103.774 131.266 104.521 131.094 105.305C130.901 106.289 131.071 107.168 131.806 107.672L140.952 112.908L141.931 113.467L143.107 114.144L209.843 152.595C208.689 150.819 209.935 148.201 210.817 147.198Z" fill="black"/>
<path d="M95.2651 102.604L15.9143 151.272L14.292 154.115V156.349C14.2987 156.904 14.4549 157.447 14.7444 157.921C15.0338 158.395 15.4458 158.783 15.9373 159.045L121.066 219.587C121.902 220.04 122.85 220.25 123.8 220.191C124.769 220.159 125.711 219.866 126.526 219.344L204.084 167.499V165.27L95.2651 102.604Z" fill="#263238"/>
<path d="M123.786 217.962C122.837 218.021 121.89 217.81 121.057 217.354L15.9373 156.812C15.4455 156.551 15.0332 156.163 14.7437 155.688C14.4543 155.214 14.2982 154.671 14.292 154.116C14.3025 153.545 14.4565 152.985 14.7399 152.489C15.0233 151.992 15.427 151.574 15.9143 151.273L91.7447 100.582L204.075 165.276L126.512 217.111C125.697 217.634 124.755 217.928 123.786 217.962Z" fill="#FFB93E"/>
<path d="M91.7261 94.0361L16.7459 144.15L15.9922 145.345L16.029 154.042C16.0457 154.282 16.1266 154.513 16.2632 154.711C16.3997 154.909 16.5871 155.067 16.8056 155.168L121.911 215.706C122.496 215.995 123.146 216.132 123.798 216.103C124.451 216.074 125.086 215.881 125.643 215.541L200.628 165.426L200.586 156.729L91.7261 94.0361Z" fill="#EBEBEB"/>
<path d="M200.591 156.733L199.672 157.361L187.47 165.513L185.2 167.037L125.63 206.861C125.072 207.201 124.438 207.395 123.785 207.423C123.132 207.452 122.483 207.316 121.898 207.026L16.7508 146.471C15.726 145.876 15.7214 144.832 16.7508 144.145L17.7481 143.482L91.7402 94.0449L199.658 156.193L199.884 156.331L200.591 156.733Z" fill="#F0F0F0"/>
<path d="M123.74 207.415L123.777 216.112C123.139 216.15 122.502 216.011 121.939 215.709L16.792 155.163C16.5737 155.062 16.3868 154.904 16.2509 154.706C16.1151 154.507 16.0353 154.276 16.0199 154.037L15.9785 145.34C15.9976 145.578 16.0789 145.808 16.2143 146.005C16.3497 146.203 16.5346 146.361 16.7506 146.466L121.879 207.012C122.449 207.318 123.094 207.458 123.74 207.415Z" fill="#E0E0E0"/>
<path d="M200.587 155.576L187.089 164.593L184.97 166.008L125.606 205.685C125.05 206.026 124.415 206.22 123.762 206.25C123.11 206.279 122.46 206.143 121.875 205.855L27.7346 151.639C26.889 151.181 26.1031 150.724 25.3678 150.266C21.5349 147.931 19.2232 145.794 17.7388 143.473L17.5595 143.18C17.4407 143.001 17.3594 142.8 17.3205 142.589C17.2489 142.141 17.3413 141.683 17.5809 141.297C17.8205 140.911 18.1913 140.624 18.6257 140.488C21.1046 139.592 23.4742 138.421 25.6895 136.996L25.7814 136.936L91.7171 92.8643L200.587 155.576Z" fill="white"/>
<path d="M91.7355 93.409L199.736 155.599L186.868 164.209L184.754 165.623L125.372 205.305C124.829 205.636 124.202 205.806 123.566 205.795C123.064 205.808 122.566 205.691 122.123 205.456L27.9414 151.236C27.1739 150.815 26.4018 150.371 25.5929 149.886C21.9853 147.684 19.6184 145.574 18.1156 143.239L18.0329 143.107L17.9318 142.946C17.8421 142.808 17.7826 142.652 17.7571 142.489C17.7083 142.149 17.7835 141.802 17.969 141.513C18.1544 141.223 18.438 141.009 18.7682 140.909C21.2787 140.003 23.6777 138.816 25.9192 137.371L25.9744 137.339H26.002L91.7217 93.4273M91.7217 92.8871L25.7814 136.945L25.6895 137.005C23.4742 138.43 21.1046 139.601 18.6257 140.497C18.1913 140.634 17.8205 140.921 17.5809 141.306C17.3413 141.692 17.2489 142.151 17.3205 142.599C17.3594 142.809 17.4407 143.01 17.5595 143.189L17.7388 143.482C19.2232 145.803 21.5349 147.94 25.3678 150.275C26.1031 150.733 26.889 151.19 27.7346 151.648L121.875 205.855C122.388 206.13 122.965 206.267 123.547 206.253C124.274 206.264 124.989 206.067 125.606 205.685L184.97 166.008L187.089 164.593L200.587 155.576L91.7171 92.8643L91.7217 92.8871Z" fill="#E0E0E0"/>
<path opacity="0.1" d="M186.569 155.176C185.613 155.822 185.617 156.797 186.569 157.355C187.116 157.627 187.723 157.755 188.333 157.728C188.943 157.7 189.537 157.519 190.057 157.199C191.017 156.554 191.017 155.579 190.057 155.021C189.511 154.748 188.903 154.619 188.292 154.646C187.682 154.673 187.088 154.856 186.569 155.176Z" fill="black"/>
<path d="M197.742 147.633C196.409 146.869 194.745 147.07 193.049 148.196C190.43 149.958 188.169 153.721 187.194 157.598C187.611 157.723 188.049 157.76 188.481 157.708C189.4 154.252 191.381 150.938 193.702 149.377C194.33 148.924 195.068 148.648 195.839 148.576C196.278 148.55 196.716 148.652 197.098 148.869C198.224 149.519 198.877 151.19 198.886 153.447C198.891 153.82 198.872 154.193 198.831 154.563L200.058 155.273C200.14 154.648 200.181 154.018 200.182 153.387C200.168 150.627 199.281 148.521 197.742 147.633Z" fill="#263238"/>
<path d="M199.944 156C199.932 156.111 199.912 156.221 199.884 156.33L199.659 156.192L199.944 156Z" fill="#263238"/>
<path opacity="0.1" d="M176.035 149.109C175.079 149.754 175.083 150.729 176.035 151.287C176.581 151.559 177.189 151.687 177.799 151.66C178.409 151.633 179.003 151.451 179.523 151.132C180.483 150.486 180.483 149.511 179.523 148.953C178.976 148.681 178.369 148.553 177.758 148.58C177.148 148.607 176.555 148.789 176.035 149.109Z" fill="black"/>
<path d="M187.207 141.568C185.875 140.799 184.211 141.001 182.52 142.127C179.896 143.889 177.634 147.652 176.66 151.534C177.078 151.653 177.515 151.691 177.947 151.643C178.866 148.183 180.852 144.869 183.168 143.308C183.795 142.855 184.533 142.578 185.305 142.507C185.745 142.482 186.182 142.585 186.564 142.804C187.69 143.45 188.343 145.12 188.352 147.382C188.356 147.755 188.338 148.128 188.297 148.499L189.524 149.208C189.61 148.583 189.652 147.953 189.648 147.322C189.634 144.553 188.747 142.456 187.207 141.568Z" fill="#263238"/>
<path opacity="0.1" d="M165.497 143.042C164.545 143.683 164.545 144.658 165.497 145.221C166.044 145.49 166.651 145.617 167.261 145.59C167.871 145.563 168.464 145.382 168.985 145.065C169.95 144.42 169.945 143.445 168.985 142.886C168.438 142.615 167.831 142.486 167.221 142.513C166.61 142.541 166.017 142.723 165.497 143.042Z" fill="black"/>
<path d="M176.671 135.522C175.343 134.753 173.679 134.959 171.984 136.081C169.359 137.843 167.103 141.606 166.124 145.487C166.542 145.607 166.979 145.644 167.411 145.597C168.33 142.137 170.315 138.822 172.636 137.262C173.262 136.808 173.998 136.531 174.769 136.46C175.21 136.438 175.648 136.542 176.033 136.758C177.154 137.403 177.811 139.074 177.82 141.336C177.823 141.71 177.803 142.085 177.761 142.457L178.992 143.162C179.075 142.538 179.115 141.91 179.112 141.281C179.098 138.484 178.225 136.387 176.671 135.522Z" fill="#263238"/>
<path opacity="0.1" d="M154.964 136.972C154.008 137.617 154.013 138.592 154.964 139.151C155.511 139.422 156.118 139.551 156.728 139.524C157.338 139.498 157.932 139.317 158.452 139C159.413 138.35 159.413 137.375 158.452 136.816C157.905 136.545 157.298 136.418 156.688 136.445C156.078 136.472 155.485 136.654 154.964 136.972Z" fill="black"/>
<path d="M166.138 129.434C164.805 128.665 163.142 128.871 161.45 129.997C158.826 131.755 156.565 135.517 155.591 139.399C156.008 139.519 156.446 139.556 156.878 139.509C157.774 136.048 159.778 132.734 162.103 131.173C162.729 130.72 163.465 130.443 164.235 130.372C164.677 130.35 165.115 130.453 165.499 130.67C166.621 131.315 167.273 132.986 167.282 135.247C167.287 135.622 167.269 135.996 167.227 136.369L168.459 137.074C168.539 136.45 168.579 135.821 168.579 135.192C168.574 132.418 167.678 130.322 166.138 129.434Z" fill="#263238"/>
<path opacity="0.1" d="M144.431 130.907C143.475 131.553 143.48 132.528 144.431 133.086C144.977 133.358 145.584 133.486 146.193 133.459C146.803 133.432 147.395 133.25 147.915 132.931C148.88 132.285 148.875 131.31 147.915 130.752C147.369 130.48 146.762 130.351 146.153 130.379C145.543 130.406 144.95 130.588 144.431 130.907Z" fill="black"/>
<path d="M155.604 123.365C154.271 122.596 152.608 122.802 150.916 123.928C148.292 125.69 146.031 129.448 145.057 133.33C145.473 133.454 145.912 133.492 146.343 133.44C147.24 129.984 149.243 126.67 151.564 125.109C152.192 124.656 152.93 124.378 153.701 124.303C154.141 124.281 154.578 124.385 154.961 124.601C156.087 125.251 156.739 126.921 156.748 129.178C156.753 129.551 156.734 129.924 156.693 130.295L157.92 131C158.003 130.376 158.043 129.748 158.04 129.118C158.031 126.367 157.139 124.253 155.604 123.365Z" fill="#263238"/>
<path opacity="0.1" d="M133.891 124.837C132.935 125.482 132.94 126.457 133.891 127.016C134.437 127.287 135.043 127.415 135.653 127.388C136.263 127.361 136.855 127.179 137.375 126.86C138.34 126.215 138.335 125.24 137.375 124.681C136.829 124.41 136.222 124.282 135.613 124.309C135.003 124.336 134.411 124.518 133.891 124.837Z" fill="black"/>
<path d="M145.065 117.293C143.732 116.528 142.068 116.734 140.377 117.856C137.753 119.618 135.483 123.381 134.518 127.281C134.935 127.401 135.372 127.438 135.804 127.391C136.701 123.93 138.704 120.616 141.025 119.055C141.653 118.603 142.391 118.326 143.162 118.254C143.602 118.231 144.039 118.334 144.421 118.552C145.547 119.197 146.2 120.868 146.209 123.129C146.214 123.502 146.195 123.875 146.154 124.246L147.381 124.956C147.463 124.332 147.504 123.703 147.505 123.074C147.491 120.282 146.604 118.181 145.065 117.293Z" fill="#263238"/>
<path opacity="0.1" d="M123.358 118.773C122.402 119.418 122.406 120.393 123.358 120.952C123.904 121.223 124.51 121.351 125.12 121.324C125.73 121.297 126.322 121.115 126.841 120.796C127.807 120.15 127.802 119.175 126.841 118.617C126.296 118.345 125.689 118.217 125.079 118.244C124.47 118.271 123.877 118.453 123.358 118.773Z" fill="black"/>
<path d="M134.53 111.228C133.198 110.463 131.534 110.665 129.838 111.791C127.209 113.549 124.957 117.316 123.992 121.193C124.409 121.318 124.847 121.355 125.279 121.303C126.198 117.847 128.179 114.533 130.5 112.967C131.129 112.518 131.866 112.243 132.637 112.171C133.076 112.146 133.513 112.248 133.896 112.464C135.022 113.114 135.675 114.785 135.684 117.041C135.686 117.414 135.668 117.787 135.629 118.158L136.856 118.863C136.938 118.239 136.979 117.611 136.98 116.982C136.957 114.217 136.07 112.116 134.53 111.228Z" fill="#263238"/>
<path opacity="0.1" d="M112.822 112.704C111.866 113.35 111.87 114.325 112.822 114.883C113.368 115.155 113.976 115.283 114.586 115.256C115.196 115.228 115.79 115.047 116.31 114.727C117.27 114.087 117.27 113.107 116.31 112.549C115.763 112.278 115.156 112.15 114.546 112.177C113.935 112.205 113.342 112.386 112.822 112.704Z" fill="black"/>
<path d="M123.995 105.164C122.662 104.395 121.003 104.601 119.307 105.722C116.683 107.484 114.422 111.247 113.447 115.129C113.865 115.249 114.302 115.286 114.734 115.239C115.653 111.778 117.634 108.464 119.959 106.903C120.585 106.45 121.322 106.173 122.092 106.102C122.532 106.079 122.969 106.182 123.351 106.4C124.477 107.045 125.13 108.716 125.139 110.977C125.143 111.35 125.125 111.723 125.084 112.094L126.315 112.804C126.396 112.18 126.436 111.551 126.435 110.922C126.421 108.148 125.534 106.052 123.995 105.164Z" fill="#263238"/>
<path opacity="0.1" d="M102.287 106.637C101.332 107.278 101.336 108.253 102.287 108.816C102.834 109.086 103.442 109.214 104.052 109.187C104.662 109.16 105.255 108.978 105.776 108.66C106.736 108.015 106.736 107.04 105.776 106.481C105.229 106.209 104.622 106.081 104.011 106.108C103.401 106.135 102.808 106.317 102.287 106.637Z" fill="black"/>
<path d="M113.46 99.0951C112.128 98.326 110.464 98.532 108.773 99.6581C106.149 101.42 103.887 105.179 102.913 109.06C103.33 109.182 103.768 109.22 104.2 109.17C105.096 105.71 107.1 102.395 109.421 100.835C110.049 100.384 110.787 100.107 111.558 100.033C111.997 100.01 112.435 100.114 112.817 100.331C113.943 100.976 114.596 102.647 114.605 104.908C114.609 105.283 114.591 105.658 114.55 106.03L115.777 106.735C115.861 106.111 115.902 105.483 115.901 104.854C115.887 102.08 115 99.9831 113.46 99.0951Z" fill="#263238"/>
<path opacity="0.1" d="M91.7484 100.569C90.7925 101.215 90.7971 102.19 91.7484 102.748C92.2952 103.02 92.9024 103.148 93.5128 103.121C94.1231 103.094 94.7164 102.912 95.2366 102.593C96.2017 101.947 96.1971 100.972 95.2366 100.414C94.6896 100.143 94.0825 100.015 93.4723 100.043C92.8622 100.07 92.2689 100.251 91.7484 100.569Z" fill="black"/>
<path d="M102.921 93.0289C101.593 92.2599 99.9295 92.4659 98.2336 93.5874C95.6095 95.3497 93.3529 99.1124 92.374 102.994C92.7917 103.114 93.2288 103.151 93.6608 103.104C94.58 99.6434 96.5654 96.3293 98.8862 94.7684C99.5117 94.3151 100.248 94.0383 101.019 93.9673C101.46 93.9434 101.899 94.0467 102.283 94.2649C103.404 94.9103 104.061 96.5811 104.07 98.8423C104.073 99.2154 104.054 99.5882 104.015 99.9592L105.242 100.669C105.325 100.045 105.365 99.4165 105.362 98.7874C105.348 96.0135 104.461 93.917 102.921 93.0289Z" fill="#263238"/>
<path d="M113.178 194.571C112.968 194.579 112.76 194.528 112.578 194.424C112.396 194.319 112.247 194.166 112.149 193.981C111.993 193.686 111.949 193.345 112.027 193.02C112.105 192.696 112.298 192.411 112.572 192.218L170.258 153.662C170.387 153.573 170.534 153.512 170.689 153.483C170.844 153.455 171.003 153.459 171.156 153.496C171.309 153.534 171.452 153.603 171.576 153.699C171.7 153.796 171.802 153.917 171.876 154.056C172.032 154.351 172.075 154.692 171.997 155.017C171.92 155.341 171.726 155.626 171.453 155.818L113.771 194.388C113.594 194.501 113.389 194.565 113.178 194.571Z" fill="#EBEBEB"/>
<path d="M106.158 190.542C105.948 190.55 105.74 190.499 105.557 190.394C105.375 190.29 105.226 190.136 105.128 189.951C104.972 189.656 104.93 189.314 105.008 188.99C105.087 188.666 105.281 188.381 105.555 188.189L163.237 149.628C163.367 149.54 163.514 149.479 163.669 149.451C163.824 149.423 163.983 149.427 164.137 149.464C164.29 149.501 164.433 149.57 164.558 149.666C164.682 149.762 164.785 149.884 164.859 150.022C165.015 150.317 165.058 150.659 164.979 150.983C164.901 151.308 164.706 151.592 164.432 151.784L106.75 190.345C106.575 190.464 106.37 190.532 106.158 190.542Z" fill="#EBEBEB"/>
<path d="M99.1317 186.495C98.9219 186.502 98.7143 186.45 98.533 186.345C98.3516 186.24 98.2039 186.085 98.1068 185.9C97.9505 185.605 97.9072 185.264 97.985 184.94C98.0628 184.615 98.2564 184.33 98.5297 184.138L156.216 145.591C156.346 145.503 156.493 145.443 156.647 145.415C156.802 145.387 156.96 145.392 157.113 145.429C157.265 145.466 157.408 145.535 157.532 145.631C157.657 145.726 157.759 145.847 157.834 145.984C157.99 146.279 158.033 146.621 157.955 146.945C157.878 147.269 157.684 147.554 157.411 147.747L99.7246 186.294C99.5492 186.414 99.3441 186.483 99.1317 186.495Z" fill="#EBEBEB"/>
<path d="M92.108 182.454C91.8976 182.461 91.6895 182.409 91.5074 182.304C91.3254 182.198 91.1768 182.044 91.0785 181.859C90.9222 181.564 90.8789 181.223 90.9567 180.898C91.0345 180.574 91.2281 180.289 91.5013 180.097L149.188 141.54C149.317 141.45 149.464 141.389 149.619 141.36C149.773 141.331 149.933 141.335 150.086 141.372C150.239 141.41 150.382 141.479 150.507 141.576C150.631 141.673 150.732 141.795 150.805 141.934C150.962 142.229 151.005 142.57 150.927 142.895C150.849 143.219 150.656 143.504 150.383 143.696L92.6962 182.253C92.5226 182.373 92.319 182.442 92.108 182.454Z" fill="#EBEBEB"/>
<path d="M85.0814 178.405C84.8714 178.413 84.6634 178.362 84.4813 178.258C84.2991 178.153 84.1503 178 84.0519 177.815C83.896 177.52 83.8534 177.178 83.9321 176.853C84.0108 176.529 84.2053 176.244 84.4793 176.053L142.166 137.496C142.296 137.408 142.443 137.347 142.598 137.319C142.753 137.291 142.912 137.295 143.065 137.333C143.218 137.37 143.361 137.439 143.486 137.535C143.611 137.631 143.713 137.752 143.788 137.89C143.944 138.185 143.986 138.527 143.908 138.851C143.829 139.176 143.635 139.46 143.36 139.652L85.6742 178.208C85.4985 178.327 85.2934 178.395 85.0814 178.405Z" fill="#EBEBEB"/>
<path d="M78.0589 174.363C77.8483 174.371 77.6398 174.32 77.4575 174.214C77.2753 174.109 77.1268 173.954 77.0294 173.768C76.8736 173.473 76.831 173.131 76.9096 172.807C76.9883 172.482 77.1828 172.198 77.4568 172.006L135.139 133.45C135.268 133.36 135.415 133.299 135.571 133.271C135.726 133.242 135.885 133.246 136.038 133.284C136.192 133.321 136.335 133.39 136.46 133.486C136.584 133.583 136.687 133.705 136.761 133.843C136.917 134.138 136.96 134.48 136.883 134.804C136.805 135.128 136.611 135.413 136.338 135.606L78.6517 174.162C78.4773 174.284 78.2717 174.353 78.0589 174.363Z" fill="#EBEBEB"/>
<path d="M71.0347 170.31C70.8244 170.317 70.6163 170.265 70.4342 170.159C70.2522 170.054 70.1035 169.9 70.0053 169.715C69.849 169.42 69.8057 169.078 69.8835 168.754C69.9613 168.43 70.1548 168.145 70.4281 167.952L128.128 129.401C128.257 129.311 128.404 129.25 128.559 129.222C128.714 129.193 128.873 129.198 129.026 129.235C129.179 129.272 129.322 129.341 129.446 129.438C129.57 129.534 129.672 129.656 129.746 129.794C129.902 130.089 129.945 130.431 129.868 130.755C129.79 131.079 129.596 131.364 129.323 131.557L71.623 170.113C71.4485 170.23 71.2452 170.298 71.0347 170.31Z" fill="#EBEBEB"/>
<path d="M64.0081 166.269C63.7981 166.277 63.5901 166.226 63.408 166.121C63.2259 166.017 63.0771 165.863 62.9787 165.678C62.8228 165.383 62.7802 165.041 62.8589 164.717C62.9375 164.393 63.132 164.108 63.4061 163.916L121.092 125.36C121.221 125.27 121.368 125.208 121.523 125.179C121.678 125.15 121.838 125.154 121.991 125.192C122.144 125.229 122.287 125.298 122.411 125.395C122.535 125.492 122.637 125.614 122.71 125.753C122.866 126.048 122.91 126.39 122.832 126.714C122.754 127.038 122.56 127.323 122.287 127.516L64.601 166.072C64.425 166.19 64.22 166.258 64.0081 166.269Z" fill="#EBEBEB"/>
<path d="M56.9868 162.22C56.778 162.223 56.5725 162.168 56.3938 162.06C56.2151 161.952 56.0702 161.797 55.9757 161.612C55.8199 161.316 55.7773 160.974 55.8559 160.65C55.9346 160.326 56.1291 160.041 56.4031 159.849L114.066 121.33C114.196 121.24 114.343 121.178 114.498 121.149C114.654 121.12 114.813 121.124 114.967 121.161C115.12 121.199 115.264 121.268 115.389 121.365C115.513 121.462 115.615 121.584 115.689 121.723C115.845 122.019 115.887 122.36 115.809 122.685C115.73 123.009 115.535 123.294 115.261 123.486L57.5796 162.024C57.404 162.142 57.1988 162.21 56.9868 162.22Z" fill="#EBEBEB"/>
<path d="M49.9598 158.181C49.75 158.189 49.5425 158.137 49.3611 158.031C49.1797 157.926 49.032 157.772 48.935 157.586C48.7787 157.291 48.7353 156.95 48.8131 156.626C48.8909 156.302 49.0845 156.017 49.3578 155.824L107.044 117.268C107.173 117.178 107.32 117.117 107.475 117.089C107.63 117.06 107.789 117.065 107.942 117.102C108.095 117.139 108.238 117.208 108.362 117.305C108.486 117.401 108.588 117.523 108.662 117.661C108.818 117.956 108.861 118.298 108.784 118.622C108.706 118.946 108.512 119.231 108.239 119.424L50.5527 157.98C50.3773 158.1 50.1722 158.169 49.9598 158.181Z" fill="#EBEBEB"/>
<path d="M42.9371 154.137C42.7267 154.144 42.5186 154.092 42.3365 153.987C42.1545 153.882 42.0059 153.727 41.9076 153.542C41.7513 153.247 41.708 152.906 41.7858 152.582C41.8636 152.257 42.0572 151.972 42.3304 151.78L100.021 113.219C100.151 113.13 100.298 113.069 100.452 113.04C100.607 113.011 100.766 113.016 100.919 113.053C101.072 113.09 101.215 113.159 101.339 113.256C101.463 113.352 101.566 113.474 101.639 113.613C101.795 113.907 101.839 114.249 101.761 114.573C101.683 114.897 101.489 115.182 101.216 115.375L43.5253 153.936C43.3514 154.055 43.1479 154.125 42.9371 154.137Z" fill="#EBEBEB"/>
<path d="M35.9104 150.088C35.7005 150.096 35.4925 150.045 35.3104 149.94C35.1282 149.836 34.9794 149.683 34.881 149.498C34.7251 149.202 34.6825 148.861 34.7612 148.536C34.8399 148.212 35.0344 147.927 35.3084 147.735L92.9947 109.179C93.1244 109.09 93.2716 109.029 93.4268 109C93.5819 108.971 93.7413 108.976 93.8946 109.013C94.0479 109.05 94.1915 109.119 94.316 109.216C94.4405 109.312 94.5431 109.434 94.617 109.573C94.7728 109.868 94.8154 110.21 94.7368 110.534C94.6581 110.859 94.4636 111.143 94.1896 111.335L36.5033 149.891C36.3276 150.01 36.1225 150.078 35.9104 150.088Z" fill="#EBEBEB"/>
<path d="M28.888 146.051C28.6781 146.058 28.4703 146.007 28.2883 145.902C28.1063 145.798 27.9574 145.645 27.8585 145.46C27.7027 145.165 27.6601 144.823 27.7387 144.499C27.8174 144.174 28.0119 143.89 28.2859 143.698L85.9676 105.137C86.0975 105.048 86.2448 104.988 86.3998 104.96C86.5547 104.931 86.7139 104.936 86.867 104.973C87.0201 105.01 87.1635 105.079 87.2881 105.175C87.4127 105.271 87.5155 105.392 87.5899 105.531C87.7458 105.826 87.7884 106.168 87.7097 106.492C87.6311 106.816 87.4365 107.101 87.1625 107.293L29.4808 145.849C29.3057 145.969 29.1005 146.039 28.888 146.051Z" fill="#EBEBEB"/>
<path d="M120.318 198.631C120.108 198.638 119.899 198.586 119.717 198.481C119.535 198.375 119.387 198.221 119.288 198.036C119.132 197.741 119.089 197.4 119.167 197.075C119.244 196.751 119.438 196.466 119.711 196.273L180.725 155.419C180.855 155.33 181.002 155.269 181.157 155.24C181.312 155.212 181.472 155.216 181.625 155.253C181.778 155.29 181.922 155.36 182.046 155.456C182.171 155.553 182.273 155.674 182.347 155.813C182.504 156.109 182.548 156.452 182.469 156.777C182.39 157.102 182.195 157.388 181.92 157.58L120.906 198.429C120.732 198.548 120.529 198.617 120.318 198.631Z" fill="#FFB93E"/>
<path d="M126.377 174.085C126.29 173.833 126.161 173.577 125.978 173.627C125.922 173.655 125.876 173.698 125.845 173.75C125.813 173.803 125.797 173.864 125.798 173.925C125.799 174.006 125.815 174.087 125.844 174.163C125.899 174.346 126.014 174.442 126.074 174.621C126.754 176.859 124.525 177.569 123.349 177.651C120.012 177.898 116.735 176.401 113.67 174.772C109.272 172.437 104.892 169.869 100.287 168.363C96.4174 167.104 90.4429 165.855 88.2186 171.682C88.1772 171.801 88.3151 172.016 88.3748 171.883C90.7876 166.482 96.3071 167.599 100.112 168.853C104.763 170.387 109.18 172.996 113.629 175.349C116.602 176.919 119.727 178.287 122.953 178.205C124.429 178.173 127.402 177.321 126.483 174.401C126.455 174.337 126.419 174.213 126.377 174.085Z" fill="#263238"/>
<path d="M144.672 105.387C142.595 101.652 140.145 97.5367 137.567 91.5081C134.989 85.4796 132.797 85.4293 126.997 83.3602C122.185 81.6483 109.073 76.1507 103.839 73.9306C97.1011 71.0697 95.2398 70.7264 89.4997 64.2538C83.254 57.1908 62.2835 34.0059 62.2835 34.0059L35.6279 83.1451C44.53 88.2444 51.9797 92.4923 57.3981 95.9391C62.1318 98.942 65.0317 101.542 67.6789 110.821C69.4805 117.119 69.6919 119.852 74.6415 125.468C78.479 129.835 79.6004 131.071 84.0445 135.919L101.472 128.654C100.92 127.776 100.577 126.783 100.47 125.752C100.323 122.031 105.594 122.612 108.007 122.864C113.655 123.459 131.795 131.451 131.795 131.451L142.512 123.015C144.249 121.184 145.95 118.955 144.171 113.86C145.366 112.51 146.749 109.127 144.672 105.387Z" fill="#FFA8A7"/>
<path d="M131.418 91.2257C130.941 90.6343 130.367 90.1267 129.722 89.7242C129.373 89.4862 129.028 89.2665 128.679 89.0239C128.277 88.7376 127.856 88.4791 127.419 88.2503C127.337 88.2137 127.35 88.351 127.383 88.3876C128.554 89.5595 130.14 90.2186 131.091 91.6239C131.472 92.2166 131.803 92.8397 132.079 93.4869C132.456 94.2971 132.842 95.0936 133.251 95.8901C133.284 95.9496 133.325 95.8901 133.316 95.8398C132.888 94.2422 132.415 92.5806 131.418 91.2257Z" fill="#F28F8F"/>
<path d="M144.213 113.896C144.516 113.531 144.774 113.132 144.981 112.706C143.754 110.147 140.845 105.578 138.515 99.8887C140.128 104.42 141.506 106.682 144.213 113.896Z" fill="#F28F8F"/>
<path d="M135.3 91.0919C135.249 90.7315 135.156 90.3782 135.024 90.0391C134.797 89.422 134.458 88.8524 134.022 88.3592C133.501 87.8438 132.891 87.4266 132.22 87.1278C131.509 86.7427 130.751 86.4519 129.964 86.2627C129.964 86.2627 129.964 86.2902 129.964 86.2993C130.626 86.6747 131.31 87.0134 131.972 87.3888C132.604 87.6982 133.174 88.1201 133.654 88.6338C134.472 89.5997 134.776 90.8768 135.318 91.9937C135.35 92.0578 135.419 92.0441 135.419 91.9937C135.406 91.6902 135.366 91.3885 135.3 91.0919Z" fill="#F28F8F"/>
<path d="M143.891 121.367C143.689 118.698 142.292 116.977 140.835 113.659C138.997 109.493 134.943 101.537 133.578 96.873C134.038 101.061 136.846 115.549 138.891 125.894L142.531 123.029C143.037 122.52 143.493 121.963 143.891 121.367Z" fill="#F28F8F"/>
<path d="M101.107 128.11C100.901 127.572 100.648 127.053 100.353 126.558C100.091 126.055 99.8614 125.533 99.6362 125.011C99.2133 124.038 98.8556 123.038 98.5654 122.017C98.2743 120.98 98.1032 119.912 98.0553 118.836C98.0338 118.311 98.0446 117.785 98.0874 117.261C98.1104 116.987 98.1472 116.712 98.1886 116.437C98.2207 116.231 98.2805 116.003 98.2943 115.797C98.308 115.591 98.2943 115.481 98.3218 115.339C98.3218 115.247 98.1564 115.028 98.0874 115.174C97.9641 115.411 97.8611 115.657 97.7795 115.911C97.7156 116.142 97.6634 116.375 97.6233 116.611C97.5438 117.073 97.4962 117.539 97.4808 118.007C97.4561 118.883 97.5192 119.758 97.6692 120.621C97.9742 122.331 98.5464 123.982 99.3651 125.515C99.5995 125.972 99.8522 126.389 100.105 126.824C100.357 127.315 100.665 127.776 101.024 128.197C101.093 128.234 101.121 128.151 101.107 128.11Z" fill="#F28F8F"/>
<path d="M134.327 124.786L123.348 104.114C123.348 104.114 112.13 107.318 106.803 110.253C101.476 113.187 98.9902 123.344 101.035 128.183L101.251 128.228C100.815 127.474 100.551 126.633 100.479 125.766C100.332 122.044 105.604 122.626 108.016 122.877C113.665 123.472 131.804 131.465 131.804 131.465L134.47 129.364L134.327 124.786Z" fill="#F28F8F"/>
<path d="M62.5028 63.8377C68.6503 49.4476 67.0072 34.9737 58.8328 31.5093C50.6584 28.0449 39.0482 36.9019 32.9007 51.292C26.7531 65.6822 28.3962 80.1561 36.5706 83.6205C44.745 87.0849 56.3552 78.2278 62.5028 63.8377Z" fill="#FFA8A7"/>
<path d="M125.706 87.5474C132.071 90.3443 132.82 93.8277 133.946 98.3366C135.072 102.845 139.379 112.449 141.065 116.788C142.752 121.128 143.124 122.24 141.438 128.118C139.751 133.995 134.971 145.512 134.971 145.512C134.971 145.512 120.646 100.341 119.713 95.6953C118.78 91.0492 119.336 85.8767 125.706 87.5474Z" fill="#FFA8A7"/>
<path d="M140.016 125.098C140.009 125.11 140.005 125.123 140.005 125.137C140.005 125.15 140.009 125.164 140.016 125.176C140.218 125.24 140.526 125.102 140.728 125.066C140.93 125.029 141.243 124.965 141.5 124.928C141.757 124.892 142.006 124.869 142.272 124.855C142.304 124.686 142.332 124.521 142.359 124.365C141.709 124.441 141.07 124.595 140.457 124.823C140.283 124.863 140.128 124.96 140.016 125.098ZM139.988 122.031C140.623 121.792 141.28 121.619 141.95 121.514C142.126 121.491 142.302 121.477 142.479 121.472C142.479 121.298 142.438 121.124 142.405 120.955C142.212 120.955 142.024 120.983 141.831 121.01C141.106 121.092 140.405 121.321 139.772 121.683C139.565 121.788 139.795 122.095 139.988 122.031ZM142.12 122.704C141.714 122.721 141.309 122.764 140.907 122.832C140.08 122.95 139.282 123.22 138.554 123.628C138.38 123.734 138.614 123.967 138.766 123.917C139.45 123.655 140.154 123.446 140.87 123.29C141.215 123.224 141.564 123.182 141.914 123.161C142.093 123.161 142.291 123.161 142.484 123.161C142.484 123.001 142.507 122.85 142.511 122.704C142.373 122.704 142.249 122.704 142.12 122.704Z" fill="#F28F8F"/>
<path d="M135.85 115.763C133.251 110.696 130.986 105.465 129.072 100.104L123.345 98.3369L121.447 101.971C125.487 115.608 134.968 145.508 134.968 145.508C134.968 145.508 135.676 143.8 136.646 141.388C136.646 141.388 137.923 130.823 138.484 126.095C139.045 121.366 137.693 119.21 135.85 115.763Z" fill="#F28F8F"/>
<path d="M115.212 141.699C114.858 141.461 114.504 141.241 114.155 140.971C109.417 137.502 104.371 133.927 101.471 128.653L84.0068 135.922C86.9835 139.185 90.1542 142.267 93.5017 145.151C96.3281 147.705 104.922 151.211 110.506 154.008C116.09 156.805 118.434 158.192 119.84 157.404C121.485 156.526 123.503 147.311 115.212 141.699Z" fill="#FFA8A7"/>
<path d="M95.0737 146.311C95.1334 146.109 95.1932 145.913 95.2667 145.716C95.4201 145.306 95.5965 144.906 95.7952 144.516C96.0324 144.145 96.2325 143.751 96.3927 143.34C96.4156 143.239 96.2778 143.07 96.1767 143.148C95.8146 143.48 95.5211 143.88 95.3127 144.324C95.0656 144.774 94.8551 145.242 94.683 145.725C94.6509 145.812 94.6279 145.903 94.5957 145.99L95.0737 146.311Z" fill="#F28F8F"/>
<path d="M96.8974 147.23C97.0823 146.545 97.3316 145.878 97.6419 145.239C97.9098 144.699 98.2382 144.19 98.6209 143.724C98.8872 143.392 99.1842 143.085 99.5078 142.808C99.7744 142.593 100.055 142.401 100.298 142.163C100.363 142.099 100.271 141.929 100.179 141.952C99.5005 142.165 98.8913 142.553 98.414 143.078C97.8989 143.59 97.4608 144.172 97.1134 144.809C96.7381 145.502 96.4451 146.236 96.2402 146.997L96.8607 147.354C96.8745 147.331 96.8745 147.28 96.8974 147.23Z" fill="#F28F8F"/>
<path d="M98.8109 147.078C99.0014 146.552 99.2303 146.041 99.4957 145.549C99.6098 145.338 99.7356 145.133 99.8726 144.936C100.034 144.755 100.16 144.545 100.245 144.318C100.245 144.217 100.125 144.057 100.02 144.112C99.5573 144.449 99.1824 144.892 98.9258 145.403C98.6367 145.88 98.3876 146.381 98.1813 146.899C98.0526 147.229 97.9377 147.563 97.832 147.902L98.4295 148.218C98.549 147.833 98.6685 147.453 98.8109 147.078Z" fill="#F28F8F"/>
<path d="M108.182 152.87C108.429 151.125 109.277 149.52 110.581 148.329C110.581 148.329 114.584 150 116.293 151.533C118.003 153.067 119.322 156.45 118.256 157.534C115.806 157.544 112.502 155.14 108.182 152.87Z" fill="#FFC4C3"/>
<path opacity="0.3" d="M108.182 152.87C108.687 153.135 109.174 153.401 109.652 153.666C110.175 151.931 110.484 150.139 110.571 148.329C109.271 149.522 108.427 151.127 108.182 152.87Z" fill="white"/>
<path d="M115.544 113.717C118.348 118.295 122.659 126.534 122.709 127.596C122.994 133.606 122.649 139.887 122.649 146.387C122.649 152.887 122.594 157.633 125.457 161.95C128.049 165.841 132.811 166.912 133.486 162.659C134.074 159.02 134.442 151.614 134.971 145.521C135.499 139.429 136.901 130.603 137.269 125.673C137.636 120.744 134.382 115.905 132.19 109.529C130.288 103.985 128.674 96.9818 125.692 94.011C122.709 91.0403 111.422 85.474 107.309 83.3135L115.544 113.717Z" fill="#FFA8A7"/>
<path d="M136.942 126.055C136.589 126.081 136.234 126.081 135.881 126.055C135.145 125.981 134.417 125.85 133.702 125.662C133.518 125.625 133.564 125.886 133.675 125.946C134.397 126.274 135.179 126.454 135.973 126.472C136.367 126.502 136.764 126.502 137.158 126.472H137.195C137.195 126.321 137.218 126.179 137.227 126.037L136.942 126.055Z" fill="#F28F8F"/>
<path d="M132.722 121.638C132.598 121.697 132.755 121.912 132.865 121.885C133.719 121.658 134.61 121.608 135.484 121.738C135.872 121.807 136.251 121.916 136.615 122.063L136.951 122.223C136.909 122.027 136.863 121.83 136.817 121.633C136.425 121.475 136.017 121.361 135.599 121.294C134.628 121.114 133.624 121.234 132.722 121.638Z" fill="#F28F8F"/>
<path d="M134.41 123.231C133.713 123.204 133.015 123.262 132.332 123.405C131.758 123.533 130.917 123.675 130.54 124.174C130.54 124.174 130.54 124.252 130.563 124.252C130.883 124.242 131.201 124.187 131.505 124.087C131.836 124.005 132.167 123.931 132.502 123.881C133.743 123.683 135.012 123.758 136.22 124.101C136.575 124.204 136.922 124.333 137.259 124.485C137.259 124.252 137.259 124.027 137.218 123.78C136.965 123.689 136.708 123.606 136.459 123.538C135.791 123.354 135.103 123.251 134.41 123.231Z" fill="#F28F8F"/>
<path d="M134.612 148.987C134.373 148.909 134.125 148.841 133.882 148.772C133.376 148.639 132.871 148.52 132.356 148.424C132.329 148.417 132.302 148.416 132.274 148.421C132.247 148.425 132.222 148.435 132.199 148.451C132.176 148.466 132.156 148.485 132.141 148.508C132.126 148.531 132.117 148.557 132.112 148.584C132.112 148.712 132.232 148.799 132.342 148.818C132.802 148.909 133.261 149.01 133.744 149.133L134.419 149.33L134.663 149.408L134.691 149.01L134.612 148.987Z" fill="#F28F8F"/>
<path d="M133.082 147.321C133.602 147.475 134.112 147.661 134.608 147.879L134.774 147.953L134.815 147.412L134.76 147.385C134.231 147.174 133.689 146.996 133.138 146.854C132.592 146.713 132.038 146.606 131.478 146.534C130.889 146.42 130.284 146.409 129.691 146.501C129.58 146.501 129.631 146.698 129.723 146.717C130.307 146.831 130.904 146.863 131.488 146.964C132.026 147.053 132.558 147.172 133.082 147.321Z" fill="#F28F8F"/>
<path d="M132.222 145.879C132.948 146.04 133.664 146.242 134.368 146.483C134.538 146.542 134.703 146.611 134.869 146.68C134.869 146.529 134.897 146.382 134.906 146.222L134.556 146.089C133.788 145.841 132.999 145.664 132.199 145.558C131.992 145.544 132.07 145.846 132.222 145.879Z" fill="#F28F8F"/>
<path d="M134.326 153.989C131.633 151.403 128.811 152.323 128.811 152.323C128.477 154.511 128.352 156.726 128.439 158.938C128.632 162.032 130.682 163.547 132.249 163.813C133.816 164.078 134.023 161.025 134.326 153.989Z" fill="#FFC4C3"/>
<path opacity="0.3" d="M134.277 155.129C134.277 154.763 134.309 154.383 134.327 153.989C131.634 151.403 128.812 152.323 128.812 152.323C129.35 153.275 132.328 154.946 134.277 155.129Z" fill="white"/>
<path d="M127.207 94.8308C125.961 93.1372 124.095 92.1393 122.257 91.2055C121.218 90.7046 120.212 90.1405 119.242 89.5164C119.187 89.4752 119.173 89.5942 119.206 89.6262C120.662 90.9079 122.423 91.8005 124.013 92.8717C125.756 93.9599 127.107 95.5727 127.869 97.4766C128.356 98.5798 128.76 99.715 129.201 100.836C129.234 100.923 129.303 100.869 129.293 100.795C129.045 98.7171 128.457 96.5382 127.207 94.8308Z" fill="#F28F8F"/>
<path d="M95.6823 40.9023C95.763 41.0249 95.8279 41.1572 95.8753 41.296L95.6271 40.4125C95.6131 40.3598 95.5962 40.3078 95.5766 40.2569V40.2248C95.56 40.1711 95.5384 40.119 95.5122 40.0692L95.4755 39.9959C95.4755 39.9548 95.4341 39.9181 95.4065 39.8769L95.2779 39.6938C95.2273 39.6343 95.1767 39.5748 95.1216 39.5199C94.6779 39.1068 94.1325 38.8178 93.5407 38.6822C91.183 38.0643 87.8786 38.9569 86.1598 40.678C85.9297 40.9004 85.7289 41.1512 85.5624 41.4241C85.5289 41.4702 85.4997 41.5193 85.4751 41.5706C85.4536 41.5959 85.4379 41.6256 85.4291 41.6576C85.396 41.7144 85.3683 41.7742 85.3464 41.8361C85.2557 42.0335 85.1953 42.2434 85.1671 42.4586C85.128 42.7105 85.1421 42.9678 85.2085 43.2139L85.4888 44.2255C85.4418 44.0572 85.4201 43.8829 85.4245 43.7083C85.8772 44.3362 86.5523 44.7697 87.3134 44.9213C89.671 45.5439 92.98 44.6512 94.6988 42.9301C95.2756 42.4048 95.6277 41.6788 95.6823 40.9023Z" fill="#739AF0"/>
<path d="M128.022 159.601L117.585 162.439L117.309 161.423L85.4604 44.2394C85.4133 44.0711 85.3917 43.8967 85.3961 43.7221C85.4605 42.9364 85.8258 42.2054 86.4163 41.6805C88.1352 39.9594 91.4395 39.0714 93.7972 39.6939C94.3889 39.8246 94.9348 40.1107 95.3781 40.5224C95.4935 40.6371 95.5953 40.7646 95.6814 40.9024C95.7622 41.025 95.827 41.1572 95.8745 41.296C95.8745 41.296 95.8744 41.3464 95.8974 41.3647V41.3922L128.022 159.601Z" fill="#F0F0F0"/>
<path d="M125.914 157.894C128.272 158.512 128.791 160.416 127.067 162.137C125.344 163.858 122.044 164.751 119.687 164.128C117.329 163.506 116.814 161.606 118.533 159.885C120.252 158.164 123.556 157.271 125.914 157.894Z" fill="#FFB93E"/>
<path d="M127.739 167.681C127.739 167.635 127.739 167.584 127.739 167.539L128.061 160.32V160.238C128.063 160.193 128.063 160.149 128.061 160.105V160.032C128.038 159.07 127.293 158.251 125.896 157.885C123.539 157.262 120.234 158.155 118.515 159.876C117.518 160.874 117.279 161.936 117.707 162.769L117.743 162.819C117.788 162.902 117.839 162.982 117.895 163.057L117.927 163.108L121.852 169.168C122.109 169.52 122.49 169.762 122.918 169.846C123.661 170.001 124.431 169.979 125.164 169.782C125.897 169.584 126.573 169.217 127.137 168.711C127.449 168.445 127.662 168.082 127.739 167.681Z" fill="#E0E0E0"/>
<path d="M105.314 89.3275C105.316 89.3232 105.317 89.3185 105.317 89.3138C105.317 89.309 105.316 89.3044 105.314 89.3001L105.277 89.1582C105.207 89.0195 105.105 88.8989 104.98 88.806C104.854 88.7131 104.709 88.6503 104.556 88.6226C104.092 88.5281 103.612 88.5435 103.156 88.6675C102.699 88.7915 102.278 89.0208 101.927 89.3367C101.811 89.4339 101.719 89.5562 101.658 89.6942C101.596 89.8322 101.567 89.9824 101.573 90.1332L101.624 90.3163L121.845 164.682L126.114 165.808L105.314 89.3275Z" fill="#455A64"/>
<path d="M120.196 158.704L121.823 164.691L126.093 165.817L123.887 157.706C122.6 157.776 121.342 158.116 120.196 158.704Z" fill="#37474F"/>
<path d="M127.303 170.83L127.592 164.284C127.599 164.227 127.599 164.168 127.592 164.111C127.592 163.415 127.059 162.829 126.057 162.563C125.138 162.373 124.186 162.402 123.28 162.647C122.373 162.892 121.538 163.346 120.841 163.973C120.138 164.678 119.963 165.42 120.262 166.01V166.047L120.363 166.202L123.994 171.759C124.139 171.957 124.354 172.093 124.596 172.139C125.014 172.227 125.448 172.215 125.861 172.104C126.274 171.992 126.655 171.785 126.972 171.499C127.071 171.416 127.151 171.315 127.208 171.199C127.265 171.084 127.297 170.959 127.303 170.83Z" fill="#739AF0"/>
<path opacity="0.1" d="M127.303 170.83L127.592 164.284C127.599 164.227 127.599 164.168 127.592 164.111C127.592 163.415 127.059 162.829 126.057 162.563C125.138 162.373 124.186 162.402 123.28 162.647C122.373 162.892 121.538 163.346 120.841 163.973C120.138 164.678 119.963 165.42 120.262 166.01V166.047L120.363 166.202L123.994 171.759C124.139 171.957 124.354 172.093 124.596 172.139C125.014 172.227 125.448 172.215 125.861 172.104C126.274 171.992 126.655 171.785 126.972 171.499C127.071 171.416 127.151 171.315 127.208 171.199C127.265 171.084 127.297 170.959 127.303 170.83Z" fill="black"/>
<path d="M126.984 171.502C126.665 171.787 126.284 171.993 125.87 172.104C125.456 172.214 125.022 172.226 124.603 172.138C124.363 172.092 124.149 171.956 124.006 171.758L122.168 168.948C121.878 168.49 121.984 167.927 122.531 167.373C123.039 166.917 123.648 166.587 124.308 166.409C124.968 166.231 125.662 166.21 126.331 166.348C127.048 166.535 127.434 166.957 127.444 167.455V167.588L127.301 170.829C127.296 170.957 127.266 171.082 127.211 171.198C127.157 171.313 127.079 171.417 126.984 171.502Z" fill="#739AF0"/>
<path opacity="0.1" d="M126.611 170.134C127.369 170.336 127.53 170.944 126.983 171.508C126.666 171.794 126.285 172.001 125.872 172.113C125.459 172.224 125.026 172.236 124.607 172.148C123.849 171.952 123.688 171.338 124.235 170.775C124.552 170.489 124.933 170.283 125.346 170.171C125.759 170.06 126.192 170.047 126.611 170.134Z" fill="black"/>
<path d="M95.53 53.3064C95.4739 53.1471 95.3746 53.0063 95.2433 52.8997C95.1119 52.7931 94.9534 52.7247 94.7855 52.7021C94.3247 52.6057 93.8475 52.6193 93.393 52.7418C92.9385 52.8644 92.5195 53.0923 92.1705 53.4071C92.0361 53.5148 91.9339 53.657 91.8748 53.8183C91.8156 53.9796 91.8019 54.154 91.835 54.3226L101.569 90.1459C101.563 89.9951 101.592 89.845 101.653 89.707C101.715 89.569 101.807 89.4467 101.923 89.3494C102.274 89.0335 102.695 88.8043 103.152 88.6802C103.608 88.5562 104.088 88.5408 104.552 88.6353C104.705 88.6631 104.85 88.7259 104.975 88.8188C105.101 88.9117 105.202 89.0322 105.273 89.1709L95.53 53.3064Z" fill="#FAFAFA"/>
<path d="M95.1953 54.2036C94.8457 54.5174 94.4267 54.7448 93.9724 54.8672C93.5181 54.9897 93.0412 55.0039 92.5803 54.9086C92.4146 54.8848 92.2584 54.8164 92.1288 54.7107C91.9992 54.605 91.9011 54.4661 91.845 54.3089C91.8077 54.1412 91.8185 53.9664 91.8762 53.8045C91.9339 53.6426 92.0362 53.5001 92.1713 53.3934C92.5204 53.0787 92.9393 52.8507 93.3938 52.7282C93.8483 52.6056 94.3255 52.592 94.7863 52.6885C94.9543 52.711 95.1127 52.7794 95.2441 52.886C95.3755 52.9927 95.4747 53.1334 95.5308 53.2927C95.5625 53.4606 95.5481 53.6338 95.489 53.7942C95.43 53.9545 95.3285 54.096 95.1953 54.2036Z" fill="#F5F5F5"/>
<path d="M97.129 47.9877V47.9419C97.1311 47.9191 97.1311 47.8961 97.129 47.8733L95.424 41.6158C95.4129 41.5663 95.3991 41.5174 95.3826 41.4694V41.4327C95.162 40.7919 94.5324 40.2655 93.5443 40C92.3737 39.7578 91.1622 39.7941 90.0083 40.1059C88.8544 40.4177 87.7907 40.9962 86.9034 41.7944C86.1221 42.5725 85.8556 43.3919 86.0486 44.0831L87.7766 50.4229C87.7746 50.4335 87.7746 50.4444 87.7766 50.455V50.4916C87.9834 51.1599 88.6176 51.7046 89.6517 51.9793C90.8223 52.2207 92.0336 52.184 93.1874 51.8723C94.3411 51.5605 95.4049 50.9825 96.2926 50.1849C97.0003 49.4616 97.2761 48.6652 97.129 47.9877Z" fill="#739AF0"/>
<path opacity="0.05" d="M97.129 47.9877V47.9419C97.1311 47.9191 97.1311 47.8961 97.129 47.8733L95.424 41.6158C95.4129 41.5663 95.3991 41.5174 95.3826 41.4694V41.4327C95.162 40.7919 94.5324 40.2655 93.5443 40C92.3737 39.7578 91.1622 39.7941 90.0083 40.1059C88.8544 40.4177 87.7907 40.9962 86.9034 41.7944C86.1221 42.5725 85.8556 43.3919 86.0486 44.0831L87.7766 50.4229C87.7746 50.4335 87.7746 50.4444 87.7766 50.455V50.4916C87.9834 51.1599 88.6176 51.7046 89.6517 51.9793C90.8223 52.2207 92.0336 52.184 93.1874 51.8723C94.3411 51.5605 95.4049 50.9825 96.2926 50.1849C97.0003 49.4616 97.2761 48.6652 97.129 47.9877Z" fill="black"/>
<path opacity="0.1" d="M95.219 46.3682C97.3422 46.9266 97.8064 48.6569 96.2576 50.1904C95.37 50.9879 94.3062 51.566 93.1524 51.8778C91.9986 52.1895 90.7873 52.2261 89.6167 51.9847C87.4935 51.4217 87.0293 49.696 88.5781 48.1625C89.4653 47.3643 90.5291 46.7858 91.683 46.4741C92.8369 46.1623 94.0483 46.126 95.219 46.3682Z" fill="black"/>
<path d="M127.141 173.548L126.475 170.92C126.45 170.843 126.405 170.774 126.343 170.721C126.281 170.669 126.206 170.634 126.125 170.623C125.911 170.579 125.689 170.587 125.477 170.644C125.266 170.701 125.071 170.807 124.907 170.952C124.848 171.003 124.803 171.067 124.775 171.14C124.748 171.213 124.74 171.292 124.751 171.369L125.408 173.996C125.451 174.14 125.53 174.271 125.638 174.376C125.776 174.513 125.954 174.601 126.146 174.629C126.339 174.656 126.534 174.62 126.705 174.526C126.875 174.433 127.01 174.287 127.089 174.11C127.169 173.934 127.188 173.736 127.146 173.548H127.141Z" fill="#455A64"/>
<path d="M127.158 173.719C127.165 173.667 127.165 173.615 127.158 173.563C127.122 173.502 127.073 173.45 127.014 173.409C126.955 173.369 126.889 173.342 126.818 173.33C126.604 173.284 126.381 173.291 126.169 173.348C125.957 173.405 125.762 173.512 125.6 173.66C125.54 173.707 125.495 173.771 125.468 173.842C125.441 173.914 125.434 173.992 125.449 174.067C125.446 174.084 125.446 174.101 125.449 174.117C125.448 174.133 125.448 174.148 125.449 174.163C125.488 174.253 125.546 174.334 125.619 174.401C125.79 174.563 126.017 174.654 126.253 174.654C126.489 174.654 126.716 174.563 126.887 174.401C126.98 174.315 127.053 174.208 127.1 174.091C127.147 173.973 127.167 173.846 127.158 173.719Z" fill="#263238"/>
<path d="M125.703 87.5474C132.068 90.3443 132.818 93.8277 133.944 98.3366C135.069 102.845 139.376 112.449 141.062 116.788C142.749 121.128 143.121 122.24 141.435 128.118C139.748 133.995 134.968 145.512 134.968 145.512C134.968 145.512 120.643 100.341 119.71 95.6953C118.777 91.0492 119.334 85.8767 125.703 87.5474Z" fill="#FFA8A7"/>
<path d="M140.016 125.098C140.009 125.11 140.005 125.123 140.005 125.137C140.005 125.15 140.009 125.164 140.016 125.176C140.218 125.24 140.526 125.102 140.728 125.066C140.93 125.029 141.243 124.965 141.5 124.928C141.757 124.892 142.006 124.869 142.272 124.855C142.304 124.686 142.332 124.521 142.359 124.365C141.709 124.441 141.07 124.595 140.457 124.823C140.283 124.863 140.128 124.96 140.016 125.098ZM139.988 122.031C140.623 121.792 141.28 121.619 141.95 121.514C142.126 121.491 142.302 121.477 142.479 121.472C142.479 121.298 142.438 121.124 142.405 120.955C142.212 120.955 142.024 120.983 141.831 121.01C141.106 121.092 140.405 121.321 139.772 121.683C139.565 121.788 139.795 122.095 139.988 122.031ZM142.12 122.704C141.714 122.721 141.309 122.764 140.907 122.832C140.08 122.95 139.282 123.22 138.554 123.628C138.38 123.734 138.614 123.967 138.766 123.917C139.45 123.655 140.154 123.446 140.87 123.29C141.215 123.224 141.564 123.182 141.914 123.161C142.093 123.161 142.291 123.161 142.484 123.161C142.484 123.001 142.507 122.85 142.511 122.704C142.373 122.704 142.249 122.704 142.12 122.704Z" fill="#F28F8F"/>
<path d="M135.851 115.762C133.252 110.695 130.987 105.464 129.073 100.103L123.346 98.3359L121.448 101.97C125.488 115.607 134.969 145.507 134.969 145.507C134.969 145.507 135.677 143.799 136.646 141.387C136.646 141.387 137.924 130.822 138.485 126.094C139.045 121.365 137.694 119.209 135.851 115.762Z" fill="#F28F8F"/>
<path d="M115.212 141.699C114.858 141.461 114.504 141.241 114.155 140.971C109.417 137.502 104.371 133.927 101.471 128.653L84.0068 135.922C86.9835 139.185 90.1542 142.267 93.5017 145.151C96.3281 147.705 104.922 151.211 110.506 154.008C116.09 156.805 118.434 158.192 119.84 157.404C121.485 156.526 123.503 147.311 115.212 141.699Z" fill="#FFA8A7"/>
<path d="M95.0746 146.31C95.1344 146.108 95.1941 145.912 95.2677 145.715C95.421 145.305 95.5975 144.905 95.7962 144.515C96.0334 144.144 96.2335 143.75 96.3936 143.339C96.4166 143.238 96.2787 143.069 96.1776 143.147C95.8156 143.479 95.5221 143.879 95.3136 144.323C95.0666 144.773 94.8561 145.241 94.684 145.724C94.6518 145.811 94.6289 145.902 94.5967 145.989L95.0746 146.31Z" fill="#F28F8F"/>
<path d="M96.8974 147.229C97.0823 146.544 97.3316 145.877 97.6419 145.238C97.9098 144.698 98.2382 144.189 98.6209 143.723C98.8872 143.391 99.1842 143.084 99.5078 142.807C99.7744 142.592 100.055 142.4 100.298 142.162C100.363 142.098 100.271 141.928 100.179 141.951C99.5005 142.164 98.8913 142.552 98.414 143.077C97.8989 143.589 97.4608 144.171 97.1134 144.808C96.7381 145.501 96.4451 146.235 96.2402 146.996L96.8607 147.353C96.8745 147.33 96.8745 147.28 96.8974 147.229Z" fill="#F28F8F"/>
<path d="M98.8109 147.077C99.0014 146.551 99.2303 146.04 99.4957 145.548C99.6098 145.337 99.7356 145.132 99.8726 144.935C100.034 144.754 100.16 144.544 100.245 144.317C100.245 144.216 100.125 144.056 100.02 144.111C99.5573 144.449 99.1824 144.891 98.9258 145.402C98.6367 145.879 98.3876 146.38 98.1813 146.898C98.0526 147.228 97.9377 147.562 97.832 147.901L98.4295 148.217C98.549 147.832 98.6685 147.452 98.8109 147.077Z" fill="#F28F8F"/>
<path d="M108.18 152.87C108.427 151.125 109.275 149.52 110.579 148.329C110.579 148.329 114.582 150 116.291 151.533C118.001 153.067 119.32 156.45 118.254 157.534C115.804 157.544 112.5 155.14 108.18 152.87Z" fill="#FFC4C3"/>
<path opacity="0.3" d="M108.18 152.87C108.685 153.135 109.172 153.401 109.65 153.666C110.173 151.931 110.482 150.139 110.569 148.329C109.269 149.522 108.425 151.127 108.18 152.87Z" fill="white"/>
<path d="M115.544 113.717C118.348 118.295 122.659 126.534 122.709 127.596C122.994 133.606 122.649 139.887 122.649 146.387C122.649 152.887 122.594 157.633 125.457 161.95C128.049 165.841 132.811 166.912 133.486 162.659C134.074 159.02 134.442 151.614 134.971 145.521C135.499 139.429 136.901 130.603 137.269 125.673C137.636 120.744 134.382 115.905 132.19 109.529C130.288 103.985 128.674 96.9818 125.692 94.011C122.709 91.0403 111.422 85.474 107.309 83.3135L115.544 113.717Z" fill="#FFA8A7"/>
<path d="M136.94 126.054C136.587 126.08 136.232 126.08 135.879 126.054C135.143 125.98 134.415 125.849 133.7 125.661C133.517 125.624 133.562 125.885 133.673 125.945C134.395 126.274 135.177 126.453 135.971 126.471C136.365 126.501 136.762 126.501 137.156 126.471H137.193C137.193 126.32 137.216 126.178 137.225 126.036L136.94 126.054Z" fill="#F28F8F"/>
<path d="M132.723 121.638C132.599 121.697 132.756 121.912 132.866 121.885C133.72 121.658 134.611 121.608 135.485 121.738C135.873 121.807 136.252 121.916 136.616 122.063L136.952 122.223C136.91 122.027 136.864 121.83 136.818 121.633C136.426 121.475 136.018 121.361 135.6 121.294C134.629 121.114 133.625 121.234 132.723 121.638Z" fill="#F28F8F"/>
<path d="M134.408 123.228C133.711 123.201 133.013 123.26 132.33 123.402C131.756 123.53 130.915 123.672 130.538 124.171C130.538 124.171 130.538 124.249 130.561 124.249C130.881 124.239 131.199 124.184 131.503 124.084C131.834 124.002 132.165 123.928 132.5 123.878C133.741 123.68 135.01 123.755 136.218 124.098C136.573 124.201 136.921 124.33 137.257 124.482C137.257 124.249 137.257 124.025 137.216 123.777C136.963 123.686 136.706 123.603 136.457 123.535C135.789 123.351 135.101 123.248 134.408 123.228Z" fill="#F28F8F"/>
<path d="M134.609 148.986C134.37 148.908 134.122 148.84 133.879 148.771C133.373 148.638 132.868 148.519 132.353 148.423C132.326 148.416 132.299 148.415 132.271 148.42C132.244 148.424 132.219 148.435 132.196 148.45C132.173 148.465 132.153 148.484 132.138 148.507C132.124 148.53 132.114 148.556 132.109 148.583C132.109 148.711 132.229 148.798 132.339 148.817C132.799 148.908 133.258 149.009 133.741 149.132L134.416 149.329L134.66 149.407L134.688 149.009L134.609 148.986Z" fill="#F28F8F"/>
<path d="M133.079 147.32C133.599 147.474 134.109 147.66 134.605 147.878L134.771 147.952L134.812 147.411L134.757 147.384C134.228 147.173 133.686 146.995 133.135 146.853C132.589 146.712 132.035 146.605 131.476 146.533C130.886 146.419 130.281 146.408 129.688 146.501C129.578 146.501 129.628 146.697 129.72 146.716C130.304 146.83 130.901 146.862 131.485 146.963C132.023 147.052 132.555 147.171 133.079 147.32Z" fill="#F28F8F"/>
<path d="M132.222 145.879C132.948 146.04 133.664 146.242 134.368 146.483C134.538 146.542 134.703 146.611 134.869 146.68C134.869 146.529 134.897 146.382 134.906 146.222L134.556 146.089C133.788 145.841 132.999 145.664 132.199 145.558C131.992 145.544 132.07 145.846 132.222 145.879Z" fill="#F28F8F"/>
<path d="M134.326 153.989C131.633 151.403 128.811 152.323 128.811 152.323C128.477 154.511 128.352 156.726 128.439 158.938C128.632 162.032 130.682 163.547 132.249 163.813C133.816 164.078 134.023 161.025 134.326 153.989Z" fill="#FFC4C3"/>
<path opacity="0.3" d="M134.274 155.129C134.274 154.763 134.306 154.383 134.325 153.989C131.631 151.403 128.81 152.323 128.81 152.323C129.347 153.275 132.325 154.946 134.274 155.129Z" fill="white"/>
<path d="M127.207 94.8299C125.961 93.1362 124.095 92.1383 122.257 91.2045C121.218 90.7036 120.212 90.1395 119.242 89.5154C119.187 89.4742 119.173 89.5932 119.206 89.6253C120.662 90.907 122.423 91.7996 124.013 92.8707C125.756 93.9589 127.107 95.5718 127.869 97.4756C128.356 98.5788 128.76 99.714 129.201 100.836C129.234 100.922 129.303 100.868 129.293 100.794C129.045 98.7161 128.457 96.5373 127.207 94.8299Z" fill="#F28F8F"/>
<path d="M136.4 58.6182C136.4 43.8604 153.166 31.8994 173.847 31.8994C194.528 31.8994 211.312 43.8558 211.312 58.6182C211.312 73.3805 194.542 85.3415 173.861 85.3415C172.614 85.3415 171.388 85.2972 170.184 85.2087C166.094 92.8668 159.154 94.1806 153.731 93.5718C155.651 92.6758 157.241 91.2031 158.277 89.3607C159.313 87.5182 159.744 85.3987 159.508 83.2999C145.932 79.2763 136.4 69.7414 136.4 58.6182Z" fill="white"/>
<path d="M153.663 93.9531C153.578 93.9439 153.499 93.9071 153.438 93.8483C153.376 93.7895 153.336 93.7121 153.323 93.6281C153.309 93.5437 153.324 93.4571 153.365 93.3818C153.405 93.3065 153.47 93.2467 153.548 93.2116C155.351 92.3672 156.851 90.9935 157.847 89.2751C158.842 87.5567 159.286 85.5759 159.118 83.5989C145.074 79.3464 136.011 69.5643 136.011 58.6195C136.011 43.6741 152.988 31.5117 173.848 31.5117C194.708 31.5117 211.689 43.6695 211.689 58.6195C211.689 73.5696 194.713 85.7319 173.848 85.7319C172.717 85.7319 171.55 85.6908 170.387 85.6175C166.522 92.6394 160.387 94.0904 155.984 94.0904C155.208 94.088 154.434 94.0422 153.663 93.9531ZM170.208 84.7981C171.44 84.8851 172.671 84.9309 173.885 84.9309C194.317 84.9309 210.94 73.1164 210.94 58.5967C210.94 44.0769 194.317 32.267 173.885 32.267C153.452 32.267 136.792 44.0952 136.792 58.6195C136.792 69.2759 145.745 78.82 159.601 82.9305C159.675 82.9528 159.741 82.9964 159.79 83.0559C159.839 83.1154 159.869 83.1881 159.877 83.2647C160.083 85.2159 159.743 87.1859 158.892 88.9557C158.042 90.7255 156.715 92.2256 155.06 93.2894C159.344 93.4862 165.879 92.4059 169.817 85.0499C169.851 84.9877 169.9 84.9356 169.961 84.8994C170.022 84.8631 170.091 84.8439 170.162 84.8439L170.208 84.7981Z" fill="#E0E0E0"/>
<path d="M182.82 76.4716L184.29 76.6685L184.185 77.5245H179.267L179.377 76.6685L180.811 76.4533L180.021 73.4322H175.806L174.745 76.4533L176.363 76.6685L176.252 77.5245H172.02L172.125 76.6685L173.472 76.4533L177.608 65.1058L179.584 64.8906L182.82 76.4716ZM179.736 72.3519L178.224 66.5385H178.169L176.156 72.3519H179.736Z" fill="#E0E0E0"/>
<path d="M156.911 66.3998L157.127 60.2386L156.263 60.0417L156.318 59.584H157.766L157.917 59.6893L157.802 62.7516L157.554 64.9259H157.628L157.972 63.6488C158.308 62.39 158.731 61.8453 159.567 61.8453C160.528 61.8453 160.946 62.5914 160.946 63.8136C160.946 65.7407 160.004 66.7935 158.694 66.7935C158.077 66.7963 157.468 66.6618 156.911 66.3998ZM158.064 64.9763L157.756 66.0382C158.043 66.1767 158.357 66.2502 158.675 66.2534C159.539 66.2534 160.1 65.2784 160.1 63.9097C160.1 63.3924 160.1 62.5365 159.438 62.5365C158.712 62.541 158.528 63.4108 158.064 64.9946V64.9763Z" fill="#E0E0E0"/>
<path d="M150.533 51.1524C150.539 51.2331 150.528 51.3141 150.5 51.3902C150.472 51.4663 150.429 51.5357 150.373 51.594C150.316 51.6523 150.248 51.6981 150.173 51.7285C150.098 51.7589 150.017 51.7731 149.936 51.7703C149.806 51.7691 149.68 51.7297 149.573 51.6572C149.466 51.5848 149.382 51.4824 149.333 51.3629L149.526 51.1341C149.89 50.7267 149.526 50.4932 149.067 50.4932C148.212 50.4932 147.72 51.2714 147.72 52.6767C147.72 53.5556 148.056 54.2605 148.81 54.2605C149.057 54.2344 149.297 54.1584 149.514 54.0372C149.731 53.9161 149.922 53.7522 150.073 53.5556L150.413 53.908C150.215 54.2027 149.951 54.4475 149.642 54.6231C149.332 54.7987 148.986 54.9002 148.63 54.9196C147.426 54.9196 146.792 54.0041 146.792 52.7087C146.792 51.1158 147.665 49.9622 149.09 49.9622C149.908 49.9485 150.533 50.3788 150.533 51.1524Z" fill="#E0E0E0"/>
<path d="M179.013 47.0849C179.44 48.0004 178.76 48.7008 178.121 49.2043L177.303 49.8635C177.615 50.4036 178.222 50.9254 178.948 50.605C179.355 50.3782 179.657 50.0021 179.789 49.5568L180.221 49.7353C180.15 50.0583 180.006 50.3611 179.801 50.6211C179.595 50.881 179.334 51.0915 179.036 51.2367C177.946 51.7357 176.967 51.1497 176.434 49.9962C175.768 48.5497 176.094 47.1353 177.308 46.5814C178.139 46.1923 178.714 46.4395 179.013 47.0849ZM177.455 47.0849C176.756 47.4099 176.618 48.2659 177.069 49.3737L177.818 48.7649C178.342 48.3438 178.525 47.9913 178.277 47.4466C178.121 47.1261 177.841 46.8973 177.455 47.0758V47.0849Z" fill="#E0E0E0"/>
<path d="M174.793 56.2255L174.242 57.5529L176.232 58.2487L175.86 59.1138L173.929 58.441L172.091 63.0459C171.415 64.7213 170.322 66.3691 169.191 67.0649C168.978 67.2223 168.732 67.3279 168.471 67.3732C168.21 67.4185 167.942 67.4023 167.688 67.3258C167.1 67.1198 166.824 66.6941 166.953 66.2364C167.09 65.8722 167.343 65.5632 167.674 65.3575L168.212 65.8427C168.644 66.2364 169.108 66.2227 169.458 65.5223C169.683 65.0646 169.853 64.6343 170.092 64.0484L172.495 57.9374L171.255 57.4797L171.636 56.729L172.845 57.0219L173.166 56.3307C173.925 54.4997 175.409 53.4652 177.28 54.1244C178.199 54.4448 179.219 55.2779 178.792 56.4864C178.758 56.6074 178.699 56.7198 178.618 56.8157C178.537 56.9116 178.436 56.9889 178.322 57.042C178.208 57.0951 178.083 57.1229 177.957 57.1234C177.831 57.1239 177.707 57.0971 177.592 57.0448C177.435 56.9927 177.292 56.9059 177.174 56.791C177.055 56.6761 176.964 56.5359 176.907 56.3811L177.197 56.024C177.657 55.4564 177.578 55.0445 176.935 54.8202C175.961 54.4997 175.23 55.1818 174.793 56.2255Z" fill="#E0E0E0"/>
<path d="M190.631 57.5578L189.901 58.5099C188.756 59.9839 187.915 60.5973 186.684 60.0846C185.351 59.5307 185.305 58.0888 185.925 56.6103C186.89 54.2895 188.683 53.1772 190.457 53.9004C191.002 54.1262 191.501 54.4505 191.927 54.8571L192.534 54.7427L192.856 55.0219L190.424 60.2906C189.533 62.2223 188.021 63.8198 185.553 62.8036C184.68 62.442 183.784 61.7233 184.174 60.817C184.209 60.6993 184.268 60.5901 184.348 60.4962C184.427 60.4024 184.525 60.326 184.636 60.2718C184.746 60.2176 184.867 60.1868 184.99 60.1814C185.113 60.1759 185.236 60.196 185.351 60.2402C185.485 60.2953 185.606 60.3787 185.705 60.4845C185.804 60.5904 185.879 60.7163 185.925 60.8536L185.663 61.1695C185.236 61.6272 185.332 61.9934 186.017 62.2772C187.313 62.8128 188.499 61.8607 189.492 59.9885L190.742 57.6265L190.631 57.5578ZM190.406 56.8712L191.445 55.5392C191.096 55.1849 190.683 54.9006 190.227 54.7015C189.06 54.2163 187.8 55.237 187.06 56.9902C186.84 57.5121 186.261 58.9036 187.221 59.279C188.182 59.6543 188.981 58.6747 190.392 56.8712H190.406Z" fill="#E0E0E0"/>
<path d="M148.26 64.8135C147.931 64.9715 147.631 65.1835 147.373 65.4406L146.789 64.6762C147.276 64.072 147.909 63.5998 148.627 63.3029C149.629 62.923 150.397 63.3029 150.801 64.6762L152.442 70.0639C152.584 70.5216 152.736 70.7825 153.113 70.6406C153.448 70.4648 153.722 70.1919 153.899 69.8579L154.593 70.4484C154.21 71.2153 153.567 71.8221 152.777 72.1603C151.573 72.6181 150.976 72.0734 150.663 71.048L148.958 65.3262C148.834 64.8867 148.65 64.667 148.26 64.8135ZM147.46 59.2152C147.697 59.1307 147.954 59.1177 148.199 59.1779C148.444 59.238 148.665 59.3687 148.836 59.5536C149.007 59.7384 149.119 59.9693 149.158 60.2172C149.198 60.4652 149.163 60.7192 149.058 60.9477C148.954 61.1761 148.784 61.3687 148.57 61.5016C148.356 61.6344 148.108 61.7014 147.856 61.6943C147.604 61.6873 147.36 61.6064 147.153 61.4618C146.947 61.3172 146.789 61.1154 146.697 60.8814C146.629 60.7229 146.596 60.5521 146.598 60.3798C146.6 60.2075 146.638 60.0376 146.71 59.8809C146.782 59.7241 146.885 59.584 147.015 59.4694C147.144 59.3548 147.295 59.2682 147.46 59.2152Z" fill="#E0E0E0"/>
<path d="M172.92 44.4718C172.208 44.4718 172.001 44.0553 172.051 43.4877L172.35 40.1003C172.419 39.2581 172.277 38.9972 171.891 38.9972C171.431 38.9972 171.233 39.3313 170.861 40.3704L169.482 44.2887H168.503L168.692 39.345C168.692 39.0155 168.623 38.8873 168.37 38.8873C168.126 38.9185 167.888 38.9896 167.667 39.0979L167.465 38.5074C167.891 38.2788 168.361 38.1445 168.844 38.1137C169.524 38.1137 169.763 38.5303 169.675 39.3267L169.377 42.4989H169.464L170.333 39.9218C170.76 38.6584 171.252 38.0908 172.171 38.0908C173.233 38.0908 173.517 38.7683 173.398 40.1461L173.136 43.2084C173.099 43.5655 173.136 43.7211 173.412 43.7211C173.658 43.6969 173.891 43.5978 174.078 43.4373L174.354 43.863C173.955 44.2149 173.451 44.4285 172.92 44.4718Z" fill="#E0E0E0"/>
<path d="M197.664 47.2275C199.287 47.2275 200.22 48.4268 200.22 50.2533C200.22 52.0797 199.397 53.7779 197.306 53.7779C195.684 53.7779 194.778 52.5786 194.778 50.7293C194.778 48.88 195.564 47.2275 197.664 47.2275ZM199.066 50.2395C199.066 48.9029 198.685 47.9508 197.568 47.9508C196.249 47.9508 195.946 49.324 195.946 50.7934C195.946 52.1666 196.405 53.0821 197.38 53.0821C198.699 53.0547 199.066 51.718 199.066 50.2395Z" fill="#E0E0E0"/>
<path d="M157.461 40.0638C160.549 38.9515 163.587 40.2148 164.984 44.0599C166.514 48.2666 165.012 51.1092 161.905 52.6198L161.955 52.7663C162.993 52.5469 164.071 52.6086 165.076 52.9448C166.662 53.4025 167.236 53.4025 167.185 52.6839L167.13 52.0202C168.252 51.6128 168.969 51.979 169.226 52.693C169.552 53.6085 169.001 54.3684 168.16 54.6705C167.241 55.0047 166.151 54.817 164.805 54.3684C163.04 53.7459 162.392 53.5033 161.326 53.9107C160.554 54.1853 160.09 54.6247 159.304 55.3846L158.463 54.524C158.894 54.0633 159.382 53.6588 159.915 53.3202L159.874 53.2103C156.946 53.4987 154.818 51.6585 153.867 49.0402C152.052 44.0462 154.414 41.167 157.461 40.0638ZM161.22 51.8279C163.389 51.0452 164.336 48.6237 163.058 45.0807C161.896 41.8765 159.887 40.5307 157.626 41.3455C155.554 42.0962 154.313 44.092 155.765 48.1064C156.932 51.2969 158.835 52.693 161.22 51.8279Z" fill="#E0E0E0"/>
<path d="M189.165 69.4049C188.975 69.4296 188.79 69.4853 188.618 69.5697L188.462 69.1119C188.792 68.9374 189.155 68.8345 189.528 68.8098C190.057 68.8098 190.236 69.1303 190.181 69.7528L190.047 71.0665H190.107L190.608 69.8901C190.911 69.1669 191.146 68.8007 191.693 68.8007C191.782 68.7897 191.873 68.7977 191.959 68.8241C192.045 68.8506 192.125 68.8949 192.192 68.9541C192.26 69.0133 192.315 69.0861 192.352 69.1678C192.389 69.2494 192.409 69.338 192.41 69.4278C192.409 69.5652 192.367 69.6993 192.289 69.8127C192.212 69.9261 192.101 70.0137 191.973 70.0641L191.757 69.8169C191.656 69.6887 191.582 69.6109 191.445 69.6109C191.307 69.6109 191.164 69.7619 190.866 70.4165C190.181 71.9546 190.047 72.2475 190.002 72.8609L189.919 73.6208H189.252L189.436 69.7711C189.427 69.5148 189.363 69.4049 189.165 69.4049Z" fill="#E0E0E0"/>
<path d="M182.056 40.5661C183.081 40.3281 183.549 40.8362 183.669 41.7242L184.349 46.5306C184.51 47.6017 184.68 47.9679 185.218 47.8443C185.755 47.7207 185.925 47.1531 186.077 45.6197L186.638 39.7513L188.265 39.376L189.616 46.3887C189.703 46.8464 189.85 47.0204 190.204 46.938C190.526 46.8187 190.827 46.6487 191.096 46.4344L191.592 47.1989C191.063 47.6766 190.436 48.0329 189.754 48.2426C188.761 48.4714 188.256 47.9725 188.099 46.8281L187.474 42.2506H187.336L187.061 46.1506C186.918 47.9816 186.463 48.9841 185.121 49.2954C183.646 49.6341 183.016 48.7415 182.745 46.9014L182.097 42.4566C182.042 41.9989 181.913 41.7425 181.546 41.8249C181.226 41.9341 180.947 42.1348 180.741 42.4017L180.213 41.802C180.689 41.2154 181.331 40.7848 182.056 40.5661Z" fill="#E0E0E0"/>
<path d="M165.434 72.4982C165.29 73.2985 165.09 74.0877 164.836 74.8602C164.597 75.6384 164.496 76.1511 165.176 76.2655C166.33 76.4577 167.332 74.5123 167.58 73.2672C167.686 72.7225 167.58 72.5715 167.295 72.4021L166.886 72.1778C166.913 71.5232 167.281 71.1296 167.856 71.2257C168.596 71.3493 168.812 71.926 168.674 72.7454C168.361 74.5764 166.95 77.5472 164.795 77.1856C164.46 77.1453 164.154 76.9754 163.943 76.7125C163.732 76.4497 163.634 76.1148 163.669 75.7803C163.442 76.1187 163.118 76.3812 162.74 76.5339C162.361 76.6866 161.945 76.7222 161.546 76.6363C160.911 76.531 159.937 76.1511 160.309 74.4711L160.999 71.3172C161.077 70.9465 160.875 70.8595 160.539 70.8915L160.116 70.9556L160.024 70.301C160.514 70.1469 161.031 70.0985 161.541 70.1591C161.683 70.1681 161.82 70.2096 161.943 70.2805C162.066 70.3514 162.171 70.4497 162.249 70.5676C162.328 70.6856 162.378 70.82 162.395 70.9604C162.412 71.1008 162.397 71.2433 162.35 71.3767L161.679 74.407C161.5 75.1944 161.495 75.6384 162.06 75.7345C163.232 75.9313 163.825 74.3613 164.138 72.5028C164.226 71.9802 164.285 71.4529 164.312 70.9236L165.576 70.9922C165.577 71.4976 165.53 72.002 165.434 72.4982Z" fill="#E0E0E0"/>
<path d="M198.623 63.8326L201.891 60.198L200.765 59.6899L200.99 59.0628L204.308 59.7998L204.055 60.4773H202.902L198.765 64.9037L198.044 67.6044L199.299 68.0621L199.064 68.7121L195.254 67.8699L195.484 67.2153L196.656 67.2886L197.414 64.6061L195.81 58.8568L194.822 58.3991L195.075 57.7354L198.752 58.5456L198.517 59.2139L197.336 59.1406L198.572 63.8005L198.623 63.8326Z" fill="#E0E0E0"/>
</svg>
