<svg width="100" height="100" viewBox="0 0 100 100" fill="none" xmlns="http://www.w3.org/2000/svg">
<path d="M49.7653 81.8068C53.5465 81.8068 56.6117 78.7073 56.6117 74.8839C56.6117 71.0604 53.5465 67.9609 49.7653 67.9609C45.9842 67.9609 42.9189 71.0604 42.9189 74.8839C42.9189 78.7073 45.9842 81.8068 49.7653 81.8068Z" fill="#4193D2"/>
<path d="M90.895 28.8381C91.3391 28.2269 91.6594 27.533 91.8374 26.7962C92.0154 26.0594 92.0476 25.2942 91.9322 24.5448C91.8168 23.7954 91.556 23.0764 91.1649 22.4292C90.7737 21.7821 90.2599 21.2195 89.653 20.7738C78.3031 12.4788 64.7154 7.99957 50.4287 7.99957C35.9565 7.97982 21.868 12.7047 10.2758 21.4656C9.07708 22.3761 8.28153 23.7277 8.06164 25.2273C7.84175 26.7269 8.21523 28.2538 9.10112 29.4768L9.18151 29.5863C9.62414 30.1996 10.1825 30.7182 10.8243 31.1122C11.4662 31.5062 12.1788 31.7679 12.9211 31.882C13.6634 31.9961 14.4208 31.9605 15.1494 31.7772C15.878 31.5939 16.5636 31.2665 17.1665 30.814C26.6373 23.6782 38.1072 19.7735 49.9175 19.6647C61.7278 19.5558 73.2662 23.2484 82.8641 30.2084C84.0835 31.1024 85.6032 31.4722 87.0914 31.2369C88.5795 31.0015 89.9151 30.1803 90.8064 28.9526L90.895 28.8381Z" fill="#4193D2"/>
<path d="M78.4774 45.1479C78.9273 44.5244 79.249 43.816 79.4234 43.0646C79.5979 42.3132 79.6216 41.5341 79.4931 40.7733C79.3646 40.0125 79.0866 39.2854 78.6754 38.6351C78.2642 37.9849 77.7283 37.4246 77.0993 36.9874C69.0743 31.3939 59.5382 28.4402 49.7918 28.5293C40.0455 28.6184 30.5637 31.7459 22.64 37.4851C22.0287 37.9288 21.5103 38.4906 21.1148 39.138C20.7192 39.7853 20.4543 40.5055 20.3354 41.2568C20.2164 42.0082 20.2457 42.776 20.4216 43.5159C20.5976 44.2557 20.9166 44.9531 21.3603 45.5676L21.4292 45.6639C22.3113 46.8893 23.6358 47.7134 25.1152 47.9572C26.5945 48.201 28.1093 47.8449 29.3305 46.9662C35.3377 42.6246 42.5223 40.2609 49.9058 40.1971C57.2893 40.1332 64.5129 42.3724 70.5925 46.6095C71.8117 47.4552 73.309 47.7868 74.7661 47.5337C76.2232 47.2806 77.5252 46.4627 78.3954 45.2541L78.4774 45.1479Z" fill="#4193D2"/>
<path d="M66.2016 61.2608C66.6786 60.6044 67.0125 59.853 67.1809 59.0564C67.3494 58.2598 67.3487 57.436 67.1789 56.6397C67.0091 55.8434 66.674 55.0925 66.1958 54.4369C65.7177 53.7813 65.1073 53.2358 64.4051 52.8365C59.9375 50.3294 54.9041 49.0346 49.7948 49.0782C44.6855 49.1218 39.6744 50.5023 35.2493 53.0854C34.5533 53.4891 33.9494 54.0369 33.4772 54.6929C33.005 55.3489 32.6751 56.0983 32.5091 56.8921C32.3431 57.6859 32.3447 58.5063 32.5138 59.2994C32.6829 60.0926 33.0158 60.8407 33.4906 61.4948L33.5595 61.5893C34.3984 62.7373 35.6274 63.5313 37.0102 63.8185C38.393 64.1058 39.832 63.8661 41.0506 63.1454C43.7363 61.6004 46.768 60.7749 49.8578 60.7473C52.9477 60.7197 55.9932 61.4909 58.7055 62.9878C59.9222 63.6788 61.3464 63.8972 62.711 63.6022C64.0756 63.3072 65.287 62.5189 66.1179 61.3853L66.2016 61.2608Z" fill="#4193D2"/>
<path d="M49.7653 81.8068C53.5465 81.8068 56.6117 78.7073 56.6117 74.8839C56.6117 71.0604 53.5465 67.9609 49.7653 67.9609C45.9842 67.9609 42.9189 71.0604 42.9189 74.8839C42.9189 78.7073 45.9842 81.8068 49.7653 81.8068Z" fill="#4193D2"/>
<path d="M23.3156 13.7654C18.6951 15.8251 14.3205 18.408 10.2758 21.4648C9.07708 22.3753 8.28153 23.7269 8.06164 25.2265C7.84175 26.7261 8.21523 28.253 9.10112 29.4761L9.18151 29.5855C9.62414 30.1988 10.1825 30.7174 10.8243 31.1115C11.4662 31.5055 12.1788 31.7671 12.9211 31.8812C13.6634 31.9953 14.4208 31.9597 15.1494 31.7764C15.878 31.5931 16.5636 31.2657 17.1665 30.8132C25.1373 24.8145 34.5487 21.0786 44.4266 19.9921C54.3045 18.9056 64.2901 20.508 73.35 24.6335C73.3746 24.0196 73.391 23.4025 73.391 22.7837C73.3935 19.0073 72.9378 15.2448 72.0342 11.5806C56.0901 6.14409 38.7131 6.92327 23.3074 13.7654H23.3156Z" fill="#48A4DF"/>
<path d="M72.0638 33.9191C64.303 29.8423 55.5777 28.0173 46.8543 28.6462C38.1309 29.2752 29.7499 32.3336 22.6397 37.4826C22.0279 37.9264 21.5091 38.4884 21.1132 39.136C20.7174 39.7836 20.4523 40.5041 20.3334 41.2559C20.2144 42.0077 20.2438 42.7759 20.42 43.5161C20.5962 44.2563 20.9157 44.9538 21.36 45.5685L21.4289 45.6647C22.3109 46.8902 23.6354 47.7143 25.1148 47.9581C26.5942 48.2019 28.1089 47.8458 29.3302 46.9671C34.8894 42.9525 41.465 40.6232 48.2864 40.2521C55.1079 39.881 61.8926 41.4835 67.8457 44.8718C69.7112 41.4193 71.1289 37.7381 72.0638 33.9191Z" fill="#48A4DF"/>
<path d="M63.0105 52.1041C58.6571 49.958 53.8492 48.9252 49.0089 49.0964C44.1686 49.2677 39.4438 50.6377 35.2493 53.0862C34.5533 53.4899 33.9494 54.0377 33.4772 54.6937C33.005 55.3497 32.6751 56.0991 32.5091 56.893C32.3431 57.6868 32.3447 58.5071 32.5138 59.3003C32.6829 60.0934 33.0158 60.8415 33.4906 61.4956L33.5595 61.5902C34.3984 62.7382 35.6274 63.5321 37.0102 63.8194C38.393 64.1066 39.832 63.8669 41.0506 63.1463C43.7807 61.5638 46.8748 60.7364 50.0216 60.7474C51.1221 60.7474 52.2203 60.8479 53.3029 61.0477C56.9457 58.552 60.2149 55.54 63.0105 52.1041Z" fill="#48A4DF"/>
<g clip-path="url(#clip0_5417_10404)">
<path d="M78 64C70.2683 64 64 70.2677 64 78C64 85.7323 70.2683 92 78 92C85.7317 92 92 85.7317 92 78C92 70.2683 85.7317 64 78 64Z" fill="#DD4247"/>
<path d="M70.5931 85.9199C78.9948 85.9199 85.8056 79.1091 85.8056 70.708C85.8069 69.0697 85.5432 67.4419 85.0246 65.8878C82.8915 64.6478 80.4674 63.9963 78 64C70.2683 64 64 70.2683 64 78C63.9962 80.542 64.6878 83.0367 65.9999 85.2138C67.4858 85.6831 69.0349 85.9212 70.5931 85.9199Z" fill="#E55353"/>
<path d="M83.7784 83.7789C83.4874 84.0696 83.0929 84.233 82.6816 84.233C82.2703 84.233 81.8758 84.0696 81.5849 83.7789L77.9995 80.1935L74.4142 83.7789C74.1233 84.0696 73.7288 84.233 73.3175 84.233C72.9061 84.233 72.5116 84.0696 72.2207 83.7789C71.9299 83.4879 71.7666 83.0934 71.7666 82.6821C71.7666 82.2708 71.9299 81.8763 72.2207 81.5853L75.806 78L72.2207 74.4147C71.9299 74.1238 71.7666 73.7293 71.7666 73.318C71.7666 72.9066 71.9299 72.5121 72.2207 72.2212C72.5116 71.9304 72.9061 71.7671 73.3175 71.7671C73.7288 71.7671 74.1233 71.9304 74.4142 72.2212L77.9995 75.8065L81.5849 72.2212C81.8758 71.9304 82.2703 71.7671 82.6816 71.7671C83.0929 71.7671 83.4874 71.9304 83.7784 72.2212C84.0691 72.5121 84.2325 72.9066 84.2325 73.318C84.2325 73.7293 84.0691 74.1238 83.7784 74.4147L80.1931 78L83.7784 81.5853C84.0691 81.8763 84.2325 82.2708 84.2325 82.6821C84.2325 83.0934 84.0691 83.4879 83.7784 83.7789Z" fill="white"/>
</g>
<defs>
<clipPath id="clip0_5417_10404">
<rect width="28" height="28" fill="white" transform="translate(64 64)"/>
</clipPath>
</defs>
</svg>
