<svg width="250" height="170" viewBox="0 0 250 170" xmlns="http://www.w3.org/2000/svg">
<path d="M15.285 152.688C15.285 152.688 -15.3385 119.646 10.1066 83.8713C32.6803 52.1338 58.9993 54.2998 78.3083 67.1809C86.5328 72.6673 110.245 67.852 130.426 35.5594C157.948 -8.48579 253.348 18.2284 235.954 85.9942C227.535 118.786 261.571 119.979 244.229 152.759L15.285 152.688Z" fill="#EBF3FA"/>
<path d="M205.941 54L203.182 45.8941L195 43.3566L203.396 40.4625L206.059 32L208.818 40.1059L217 42.6375L208.432 45.7396L205.941 54Z" fill="#CDE7F8"/>
<path d="M226.957 146L224.95 140.105L219 138.259L225.106 136.155L227.043 130L229.05 135.895L235 137.736L228.769 139.992L226.957 146Z" fill="#CDE7F8"/>
<path d="M58.9568 146L56.9503 140.105L51 138.259L57.1059 136.155L59.0432 130L61.0497 135.895L67 137.736L60.7686 139.992L58.9568 146Z" fill="#CDE7F8"/>
<path d="M24.9568 120L22.9503 114.105L17 112.259L23.1059 110.155L25.0432 104L27.0497 109.895L33 111.736L26.7686 113.992L24.9568 120Z" fill="#CDE7F8"/>
<path d="M195.978 137L194.975 134.052L192 133.13L195.053 132.077L196.022 129L197.025 131.948L200 132.868L196.884 133.996L195.978 137Z" fill="#CDE7F8"/>
<path d="M26.9784 83L25.9751 80.0524L23 79.1297L26.053 78.0773L27.0216 75L28.0249 77.9476L31 78.8682L27.8843 79.9962L26.9784 83Z" fill="white"/>
<path d="M40.9784 129L39.9751 126.052L37 125.13L40.053 124.077L41.0216 121L42.0249 123.948L45 124.868L41.8843 125.996L40.9784 129Z" fill="white"/>
<path d="M195.968 75L194.717 71.3169L191 70.1669L194.812 68.8474L196.027 65L197.278 68.6884L201 69.8384L197.103 71.248L195.968 75Z" fill="white"/>
<path d="M214.968 114L213.717 110.317L210 109.167L213.812 107.847L215.027 104L216.278 107.688L220 108.838L216.103 110.248L214.968 114Z" fill="white"/>
<path d="M230.24 68.7212C230.24 69.0616 230.139 69.3944 229.95 69.6774C229.761 69.9605 229.492 70.1811 229.178 70.3113C228.863 70.4416 228.517 70.4757 228.183 70.4093C227.849 70.3429 227.543 70.1789 227.302 69.9382C227.061 69.6975 226.897 69.3908 226.831 69.057C226.765 68.7231 226.799 68.377 226.929 68.0625C227.059 67.748 227.28 67.4792 227.563 67.2901C227.846 67.1009 228.179 67 228.519 67C228.976 67 229.413 67.1813 229.736 67.5041C230.059 67.8269 230.24 68.2647 230.24 68.7212Z" fill="#CDE7F8"/>
<path d="M218.442 84.7129C218.444 85.0536 218.344 85.3872 218.156 85.6713C217.968 85.9555 217.7 86.1774 217.386 86.3089C217.071 86.4405 216.725 86.4757 216.39 86.4103C216.056 86.3448 215.749 86.1815 215.507 85.9412C215.266 85.7008 215.101 85.3941 215.034 85.06C214.967 84.7259 215 84.3794 215.13 84.0644C215.26 83.7495 215.481 83.4802 215.764 83.2907C216.047 83.1012 216.38 83 216.721 83C217.176 83 217.613 83.1802 217.935 83.5012C218.258 83.8222 218.44 84.2578 218.442 84.7129Z" fill="#CDE7F8"/>
<path d="M67.4423 82.7129C67.444 83.0536 67.3444 83.3872 67.1563 83.6713C66.9682 83.9555 66.6999 84.1774 66.3856 84.3089C66.0712 84.4405 65.7249 84.4757 65.3905 84.4103C65.0561 84.3448 64.7486 84.1815 64.5071 83.9412C64.2655 83.7008 64.1008 83.3941 64.0337 83.06C63.9666 82.7259 64.0002 82.3794 64.1302 82.0644C64.2602 81.7495 64.4808 81.4802 64.7641 81.2907C65.0473 81.1012 65.3804 81 65.7211 81C66.1762 81 66.6127 81.1802 66.9353 81.5012C67.2578 81.8222 67.4401 82.2578 67.4423 82.7129Z" fill="#CDE7F8"/>
<path d="M48.4423 97.7212C48.4423 98.0616 48.3414 98.3944 48.1523 98.6774C47.9631 98.9605 47.6943 99.1811 47.3798 99.3113C47.0653 99.4416 46.7193 99.4757 46.3854 99.4093C46.0515 99.3429 45.7448 99.179 45.5041 98.9382C45.2634 98.6975 45.0995 98.3909 45.0331 98.057C44.9667 97.7231 45.0007 97.377 45.131 97.0625C45.2613 96.748 45.4819 96.4792 45.7649 96.2901C46.048 96.101 46.3808 96 46.7212 96C46.9475 95.9989 47.1718 96.0427 47.3811 96.1288C47.5905 96.2149 47.7806 96.3416 47.9407 96.5017C48.1007 96.6617 48.2275 96.8519 48.3136 97.0612C48.3997 97.2705 48.4434 97.4949 48.4423 97.7212Z" fill="#CDE7F8"/>
<path d="M187.442 26.7129C187.444 27.0536 187.344 27.3872 187.156 27.6714C186.968 27.9555 186.7 28.1774 186.386 28.3089C186.071 28.4405 185.725 28.4758 185.391 28.4103C185.056 28.3448 184.749 28.1816 184.507 27.9412C184.266 27.7008 184.101 27.3941 184.034 27.06C183.967 26.7259 184 26.3794 184.13 26.0645C184.26 25.7495 184.481 25.4802 184.764 25.2907C185.047 25.1012 185.38 25 185.721 25C185.947 24.9989 186.17 25.0424 186.379 25.128C186.588 25.2136 186.778 25.3396 186.938 25.4988C187.098 25.6579 187.225 25.8471 187.311 26.0555C187.398 26.2638 187.442 26.4872 187.442 26.7129Z" fill="#CDE7F8"/>
<path d="M182.019 24.7105L171.964 151.189C171.231 160.402 163.15 167.302 153.95 166.57L82.8544 160.918C73.6545 160.186 66.7654 152.096 67.4978 142.884L77.5535 16.4049C78.2856 7.19227 86.3669 0.292362 95.5667 1.02379L166.663 6.67627C175.862 7.40768 182.752 15.4978 182.019 24.7105Z" fill="#56788B"/>
<path d="M182.02 24.7104L171.964 151.189C171.232 160.402 163.151 167.302 153.951 166.57L147.706 166.074C156.905 166.805 164.986 159.905 165.719 150.693L175.775 24.2139C176.507 15.0012 169.617 6.91109 160.418 6.17969L166.664 6.67624C175.863 7.40765 182.753 15.4978 182.02 24.7104Z" fill="#415E6F"/>
<path d="M172.694 23.5817L162.577 150.835C162.251 154.926 158.664 157.991 154.576 157.666L83.6426 152.026C79.555 151.701 76.4969 148.108 76.8221 144.017L86.9394 16.7638C87.2646 12.6728 90.8518 9.6079 94.9397 9.93291L102.344 10.5216C103.359 10.6023 104.209 11.3298 104.445 12.3228L105.825 18.1616C106.169 19.6126 107.392 20.6652 108.875 20.7831L150.399 24.0844C151.879 24.2021 153.257 23.3563 153.825 21.9779L156.111 16.4305C156.5 15.4872 157.452 14.9029 158.47 14.9839L165.874 15.5725C169.961 15.8975 173.019 19.4907 172.694 23.5817Z" fill="#D9F0F4"/>
<path d="M172.694 23.582L162.577 150.835C162.251 154.926 158.664 157.991 154.576 157.666L148.331 157.17C152.418 157.494 156.006 154.43 156.331 150.339L166.448 23.0854C166.774 18.9944 163.716 15.4012 159.628 15.0762L165.873 15.5727C169.961 15.8977 173.019 19.4909 172.694 23.582Z" fill="#BAE1E5"/>
<path d="M143.251 11.7245L117.884 9.7077C116.591 9.60486 115.459 10.5702 115.356 11.8637C115.253 13.1572 116.218 14.2893 117.512 14.3921L142.878 16.4089C144.172 16.5117 145.304 15.5464 145.407 14.2529C145.51 12.9594 144.544 11.8273 143.251 11.7245Z" fill="#415E6F"/>
<path d="M133.004 140.621L107.637 138.604C106.344 138.501 105.212 139.467 105.109 140.76C105.006 142.054 105.971 143.186 107.265 143.289L132.631 145.305C133.925 145.408 135.057 144.443 135.16 143.149C135.263 141.856 134.297 140.724 133.004 140.621Z" fill="#56788B"/>
<path d="M101.846 39.4563L99.9689 63.0719C99.655 67.0192 96.1895 69.9775 92.2452 69.6639L61.8732 67.2492L48.7789 75.6613C48.3382 75.9468 47.8259 76.0664 47.3231 76.0264C46.9671 75.9981 46.6173 75.8917 46.3025 75.7001C45.5378 75.2433 45.0966 74.388 45.1674 73.498L48.2129 35.1921C48.5267 31.2447 51.9926 28.2865 55.9365 28.6001L95.2617 31.7266C99.2057 32.0402 102.16 35.5089 101.846 39.4563Z" fill="#2E8CC9"/>
<path d="M101.846 39.4567L99.9686 63.0723C99.6548 67.0197 96.1892 69.978 92.245 69.6644L85.9994 69.1678C89.9434 69.4814 93.4092 66.5231 93.7231 62.5758L95.6006 38.9602C95.9145 35.0128 92.9599 31.5441 89.0156 31.2305L95.2612 31.727C99.2054 32.0406 102.16 35.5093 101.846 39.4567Z" fill="#0072BB"/>
<path d="M87.1866 42.2964L62.2416 40.3132C60.9481 40.2103 59.816 41.1756 59.7132 42.4692C59.6104 43.7627 60.5757 44.8947 61.8692 44.9976L86.8142 46.9808C88.1077 47.0837 89.2398 46.1184 89.3426 44.8248C89.4455 43.5313 88.4802 42.3993 87.1866 42.2964Z" fill="#E4F4FF"/>
<path d="M83.2259 52.6657L61.3988 50.9304C60.1053 50.8275 58.9733 51.7928 58.8704 53.0863C58.7676 54.3799 59.7329 55.5119 61.0264 55.6148L82.8535 57.3501C84.147 57.453 85.2791 56.4876 85.3819 55.1941C85.4848 53.9006 84.5191 52.7685 83.2259 52.6657Z" fill="#E4F4FF"/>
<path d="M188.941 66.0547C187.604 64.4865 185.737 63.5328 183.683 63.3695C181.629 63.2062 179.634 63.8528 178.066 65.1901L174.249 68.4463C173.262 69.2883 173.144 70.7708 173.986 71.7582L180.947 79.9244C181.351 80.3988 181.927 80.6928 182.548 80.7422C183.17 80.7916 183.785 80.592 184.259 80.1878L188.076 76.9316C191.313 74.1713 191.701 69.292 188.941 66.0547Z" fill="#2E8CC9"/>
<path d="M146.672 113.477L135.45 100.312C135.046 99.8377 134.47 99.5433 133.849 99.4939C133.228 99.4446 132.612 99.6442 132.138 100.049C127.524 103.984 126.971 110.941 130.905 115.556C132.811 117.792 135.473 119.152 138.402 119.384C141.33 119.617 144.174 118.695 146.409 116.789C147.396 115.946 147.514 114.464 146.672 113.477Z" fill="#0072BB"/>
<path d="M157.883 129.655C157.431 129.723 156.983 129.739 156.541 129.704C155.031 129.584 153.619 128.874 152.606 127.687L148.541 122.919L122.363 92.2026C121.052 90.6649 120.636 88.5986 121.252 86.6742C121.867 84.7542 123.399 83.3116 125.358 82.8184L136.222 80.0757L148.377 69.7064C153.161 65.6267 159.249 63.6509 165.515 64.1492C170.729 64.5658 175.552 66.6495 179.369 70.0928C180.142 70.7875 180.874 71.539 181.56 72.3447C185.642 77.1314 187.615 83.2214 187.115 89.4905C186.618 95.7643 183.707 101.466 178.923 105.546L166.766 115.912L162.348 126.21C162.345 126.212 162.345 126.212 162.345 126.212C161.547 128.066 159.878 129.354 157.883 129.655Z" fill="#FFD56B"/>
<path d="M162.346 126.212C161.547 128.066 159.878 129.353 157.883 129.654C157.431 129.723 156.984 129.738 156.542 129.703C155.032 129.583 153.619 128.873 152.607 127.686L148.581 122.964C149.591 124.124 150.984 124.817 152.477 124.936C152.919 124.971 153.366 124.955 153.818 124.887C155.813 124.585 157.482 123.298 158.281 121.444C158.281 121.444 158.281 121.444 158.283 121.442L162.702 111.144L174.859 100.778C179.643 96.6982 182.554 90.9965 183.05 84.7227C183.467 79.5048 182.17 74.4108 179.369 70.0926C180.143 70.7873 180.874 71.5387 181.561 72.3444C185.642 77.1312 187.616 83.2211 187.115 89.4903C186.619 95.7641 183.708 101.466 178.924 105.545L166.767 115.912L162.348 126.21C162.346 126.212 162.346 126.212 162.346 126.212Z" fill="#FFC73A"/>
<path d="M145.106 54.7382C141.232 54.4302 137.83 57.3317 137.522 61.2063C137.42 62.4998 138.385 63.6318 139.678 63.7347C140.972 63.8376 142.104 62.8722 142.207 61.5787C142.309 60.2871 143.443 59.32 144.734 59.4226C146.027 59.5254 147.159 58.5601 147.262 57.2666C147.365 55.9731 146.4 54.8411 145.106 54.7382Z" fill="#90ABBD"/>
<path d="M145.891 44.8684C136.577 44.1279 128.396 51.1057 127.656 60.4229C127.553 61.7165 128.518 62.8485 129.812 62.9514C131.105 63.0542 132.237 62.0889 132.34 60.7954C132.875 54.0611 138.787 49.0176 145.519 49.5528C146.813 49.6557 147.945 48.6904 148.048 47.3968C148.15 46.1033 147.185 44.9713 145.891 44.8684Z" fill="#90ABBD"/>
<path d="M185.571 117.575C189.445 117.883 192.847 114.981 193.155 111.106C193.257 109.813 192.293 108.681 190.999 108.578C189.705 108.475 188.573 109.441 188.47 110.734C188.368 112.026 187.234 112.993 185.943 112.89C184.65 112.787 183.518 113.753 183.415 115.046C183.312 116.34 184.278 117.472 185.571 117.575Z" fill="#90ABBD"/>
<path d="M200.866 109.363C199.573 109.26 198.441 110.225 198.338 111.519C197.802 118.253 191.89 123.296 185.159 122.761C183.865 122.658 182.733 123.624 182.63 124.917C182.527 126.211 183.492 127.343 184.786 127.446C194.101 128.186 202.281 121.208 203.022 111.891C203.125 110.597 202.16 109.465 200.866 109.363Z" fill="#90ABBD"/>
<path d="M95.3496 117.097L105.388 117.895C106.681 117.998 107.813 117.033 107.916 115.739C108.019 114.446 107.054 113.314 105.76 113.211L95.7221 112.413C94.4286 112.31 93.2965 113.275 93.1937 114.569C93.0908 115.862 94.0558 116.994 95.3496 117.097Z" fill="#90ABBD"/>
<path d="M111.127 124.636L94.8529 123.342C93.5594 123.24 92.4274 124.205 92.3245 125.498C92.2217 126.792 93.187 127.924 94.4805 128.027L110.755 129.321C112.049 129.424 113.181 128.458 113.283 127.165C113.386 125.871 112.421 124.739 111.127 124.636Z" fill="#90ABBD"/>
</svg>
