<svg width="100" height="100" viewBox="0 0 100 100" fill="none" xmlns="http://www.w3.org/2000/svg">
<path d="M57.3828 76.1963V81.1182C57.3828 85.2031 54.0855 88.501 50 88.501C45.9145 88.501 42.6172 85.2031 42.6172 81.1182V76.1963C42.6172 74.8178 43.6996 73.7354 45.0781 73.7354H54.9219C56.3004 73.7354 57.3828 74.8178 57.3828 76.1963Z" fill="#4A696F"/>
<path d="M57.3828 76.1963V81.1182C57.3828 85.2031 54.0855 88.501 50 88.501V73.7354H54.9219C56.3004 73.7354 57.3828 74.8178 57.3828 76.1963Z" fill="#384949"/>
<path d="M50 14.6729C34.5454 14.6729 22.9297 27.1249 22.9297 41.7432C22.9297 50.5038 27.1133 58.7236 34.4467 63.8916C36.4648 65.3188 37.6953 67.8291 37.6953 70.6342V71.2744C37.6953 75.3593 40.9926 78.6572 45.0781 78.6572H54.9219C59.0074 78.6572 62.3047 75.3593 62.3047 71.2744V70.4868C62.3047 67.8291 63.7319 65.2695 66.1928 63.3994C73.0835 58.2314 77.0703 50.3564 77.0703 41.7432C77.0703 26.8788 65.1104 14.7222 50 14.6729Z" fill="#FFE39D"/>
<path d="M77.0703 41.7432C77.0703 50.3564 73.0835 58.2314 66.1928 63.3994C63.7319 65.2695 62.3047 67.8291 62.3047 70.4868V71.2744C62.3047 75.3593 59.0074 78.6572 54.9219 78.6572H50V14.6729C65.1104 14.7222 77.0703 26.8788 77.0703 41.7432Z" fill="#FFD56B"/>
<path d="M89.5391 44.2041H84.4531C83.0932 44.2041 81.9922 43.1031 81.9922 41.7432C81.9922 40.3826 83.0932 39.2822 84.4531 39.2822H89.5391C90.899 39.2822 92 40.3826 92 41.7432C92 43.1031 90.899 44.2041 89.5391 44.2041Z" fill="#FFE39D"/>
<path d="M15.5469 44.2041H10.4609C9.10101 44.2041 8 43.1031 8 41.7432C8 40.3826 9.10101 39.2822 10.4609 39.2822H15.5469C16.9068 39.2822 18.0078 40.3826 18.0078 41.7432C18.0078 43.1031 16.9068 44.2041 15.5469 44.2041Z" fill="#FFE39D"/>
<path d="M72.6233 19.1212C71.662 18.1599 71.662 16.6026 72.6233 15.6413L76.1032 12.1614C77.0645 11.2001 78.6219 11.2001 79.5832 12.1614C80.5445 13.1227 80.5445 14.68 79.5832 15.6413L76.1032 19.1212C75.1419 20.0826 73.5846 20.0826 72.6233 19.1212Z" fill="#FFE39D"/>
<path d="M20.4163 71.3253C19.455 70.364 19.455 68.8067 20.4163 67.8454L23.8962 64.3655C24.8575 63.4042 26.4148 63.4042 27.3761 64.3655C28.3374 65.3262 28.3374 66.8841 27.3761 67.8454L23.8962 71.3253C22.9349 72.2867 21.3776 72.2867 20.4163 71.3253Z" fill="#FFE39D"/>
<path d="M23.8962 19.1212L20.4163 15.6413C19.455 14.68 19.455 13.1227 20.4163 12.1614C21.3776 11.2001 22.9349 11.2001 23.8962 12.1614L27.3761 15.6413C28.3374 16.6026 28.3374 18.1599 27.3761 19.1212C26.4148 20.0826 24.8575 20.0826 23.8962 19.1212Z" fill="#FFE39D"/>
<path d="M76.1032 71.3253L72.6233 67.8454C71.662 66.8841 71.662 65.3262 72.6233 64.3655C73.5846 63.4042 75.1419 63.4042 76.1032 64.3655L79.5832 67.8454C80.5445 68.8067 80.5445 70.364 79.5832 71.3253C78.6219 72.2867 77.0645 72.2867 76.1032 71.3253Z" fill="#FFE39D"/>
<path d="M63.6816 44.5972L50.6873 35.9839L54.6742 28.0596C55.2157 26.9771 54.8709 25.6973 53.8865 24.9591C52.9021 24.2701 51.5736 24.3682 50.7367 25.2545L35.971 40.0201C35.4295 40.5123 35.1834 41.2506 35.2327 41.9889C35.3314 42.7271 35.7249 43.3667 36.3152 43.8096L49.3094 52.4229L45.3226 60.3472C44.7811 61.4303 45.1258 62.7101 46.1102 63.4484C47.0946 64.1373 48.4231 64.0386 49.2601 63.1529L64.0257 48.3873C64.5672 47.8951 64.8133 47.1568 64.764 46.4186C64.6653 45.6803 64.2718 45.04 63.6816 44.5972Z" fill="#FFC73A"/>
<path d="M64.7656 46.4186C64.815 47.1568 64.5689 47.8951 64.0273 48.3873L50 62.4146V25.9928L50.7383 25.2545C51.5753 24.3682 52.9038 24.2701 53.8882 24.9591C54.8725 25.6973 55.2173 26.9771 54.6758 28.0596L50.6889 35.9839L63.6832 44.5972C64.2734 45.04 64.6669 45.6803 64.7656 46.4186Z" fill="#FFB909"/>
</svg>
