<svg width="40" height="40" viewBox="0 0 40 40" fill="none" xmlns="http://www.w3.org/2000/svg">
<path d="M3.89788 36.0028L0.070299 14.2718C0.0333403 14.0621 0.0103015 13.8501 0.00133348 13.6373C-0.0555499 11.1736 1.71352 9.0454 4.14616 8.6511L11.5324 7.34766L11.3324 36.0028H3.89788Z" fill="#2E8CC9"/>
<path d="M32.325 35.0503C32.1969 35.582 31.7668 35.9878 31.2285 36.0847L9.49054 39.9192C8.12039 40.1584 6.71359 39.796 5.62957 38.9245C4.54554 38.0531 3.88929 36.757 3.82847 35.3675C3.77415 33.0119 5.3959 30.9479 7.69744 30.4434L13.7871 32.1537H13.7802L8.29744 33.1261C7.68595 33.2336 7.15486 33.6096 6.85029 34.1506C6.54572 34.6916 6.49974 35.3407 6.72502 35.9192C7.11511 36.851 8.10582 37.381 9.09744 37.1882L25.7112 34.2572L32.325 35.0503Z" fill="#005B96"/>
<path d="M13.7804 32.1543L8.29764 33.1267C7.68616 33.2342 7.15507 33.6102 6.85049 34.1512C6.54592 34.6922 6.49995 35.3413 6.72523 35.9198C7.11531 36.8516 8.10603 37.3816 9.09764 37.1888L25.7114 34.2577L13.7804 32.1543Z" fill="#FFE39D"/>
<path d="M8.79883 22.8721L12.6312 1.13831C12.7684 0.391246 13.4803 -0.107073 14.2292 0.019692L35.7995 3.82314C38.2339 4.21774 40.0044 6.34728 39.9478 8.8128C39.9384 9.02463 39.9154 9.23565 39.8788 9.44452L36.0464 31.1783L8.79883 22.8721Z" fill="#FFD56B"/>
<path d="M31.2891 7.21787C31.2487 7.21785 31.2083 7.21439 31.1685 7.20753L15.5471 4.45305C15.1945 4.36611 14.9698 4.02072 15.0331 3.66319C15.0964 3.30566 15.4261 3.05846 15.7871 3.09787L31.4078 5.84891C31.7601 5.91062 32.0067 6.23143 31.9758 6.58775C31.945 6.94408 31.6468 7.21768 31.2891 7.21787Z" fill="#ECF0F1"/>
<path d="M27.9733 10.1334C27.9328 10.1334 27.8924 10.1297 27.8526 10.1223L17.665 8.32853C17.2985 8.2542 17.058 7.90126 17.1229 7.53294C17.1878 7.16462 17.5344 6.91515 17.9043 6.9706L28.0926 8.7637C28.4469 8.82358 28.6959 9.14554 28.6647 9.50356C28.6335 9.86159 28.3326 10.1356 27.9733 10.1334Z" fill="#ECF0F1"/>
<path d="M29.4136 13.2142L15.1481 10.6942C14.7729 10.6279 14.415 10.8784 14.3487 11.2535L13.1487 18.0466C13.0825 18.4218 13.3329 18.7797 13.7081 18.8459L27.9736 21.3659C28.3487 21.4322 28.7066 21.1818 28.7729 20.8066L29.9729 14.0135C30.0392 13.6384 29.7887 13.2805 29.4136 13.2142Z" fill="#ECF0F1"/>
<path d="M39.9463 8.81024C39.9381 9.02308 39.915 9.23509 39.8773 9.44472L36.0428 31.1758L30.7256 29.5551L33.8083 12.0792L34.5394 7.95506L35.2842 3.73438L35.8014 3.82403C38.233 4.22027 40.001 6.34724 39.9463 8.81024Z" fill="#FFC73A"/>
<path d="M31.9668 25.5551L10.3944 21.7551C10.3147 21.7413 10.2339 21.7344 10.153 21.7344C9.43822 21.7362 8.84324 22.2838 8.78224 22.996C8.72125 23.7082 9.21446 24.349 9.91854 24.4723L31.6496 28.2999C32.2605 28.4105 32.79 28.7886 33.093 29.3305C33.396 29.8724 33.4408 30.5215 33.2151 31.0999C32.8271 32.0297 31.8379 32.5574 30.8496 32.362L9.2013 28.5482C9.12157 28.5344 9.04082 28.5275 8.95992 28.5275C8.24379 28.5257 7.64543 29.0723 7.58254 29.7857C7.51965 30.499 8.01315 31.1419 8.71854 31.2654L30.4565 35.093C31.8256 35.333 33.2318 34.9718 34.3159 34.1017C35.3999 33.2316 36.0567 31.9368 36.1185 30.5482C36.1727 28.0816 34.4018 25.9519 31.9668 25.5551Z" fill="#FFB909"/>
<path d="M33.215 31.1002C32.827 32.03 31.8378 32.5578 30.8494 32.3623L9.20117 28.5485L9.91841 24.4727L31.6494 28.3002C32.2604 28.4109 32.7899 28.7889 33.0929 29.3309C33.3959 29.8728 33.4407 30.5218 33.215 31.1002Z" fill="#FFE39D"/>
</svg>
