<svg width="38" height="38" viewBox="0 0 38 38" fill="none" xmlns="http://www.w3.org/2000/svg">
<g clip-path="url(#clip0_425_30548)">
<path d="M24.1396 30.314L24.1396 14.6362L21.1141 14.318L21.1225 14.3074L23.287 11.5786L25.9249 9.50962C26.6344 8.953 26.8179 7.95445 26.3515 7.18298C26.2728 7.05223 26.1795 6.93525 26.0747 6.8328C25.7383 6.50173 25.2857 6.32129 24.8231 6.32129C24.5479 6.32129 24.2695 6.38551 24.0088 6.51932L20.8985 8.11883C20.6637 8.24958 20.4336 8.3895 19.903 8.53706L10.469 13.5227C10.215 13.6569 9.93207 13.7271 9.64489 13.7271L4.7458 13.7271L5.05163 29.5288L10.6394 29.5288L16.5403 30.6879C16.6049 30.7006 16.6706 30.7053 16.7363 30.7018L24.1396 30.314Z" fill="#FFDFCF"/>
<path d="M24.8682 30.3138L18.2569 30.3138L18.2569 26.3945L24.8682 26.3945C25.7398 26.3945 26.4685 27.0039 26.652 27.8197C26.6818 27.9489 26.6971 28.0843 26.6971 28.2234L26.6971 28.4849C26.6971 29.4949 25.8782 30.3138 24.8682 30.3138Z" fill="#FFDFCF"/>
<path d="M24.8682 30.3144L23.4254 30.3144L24.1396 28.3311L25.0869 28.3311C25.5793 28.3311 26.2735 28.1369 26.652 27.8203C26.6818 27.9495 26.6971 28.0849 26.6971 28.224L26.6971 28.4855C26.6971 29.4955 25.8782 30.3144 24.8682 30.3144Z" fill="#FFCEBF"/>
<path d="M24.1396 30.3139L24.1396 28.3399L16.7363 28.7277C16.6707 28.7312 16.6049 28.7265 16.5403 28.7138L10.6394 27.5547L5.05163 27.5547L5.05163 29.5286L10.6394 29.5286L16.5403 30.6877C16.6049 30.7004 16.6706 30.7051 16.7363 30.7017L24.1396 30.3139Z" fill="#FFCEBF"/>
<path d="M26.3286 26.3946L14.281 26.3946L14.281 22.4746L26.3286 22.4746C27.2002 22.4746 27.9289 23.084 28.1124 23.9006C28.1422 24.0298 28.1575 24.1651 28.1575 24.3035L28.1575 24.5658C28.1575 25.5758 27.3386 26.3946 26.3286 26.3946Z" fill="#FFDFCF"/>
<path d="M26.3286 26.3952L23.4254 26.3952L23.4254 25.2639C23.4254 24.9622 23.67 24.7177 23.9717 24.7177L26.7766 24.7177C27.1971 24.7177 27.7645 24.5762 28.1575 24.3369L28.1575 24.5663C28.1575 25.5764 27.3387 26.3952 26.3286 26.3952Z" fill="#FFCEBF"/>
<path d="M1.07286 31.6776L6.35593 31.6776C6.94841 31.6776 7.4288 31.1972 7.4288 30.6047L7.4288 12.2799C7.4288 11.6874 6.94849 11.207 6.35593 11.207L1.07286 11.207C0.480385 11.207 -5.74304e-06 11.6873 -5.76894e-06 12.2799L-6.56994e-06 30.6047C-6.59585e-06 31.1972 0.480308 31.6776 1.07286 31.6776Z" fill="#2E8CC9"/>
<path d="M7.4288 30.6049L7.4288 28.4932C7.4288 29.0856 6.94849 29.566 6.35593 29.566L1.07286 29.566C0.480385 29.566 -5.74795e-06 29.0857 -5.72205e-06 28.4932L-5.81435e-06 30.6049C-5.84025e-06 31.1974 0.480309 31.6777 1.07286 31.6777L6.35593 31.6777C6.94841 31.6777 7.4288 31.1974 7.4288 30.6049Z" fill="#005B96"/>
<path d="M2.22869 15.1761C2.22869 15.9556 2.86061 16.5875 3.64012 16.5875C4.41963 16.5875 5.05154 15.9556 5.05154 15.1761C5.05154 14.3966 4.41963 13.7646 3.64012 13.7646C2.86061 13.7646 2.22869 14.3966 2.22869 15.1761Z" fill="#0072BB"/>
<path d="M26.3286 22.4749L14.281 22.4749L14.281 18.5557L26.3286 18.5557C27.1796 18.5557 27.8944 19.1368 28.0994 19.9243C28.1315 20.0489 28.1513 20.1804 28.1559 20.3142C28.1582 20.3982 28.1573 20.4693 28.1575 20.646C28.1575 21.6561 27.3386 22.4749 26.3286 22.4749Z" fill="#FFDFCF"/>
<path d="M26.3286 22.4752L23.4254 22.4752L23.4254 21.3444C23.4254 21.0431 23.6701 20.7984 23.9713 20.7984L26.7002 20.7984C27.1551 20.7984 27.7285 20.6318 28.1024 20.3573C28.1238 20.3397 28.1414 20.3259 28.1559 20.3145C28.1582 20.3985 28.1573 20.4695 28.1575 20.6463C28.1575 21.6563 27.3386 22.4752 26.3286 22.4752Z" fill="#FFCEBF"/>
<path d="M36.1711 18.555L24.1396 18.555L24.1396 14.6357L36.1711 14.6357C37.042 14.6357 37.7714 15.2451 37.9549 16.0609C37.9832 16.1856 37.9985 16.3148 37.9992 16.4486C38 16.4539 38 16.4593 38 16.4646L38 16.7261C38 17.7361 37.1811 18.555 36.1711 18.555Z" fill="#FFDFCF"/>
<path d="M21.1225 14.3076L20.1074 14.1964C19.7709 14.1597 19.6065 13.7667 19.8168 13.5014L22.6027 10.5451L25.7093 8.13204C26.0266 7.82621 26.1718 7.38351 26.0954 6.94922L26.0747 6.83301C26.1795 6.93546 26.2728 7.05244 26.3515 7.18319C26.8179 7.95466 26.6344 8.95321 25.9249 9.50983L23.287 11.5788L21.1225 14.3076Z" fill="#FFCEBF"/>
<path d="M36.1711 18.5558L23.4254 18.5558L23.4254 17.4766C23.4254 17.1466 23.693 16.8791 24.023 16.8791L36.5427 16.8791C36.9866 16.8791 37.5937 16.7212 37.9864 16.458C37.9927 16.4614 37.9937 16.462 38 16.4654L38 16.7269C38 17.737 37.1812 18.5558 36.1711 18.5558Z" fill="#FFCEBF"/>
</g>
<defs>
<clipPath id="clip0_425_30548">
<rect width="38" height="38" fill="white" transform="translate(38) rotate(90)"/>
</clipPath>
</defs>
</svg>
