<svg width="16" height="16" viewBox="0 0 16 16" fill="none" xmlns="http://www.w3.org/2000/svg">
<path d="M7.33301 4.33301L7.33301 12.9997" stroke="white" stroke-linecap="round"/>
<path d="M7.33301 12.9997C7.18481 12.9997 6.88204 12.8383 6.27652 12.5156C5.66107 12.1875 4.81081 11.8611 3.72134 11.6562C2.4992 11.4264 1.88813 11.3115 1.61057 10.9722C1.33301 10.6329 1.33301 10.0895 1.33301 9.00262V4.73071C1.33301 3.54203 1.33301 2.94769 1.76548 2.58169C2.19795 2.21568 2.70575 2.31117 3.72134 2.50215C5.72606 2.87914 6.92088 3.66771 7.33301 4.12043C7.74514 3.66771 8.93996 2.87914 10.9447 2.50215C11.9603 2.31117 12.4681 2.21568 12.9005 2.58169C13.333 2.94769 13.333 3.54203 13.333 4.73071V6.66634" stroke="white" stroke-linecap="round" stroke-linejoin="round"/>
<path d="M10.2315 13.5702L10.1269 13.0812L10.1269 13.0812L10.2315 13.5702ZM9.42919 12.7679L9.91814 12.8724L9.42919 12.7679ZM10.0135 11.0742L9.6599 10.7206H9.6599L10.0135 11.0742ZM14.5305 9.31787L14.9635 9.06787L14.5305 9.31787ZM14.5305 10.3317L14.9635 10.5817L14.5305 10.3317ZM13.6815 8.46884L13.9315 8.03583V8.03583L13.6815 8.46884ZM12.2187 8.86893L12.5722 9.22248L12.2187 8.86893ZM12.6676 8.46884L12.4176 8.03583V8.03583L12.6676 8.46884ZM13.7769 10.4271L11.5716 12.6323L12.2788 13.3394L14.484 11.1342L13.7769 10.4271ZM10.367 11.4277L12.5722 9.22248L11.8651 8.51537L9.6599 10.7206L10.367 11.4277ZM10.1269 13.0812C10.01 13.1062 9.91652 13.1262 9.83622 13.1411C9.75518 13.1562 9.70207 13.1633 9.66605 13.1656C9.62907 13.1679 9.63163 13.1635 9.6547 13.1695C9.68608 13.1776 9.72876 13.1978 9.76516 13.2342L9.05805 13.9413C9.27391 14.1572 9.54355 14.1754 9.72952 14.1635C9.90652 14.1523 10.1223 14.1048 10.336 14.0591L10.1269 13.0812ZM8.94025 12.6633C8.89454 12.8771 8.84706 13.0928 8.8358 13.2698C8.82397 13.4558 8.84219 13.7254 9.05805 13.9413L9.76516 13.2342C9.80155 13.2706 9.82177 13.3133 9.82986 13.3447C9.83581 13.3677 9.83143 13.3703 9.83378 13.3333C9.83607 13.2973 9.84319 13.2442 9.85826 13.1631C9.87319 13.0828 9.89313 12.9894 9.91814 12.8724L8.94025 12.6633ZM13.7769 9.22248C14.0219 9.46747 14.072 9.52365 14.0975 9.56787L14.9635 9.06787C14.8556 8.8809 14.6834 8.71484 14.484 8.51537L13.7769 9.22248ZM14.484 11.1342C14.6834 10.9348 14.8556 10.7687 14.9635 10.5817L14.0975 10.0817C14.072 10.1259 14.0219 10.1821 13.7769 10.4271L14.484 11.1342ZM14.0975 9.56787C14.1893 9.72686 14.1893 9.92274 14.0975 10.0817L14.9635 10.5817C15.2339 10.1133 15.2339 9.53626 14.9635 9.06787L14.0975 9.56787ZM14.484 8.51537C14.2845 8.3159 14.1185 8.14377 13.9315 8.03583L13.4315 8.90185C13.4757 8.92738 13.5319 8.97748 13.7769 9.22248L14.484 8.51537ZM12.5722 9.22248C12.8172 8.97748 12.8734 8.92738 12.9176 8.90185L12.4176 8.03583C12.2307 8.14377 12.0646 8.3159 11.8651 8.51537L12.5722 9.22248ZM13.9315 8.03583C13.4631 7.7654 12.886 7.7654 12.4176 8.03583L12.9176 8.90185C13.0766 8.81006 13.2725 8.81006 13.4315 8.90185L13.9315 8.03583ZM11.5716 12.6323C11.4413 12.7627 11.2632 12.847 11.01 12.9116C10.8832 12.944 10.748 12.969 10.5972 12.9951C10.4524 13.0201 10.2865 13.0471 10.1269 13.0812L10.336 14.0591C10.4706 14.0303 10.6084 14.0079 10.7675 13.9805C10.9206 13.954 11.0894 13.9234 11.2574 13.8805C11.5939 13.7946 11.9685 13.6497 12.2788 13.3394L11.5716 12.6323ZM9.91814 12.8724C9.95226 12.7128 9.97927 12.547 10.0043 12.4021C10.0303 12.2514 10.0554 12.1161 10.0877 11.9893C10.1524 11.7362 10.2367 11.5581 10.367 11.4277L9.6599 10.7206C9.34969 11.0308 9.20474 11.4054 9.11882 11.7419C9.07592 11.91 9.04535 12.0788 9.01889 12.2319C8.99142 12.3909 8.96901 12.5288 8.94025 12.6633L9.91814 12.8724Z" fill="white"/>
</svg>
