<svg width="16" height="16" viewBox="0 0 16 16" fill="none" xmlns="http://www.w3.org/2000/svg">
<g opacity="0.7">
<path fill-rule="evenodd" clip-rule="evenodd" d="M8.09621 4.59421L8.03666 4.6325C7.15893 5.19676 6.46137 5.64521 5.96568 6.05552C5.46144 6.47291 5.08939 6.91105 4.96996 7.47988C4.89803 7.82248 4.89803 8.17709 4.96996 8.51969C5.08938 9.08851 5.46144 9.52665 5.96568 9.94405C6.46136 10.3544 7.15892 10.8028 8.03664 11.3671L8.0962 11.4053C9.05192 12.0198 9.80881 12.5064 10.4264 12.8047C11.0478 13.105 11.6385 13.2716 12.2219 13.0932C12.5659 12.988 12.881 12.8036 13.1442 12.5553C13.5848 12.1398 13.7556 11.5429 13.8359 10.8378C13.916 10.135 13.916 9.20892 13.916 8.03368V7.96589C13.916 6.79065 13.916 5.8646 13.8359 5.1618C13.7556 4.45671 13.5848 3.85979 13.1442 3.44429C12.881 3.19601 12.5659 3.01156 12.2219 2.90635C11.6385 2.72798 11.0478 2.89459 10.4264 3.19482C9.80882 3.49319 9.05192 3.97979 8.09621 4.59421Z" fill="white"/>
<path fill-rule="evenodd" clip-rule="evenodd" d="M2.74967 2C3.11786 2 3.41634 2.29848 3.41634 2.66667L3.41634 13.3333C3.41634 13.7015 3.11786 14 2.74967 14C2.38148 14 2.08301 13.7015 2.08301 13.3333L2.08301 2.66667C2.08301 2.29848 2.38148 2 2.74967 2Z" fill="white"/>
</g>
</svg>
