<svg width="32" height="32" viewBox="0 0 32 32" fill="none" xmlns="http://www.w3.org/2000/svg">
<circle cx="16" cy="16" r="16" fill="#E4F4FF"/>
<path fill-rule="evenodd" clip-rule="evenodd" d="M22.7549 8.49015C23.3752 8.96964 23.9525 9.69986 24.3699 10.5614C24.7863 11.421 24.992 12.3054 24.9543 13.0565C24.9188 13.7622 24.6441 14.5284 23.9132 14.8364L20.3295 16.9866C20.2144 17.0556 20.1569 17.0902 20.0879 17.1045C20.019 17.1189 19.9596 17.1112 19.8408 17.0957C17.0531 16.7332 15.8852 13.925 15.7741 11.3603C15.7647 11.1416 15.7599 11.0323 15.8142 10.9314C15.8685 10.8304 15.968 10.7707 16.167 10.6513L20.5935 7.99544L20.6468 7.97545C21.3845 7.69886 22.1643 8.03373 22.7549 8.49015ZM21.9904 9.47912C21.5165 9.11279 21.2079 9.09999 21.0857 9.14583C21.0012 9.17752 20.821 9.3207 20.7948 9.84163C20.77 10.3358 20.9077 11.0107 21.2557 11.729C21.6027 12.4453 22.0661 13.0129 22.5102 13.3562C22.9842 13.7225 23.2927 13.7354 23.415 13.6895C23.4995 13.6578 23.6796 13.5146 23.7058 12.9937C23.7307 12.4995 23.5929 11.8247 23.2449 11.1063C22.8979 10.39 22.4346 9.82239 21.9904 9.47912Z" fill="#0072BB"/>
<path d="M14.2546 11.7988C14.3668 11.7315 14.4229 11.6978 14.4648 11.7207C14.5067 11.7436 14.5087 11.8101 14.5127 11.9431C14.5875 14.4657 15.8841 16.8668 18.2515 17.9107C18.3909 17.9722 18.4607 18.0029 18.4638 18.0535C18.467 18.1041 18.4032 18.1424 18.2755 18.219L17.329 18.7869C17.162 18.8871 17.0785 18.9372 16.9799 18.9446C16.8814 18.9519 16.7984 18.9177 16.6326 18.8493C14.2239 17.856 13.147 15.6615 12.8303 13.2037C12.7991 12.9612 12.7835 12.84 12.8376 12.7282C12.8918 12.6165 13.0015 12.5506 13.221 12.4189L14.2546 11.7988Z" fill="#0072BB"/>
<path d="M11.3631 13.5337C11.464 13.4732 11.5144 13.4429 11.555 13.4626C11.5956 13.4824 11.6031 13.5415 11.6179 13.6596C11.9266 16.1204 13.097 18.5068 15.3521 19.6617C15.4788 19.7266 15.5421 19.759 15.5438 19.808C15.5454 19.857 15.4858 19.8928 15.3665 19.9644L11.4071 22.34L11.3538 22.36C10.6161 22.6366 9.83631 22.3017 9.24578 21.8453C8.62542 21.3658 8.04815 20.6356 7.63077 19.774C7.21435 18.9144 7.00863 18.0301 7.0464 17.2789C7.08188 16.5733 7.35659 15.807 8.08747 15.4991L11.3631 13.5337Z" fill="#0072BB"/>
<path d="M18.6315 23.8686C18.5128 24.0326 18.322 24.129 18.1196 24.1272C17.9171 24.1254 17.7281 24.0256 17.6123 23.8595L17.0937 23.1151L15.4367 23.9079C15.1649 24.038 14.8389 23.9555 14.6616 23.7118C14.485 23.469 14.506 23.1351 14.7112 22.9164L14.7122 22.9154L14.7136 22.9139C14.7669 22.854 15.1633 22.386 15.3835 21.6513C15.4287 21.5004 15.4513 21.4249 15.4895 21.3757C15.5278 21.3265 15.5866 21.2912 15.7043 21.2206L19.4425 18.9777C19.6317 18.8641 19.7264 18.8074 19.8082 18.8482C19.8899 18.889 19.901 18.9946 19.9233 19.2058C20.0612 20.5163 19.8279 22.2149 18.6315 23.8686Z" fill="#0072BB"/>
</svg>
