<svg xmlns="http://www.w3.org/2000/svg" viewBox="0 0 360 360" width="360" height="360"
    preserveAspectRatio="xMidYMid meet"
    style="width: 100%; height: 100%; content-visibility: visible;">
    <defs>
        <clipPath id="__lottie_element_2">
            <rect width="360" height="360" x="0" y="0"></rect>
        </clipPath>
    </defs>
    <g clip-path="url(#__lottie_element_2)">
        <g transform="matrix(1.295462727546692,0,0,1.295462727546692,155.38619995117188,178.7045440673828)"
            opacity="1" style="display: block;">
            <g opacity="1" transform="matrix(1,0,0,1,19,1)">
                <path fill="rgb(12,124,238)" fill-opacity="1"
                    d=" M0,-99 C54.638099670410156,-99 99,-54.638099670410156 99,0 C99,54.638099670410156 54.638099670410156,99 0,99 C-54.638099670410156,99 -99,54.638099670410156 -99,0 C-99,-54.638099670410156 -54.638099670410156,-99 0,-99z"></path>
                <path stroke-linecap="butt" stroke-linejoin="miter" fill-opacity="0"
                    stroke-miterlimit="4" stroke="rgb(175,192,254)" stroke-opacity="1"
                    stroke-width="0"
                    d=" M0,-99 C54.638099670410156,-99 99,-54.638099670410156 99,0 C99,54.638099670410156 54.638099670410156,99 0,99 C-54.638099670410156,99 -99,54.638099670410156 -99,0 C-99,-54.638099670410156 -54.638099670410156,-99 0,-99z"></path>
            </g>
        </g>
        <g transform="matrix(0.2199999988079071,0,0,0.2199999988079071,123.68000030517578,123.68000030517578)"
            opacity="1" style="display: block;">
            <g opacity="1" transform="matrix(1,0,0,1,256,177.82899475097656)">
                <path fill="rgb(255,255,255)" fill-opacity="1"
                    d=" M0,-177.82899475097656 C-49.45600128173828,-177.82899475097656 -89.69300079345703,-137.59300231933594 -89.69300079345703,-88.13700103759766 C-89.69300079345703,-88.13700103759766 -89.69300079345703,88.14199829101562 -89.69300079345703,88.14199829101562 C-89.69300079345703,137.5919952392578 -49.45600128173828,177.82899475097656 0,177.82899475097656 C49.45600128173828,177.82899475097656 89.69300079345703,137.8730010986328 89.69300079345703,88.75900268554688 C89.69300079345703,88.75900268554688 89.69300079345703,-88.13700103759766 89.69300079345703,-88.13700103759766 C89.69300079345703,-137.59300231933594 49.45600128173828,-177.82899475097656 0,-177.82899475097656z M52.314998626708984,88.75399780273438 C52.314998626708984,117.25700378417969 28.8439998626709,140.45199584960938 0,140.45199584960938 C-28.84600067138672,140.45199584960938 -52.32099914550781,116.98799896240234 -52.32099914550781,88.13700103759766 C-52.32099914550781,88.13700103759766 -52.32099914550781,-88.13700103759766 -52.32099914550781,-88.13700103759766 C-52.32099914550781,-116.98799896240234 -28.851999282836914,-140.45700073242188 0,-140.45700073242188 C28.850000381469727,-140.45700073242188 52.32099914550781,-116.98799896240234 52.314998626708984,-88.13700103759766 C52.314998626708984,-88.13700103759766 52.314998626708984,88.75399780273438 52.314998626708984,88.75399780273438z"></path>
            </g>
            <g opacity="1" transform="matrix(1,0,0,1,256,451.27099609375)">
                <path fill="rgb(255,255,255)" fill-opacity="1"
                    d=" M-18.68600082397461,-42.04399871826172 C-18.68600082397461,-42.04399871826172 18.68600082397461,-42.04399871826172 18.68600082397461,-42.04399871826172 C18.68600082397461,-42.04399871826172 18.68600082397461,42.04399871826172 18.68600082397461,42.04399871826172 C18.68600082397461,42.04399871826172 -18.68600082397461,42.04399871826172 -18.68600082397461,42.04399871826172 C-18.68600082397461,42.04399871826172 -18.68600082397461,-42.04399871826172 -18.68600082397461,-42.04399871826172z"></path>
            </g>
            <g opacity="1" transform="matrix(1,0,0,1,256,493.3139953613281)">
                <path fill="rgb(255,255,255)" fill-opacity="1"
                    d=" M49.207000732421875,-18.68600082397461 C49.207000732421875,-18.68600082397461 -49.207000732421875,-18.68600082397461 -49.207000732421875,-18.68600082397461 C-59.52799987792969,-18.68600082397461 -67.89299774169922,-10.321000099182129 -67.89299774169922,0.0010000000474974513 C-67.89299774169922,10.321000099182129 -59.52799987792969,18.68600082397461 -49.207000732421875,18.68600082397461 C-49.207000732421875,18.68600082397461 49.207000732421875,18.68600082397461 49.207000732421875,18.68600082397461 C59.52799987792969,18.68600082397461 67.89299774169922,10.321000099182129 67.89299774169922,0.0010000000474974513 C67.89299774169922,-10.321000099182129 59.52799987792969,-18.68600082397461 49.207000732421875,-18.68600082397461z"></path>
            </g>
            <g opacity="1" transform="matrix(1,0,0,1,256,331.6780090332031)">
                <path fill="rgb(255,255,255)" fill-opacity="1"
                    d=" M141.39199829101562,-96.85600280761719 C131.07200622558594,-96.85600280761719 122.70600128173828,-88.49099731445312 122.70600128173828,-78.16999816894531 C122.70600128173828,-78.16999816894531 122.70600128173828,-63.22100067138672 122.70600128173828,-63.22100067138672 C122.70600128173828,4.435999870300293 67.65799713134766,59.48500061035156 0,59.48500061035156 C-67.66200256347656,59.48500061035156 -122.70600128173828,4.435999870300293 -122.70600128173828,-63.22100067138672 C-122.70600128173828,-63.22100067138672 -122.70600128173828,-78.16999816894531 -122.70600128173828,-78.16999816894531 C-122.70600128173828,-88.49099731445312 -131.07000732421875,-96.85600280761719 -141.39199829101562,-96.85600280761719 C-151.71200561523438,-96.85600280761719 -160.0780029296875,-88.49099731445312 -160.0780029296875,-78.16999816894531 C-160.0780029296875,-78.16999816894531 -160.0780029296875,-63.22100067138672 -160.0780029296875,-63.22100067138672 C-160.0780029296875,25.04599952697754 -88.26699829101562,96.85700225830078 0,96.85700225830078 C88.26699829101562,96.85700225830078 160.0780029296875,25.04599952697754 160.0780029296875,-63.22100067138672 C160.0780029296875,-63.22100067138672 160.0780029296875,-78.16999816894531 160.0780029296875,-78.16999816894531 C160.0780029296875,-88.48999786376953 151.71299743652344,-96.85600280761719 141.39199829101562,-96.85600280761719z"></path>
            </g>
        </g>
    </g>
</svg>