<svg width="46" height="48" viewBox="0 0 46 48" fill="none" xmlns="http://www.w3.org/2000/svg">
<path fill-rule="evenodd" clip-rule="evenodd" d="M39.8503 32.1256C39.6798 34.9105 39.5446 37.1205 39.2673 38.8857C38.983 40.6961 38.5279 42.2037 37.6175 43.5224C36.7846 44.7288 35.7123 45.747 34.4687 46.5121C33.1095 47.3485 31.5916 47.7143 29.785 47.8892L16.1723 47.8889C14.3637 47.7137 12.8441 47.3472 11.4839 46.5093C10.2395 45.7427 9.16686 44.7227 8.33428 43.5144C7.42417 42.1935 6.97045 40.6836 6.68826 38.8707C6.41309 37.1029 6.28083 34.8899 6.11416 32.1011L4.66699 7.88922H41.3337L39.8503 32.1256ZM17.4448 37.2469C16.5243 37.2469 15.7781 36.5007 15.7781 35.5802L15.7781 22.2469C15.7781 21.3264 16.5243 20.5802 17.4448 20.5802C18.3652 20.5802 19.1114 21.3264 19.1114 22.2469L19.1114 35.5802C19.1114 36.5007 18.3652 37.2469 17.4448 37.2469ZM30.2225 22.2469C30.2225 21.3264 29.4764 20.5802 28.5559 20.5802C27.6354 20.5802 26.8892 21.3264 26.8892 22.2469V35.5802C26.8892 36.5007 27.6354 37.2469 28.5559 37.2469C29.4764 37.2469 30.2225 36.5007 30.2225 35.5802V22.2469Z" fill="white"/>
<path fill-rule="evenodd" clip-rule="evenodd" d="M25.9945 0.184268C27.2503 0.296582 28.4306 0.679799 29.444 1.4357C30.1936 1.99473 30.7144 2.67906 31.1592 3.42017C31.5715 4.10696 31.9865 4.96322 32.4573 5.93457L33.4056 7.89079H43.0005C44.2278 7.89079 45.2228 8.88572 45.2228 10.113C45.2228 11.3403 44.2278 12.3352 43.0005 12.3352C29.6667 12.3352 16.3343 12.3352 3.00054 12.3352C1.77324 12.3352 0.77832 11.3403 0.77832 10.113C0.77832 8.88572 1.77324 7.89079 3.00054 7.89079H12.8L13.5907 6.15625C14.0497 5.14913 14.4539 4.26217 14.86 3.55043C15.298 2.78271 15.8166 2.07226 16.5752 1.49024C17.6012 0.70313 18.8053 0.304087 20.0893 0.1872C21.0559 0.0991976 22.0304 0.11131 23.0005 0.112869C24.1356 0.114694 25.156 0.109272 25.9945 0.184268ZM17.6845 7.89079H28.4665C27.9629 6.85214 27.6405 6.19382 27.3485 5.70745C26.9213 4.99561 26.4093 4.68355 25.5986 4.61104C25.0224 4.55951 24.2715 4.55746 23.0773 4.55746C21.8532 4.55746 21.0827 4.55958 20.4922 4.61334C19.6609 4.68902 19.1425 5.01297 18.7203 5.75292C18.4437 6.23783 18.1425 6.88694 17.6845 7.89079Z" fill="white"/>
</svg>
