<svg width="335" height="260" viewBox="0 0 335 260" fill="none" xmlns="http://www.w3.org/2000/svg">
<g clip-path="url(#clip0_363_18268)">
<path d="M203.32 258.203C203.32 258.203 236.179 242.014 241.828 233.571C247.478 225.128 239.18 224.65 239.18 224.65C239.18 224.65 253.844 210.4 251.78 204.403C249.717 198.405 242.121 203.905 242.121 203.905C242.121 203.905 251.551 182.934 247.105 180.826C238.825 176.899 227.208 199.463 227.208 199.463C227.208 199.463 229.704 189.66 224.002 189.98C215.404 190.46 215.758 212.632 215.758 212.632C215.758 212.632 214.787 204.131 209.604 206.892C200.298 211.847 203.32 258.203 203.32 258.203Z" fill="#355389"/>
<path d="M207.728 203.462C211.776 201.219 215.807 207.777 215.807 207.777C215.807 207.777 215.399 190.46 223.997 189.98C229.7 189.66 227.203 199.463 227.203 199.463C227.203 199.463 238.82 176.899 247.101 180.826L203.284 257.841C202.975 252.464 199.711 207.908 207.728 203.462Z" fill="#466EB6"/>
<path d="M204.172 258.401C204.172 258.401 231.045 261.736 238.003 258.764C244.961 255.791 239.975 252.12 239.975 252.12C239.975 252.12 254.917 249.187 256.07 244.607C257.222 240.028 250.33 240.393 250.33 240.393C250.33 240.393 264.655 231.125 262.74 228.004C259.172 222.193 242.75 231.55 242.75 231.55C242.75 231.55 248.294 226.45 244.608 224.333C239.048 221.142 230.254 235.117 230.254 235.117C230.254 235.117 230.8 231.672 226.444 231.291C218.628 230.606 204.172 258.401 204.172 258.401Z" fill="#355389"/>
<path d="M226.267 228.789C230.622 229.17 230.253 235.118 230.253 235.118C230.253 235.118 239.206 218.554 244.766 221.745C248.452 223.862 244.091 230.812 244.091 230.812C244.091 230.812 259.171 222.195 262.739 228.006L204.09 258.254C206.083 254.774 218.966 228.149 226.267 228.789Z" fill="#466EB6"/>
<path d="M133.923 257.356C133.923 257.356 101.065 241.167 95.4131 232.725C89.7616 224.282 98.0614 223.804 98.0614 223.804C98.0614 223.804 83.3969 209.554 85.4608 203.556C87.5247 197.558 95.2224 203.29 95.2224 203.29C95.2224 203.29 85.6885 182.087 90.1377 179.979C98.418 176.053 110.033 198.617 110.033 198.617C110.033 198.617 107.537 188.814 113.24 189.133C121.838 189.613 121.483 211.785 121.483 211.785C121.483 211.785 122.454 203.284 127.637 206.047C136.945 211 133.923 257.356 133.923 257.356Z" fill="#355389"/>
<path d="M129.516 202.616C125.467 200.372 121.437 206.931 121.437 206.931C121.437 206.931 121.845 189.613 113.246 189.133C107.544 188.814 110.04 198.617 110.04 198.617C110.04 198.617 98.4249 176.053 90.1445 179.979L133.954 256.989C134.269 251.618 137.533 207.066 129.516 202.616Z" fill="#466EB6"/>
<path d="M133.073 257.557C133.073 257.557 106.2 260.891 99.2425 257.92C92.2845 254.95 97.2704 251.277 97.2704 251.277C97.2704 251.277 82.3287 248.345 81.1776 243.759C80.0265 239.172 87.1574 239.629 87.1574 239.629C87.1574 239.629 72.5901 230.28 74.5057 227.154C78.0738 221.355 94.4949 230.705 94.4949 230.705C94.4949 230.705 88.9512 225.603 92.6376 223.488C98.1973 220.295 106.993 234.27 106.993 234.27C106.993 234.27 106.446 230.825 110.801 230.444C118.617 229.761 133.073 257.557 133.073 257.557Z" fill="#355389"/>
<path d="M110.342 225.779C105.985 226.162 106.054 230.388 106.054 230.388C106.054 230.388 98.0366 217.707 92.477 220.898C88.7906 223.015 93.1514 229.965 93.1514 229.965C93.1514 229.965 78.072 221.355 74.5039 227.158L133.155 257.407C131.16 253.926 117.641 225.14 110.342 225.779Z" fill="#466EB6"/>
<path d="M289.996 178.688C290.805 176.748 291.628 174.797 293.725 173.812C295.422 173.015 297.196 173.315 298.704 174.449C302.978 177.66 299.255 181.198 304.119 187.286C305.63 189.179 307.461 190.707 308.367 192.931C309.634 196.034 308.125 197.518 305.704 199.012C294.124 206.123 288.049 191.52 288.272 188.181C288.439 185.688 289.476 179.941 289.996 178.688Z" fill="#13375B"/>
<path d="M283.026 243.44C283.417 245.181 283.949 246.887 284.615 248.542C284.674 248.669 285.207 249.124 285.27 249.248C285.094 252.423 283.152 254.376 281.298 255.775C281.651 254.164 282.507 252.3 282.377 251.948C281.636 249.781 280.731 247.673 279.672 245.642C281.247 245.423 281.775 244.446 283.026 243.44Z" fill="#F7A491"/>
<path d="M290.173 205.71L300.032 213.191C300.032 213.191 295.15 217.884 293.323 219.627C291.496 221.369 280.196 229.491 280.036 229.892C279.917 230.188 282.606 239.523 284.34 244.507C283.298 245.565 281.003 246.613 279.646 246.957C276.228 240.441 272.027 229.316 272.027 227.81C272.022 225.351 290.173 205.71 290.173 205.71Z" fill="#355389"/>
<path d="M317.825 220.635C317.503 220.949 315.364 225.114 314.548 227.339C313.356 226.589 312.636 225.695 311.305 225.19C312.355 223.671 314.403 220.014 314.573 219.145C314.972 217.081 315.441 216.777 315.441 216.777C315.441 216.777 322.366 219.118 322.828 219.776C323.291 220.434 319.121 219.374 317.825 220.635Z" fill="#F7A491"/>
<path d="M314.494 219.609C313.964 219.609 314.54 217.183 314.67 216.624C314.81 215.996 315.173 215.807 315.263 215.784C315.509 215.724 323.208 218.326 324.508 219.261C324.611 219.352 324.701 219.456 324.778 219.57C325.484 220.896 319.144 221.149 318.231 220.568C317.412 220.053 316.911 219.602 314.494 219.609Z" fill="#3C8F7C"/>
<path d="M288.066 207.918L296.672 204.444C296.636 204.458 296.723 204.797 296.73 204.82C297.537 207.958 301.85 206.748 303.615 212.201C304.871 216.054 306.709 230.462 306.709 230.462C306.709 230.462 308.012 227.993 312.06 223.427C312.374 223.074 316.362 225.812 316.362 225.812C313.396 233.669 306.114 240.053 305.127 239.602C298.464 236.547 290.46 212.448 290.473 212.45C289.719 210.975 288.066 207.918 288.066 207.918Z" fill="#466EB6"/>
<path d="M287.75 182.557C287.75 182.557 283.714 176.173 283.012 174.049C282.309 171.925 283.012 161.812 283.073 161.092C283.135 160.372 285.579 158.409 285.192 157.844C284.805 157.28 281.442 156.818 280.875 156.929C280.309 157.04 279.212 156.929 278.757 157.393C278.698 157.453 279.828 160.115 279.804 160.527C279.643 163.35 278.038 172.32 278.568 174.747C279.172 177.536 285.164 186.454 285.164 186.454L287.75 182.557Z" fill="#F7A491"/>
<path d="M302.406 186.275C302.406 186.275 313.202 186.543 315.572 186.737C317.941 186.931 326.543 186.208 326.871 186.178C327.2 186.148 329.408 182.412 329.774 182.812C330.139 183.213 328.548 184.661 329.041 185.037C329.534 185.412 334.823 184.571 334.752 184.961C334.622 185.693 331.536 185.599 331.537 185.952C331.539 186.305 334.768 185.755 334.987 186.34C335.206 186.926 331.883 186.578 331.749 186.84C331.615 187.101 334.832 187.58 334.504 188.126C334.327 188.422 331.656 187.632 331.668 188.036C331.68 188.44 333.63 189.357 333.389 189.678C333.149 189.999 331.861 188.692 330.731 188.676C329.601 188.66 328.789 188.069 326.988 188.565C325.187 189.061 319.043 191.535 315.185 191.354C311.327 191.172 302.826 190.793 302.826 190.793L302.406 186.275Z" fill="#F7A491"/>
<path d="M286.559 197.54C286.412 195.76 286.164 190.959 286.245 190.37C285.715 188.521 283.741 185.783 283.328 185.007C283.328 185.007 285.994 181.989 287.971 182.008C287.971 182.008 290.074 184.654 291.635 185.474C291.658 185.474 292.188 185.709 292.421 185.709C293.927 185.698 299.193 185.532 300.175 185.831L299.619 193.961C299.336 194.427 298.992 203.776 298.409 204.545C297.827 205.315 289.35 208.818 287.945 207.913C287.89 207.885 286.852 201.136 286.559 197.54Z" fill="#50BFA5"/>
<path d="M297.43 186.026C298.401 185.562 305.496 185.578 305.496 185.578C305.496 185.578 306.48 190.468 305.685 191.645C305.685 191.645 299.4 192.578 299.58 193.093L297.43 186.026Z" fill="#50BFA5"/>
<path d="M295.856 182.723C295.856 182.723 295.31 185.545 295.42 186.656C295.529 187.768 295.003 191.354 292.646 191.366C290.289 191.379 292.199 186.808 292.422 185.721C292.644 184.635 292.695 181.255 292.695 181.255L295.856 182.723Z" fill="#F7A491"/>
<path d="M292.645 182.943C292.68 182.02 292.692 181.249 292.692 181.249L295.854 182.722C295.854 182.722 295.743 183.299 295.63 184.034C294.246 184.31 293.243 183.798 292.645 182.943Z" fill="#F47458"/>
<path d="M297.01 174.937C297.804 175.428 298.396 176.187 298.68 177.077C299.125 178.539 298.618 182.314 295.472 183.226C292.326 184.138 290.963 181.148 291.611 178.816C292.259 176.484 293.66 173.512 297.01 174.937Z" fill="#F7A491"/>
<path d="M291.209 177.903C291.271 178.531 291.617 179.01 291.984 178.975C292.351 178.94 292.596 178.4 292.535 177.772C292.473 177.144 292.127 176.664 291.76 176.701C291.392 176.738 291.147 177.275 291.209 177.903Z" fill="#F7A491"/>
<path d="M284.642 248.62C284.818 248.114 286.882 249.634 287.366 249.939C287.912 250.292 287.965 250.689 287.956 250.783C287.929 251.028 283.044 257.486 281.582 258.402C281.417 258.48 281.232 258.504 281.053 258.47C280.212 258.179 281.383 253.002 282.437 251.943C283.124 251.264 283.826 250.892 284.642 248.62Z" fill="#3C8F7C"/>
<path d="M302.566 152.173L293.899 155.251C293.681 155.329 293.486 155.458 293.329 155.628C293.172 155.798 293.06 156.003 293 156.227L290.629 165.13C290.56 165.386 290.421 165.619 290.227 165.801C290.033 165.982 289.792 166.106 289.531 166.158C289.27 166.21 289 166.187 288.751 166.094C288.503 166 288.285 165.838 288.124 165.627L282.511 158.315C282.37 158.132 282.187 157.986 281.978 157.889C281.768 157.792 281.538 157.748 281.307 157.759L272.126 158.238C271.86 158.251 271.596 158.19 271.363 158.061C271.13 157.932 270.937 157.741 270.807 157.509C270.677 157.276 270.615 157.013 270.626 156.747C270.638 156.481 270.724 156.224 270.874 156.004L276.074 148.406C276.204 148.216 276.287 147.996 276.313 147.767C276.34 147.537 276.311 147.304 276.227 147.089L272.922 138.48C272.827 138.232 272.802 137.963 272.852 137.702C272.901 137.441 273.023 137.199 273.203 137.004C273.383 136.808 273.614 136.667 273.87 136.596C274.127 136.525 274.397 136.527 274.653 136.601L283.48 139.218C283.701 139.284 283.935 139.295 284.162 139.25C284.389 139.206 284.601 139.106 284.78 138.96L291.923 133.162C292.13 132.994 292.379 132.888 292.643 132.855C292.908 132.822 293.176 132.863 293.417 132.975C293.659 133.086 293.865 133.263 294.011 133.485C294.157 133.708 294.238 133.966 294.245 134.232L294.499 143.448C294.505 143.679 294.568 143.905 294.681 144.107C294.794 144.309 294.955 144.48 295.149 144.607L302.869 149.631C303.092 149.776 303.27 149.981 303.382 150.223C303.495 150.464 303.538 150.732 303.506 150.996C303.475 151.26 303.37 151.51 303.204 151.718C303.038 151.926 302.817 152.084 302.566 152.173Z" fill="#F7CC7F"/>
<path d="M285.135 157.932C285.458 158.407 283.707 159.91 283.221 160.74L282.121 159.243C282.663 159.137 284.766 157.39 285.135 157.932Z" fill="#F7A491"/>
<path d="M296.641 174.747C296.641 174.747 297.211 178.958 298.583 179.718C299.955 180.478 299.374 182.347 299.374 182.347C299.374 182.347 300.61 178.009 299.533 176.615C298.456 175.222 296.641 174.747 296.641 174.747Z" fill="#13375B"/>
<path d="M297.766 180.323C297.395 180.872 297.397 181.519 297.766 181.768C298.135 182.016 298.739 181.768 299.108 181.226C299.477 180.685 299.475 180.03 299.108 179.781C298.74 179.533 298.135 179.774 297.766 180.323Z" fill="#F7A491"/>
<path d="M282.488 158.285C282.488 158.296 282.506 158.305 282.513 158.315L282.912 158.836C282.619 158.756 282.061 158.597 281.516 158.97C281.516 158.97 281.696 158.585 282.488 158.285Z" fill="#F47257"/>
<path d="M45.6342 205.083C45.7401 205.127 44.2218 207.073 42.7599 208.447C41.5735 209.934 40.4647 211.695 40.0781 213.614C39.4972 216.533 39.981 230.951 39.4743 231.978C35.1222 236.229 31.969 246.9 31.0845 250.147C30.9121 250.782 30.5631 251.354 30.0781 251.799L30.2723 255.478L32.4386 257.475C32.4386 257.475 31.9566 254.476 32.9189 252.254C32.9189 252.254 43.8775 235.672 44.5272 234.405C45.7631 230.796 50.2969 212.302 50.2969 212.302L51.3563 208.05L45.6342 205.083Z" fill="#F7A491"/>
<path d="M27.707 252.99C27.707 252.99 29.0771 255.107 29.1936 255.92C29.3101 256.733 30.0393 258.603 30.8461 258.721C31.0227 258.748 34.1653 258.979 34.1424 258.587C34.1247 258.287 32.9895 257.86 32.4616 257.495C31.5506 256.867 30.1364 251.746 30.1364 251.746C30.1364 251.746 27.7671 252.334 27.707 252.99Z" fill="#F47458"/>
<path d="M54.9991 211.477C54.9991 211.477 62.0613 226.556 62.1036 229.207C62.1425 231.479 60.8678 244.23 61.2209 254.848C61.2332 255.232 61.7205 255.74 62.4267 256.065C62.8257 256.241 64.7466 257.106 64.7466 257.106L65.0115 257.792L58.3907 257.319L58.2954 255.513C58.2954 255.513 55.6612 239.636 55.9296 235.138C55.972 234.432 56.3145 230.198 56.3145 230.198L48.3555 214.842L53.3607 208.27L54.9991 211.477Z" fill="#F7A491"/>
<path d="M55.6634 177.629C54.6041 174.782 51.8005 173.057 48.8909 173.59C48.446 172.873 47.8633 172.252 47.1766 171.762C46.4899 171.272 45.7128 170.923 44.8902 170.735C41.6964 170.051 37.3761 171.312 37.4926 174.692C36.2568 176.962 36.2056 180.208 38.1017 181.935C37.4414 184.989 40.3033 187.933 44.0233 187.832C45.3192 189.969 47.7874 191.341 50.2415 191.048C50.8312 190.978 51.7298 190.831 51.8781 190.872C51.691 190.838 55.8206 194.001 59.3216 189.136C62.8915 184.167 60.3827 178.158 55.6634 177.629Z" fill="#355389"/>
<path d="M55.2406 160.552C55.4131 160.144 55.6261 159.755 55.8762 159.389L56.1516 158.987C56.1852 158.915 56.2117 158.855 56.2258 158.811C56.3458 158.458 56.254 157.308 56.254 157.308L53.8406 157.892L53.3109 159.285C52.7724 159.036 51.8543 157.168 51.5207 157.618C51.1234 158.147 52.6153 160.441 52.7336 161.063C52.8519 161.686 51.45 171.334 51.0457 173.249C50.6414 175.165 47.9102 180.514 47.9102 180.514L50.4084 183.689C50.4084 183.689 54.4144 175.534 54.6774 173.043C54.7057 172.782 54.7374 172.39 54.771 171.905L55.2406 160.552Z" fill="#F7A491"/>
<path d="M38.5966 190.765L35.6287 188.251C35.6287 188.251 33.2258 192.253 31.3014 195.517C29.3911 194.827 24.4582 191.615 24.2146 191.46C23.9709 191.304 23.4307 187.679 23.0122 187.871C22.5938 188.064 23.3336 189.789 22.8269 189.918C22.3202 190.047 18.5207 187.51 18.4431 187.849C18.2965 188.484 20.71 189.493 20.5882 189.777C20.4664 190.061 18.1623 188.482 17.7951 188.875C17.4279 189.269 20.1097 190.159 20.1238 190.415C20.138 190.671 17.495 189.927 17.5638 190.48C17.6027 190.78 19.9296 191.084 19.7831 191.405C19.6366 191.726 17.8234 191.777 17.8993 192.11C17.9752 192.444 19.4123 191.855 20.2898 192.239C21.1673 192.624 21.9918 192.435 23.217 193.474C24.4423 194.513 30.4557 200.391 32.336 199.886C33.9726 199.454 38.5966 190.765 38.5966 190.765Z" fill="#F7A491"/>
<path d="M48.9193 187.025C49.11 185.866 50.9056 182.968 51.188 182.253C51.188 182.253 49.1065 179.607 47.4169 179.81C47.4169 179.81 45.1464 183.571 43.854 183.691C42.5617 183.811 38.0278 184.014 37.2262 184.495C36.4247 184.977 33.0508 190.161 33.0508 190.161C33.0508 190.161 36.0875 193.259 37.3075 193.252C37.3075 193.252 37.9572 191.975 38.2167 191.696C38.3933 192.289 41.2287 201.444 41.2181 203.515L41.2411 203.533C41.8657 204.041 42.5873 204.417 43.3619 204.637C44.1365 204.858 44.9479 204.919 45.7467 204.816C46.5456 204.713 47.3152 204.45 48.0088 204.04C48.7023 203.631 49.3052 203.085 49.7809 202.436C49.6395 200.61 49.6047 198.779 49.6768 196.949C49.8957 192.837 50.7308 190.645 48.9193 187.025Z" fill="#F47458"/>
<path d="M63.6385 222.445L49.7844 202.446C48.9554 202.806 48.0924 203.082 47.2085 203.27C45.2223 203.653 43.2343 203.591 41.2216 203.526C41.2222 203.591 41.2187 203.657 41.211 203.722C40.9798 205.371 38.7905 207.924 38.3403 212.927C37.8283 218.605 38.1373 228.47 38.3103 229.117C47.521 227.999 61.0256 225.185 63.6385 222.445Z" fill="#466EB6"/>
<path d="M55.5678 159.048C55.5678 159.048 54.6974 159.631 53.9576 159.444C53.5713 159.361 53.2048 159.204 52.8789 158.981C52.8789 158.981 53.2867 159.726 53.8906 160.05C54.9251 160.608 55.5678 159.048 55.5678 159.048Z" fill="#F47458"/>
<path d="M38.3816 154.923L46.4377 153.263C46.6413 153.222 46.8521 153.232 47.0505 153.294C47.249 153.356 47.4286 153.466 47.5729 153.616L53.4627 159.599C53.6327 159.77 53.8484 159.889 54.0841 159.941C54.3197 159.993 54.5654 159.977 54.7918 159.893C55.0182 159.81 55.2158 159.663 55.3611 159.47C55.5064 159.278 55.5933 159.048 55.6113 158.807L56.5718 150.301C56.594 150.09 56.6663 149.888 56.7827 149.711C56.8991 149.534 57.0562 149.387 57.2409 149.283L64.5061 145.3C64.7173 145.178 64.8918 145.002 65.011 144.789C65.1302 144.577 65.1898 144.336 65.1835 144.093C65.1772 143.849 65.1052 143.612 64.9751 143.406C64.8449 143.2 64.6616 143.033 64.4443 142.922L56.9796 139.327C56.7897 139.234 56.625 139.096 56.4996 138.925C56.3742 138.755 56.2918 138.557 56.2593 138.348L54.861 129.896C54.8302 129.657 54.7313 129.432 54.576 129.247C54.4207 129.063 54.2156 128.927 53.9851 128.855C53.7546 128.784 53.5084 128.78 53.2759 128.845C53.0433 128.909 52.8342 129.039 52.6735 129.219L47.1015 135.504C46.9651 135.66 46.7916 135.78 46.5969 135.851C46.4022 135.923 46.1926 135.944 45.9875 135.913L37.866 134.679C36.8226 134.52 36.0599 135.677 36.5754 136.637L40.592 144.118C40.6931 144.307 40.7486 144.517 40.7542 144.732C40.7597 144.946 40.715 145.159 40.6238 145.353L36.9992 153.035C36.5278 154.02 37.3487 155.136 38.3816 154.923Z" fill="#F7CC7F"/>
<path d="M41.5156 180.363C41.5156 180.363 42.0029 182.985 41.9058 184.018C41.8087 185.052 42.2766 188.386 44.3775 188.397C46.4785 188.407 44.7766 184.163 44.5788 183.147C44.3811 182.131 44.3334 178.996 44.3334 178.996L41.5156 180.363Z" fill="#F7A491"/>
<path d="M44.3807 180.57C44.3472 179.711 44.3366 178.996 44.3366 178.996L41.5117 180.363C41.5117 180.363 41.6106 180.892 41.7112 181.582C42.9506 181.84 43.8457 181.365 44.3807 180.57Z" fill="#F47458"/>
<path d="M40.4842 173.128C39.7693 173.594 39.2431 174.299 38.9994 175.116C38.6021 176.476 39.0541 179.985 41.8631 180.832C44.672 181.678 45.8885 178.891 45.3094 176.727C44.7303 174.562 43.4732 171.803 40.4842 173.128Z" fill="#F7A491"/>
<path d="M45.66 175.885C45.6053 176.469 45.2946 176.915 44.9679 176.882C44.6413 176.848 44.4224 176.353 44.4771 175.763C44.5319 175.174 44.8408 174.735 45.1675 174.768C45.4941 174.802 45.7148 175.301 45.66 175.885Z" fill="#F7A491"/>
<path d="M39.8073 178.135C40.1374 178.645 40.1357 179.247 39.8073 179.48C39.4789 179.712 38.9404 179.48 38.6102 178.975C38.2801 178.47 38.2818 177.864 38.6102 177.631C38.9386 177.398 39.4771 177.624 39.8073 178.135Z" fill="#F7A491"/>
<path d="M55.9692 155.847C55.4237 155.741 53.1179 157.55 53.1444 157.819C53.1708 158.089 55.4148 156.937 55.4784 157.128C55.5296 157.273 52.9607 157.945 53.0949 158.202C53.1867 158.379 55.4907 157.894 55.5525 158.006C55.6479 158.183 53.6299 158.257 53.7605 158.453C53.9106 158.679 55.8333 158.585 55.8333 158.585C55.8333 158.585 56.2199 157.964 56.2587 157.731C56.2767 157.599 56.2796 157.465 56.2676 157.333C56.2676 157.206 56.317 157.094 56.2994 156.952C56.2217 156.369 56.2729 155.909 55.9692 155.847Z" fill="#F7A491"/>
<path d="M52.8941 157.23L52.0361 158.288L51.4711 157.866C51.4567 157.828 51.4509 157.787 51.4539 157.746C51.457 157.705 51.4688 157.666 51.4888 157.63C51.5559 157.485 52.8765 156.838 52.8941 157.23Z" fill="#F7A491"/>
<path d="M58.3735 258.576H66.7368C67.0457 258.548 67.1199 258.299 67.014 258.146C66.7933 257.828 65.8169 257.596 64.7188 257.088C62.7961 257.289 58.6065 255.974 58.3028 255.535C58.1298 256.422 58.2004 258.539 58.3735 258.576Z" fill="#F47458"/>
<path d="M52.1004 158.216C52.1004 158.216 53.2356 158.909 53.7052 159.717C53.8432 159.935 53.9365 160.178 53.9799 160.433C54.0232 160.687 54.0157 160.947 53.9577 161.199L52.0156 158.809L52.1004 158.216Z" fill="#F7A491"/>
<path d="M218.313 63.6895C218.11 64.6385 217.928 65.6193 217.43 66.4131C216.581 67.4387 215.777 68.4971 215.018 69.5884C215.548 69.5514 216.069 69.5267 216.607 69.5267C221.844 69.5267 226.717 71.3701 230.329 74.7165C233.558 77.7066 235.334 81.5399 235.334 85.509C235.334 89.4781 233.558 93.3114 230.329 96.3032C226.717 99.6549 221.844 101.491 216.607 101.491C211.371 101.491 206.521 99.6585 202.914 96.3279C202.651 97.1059 202.384 97.8785 202.126 98.6547C200.361 99.5491 199.125 101.654 199.125 104.111C199.125 107.378 201.32 110.028 204.026 110.028C206.155 110.028 207.963 108.385 208.639 106.097C211.211 106.952 213.903 107.386 216.613 107.383C229.651 107.383 240.223 97.5892 240.223 85.509C240.216 73.9527 230.555 64.5009 218.313 63.6895Z" fill="#E0973F"/>
<path d="M112.433 63.6895C112.634 64.6385 112.818 65.6193 113.316 66.4131C114.163 67.4387 114.967 68.4971 115.727 69.5884C115.198 69.5514 114.668 69.5267 114.138 69.5267C108.902 69.5267 104.027 71.3701 100.417 74.7165C97.1876 77.7066 95.4097 81.5399 95.4097 85.509C95.4097 89.4781 97.1893 93.3026 100.411 96.2944C104.022 99.6461 108.897 101.482 114.133 101.482C119.37 101.482 124.218 99.6496 127.827 96.3191C128.09 97.0971 128.356 97.8697 128.612 98.6459C130.378 99.5403 131.614 101.645 131.614 104.102C131.614 107.369 129.419 110.019 126.711 110.019C124.581 110.019 122.775 108.376 122.099 106.088C119.528 106.943 116.836 107.377 114.126 107.374C101.088 107.374 90.5156 97.5804 90.5156 85.5002C90.5245 73.9527 100.191 64.5009 112.433 63.6895Z" fill="#E0973F"/>
<path d="M221.712 61.1982V67.2384C221.712 94.53 199.564 116.66 172.249 116.66C159.668 116.484 151.036 117.793 139.091 112.509C121.879 104.968 109.488 87.6872 109.488 67.2384V61.1982H221.712Z" fill="#F7CC7F"/>
<path d="M139.092 112.513L139.129 112.529L156.91 61.1953H138.4L124.148 102.344C128.463 106.62 133.529 110.068 139.092 112.513Z" fill="#FAE0B2"/>
<path d="M150.656 115.972L169.418 61.1982H160.119L142.125 113.748C144.889 114.766 147.746 115.512 150.656 115.972Z" fill="#FAE0B2"/>
<path d="M122.343 100.466L136.374 61.1982H131.96L119.266 96.7262C120.231 98.0246 121.257 99.2712 122.343 100.466Z" fill="#FAE0B2"/>
<path d="M216.811 57.7764H114.668C110.941 57.7764 107.901 59.8491 107.688 62.4599H223.792C223.577 59.8491 220.538 57.7764 216.811 57.7764Z" fill="#F7CC7F"/>
<path d="M146.633 115.216L152.411 144.857H177.683L184.844 115.216H146.633Z" fill="#F7CC7F"/>
<path d="M184.848 115.217L183.233 121.906H147.941L146.637 115.217H184.848Z" fill="#B75742"/>
<path d="M184.848 181.53H146.637L149.5 166.816L152.412 151.885H177.689L181.296 166.816L184.848 181.53Z" fill="#F7CC7F"/>
<path d="M184.848 181.529H146.637L149.5 166.815H181.296L184.848 181.529Z" fill="#B75742"/>
<path d="M147.98 144.858H182.118C182.477 144.857 182.832 144.927 183.163 145.064C183.495 145.2 183.796 145.401 184.05 145.654C184.304 145.907 184.506 146.207 184.643 146.538C184.78 146.869 184.851 147.224 184.851 147.582V149.159C184.851 149.518 184.78 149.872 184.643 150.203C184.506 150.534 184.304 150.835 184.05 151.088C183.797 151.341 183.495 151.542 183.164 151.679C182.832 151.815 182.477 151.885 182.118 151.885H147.982C147.258 151.885 146.564 151.597 146.053 151.086C145.541 150.575 145.254 149.882 145.254 149.159V147.58C145.254 146.858 145.542 146.166 146.053 145.656C146.564 145.145 147.257 144.858 147.98 144.858Z" fill="#FAE0B2"/>
<path d="M144.107 169.843H186.085C186.506 169.843 186.91 170.01 187.208 170.308C187.506 170.606 187.674 171.009 187.674 171.43V179.531H142.527V171.423C142.529 171.005 142.696 170.604 142.992 170.308C143.288 170.012 143.689 169.845 144.107 169.843Z" fill="#F7CC7F"/>
<path d="M202.578 185.308V188.254H127.613V185.308C127.613 181.916 129.686 179.16 132.239 179.16H197.952C200.505 179.16 202.578 181.916 202.578 185.308Z" fill="#F7CC7F"/>
<path d="M145.261 179.162L142.89 188.254H139.762L142.133 179.162H145.261Z" fill="#FAE0B2"/>
<path d="M140.784 179.162L138.413 188.254H135.281L137.656 179.162H140.784Z" fill="#FAE0B2"/>
<path d="M149.247 179.162L146.876 188.254H143.742L146.119 179.162H149.247Z" fill="#FAE0B2"/>
<path d="M230.385 256.572V260H104.613V256.572C104.613 252.619 108.09 249.412 112.375 249.412H222.622C226.906 249.412 230.385 252.619 230.385 256.572Z" fill="#F7CC7F"/>
<path d="M134.002 249.412L130.453 260H125.773L129.322 249.412H134.002Z" fill="#FAE0B2"/>
<path d="M126.946 249.412L122.895 260H117.543L121.6 249.412H126.946Z" fill="#FAE0B2"/>
<path d="M141.052 249.412L137 260H131.648L135.708 249.412H141.052Z" fill="#FAE0B2"/>
<path d="M197.741 109.613V111.836C197.742 112.75 197.562 113.656 197.212 114.501C196.862 115.345 196.349 116.113 195.702 116.76C195.056 117.407 194.288 117.92 193.442 118.27C192.597 118.62 191.691 118.8 190.776 118.8H140.459C139.543 118.801 138.637 118.621 137.791 118.271C136.945 117.921 136.177 117.408 135.529 116.761C134.882 116.114 134.369 115.347 134.018 114.501C133.668 113.656 133.488 112.751 133.488 111.836V109.613H197.741Z" fill="#F7CC7F"/>
<path d="M213.059 249.378H118.527L119.68 188.256H211.791L213.059 249.378Z" fill="#3C8F7C"/>
<path d="M190.579 249.378H141.008L141.612 188.256H189.915L190.579 249.378Z" fill="#50BFA5"/>
<path d="M220.071 21.627C219.806 22.7083 219.331 24.4177 219.331 24.4177C219.37 24.8887 219.508 26.8433 219.674 29.2406L216.143 27.8294C216.143 27.8294 216.185 23.9237 216.026 23.6838C215.894 23.4827 215.673 23.735 214.589 22.1897C214.278 21.7434 214.22 20.946 214.22 20.946C214.22 20.946 214.155 19.9652 214.375 19.8735C214.479 19.8386 214.592 19.842 214.693 19.8831C214.795 19.9242 214.878 20.0003 214.928 20.0975C215.009 20.2739 214.988 20.662 215.067 20.8314C215.147 21.0007 215.657 21.2053 215.873 21.1948C216.088 21.1842 215.846 18.2929 215.846 18.2929C215.846 18.2929 215.726 17.4744 215.669 17.2045C215.618 16.9769 215.41 16.3066 215.41 16.3066C215.41 16.3066 215.165 15.3328 215.468 15.2587C215.645 15.2146 216.1 16.0049 216.411 16.8464C216.746 17.7496 216.941 18.7075 217.032 18.6951C217.258 18.6651 217.138 17.0792 217.138 17.0792C217.027 16.7318 216.954 16.3734 216.919 16.0102C216.708 15.5904 216.566 14.8124 216.941 14.7472C217.01 14.7366 217.5 15.7244 217.5 15.7244C217.5 15.7244 217.695 16.4212 217.808 16.7476C218.005 17.3209 218.035 18.2276 218.139 18.6281C218.226 18.9615 218.304 18.8239 218.339 18.838C218.336 18.4775 218.311 18.1175 218.263 17.7602C218.265 17.4099 218.238 17.0601 218.184 16.7141C218.106 16.3502 218.055 15.9811 218.032 15.6098C217.972 14.7895 218.489 14.8742 218.667 15.6239C218.734 15.9079 218.807 16.2201 218.877 16.5359C219.156 17.7707 219.148 18.9491 219.28 18.9597C219.457 18.9721 219.338 16.8164 219.338 16.8164C219.338 16.8164 219.603 15.6221 219.868 16.7299C220.055 17.5091 220.145 18.3084 220.136 19.1097C220.113 19.4237 220.334 20.5456 220.071 21.627Z" fill="#F8A492"/>
<path d="M219.842 26.3514C219.842 26.3514 215.868 25.4006 215.831 25.7199C214.996 32.7037 214.622 35.2281 214.479 35.3004C213.998 35.5491 207.616 29.7172 206.477 29.322C205.933 29.1333 205.34 29.165 204.772 29.1809C203.419 29.2215 203.151 29.2268 203.151 29.2268H203.102V30.5004C204.627 31.8711 208.119 52.6393 208.414 52.6269C208.742 52.6111 215.653 54.3469 215.522 53.7647C215.503 53.6712 210.843 49.8609 209.519 44.3641C209.076 42.5171 208.857 40.5308 208.617 38.7915C210.15 39.5588 216.14 42.496 217.092 42.1149C220.051 40.9066 219.842 26.3514 219.842 26.3514Z" fill="#3C8F7C"/>
<path d="M231.727 63.2273C231.727 63.2273 238.148 68.2531 238.363 69.1439C238.672 70.4281 244.551 68.7399 243.13 68.4789C242.803 68.4189 241.76 68.1543 241.674 68.1084C241.215 67.8632 235.494 60.9834 235.494 60.9834L231.727 63.2273Z" fill="#F7A491"/>
<path d="M245.891 68.4789L241.79 68.1455C241.79 68.1455 240.619 69.114 238.366 69.1598C238.144 69.8809 238.079 70.6414 238.177 71.3896C238.207 71.596 238.241 72.2222 238.451 72.2081C239.208 72.157 241.226 71.656 243.525 71.1956C243.525 71.1956 246.617 70.5429 248.402 69.4756C250.187 68.4084 245.891 68.4789 245.891 68.4789Z" fill="#B75742"/>
<path d="M202.956 50.6209C206.256 51.0664 209.609 50.9219 212.858 50.194C218.876 48.7828 225.531 47.488 227.48 48.6205C229.049 49.5307 238.848 64.3205 238.848 64.3205L235.064 67.0813L224.273 55.0081C224.273 55.0081 210.502 60.0833 207.416 59.5206C200.374 58.2451 200.275 52.6267 202.956 50.6209Z" fill="#13375B"/>
<path d="M208.094 47.6367L212.799 53.2235L204.071 55.8801L202.953 50.6215L208.094 47.6367Z" fill="#13375B"/>
<path d="M217.658 73.1533C217.658 73.1533 217.372 80.9151 217.194 82.2276C217.016 83.5401 220.49 87.4757 220.047 86.1085C219.945 85.7927 219.682 84.7502 219.682 84.6532C219.682 84.1328 220.969 75.2808 220.969 75.2808L217.658 73.1533Z" fill="#F7A491"/>
<path d="M222.267 88.9329L219.703 84.7662C219.703 84.7662 218.291 84.1964 217.182 82.2383C216.442 82.3846 215.742 82.6891 215.131 83.1309C214.954 83.2561 213.814 84.0958 213.895 84.2881C214.19 84.9937 215.754 86.5267 217.463 88.1955C217.463 88.1955 219.887 90.1483 221.674 91.2102C223.46 92.2722 222.267 88.9329 222.267 88.9329Z" fill="#B75742"/>
<path d="M225.281 57.8557C223.635 55.6647 210.366 53.5831 210.366 53.5831L206.658 46.4775L198.477 51.5192C198.477 51.5192 199.294 58.025 199.908 59.7626C200.726 62.0788 206.225 62.197 209.584 62.1617C212.673 62.13 218.318 62.7597 218.318 62.7597L216.409 79.587C216.409 79.587 220.161 80.4408 221.217 80.3032C221.351 80.2873 227.325 60.5794 225.281 57.8557Z" fill="#355389"/>
<path d="M203.145 29.25L198.528 29.5075C198.528 29.5075 198.423 29.5393 198.391 29.5464C198.015 29.6152 198.357 43.0572 198.693 48.0689C199.028 53.0806 199.708 55.1974 199.708 55.1974C199.708 55.1974 205.968 54.0878 207.889 53.3417C208.687 53.0329 210.617 50.6215 210.617 50.6215C210.617 50.6215 208.645 47.9754 207.653 43.6711C206.886 40.3529 205.942 34.4716 205.402 33.2438C204.161 30.4231 203.145 29.25 203.145 29.25Z" fill="#9BC1F9"/>
<path d="M198.664 25.4253L198.531 29.4985C198.531 29.4985 201.52 34.6425 203.055 33.9263C204.342 33.3247 203.199 29.4103 203.199 29.4103C203.199 29.4103 202.977 28.5142 202.67 27.4822C202.452 26.7625 202.274 25.9827 202.287 25.4094C202.317 24.0176 198.664 25.4253 198.664 25.4253Z" fill="#F7A491"/>
<path d="M202.284 25.4094C202.315 24.0176 198.663 25.4253 198.663 25.4253L198.648 25.824C198.761 25.9982 198.899 26.1546 199.058 26.2879C200.071 27.0681 201.343 27.4339 202.616 27.3111C202.418 26.6955 202.306 26.0556 202.284 25.4094Z" fill="#F47458"/>
<path d="M202.233 16.1377C202.233 16.1377 203.755 18.431 203.869 20.3608C203.949 21.4523 203.849 22.5494 203.573 23.6084L198.688 17.773L202.233 16.1377Z" fill="#184655"/>
<path d="M204.375 19.9659C204.444 20.6433 204.181 21.2236 203.789 21.2625C203.397 21.3013 203.021 20.7879 202.952 20.1123C202.883 19.4367 203.147 18.8563 203.54 18.8157C203.934 18.7751 204.307 19.2902 204.375 19.9659Z" fill="#F48C7F"/>
<path d="M197.107 18.7081C196.995 18.6834 197.006 24.3019 198.635 25.625C200.265 26.948 203.102 27.0627 203.932 25.7308C204.848 24.2578 203.978 18.3377 201.554 17.087C199.13 15.8362 197.107 18.7081 197.107 18.7081Z" fill="#F7A491"/>
<path d="M196.69 15.2235C195.454 16.3137 194.844 17.1093 194.001 19.048C192.967 21.4312 195.02 23.8991 196.743 24.8799C198.466 25.8607 198.608 27.0479 198.608 27.0479L198.678 26.3159C198.713 26.0925 198.706 25.8645 198.657 25.6438C198.596 25.4383 198.514 25.2397 198.412 25.051C198.265 24.737 197.794 23.6645 197.61 23.3822C197.126 22.6343 197.031 22.4738 197.269 21.7628C197.446 21.2177 197.241 20.0129 197.525 19.1168L199.844 18.6175C199.844 18.6175 201.295 18.2647 202.028 17.425C204.13 14.9942 199.972 12.2916 196.69 15.2235Z" fill="#184655"/>
<path d="M197.823 22.3784C198.107 22.994 198.049 23.6291 197.691 23.7896C197.332 23.9501 196.808 23.5903 196.524 22.9728C196.24 22.3554 196.298 21.7221 196.656 21.5616C197.015 21.4011 197.537 21.7609 197.823 22.3784Z" fill="#F7A491"/>
<path d="M182.027 6.87815C182.29 7.96128 182.767 9.67064 182.767 9.67064C182.728 10.1399 182.59 12.0962 182.424 14.4918L185.955 13.0806C185.955 13.0806 185.913 9.17495 186.07 8.9368C186.204 8.73393 186.423 8.98619 187.507 7.44088C187.819 6.99458 187.878 6.19723 187.878 6.19723C187.878 6.19723 187.943 5.21641 187.722 5.12468C187.618 5.09056 187.505 5.09453 187.404 5.13589C187.302 5.17725 187.219 5.2533 187.168 5.35048C187.089 5.52689 187.11 5.91498 187.03 6.08433C186.951 6.25367 186.441 6.4583 186.225 6.44772C186.01 6.43714 186.252 3.54586 186.252 3.54586C186.252 3.54586 186.372 2.72557 186.428 2.45744C186.481 2.22811 186.69 1.55777 186.69 1.55777C186.69 1.55777 186.933 0.585777 186.631 0.509923C186.455 0.465821 185.999 1.25788 185.688 2.09757C185.353 3.00076 185.159 3.96041 185.067 3.9463C184.841 3.91631 184.961 2.33219 184.961 2.33219C185.072 1.98467 185.145 1.62629 185.18 1.26318C185.392 0.843332 185.533 0.0636205 185.159 0.000114606C185.09 -0.0122338 184.597 0.9774 184.597 0.9774C184.597 0.9774 184.405 1.6742 184.292 1.99878C184.094 2.57386 184.064 3.48059 183.96 3.88103C183.874 4.21267 183.796 4.07684 183.761 4.08918C183.725 4.10153 183.78 3.64112 183.836 3.01135C183.834 2.66106 183.86 2.31115 183.916 1.96526C183.993 1.60138 184.043 1.23227 184.066 0.860972C184.128 0.0406886 183.61 0.125361 183.432 0.875082C183.363 1.16086 183.293 1.47309 183.22 1.78886C182.943 3.0237 182.952 4.20208 182.82 4.2109C182.643 4.22502 182.759 2.06758 182.759 2.06758C182.759 2.06758 182.496 0.875082 182.23 1.98291C182.041 2.76113 181.951 3.56008 181.961 4.36085C181.991 4.67485 181.764 5.79679 182.027 6.87815Z" fill="#F8A492"/>
<path d="M198.528 29.4981C198.528 29.4981 193.952 29.2847 192.771 28.7519C192.056 28.4273 186.175 23.6926 186.175 23.6926L186.24 11.0162L182.105 10.7021C182.105 10.7021 179.96 24.714 180.703 26.247C181.47 27.8346 190.078 34.3528 191.8 37.1841C192.792 38.8141 194.859 60.9829 195.174 61.1752C197.4 62.3342 204.278 63.4914 204.116 62.7875C199.632 43.3777 198.528 29.4981 198.528 29.4981Z" fill="#3C8F7C"/>
<path d="M116.41 86.4865C116.673 87.5679 117.148 89.279 117.148 89.279C117.111 89.7482 116.972 91.7046 116.807 94.1002L120.338 92.6889C120.338 92.6889 120.296 88.7833 120.453 88.5434C120.587 88.3423 120.806 88.5946 121.89 87.0493C122.203 86.6029 122.261 85.8144 122.261 85.8144C122.261 85.8144 122.325 84.8336 122.106 84.7419C122.001 84.7077 121.889 84.7117 121.787 84.7531C121.685 84.7944 121.602 84.8705 121.551 84.9677C121.472 85.1441 121.493 85.5322 121.412 85.7015C121.331 85.8709 120.822 86.0755 120.609 86.0649C120.395 86.0543 120.635 83.163 120.635 83.163C120.635 83.163 120.755 82.3428 120.812 82.0746C120.865 81.8453 121.073 81.175 121.073 81.175C121.073 81.175 121.316 80.2012 121.015 80.1271C120.838 80.083 120.383 80.8751 120.07 81.7148C119.735 82.6179 119.54 83.5776 119.449 83.5635C119.224 83.5335 119.343 81.9494 119.343 81.9494C119.454 81.6021 119.528 81.2436 119.562 80.8804C119.773 80.4605 119.915 79.6808 119.542 79.6173C119.473 79.605 118.981 80.5946 118.981 80.5946C118.981 80.5946 118.788 81.3002 118.675 81.616C118.476 82.191 118.446 83.0978 118.343 83.4964C118.257 83.8299 118.179 83.694 118.144 83.7064C118.109 83.7187 118.163 83.2583 118.218 82.6285C118.246 82.311 118.209 81.9441 118.299 81.5824C118.376 81.2184 118.426 80.8494 118.449 80.4782C118.511 79.6579 117.994 79.7425 117.815 80.4923C117.747 80.778 117.676 81.0885 117.604 81.406C117.326 82.6409 117.335 83.8193 117.201 83.8281C117.024 83.8404 117.143 81.6848 117.143 81.6848C117.143 81.6848 116.878 80.4923 116.613 81.6001C116.424 82.3783 116.334 83.1773 116.345 83.978C116.373 84.2885 116.147 85.4052 116.41 86.4865Z" fill="#F8A492"/>
<path d="M153.833 83.6376C153.57 84.719 153.093 86.4284 153.093 86.4284C153.132 86.8994 153.269 88.8539 153.435 91.2513L149.904 89.84C149.904 89.84 149.947 85.9344 149.79 85.6945C149.655 85.4934 149.437 85.7457 148.352 84.2004C148.04 83.7541 147.982 82.9655 147.982 82.9655C147.982 82.9655 147.916 81.9847 148.137 81.893C148.241 81.8581 148.354 81.8617 148.456 81.9032C148.558 81.9446 148.641 82.0211 148.691 82.1188C148.771 82.2952 148.75 82.6815 148.829 82.8509C148.909 83.0202 149.419 83.2248 149.634 83.2143C149.85 83.2037 149.608 80.3124 149.608 80.3124C149.608 80.3124 149.488 79.4939 149.431 79.2257C149.378 78.9964 149.17 78.3261 149.17 78.3261C149.17 78.3261 148.926 77.3523 149.228 77.2782C149.405 77.2341 149.86 78.0244 150.171 78.8659C150.506 79.7691 150.701 80.727 150.792 80.7146C151.018 80.6846 150.898 79.0987 150.898 79.0987C150.788 78.7547 150.715 78.3999 150.679 78.0403C150.468 77.6205 150.326 76.8407 150.701 76.7755C150.769 76.7649 151.262 77.7545 151.262 77.7545C151.262 77.7545 151.454 78.4496 151.567 78.7759C151.765 79.351 151.795 80.2577 151.899 80.6564C151.986 80.9898 152.064 80.8522 152.099 80.8663C152.134 80.8804 152.078 80.4182 152.023 79.7885C152.026 79.4382 151.999 79.0883 151.944 78.7424C151.867 78.3784 151.816 78.0093 151.792 77.6381C151.732 76.8178 152.249 76.9025 152.427 77.6522C152.496 77.938 152.567 78.2485 152.639 78.566C152.916 79.8008 152.908 80.9774 153.04 80.988C153.216 81.0004 153.1 78.8447 153.1 78.8447C153.1 78.8447 153.363 77.6522 153.63 78.7583C153.819 79.5288 153.912 80.3199 153.905 81.1133C153.868 81.4343 154.096 82.5563 153.833 83.6376Z" fill="#F8A492"/>
<path d="M131.839 96.3318C131.839 96.3318 133.634 94.4407 135.077 96.741C135.396 96.5684 135.768 96.5226 136.119 96.6129C136.47 96.7032 136.774 96.9229 136.97 97.2279C136.97 97.2279 138.979 96.6246 139.466 99.6252C139.466 99.6252 140.501 99.4312 140.637 100.659C140.724 101.377 140.551 102.103 140.149 102.705C140.149 102.705 140.73 103.141 140.467 104.268C140.42 104.531 140.3 104.775 140.119 104.971C139.938 105.167 139.705 105.308 139.447 105.376C139.447 105.376 139.233 106.994 138.53 107.481C137.828 107.967 136.872 107.733 136.872 107.733C136.872 107.733 136.618 108.615 135.799 108.532C134.98 108.449 133.966 107.675 133.048 108.026C132.13 108.377 129.752 108.006 129.752 108.006C129.752 108.006 127.079 106.817 127.879 104.088C127.879 104.088 126.466 102.822 127.702 101.301C127.702 101.301 126.805 98.9231 128.585 97.5207C130.365 96.1183 131.839 96.3318 131.839 96.3318Z" fill="#07345A"/>
<path d="M144.196 175.534C144.196 175.534 146.15 177.956 146.638 178.253C147.125 178.549 146.42 182.07 145.094 182.301C144.346 182.432 143.931 181.608 143.931 181.608L144.145 180.595L141.352 177.72L144.196 175.534Z" fill="#F7A491"/>
<path d="M134.117 176.132C134.117 176.132 135.746 178.778 136.191 179.141C136.636 179.505 135.485 182.899 134.143 182.957C133.384 182.992 133.084 182.123 133.084 182.123L133.426 181.145L131.023 177.936L134.117 176.132Z" fill="#F7A491"/>
<path d="M136.096 179.037C135.644 179.619 135.16 180.175 134.648 180.704C134.17 181.135 133.669 181.539 133.145 181.914C133.145 181.914 132.188 183.648 131.927 184.255C131.346 185.601 130.691 187.102 130.787 187.856C130.817 188.099 131.36 188.355 131.814 188.208C133.703 187.628 138.532 183.214 139.141 182.034C139.844 180.671 136.096 179.037 136.096 179.037Z" fill="#07345A"/>
<path d="M122.302 138.649C122.479 138.159 122.655 137.703 122.809 137.278C124.816 137.716 127.085 138.197 129.419 138.69L129.703 147.236C129.703 146.577 127.948 160.869 127.948 160.869C127.948 160.869 132.484 170.901 135.586 176.745C134.313 178.333 133.716 178.845 131.878 179.921C127.064 174.154 120.756 163.601 120.501 161.846C120.36 160.848 120.215 144.534 122.302 138.649Z" fill="#B75742"/>
<path d="M140.236 141.121C139.623 147.78 138.259 160.513 138.372 161.536C138.725 162.813 144.784 174.59 145.877 176.31C145.01 177.616 143.667 179.027 142.222 179.417C141.938 179.494 131.92 165.251 131.375 164.121C130.757 162.843 129.729 155.872 129.71 147.242L129.426 138.695C133.315 139.523 136.89 140.336 140.236 141.121Z" fill="#F47458"/>
<path d="M127.47 110.762L132.046 111.39C132.046 111.39 135.715 111.48 136.17 111.48C136.626 111.48 139.498 128.162 140.33 134.441C141.161 140.719 140.519 141.83 140.519 141.83C140.519 141.83 134.715 143.136 130.422 142.755C125.957 142.359 120.934 139.951 120.934 139.951C120.934 139.951 124.749 127.885 125.506 124.119C126.264 120.353 127.47 110.762 127.47 110.762Z" fill="#96D9C9"/>
<path d="M116.368 90.5526C116.368 90.5526 116.075 102.991 116.544 103.942C117.227 105.326 124.913 115.14 124.913 115.14C124.913 115.14 121.241 130.487 119.697 135.793C119.542 136.323 118.854 139.775 118.854 140.112C118.854 140.858 122.102 141.804 122.487 141.747C122.84 141.698 125.665 127.095 127.476 119.949C128.089 117.528 129.141 115.239 130.578 113.196L131.837 111.411L122.182 101.74C122.182 101.74 120.992 90.9795 120.992 90.0851C120.992 89.8505 116.837 89.6758 116.368 90.5526Z" fill="#13375B"/>
<path d="M136.002 111.454L148.041 99.196C148.041 99.196 149.72 87.6044 149.839 87.1687C149.957 86.7329 152.946 86.5071 154.152 86.3907C154.538 86.3519 153.949 98.7391 153.373 100.812C152.692 103.264 143.59 114.437 143.59 114.437C143.59 114.437 141.959 120.49 142.355 124.93C143.006 132.302 144.766 142.443 144.45 142.763C142.494 143.998 134.983 144.126 134.509 143.361C129.258 134.916 136.002 111.454 136.002 111.454Z" fill="#13375B"/>
<path d="M132.133 109.161L131.808 111.569C131.808 111.569 131.081 115.039 132.017 115.708C132.953 116.376 135.998 111.474 135.998 111.474L135.677 105.372L132.133 109.161Z" fill="#F7A491"/>
<path d="M135.782 107.352C135.009 109.433 133.168 110.703 131.859 111.208L132.135 109.167L135.678 105.374L135.782 107.352Z" fill="#F47458"/>
<path d="M140.663 101.223C140.663 102.153 140.133 102.906 139.482 102.906C138.83 102.906 138.301 102.153 138.301 101.223C138.301 100.293 138.83 99.54 139.482 99.54C140.133 99.54 140.663 100.297 140.663 101.223Z" fill="#07345A"/>
<path d="M135.675 98.577C136.469 98.577 137.113 98.1442 137.113 97.6103C137.113 97.0764 136.469 96.6436 135.675 96.6436C134.882 96.6436 134.238 97.0764 134.238 97.6103C134.238 98.1442 134.882 98.577 135.675 98.577Z" fill="#07345A"/>
<path d="M133.514 98.9637C133.068 98.813 132.595 98.7617 132.127 98.8135C131.659 98.8653 131.209 99.0188 130.807 99.2633C130.405 99.5078 130.062 99.8373 129.801 100.229C129.54 100.62 129.368 101.064 129.298 101.529C129.145 102.552 129.058 103.583 129.036 104.618C128.985 107.429 130.449 110.167 131.722 110.167C132.995 110.167 136.533 108.347 136.665 104.346C136.739 101.889 135.507 99.6499 133.514 98.9637Z" fill="#F7A491"/>
<path d="M135.723 104.67C135.723 105.289 136.136 105.792 136.642 105.792C137.149 105.792 137.562 105.289 137.562 104.67C137.562 104.05 137.151 103.546 136.642 103.546C136.134 103.546 135.723 104.045 135.723 104.67Z" fill="#F7A491"/>
<path d="M127.974 97.5648C126.654 98.6091 126.191 100.197 126.941 101.11C127.692 102.024 129.369 101.918 130.688 100.872C132.007 99.8263 132.471 98.2404 131.723 97.3266C130.974 96.4128 129.295 96.5187 127.974 97.5648Z" fill="#07345A"/>
<path d="M132.651 99.2437C133.328 99.2437 133.876 98.8757 133.876 98.4217C133.876 97.9676 133.328 97.5996 132.651 97.5996C131.974 97.5996 131.426 97.9676 131.426 98.4217C131.426 98.8757 131.974 99.2437 132.651 99.2437Z" fill="#07345A"/>
<path d="M127.777 101.916C127.78 102.122 127.843 102.323 127.96 102.494C128.076 102.664 128.241 102.796 128.432 102.873C128.624 102.951 128.834 102.97 129.036 102.928C129.238 102.886 129.424 102.786 129.569 102.639C129.714 102.492 129.813 102.306 129.852 102.103C129.891 101.901 129.87 101.691 129.79 101.5C129.711 101.31 129.577 101.147 129.405 101.033C129.233 100.918 129.031 100.857 128.824 100.857C128.546 100.861 128.279 100.974 128.083 101.172C127.887 101.37 127.777 101.637 127.777 101.916Z" fill="#07345A"/>
<path d="M146.523 178.162C146.148 178.796 145.741 179.41 145.301 180C144.882 180.489 144.436 180.955 143.965 181.394C143.965 181.394 143.237 183.236 143.055 183.864C142.651 185.275 142.194 186.977 142.384 187.713C142.445 187.949 142.965 188.399 143.394 188.12C145.05 187.042 149.475 181.997 149.927 180.745C150.449 179.305 146.523 178.162 146.523 178.162Z" fill="#07345A"/>
<path d="M232.708 126.771C232.708 126.771 227.427 127.585 223.527 131.471C219.627 135.357 217.297 141.6 217.297 141.6L225.284 143.927C225.284 143.927 222.092 136.484 232.708 126.771Z" fill="#FAE0B2"/>
<path d="M234.17 130.6L233.598 126.105L229.569 124.027C229.465 123.974 229.379 123.893 229.319 123.794C229.259 123.694 229.229 123.58 229.231 123.463C229.233 123.347 229.267 123.234 229.33 123.137C229.394 123.039 229.483 122.961 229.588 122.912L233.689 120.972L234.42 116.5C234.439 116.385 234.489 116.278 234.566 116.19C234.643 116.102 234.742 116.038 234.854 116.004C234.965 115.97 235.084 115.968 235.196 115.998C235.309 116.028 235.411 116.088 235.49 116.173L238.598 119.474L243.08 118.788C243.195 118.77 243.312 118.785 243.419 118.831C243.526 118.876 243.618 118.951 243.684 119.046C243.751 119.141 243.79 119.253 243.796 119.369C243.803 119.484 243.777 119.6 243.721 119.701L241.539 123.674L243.578 127.731C243.628 127.835 243.648 127.95 243.636 128.064C243.624 128.178 243.581 128.287 243.512 128.378C243.442 128.469 243.349 128.54 243.242 128.581C243.135 128.623 243.018 128.634 242.905 128.613L238.449 127.769L235.227 130.956C235.145 131.038 235.042 131.095 234.929 131.122C234.816 131.148 234.698 131.142 234.588 131.105C234.478 131.068 234.381 131.001 234.307 130.912C234.233 130.823 234.185 130.715 234.17 130.6Z" fill="#F7CC7F"/>
<path d="M93.7695 150.701C93.7695 150.701 99.0502 151.514 102.95 155.401C106.85 159.287 109.179 165.528 109.179 165.528L101.194 167.855C101.194 167.855 104.386 160.414 93.7695 150.701Z" fill="#FAE0B2"/>
<path d="M92.3062 154.529L92.8782 150.034L96.9089 147.956C97.0123 147.903 97.0987 147.822 97.1584 147.722C97.218 147.622 97.2486 147.508 97.2466 147.392C97.2445 147.276 97.21 147.162 97.1469 147.065C97.0838 146.967 96.9947 146.889 96.8895 146.839L92.7882 144.899L92.0555 140.429C92.0354 140.316 91.9847 140.211 91.9089 140.125C91.833 140.04 91.7349 139.976 91.6255 139.943C91.516 139.909 91.3994 139.906 91.2883 139.934C91.1773 139.962 91.0762 140.021 90.9962 140.102L87.8765 143.41L83.3938 142.722C83.2788 142.704 83.1611 142.719 83.0541 142.765C82.9471 142.811 82.855 142.885 82.7883 142.981C82.7216 143.076 82.6829 143.188 82.6767 143.304C82.6704 143.42 82.6968 143.536 82.7529 143.638L84.9386 147.617L82.8995 151.664C82.847 151.768 82.8246 151.884 82.8349 152C82.8452 152.116 82.8878 152.227 82.9578 152.32C83.0278 152.412 83.1225 152.484 83.231 152.526C83.3396 152.568 83.4578 152.578 83.5721 152.557L88.0265 151.712L91.2504 154.899C91.3335 154.981 91.4378 155.038 91.5516 155.063C91.6653 155.088 91.7839 155.081 91.8938 155.043C92.0038 155.004 92.1007 154.936 92.1736 154.845C92.2465 154.754 92.2924 154.645 92.3062 154.529Z" fill="#F7CC7F"/>
<path d="M268.432 130.699L269.668 128.614L268.649 126.416C268.623 126.36 268.613 126.297 268.62 126.235C268.628 126.173 268.653 126.115 268.692 126.066C268.731 126.018 268.783 125.981 268.842 125.961C268.901 125.941 268.965 125.938 269.026 125.952L271.39 126.481L273.167 124.834C273.213 124.791 273.27 124.762 273.331 124.75C273.392 124.738 273.456 124.744 273.514 124.766C273.572 124.788 273.623 124.826 273.661 124.876C273.698 124.926 273.721 124.985 273.727 125.047L273.953 127.458L276.072 128.639C276.126 128.669 276.172 128.713 276.202 128.768C276.232 128.822 276.247 128.884 276.244 128.946C276.241 129.008 276.22 129.068 276.184 129.12C276.149 129.171 276.099 129.211 276.042 129.235L273.817 130.196L273.348 132.572C273.336 132.634 273.307 132.691 273.265 132.736C273.222 132.782 273.168 132.815 273.108 132.831C273.047 132.847 272.984 132.846 272.924 132.828C272.864 132.81 272.811 132.775 272.77 132.728L271.169 130.911L268.761 131.198C268.699 131.206 268.636 131.196 268.58 131.17C268.524 131.144 268.476 131.102 268.442 131.05C268.407 130.998 268.388 130.938 268.387 130.876C268.385 130.814 268.401 130.753 268.432 130.699Z" fill="#466EB6"/>
<path d="M149.246 36.3998L150.805 33.7696L149.52 30.9965C149.487 30.9253 149.475 30.8465 149.485 30.7688C149.495 30.6912 149.526 30.6177 149.575 30.5568C149.624 30.4958 149.689 30.4497 149.763 30.4236C149.837 30.3975 149.917 30.3925 149.993 30.4091L152.979 31.0777L155.223 28.9996C155.28 28.9457 155.352 28.909 155.429 28.8937C155.506 28.8785 155.586 28.8852 155.66 28.9131C155.733 28.9411 155.798 28.9892 155.845 29.0519C155.893 29.1146 155.922 29.1894 155.929 29.2677L156.215 32.3107L158.886 33.8014C158.954 33.8396 159.011 33.8963 159.049 33.9648C159.086 34.0333 159.104 34.111 159.1 34.1891C159.096 34.2673 159.07 34.3427 159.026 34.407C158.981 34.4713 158.919 34.5218 158.847 34.5528L156.04 35.7647L155.447 38.7636C155.432 38.8406 155.396 38.9118 155.342 38.9692C155.289 39.0266 155.22 39.0679 155.145 39.0884C155.069 39.109 154.989 39.108 154.914 39.0855C154.839 39.063 154.771 39.02 154.72 38.9612L152.698 36.6679L149.661 37.0331C149.583 37.0428 149.504 37.0304 149.432 36.9972C149.36 36.9641 149.3 36.9115 149.256 36.8456C149.213 36.7797 149.189 36.7029 149.188 36.6241C149.186 36.5453 149.206 36.4676 149.246 36.3998Z" fill="#F79C8D"/>
<path d="M263.626 42.9316L259.512 45.6765L261.813 49.6686L257.879 52.5493L259.607 56.6348L257.016 59.272L258.352 60.5827L261.818 57.0564L260.179 53.1843L264.272 50.1854L262.009 46.2604L265.737 43.7731L263.626 42.9316Z" fill="#F48C7F"/>
<path d="M269.947 109.062L267.036 105.066L263.14 107.526L260.098 103.715L256.081 105.606L253.339 103.126L252.082 104.514L255.751 107.831L259.557 106.038L262.721 110.002L266.554 107.584L269.192 111.205L269.947 109.062Z" fill="#F48C7F"/>
<path d="M133.523 26.2844L134.51 21.4421L130.065 20.2267L130.826 15.4126L126.721 13.7279L126.701 10.0322L124.828 10.041L124.855 14.9839L128.746 16.5821L127.953 21.5885L132.326 22.7846L131.431 27.1735L133.523 26.2844Z" fill="#F48C7F"/>
<path d="M95.0564 32.7266L96.9402 36.2406L101.001 36.013L102.834 40.1003L107.085 38.5268L109.361 43.0586L113.455 42.0901L116.357 46.0928L114.841 47.19L112.671 44.1982L108.351 45.2196L106.163 40.8624L101.84 42.4641L99.8198 37.9534L95.8526 38.1757L94.1065 34.9175L91.5324 35.6073L91.0469 33.8009L95.0564 32.7266Z" fill="#F7CC7F"/>
<path d="M77.5345 60.4699L74.5366 60.7751L73.5144 56.0086L69.0758 55.9133L67.7287 52.4717L65.9844 53.1544L67.7887 57.7568L71.9942 57.8467L73.0571 62.8055L77.5698 62.3468L77.5345 60.4699Z" fill="#50BFA5"/>
<path d="M72.1414 112.139L71.0185 114.933L66.3205 113.626L64.1754 117.51L60.4978 117.106L60.293 118.966L65.2117 119.505L67.2438 115.826L72.1326 117.186L73.8204 112.98L72.1414 112.139Z" fill="#50BFA5"/>
<path d="M80.1077 80.8832C81.2988 82.0249 82.1243 83.4939 82.4798 85.1044C82.8353 86.7149 82.7049 88.3945 82.105 89.9309C81.5052 91.4673 80.4628 92.7915 79.1098 93.736C77.7567 94.6806 76.1538 95.203 74.5035 95.2373C72.8533 95.2716 71.23 94.8162 69.8388 93.9287C68.4477 93.0412 67.3511 91.7614 66.6878 90.2513C66.0246 88.7411 65.8244 87.0683 66.1126 85.4445C66.4008 83.8206 67.1644 82.3186 68.3069 81.1284C69.8394 79.5326 71.9435 78.6103 74.1565 78.5643C76.3695 78.5183 78.5102 79.3524 80.1077 80.8832Z" fill="#FFF3D9"/>
<path d="M79.9302 87.8548L76.3779 88.945L75.2639 92.4872C75.2465 92.5539 75.21 92.6141 75.1589 92.6603C75.1077 92.7065 75.0441 92.7367 74.9759 92.7472C74.9078 92.7577 74.838 92.748 74.7753 92.7194C74.7126 92.6907 74.6596 92.6443 74.623 92.586L72.4867 89.5483L68.7791 89.5853C68.7115 89.5856 68.6453 89.567 68.5877 89.5318C68.5301 89.4965 68.4835 89.4459 68.4531 89.3856C68.4226 89.3254 68.4096 89.2578 68.4154 89.1906C68.4212 89.1234 68.4457 89.0591 68.486 89.0049L70.7176 86.0378L69.5241 82.5238C69.5029 82.4598 69.5 82.3911 69.5157 82.3255C69.5313 82.2599 69.565 82.1999 69.6128 82.1523C69.6606 82.1047 69.7208 82.0713 69.7865 82.056C69.8522 82.0406 69.9209 82.0438 69.9849 82.0652L73.5001 83.27L76.4838 81.0579C76.5383 81.0179 76.6028 80.9939 76.6701 80.9885C76.7374 80.9831 76.8049 80.9965 76.8651 81.0273C76.9252 81.058 76.9755 81.1049 77.0105 81.1627C77.0454 81.2204 77.0636 81.2868 77.0629 81.3543L77.0029 85.0588L80.029 87.2127C80.088 87.2491 80.135 87.3021 80.164 87.365C80.1931 87.4279 80.2029 87.498 80.1924 87.5664C80.1818 87.6349 80.1514 87.6988 80.1047 87.7501C80.0581 87.8013 79.9974 87.8378 79.9302 87.8548Z" fill="#FED333"/>
<path d="M298.151 94.7631C299.342 95.9048 300.167 97.3738 300.523 98.9843C300.878 100.595 300.748 102.274 300.148 103.811C299.548 105.347 298.506 106.671 297.153 107.616C295.8 108.56 294.197 109.083 292.547 109.117C290.896 109.151 289.273 108.696 287.882 107.809C286.491 106.921 285.394 105.641 284.731 104.131C284.068 102.621 283.867 100.948 284.156 99.3243C284.444 97.7005 285.207 96.1985 286.35 95.0083C287.882 93.4125 289.987 92.4902 292.2 92.4442C294.412 92.3982 296.553 93.2323 298.151 94.7631Z" fill="#FFF3D9"/>
<path d="M297.958 101.735L294.408 102.825L293.294 106.367C293.273 106.431 293.235 106.488 293.184 106.532C293.132 106.576 293.07 106.604 293.003 106.615C292.936 106.625 292.868 106.616 292.806 106.59C292.744 106.564 292.69 106.521 292.651 106.466L290.517 103.428L286.809 103.464C286.74 103.468 286.671 103.452 286.611 103.418C286.551 103.383 286.503 103.332 286.472 103.271C286.44 103.209 286.428 103.14 286.436 103.071C286.444 103.003 286.472 102.938 286.516 102.885L288.746 99.9178L287.565 96.3897C287.543 96.3256 287.539 96.2566 287.555 96.1907C287.57 96.1247 287.604 96.0644 287.652 96.0166C287.7 95.9688 287.76 95.9354 287.826 95.9203C287.892 95.9052 287.961 95.9089 288.025 95.931L291.541 97.1341L294.524 94.9237C294.578 94.8797 294.643 94.8523 294.711 94.8448C294.78 94.8374 294.849 94.8502 294.911 94.8818C294.972 94.9133 295.023 94.9622 295.057 95.0223C295.091 95.0825 295.107 95.1512 295.102 95.2201L295.043 98.9246L298.07 101.079C298.134 101.114 298.185 101.168 298.217 101.234C298.248 101.3 298.259 101.374 298.246 101.446C298.234 101.518 298.2 101.584 298.148 101.636C298.097 101.688 298.03 101.722 297.958 101.735Z" fill="#FED333"/>
<path d="M260.478 84.3L261.937 86.7221C261.972 86.7812 262.023 86.8293 262.085 86.8608C262.146 86.8924 262.215 86.906 262.284 86.9003C262.352 86.8946 262.418 86.8698 262.474 86.8286C262.529 86.7874 262.572 86.7316 262.597 86.6674L263.633 84.0372L266.389 83.4057C266.456 83.3902 266.518 83.3563 266.567 83.3077C266.616 83.2592 266.65 83.1979 266.666 83.1309C266.681 83.0639 266.678 82.9938 266.656 82.9286C266.634 82.8633 266.594 82.8055 266.541 82.7618L264.359 80.9642L264.602 78.1417C264.608 78.0731 264.595 78.0042 264.564 77.9428C264.533 77.8814 264.485 77.83 264.426 77.7944C264.367 77.7587 264.299 77.7403 264.23 77.7412C264.161 77.7422 264.094 77.7623 264.036 77.7995L261.651 79.3183L259.045 78.2158C258.981 78.1889 258.911 78.1802 258.843 78.1909C258.775 78.2015 258.711 78.231 258.659 78.276C258.607 78.321 258.569 78.3797 258.548 78.4454C258.527 78.5112 258.526 78.5814 258.543 78.648L259.249 81.3858L257.396 83.5203C257.35 83.5722 257.32 83.6358 257.309 83.7038C257.298 83.7719 257.307 83.8416 257.333 83.9052C257.36 83.9687 257.404 84.0235 257.46 84.0634C257.516 84.1032 257.583 84.1266 257.652 84.1307L260.478 84.3Z" fill="#F47458"/>
<path d="M255.355 139.771C255.357 140.106 255.26 140.433 255.076 140.712C254.892 140.992 254.628 141.21 254.32 141.34C254.011 141.469 253.671 141.504 253.343 141.441C253.014 141.377 252.712 141.218 252.474 140.982C252.236 140.747 252.073 140.446 252.007 140.119C251.94 139.791 251.972 139.451 252.099 139.141C252.226 138.832 252.442 138.567 252.719 138.38C252.997 138.193 253.324 138.093 253.659 138.092C254.106 138.09 254.536 138.266 254.854 138.581C255.172 138.896 255.353 139.324 255.355 139.771Z" fill="#50BFA5"/>
<path d="M57.4696 88.561C57.4696 89.4942 56.6486 90.251 55.6369 90.251C54.6253 90.251 53.8008 89.4942 53.8008 88.561C53.8008 87.6279 54.62 86.8711 55.6316 86.8711C56.6433 86.8711 57.4696 87.6279 57.4696 88.561Z" fill="#50BFA5"/>
<path d="M153.248 7.7481L155.469 8.18558C155.469 8.18558 158.712 6.67203 158.959 5.94171C159.207 5.21139 159.094 3.53025 159.568 3.42441C159.755 3.37621 159.95 3.36536 160.141 3.3925C160.333 3.41964 160.517 3.48424 160.683 3.58257C160.849 3.68091 160.994 3.81105 161.11 3.96554C161.225 4.12003 161.309 4.29583 161.357 4.48284C161.622 5.29254 160.704 7.83454 160.924 8.07445C161.064 8.2191 162.337 8.50664 163.262 8.70245C163.563 8.76705 163.841 8.91358 164.064 9.12587C164.288 9.33816 164.448 9.60796 164.528 9.90553C164.584 10.1068 164.57 10.3213 164.488 10.5136C164.407 10.706 164.262 10.8648 164.078 10.964L163.493 11.2762L163.769 11.8848C163.866 12.1034 163.875 12.3514 163.793 12.5764C163.712 12.8015 163.546 12.9861 163.331 13.0914L162.875 13.3084L163.077 13.6753C163.137 13.7873 163.174 13.9107 163.184 14.0375C163.194 14.1644 163.178 14.292 163.137 14.4123C163.095 14.5327 163.029 14.6431 162.943 14.7367C162.857 14.8303 162.752 14.905 162.635 14.956L162.236 15.1324L162.266 15.24C162.329 15.457 162.31 15.6895 162.212 15.8931C162.115 16.0968 161.945 16.2574 161.737 16.3443L161.338 16.5031L155.421 15.3141C154.867 15.205 154.341 14.9815 153.878 14.6579L151.867 13.9029C151.762 13.8621 151.675 13.7851 151.622 13.6857C151.569 13.5864 151.553 13.4713 151.578 13.3613L152.701 8.11326C152.726 7.9931 152.798 7.88767 152.9 7.81945C153.002 7.75124 153.127 7.72563 153.248 7.7481Z" fill="#96D9C9"/>
</g>
<defs>
<clipPath id="clip0_363_18268">
<rect width="335" height="260" fill="white"/>
</clipPath>
</defs>
</svg>
