<svg width="100" height="100" viewBox="0 0 100 100" xmlns="http://www.w3.org/2000/svg">
<path d="M26.5 34C25.1192 34 24 32.9264 24 31.6018V28.3982C24 27.0742 25.1192 26 26.5 26C27.8808 26 29 27.0742 29 28.3982V31.6018C29 32.9264 27.8808 34 26.5 34Z" fill="#FFC73A"/>
<path d="M26.5 47C25.1192 47 24 45.9264 24 44.6018V41.3982C24 40.0742 25.1192 39 26.5 39C27.8808 39 29 40.0742 29 41.3982V44.6018C29 45.9264 27.8808 47 26.5 47Z" fill="#FFC73A"/>
<path d="M21.3021 39H17.6979C16.2085 39 15 37.8807 15 36.4997C15 35.1193 16.2085 34 17.6979 34H21.3021C22.7922 34 24 35.1193 24 36.4997C24 37.8807 22.7922 39 21.3021 39Z" fill="#FFC73A"/>
<path d="M36.3021 39H32.6979C31.2085 39 30 37.8807 30 36.4997C30 35.1193 31.2085 34 32.6979 34H36.3021C37.7922 34 39 35.1193 39 36.4997C39 37.8807 37.7922 39 36.3021 39Z" fill="#FFC73A"/>
<path d="M55.2524 20.1918C53.8519 20.1918 52.7168 19.0561 52.7168 17.6562V14.269C52.7168 12.8685 53.8519 11.7334 55.2524 11.7334C56.6522 11.7334 57.788 12.8685 57.788 14.269V17.6562C57.788 19.0567 56.6522 20.1918 55.2524 20.1918Z" fill="#FFB909"/>
<path d="M55.2524 34.0746C53.8519 34.0746 52.7168 32.9389 52.7168 31.539V28.1518C52.7168 26.7513 53.8519 25.6162 55.2524 25.6162C56.6522 25.6162 57.788 26.7513 57.788 28.1518V31.539C57.788 32.9395 56.6522 34.0746 55.2524 34.0746Z" fill="#FFB909"/>
<path d="M49.3242 25.4393H45.937C44.5365 25.4393 43.4014 24.3043 43.4014 22.9038C43.4014 21.5033 44.5365 20.3682 45.937 20.3682H49.3242C50.7247 20.3682 51.8598 21.5033 51.8598 22.9038C51.8598 24.3043 50.7247 25.4393 49.3242 25.4393Z" fill="#FFB909"/>
<path d="M64.5664 25.4393H61.1791C59.7793 25.4393 58.6436 24.3043 58.6436 22.9038C58.6436 21.5033 59.7793 20.3682 61.1791 20.3682H64.5664C65.9669 20.3682 67.102 21.5033 67.102 22.9038C67.102 24.3043 65.9669 25.4393 64.5664 25.4393Z" fill="#FFB909"/>
<path d="M76.3207 71.3529C74.9209 71.3529 73.7852 70.2178 73.7852 68.8173V65.4301C73.7852 64.0303 74.9209 62.8945 76.3207 62.8945C77.7212 62.8945 78.8563 64.0303 78.8563 65.4301V68.8173C78.8563 70.2178 77.7212 71.3529 76.3207 71.3529Z" fill="#FFB909"/>
<path d="M76.3207 85.2348C74.9209 85.2348 73.7852 84.0997 73.7852 82.6992V79.312C73.7852 77.9121 74.9209 76.7764 76.3207 76.7764C77.7212 76.7764 78.8563 77.9121 78.8563 79.312V82.6992C78.8563 84.0997 77.7212 85.2348 76.3207 85.2348Z" fill="#FFB909"/>
<path d="M70.3929 76.6005H67.0056C65.6058 76.6005 64.4707 75.4654 64.4707 74.0649C64.4707 72.6644 65.6058 71.5293 67.0056 71.5293H70.3929C71.7934 71.5293 72.9285 72.6644 72.9285 74.0649C72.9285 75.4654 71.7934 76.6005 70.3929 76.6005Z" fill="#FFB909"/>
<path d="M85.6351 76.6005H82.2485C80.848 76.6005 79.7129 75.4654 79.7129 74.0649C79.7129 72.6644 80.848 71.5293 82.2485 71.5293H85.6351C87.0356 71.5293 88.1707 72.6644 88.1707 74.0649C88.1707 75.4654 87.0356 76.6005 85.6351 76.6005Z" fill="#FFB909"/>
<path d="M33.8893 88C31.0662 88 28.2439 86.916 26.0944 84.7487L10.87 69.3924C7.04335 65.5335 7.04335 59.2538 10.87 55.3942C12.7233 53.5249 15.1881 52.4952 17.8093 52.4952C20.4304 52.4952 22.8952 53.5242 24.7486 55.3942L33.8893 64.613L75.2514 22.8944C79.0774 19.0355 85.3034 19.0349 89.13 22.8944C92.9567 26.754 92.9567 33.0337 89.13 36.8933L41.6835 84.7487C39.5346 86.916 36.7116 88 33.8893 88Z" fill="#4CCC82"/>
<path d="M75.2514 22.8759L50 48.182V76L89.13 36.7846C92.9567 32.9503 92.9567 26.7108 89.13 22.8759C85.3034 19.041 79.0774 19.0417 75.2514 22.8759Z" fill="#33B469"/>
</svg>
