<svg width="24" height="24" viewBox="0 0 24 24" fill="none" xmlns="http://www.w3.org/2000/svg">
<path d="M19.3445 2.98556H18.6764L12.0001 3.95136L5.32385 2.98556H4.55919C3.73474 2.98556 3.06641 2.31723 3.06641 1.49278C3.06636 0.66833 3.73474 0 4.55919 0H19.3445C20.169 0 20.8373 0.66833 20.8373 1.49278C20.8374 2.31723 20.169 2.98556 19.3445 2.98556Z" fill="#B98080"/>
<path d="M19.4409 0H17.9922C18.8166 0 19.485 0.66833 19.485 1.49278C19.485 2.31723 18.8166 2.98556 17.9922 2.98556H19.4409C20.2653 2.98556 20.9337 2.31723 20.9337 1.49278C20.9337 0.66833 20.2653 0 19.4409 0Z" fill="#AE6C6C"/>
<path d="M18.5801 4.85958V2.9856H5.32422V4.85958C5.32422 7.76662 7.18231 10.2393 9.77561 11.1557C10.1335 11.2822 10.3729 11.6204 10.3729 12C10.3729 12.3796 10.1335 12.7179 9.77561 12.8443C7.18236 13.7606 5.32422 16.2334 5.32422 19.1404V21.0144H18.5801V19.1404C18.5801 16.2334 16.722 13.7606 14.1287 12.8443C13.7708 12.7178 13.5314 12.3795 13.5314 12H13.628C13.628 11.6204 13.7708 11.2822 14.1287 11.1557C16.722 10.2394 18.5801 7.76662 18.5801 4.85958Z" fill="#EFEDEF"/>
<path d="M5.32422 2.9856V3.93203H16.3005C16.8127 3.93203 17.228 4.34732 17.228 4.85958C17.228 7.75759 15.3814 10.224 12.8008 11.1471C12.4815 11.2613 12.2372 11.5339 12.1888 11.8695C12.1266 12.3002 12.3781 12.7035 12.7766 12.8443C15.3699 13.7606 17.228 16.2334 17.228 19.1404V21.0144H18.6767V19.1404C18.6767 16.2424 16.8301 13.776 14.2495 12.8529C13.9302 12.7387 13.6859 12.4661 13.6375 12.1305C13.5753 11.6998 13.8268 11.2965 14.2253 11.1557C16.8186 10.2393 18.6767 7.76657 18.6767 4.85958V3.93207V2.9856H5.32422Z" fill="#D7D0D6"/>
<path d="M19.3445 23.9999H4.55919C3.73474 23.9999 3.06641 23.3316 3.06641 22.5072C3.06641 21.6827 3.73474 21.0144 4.55919 21.0144H5.32395L12.0002 20.0486L18.6765 21.0144H19.3446C20.1691 21.0144 20.8374 21.6827 20.8374 22.5072C20.8374 23.3316 20.169 23.9999 19.3445 23.9999Z" fill="#B98080"/>
<path d="M19.4409 21.0144H17.9922C18.8166 21.0144 19.485 21.6827 19.485 22.5072C19.485 23.3316 18.8166 24 17.9922 24H19.4409C20.2653 24 20.9337 23.3316 20.9337 22.5072C20.9337 21.6827 20.2653 21.0144 19.4409 21.0144Z" fill="#AE6C6C"/>
<path d="M15.2153 15.7771H14.5122C13.8051 15.7771 13.1052 15.2656 12.9895 14.568L12.7026 12.8377C12.5566 11.9569 13.236 11.1557 14.1287 11.1557C15.8611 10.5436 17.2643 9.2363 18.0058 7.56958H5.89843C6.63987 9.23635 8.04317 10.5436 9.77557 11.1557C10.6683 11.1557 11.3476 11.9569 11.2016 12.8377L10.9147 14.568C10.7991 15.2656 10.1957 15.7771 9.48868 15.7771H8.68895C6.84554 15.7771 5.33426 17.2603 5.32432 19.1037C5.32427 19.1159 5.32422 19.1282 5.32422 19.1405V21.0145H18.5801V19.1405C18.5801 19.1282 18.58 19.1159 18.58 19.1037C18.57 17.2603 17.0587 15.7771 15.2153 15.7771Z" fill="#FFD56B"/>
<path d="M18.6759 19.1037C18.6659 17.2603 17.1547 15.7771 15.3113 15.7771H14.5115C13.8044 15.7771 13.2011 15.2656 13.0855 14.568L12.7986 12.8377C12.6526 11.9569 13.3319 11.1557 14.2246 11.1557C15.957 10.5436 17.3603 9.2363 18.1018 7.56958H16.6531C15.9116 9.23635 14.5083 10.5436 12.7759 11.1557C11.8832 11.1557 11.2039 11.9569 11.3499 12.8377L11.6368 14.568C11.7524 15.2656 12.3558 15.7771 13.0628 15.7771H13.8626C15.706 15.7771 17.2173 17.2603 17.2272 19.1037C17.2273 19.1159 17.2273 19.1282 17.2273 19.1405V21.0145H18.676V19.1405C18.676 19.1282 18.676 19.1159 18.6759 19.1037Z" fill="#FFB909"/>
</svg>
