<svg id="a" height="24" viewBox="0 0 24 24" width="24" xmlns="http://www.w3.org/2000/svg"><g fill="#3b82f6"><path d="m1.75 14v-4c0-.5523.4477-1 1-1h3l4.4453-3.8065c.6646-.5056 1.5547.0381 1.5547.9497v11.7135c0 .9116-.8901 1.4553-1.5547.9496l-4.4453-3.8063h-3c-.5523 0-1-.4478-1-1z"/><path d="m18.25 12c0-1.3784-1.1211-2.5-2.5-2.5-.2764 0-.5-.2236-.5-.5s.2236-.5.5-.5c1.9297 0 3.5 1.5703 3.5 3.5s-1.5703 3.5-3.5 3.5c-.2764 0-.5-.2236-.5-.5s.2236-.5.5-.5c1.3789 0 2.5-1.1216 2.5-2.5zm-2.5-6.5c-.2764 0-.5.2236-.5.5s.2236.5.5.5c3.0322 0 5.5 2.4673 5.5 5.5s-2.4678 5.5-5.5 5.5c-.2764 0-.5.2236-.5.5s.2236.5.5.5c3.584 0 6.5-2.916 6.5-6.5s-2.916-6.5-6.5-6.5z" opacity=".3"/></g></svg>