<svg width="152" height="61" viewBox="0 0 152 61" fill="none" xmlns="http://www.w3.org/2000/svg">
<path d="M148.21 9.40205C148.216 10.7282 149.057 11.8656 150.257 12.3629C151.106 12.7138 151.628 13.5444 151.632 14.4262L151.648 18.2229C151.652 19.1064 151.138 19.9388 150.293 20.2967C149.098 20.8029 148.266 21.9473 148.271 23.2735C148.277 24.5996 149.118 25.737 150.319 26.2343C151.167 26.5853 151.689 27.4158 151.693 28.2976L151.709 32.0996C151.713 32.9831 151.199 33.8155 150.352 34.1752C149.157 34.6813 148.327 35.8223 148.332 37.1519C148.338 38.4781 149.179 39.6172 150.38 40.1128C151.228 40.4637 151.75 41.2943 151.754 42.176L151.77 45.9728C151.774 46.8563 151.26 47.6886 150.415 48.0466C149.22 48.5527 148.388 49.6972 148.393 51.0233C148.399 52.3495 149.24 53.4869 150.441 53.9842C151.289 54.3351 151.811 55.1657 151.815 56.0475L151.822 57.9291C151.828 59.1988 150.753 60.2322 149.422 60.2374L112.009 60.3856C108.915 60.3982 106.888 60.4037 103.979 60.4155L2.84769 60.8141C1.51614 60.8194 0.432409 59.7948 0.42686 58.5251L0.419463 56.6435C0.415764 55.76 0.92989 54.9277 1.77505 54.5697C2.96975 54.0636 3.80196 52.9191 3.79642 51.5929C3.79087 50.2668 2.94941 49.1294 1.74916 48.6321C0.9003 48.2812 0.378777 47.4506 0.375078 46.5688L0.358433 42.7721C0.354734 41.8904 0.86886 41.0562 1.71402 40.6983C2.90872 40.1921 3.74094 39.0477 3.73539 37.7215C3.72984 36.3919 2.88837 35.2562 1.68998 34.7607C0.83927 34.4097 0.317747 33.5792 0.314049 32.6957L0.297404 28.8936C0.293705 28.0101 0.807831 27.1778 1.65299 26.8198C2.84769 26.3137 3.67991 25.1692 3.67436 23.8431C3.66881 22.5169 2.82735 21.3795 1.6271 20.8822C0.778241 20.5313 0.256718 19.7007 0.253019 18.819L0.236375 15.0222C0.232677 14.1387 0.746801 13.3064 1.59196 12.9484C2.78666 12.4423 3.61888 11.2978 3.61333 9.97166C3.60778 8.642 2.76632 7.50633 1.56792 7.01079C0.71721 6.65986 0.195688 5.82928 0.191989 4.94578L0.184592 3.05887C0.179044 1.78918 1.25353 0.755784 2.58508 0.750494C51.4437 0.557952 100.302 0.36729 149.161 0.173849C150.492 0.168558 151.576 1.19313 151.582 2.46282L151.589 4.34973C151.593 5.23323 151.079 6.06557 150.232 6.42532C149.035 6.92967 148.205 8.0724 148.21 9.40205Z" fill="#FFB909"/>
<path d="M2.83326 61C2.14344 61 1.49616 60.7461 1.00608 60.2823C0.514146 59.8167 0.240438 59.196 0.238589 58.5347L0.231191 56.6531C0.227493 55.6743 0.802649 54.7961 1.69775 54.417C2.8647 53.9232 3.61554 52.8175 3.61 51.6007C3.60445 50.3839 2.84436 49.2853 1.6737 48.8003C0.774907 48.4283 0.192355 47.5553 0.188657 46.5766L0.172012 42.7799C0.168313 41.8012 0.743469 40.923 1.63672 40.5438C2.80367 40.05 3.55451 38.9444 3.54897 37.7276C3.54342 36.5108 2.78517 35.4121 1.61452 34.9272C0.715726 34.5551 0.131326 33.6822 0.127627 32.7017L0.110983 28.8997C0.107285 27.9209 0.682438 27.0427 1.57753 26.6636C2.74449 26.1698 3.49534 25.0641 3.48979 23.8491C3.48424 22.6323 2.72415 21.5337 1.55349 21.0487C0.654699 20.6766 0.0721459 19.8037 0.0684471 18.825L0.0518035 15.0282C0.0481047 14.0495 0.623258 13.1713 1.5165 12.7922C2.68346 12.2984 3.43431 11.1927 3.42876 9.97592C3.42321 8.75913 2.66497 7.66049 1.49431 7.17554C0.595518 6.80345 0.0111162 5.93053 0.00741749 4.95005L1.98268e-05 3.06315C-0.00552829 1.69823 1.15403 0.583712 2.58544 0.578421L103.717 0.179877C103.72 0.179877 103.726 0.179877 103.726 0.179877C106.516 0.179877 108.965 0.159233 111.747 0.148136L149.159 0C149.163 0 149.167 0 149.17 0C150.596 0 151.76 1.10393 151.765 2.46357L151.773 4.35047C151.776 5.33096 151.201 6.2074 150.304 6.58655C149.139 7.08032 148.39 8.18425 148.394 9.40104C148.399 10.6178 149.159 11.7165 150.33 12.2014C151.227 12.5735 151.811 13.4464 151.815 14.4269L151.832 18.2236C151.835 19.2024 151.26 20.0806 150.365 20.4597C149.198 20.9535 148.447 22.0592 148.453 23.2742C148.458 24.491 149.219 25.5896 150.389 26.0746C151.288 26.4467 151.871 27.3196 151.874 28.2983L151.891 32.1003C151.895 33.0791 151.319 33.9573 150.422 34.3382C149.257 34.832 148.508 35.9359 148.512 37.1527C148.518 38.3695 149.278 39.4681 150.448 39.9531C151.345 40.3251 151.93 41.1981 151.933 42.1768L151.95 45.9735C151.954 46.9522 151.379 47.8304 150.483 48.2096C149.317 48.7034 148.566 49.8091 148.571 51.0241C148.577 52.2409 149.337 53.3395 150.508 53.8245C151.406 54.1965 151.989 55.0695 151.993 56.0482L152 57.9298C152.004 58.5911 151.736 59.2136 151.247 59.6827C150.759 60.1518 150.108 60.4128 149.415 60.4145C100.556 60.608 51.6975 60.8004 2.83881 60.9929C2.84066 61 2.83696 61 2.83326 61ZM103.724 0.530805C103.72 0.530805 103.718 0.530805 103.715 0.530805L2.58359 0.929349C1.35746 0.93464 0.362498 1.89044 0.368046 3.05962L0.375444 4.94653C0.379142 5.78594 0.874775 6.53364 1.64042 6.8493C2.94422 7.38892 3.79123 8.61453 3.79678 9.97063C3.80233 11.3267 2.96641 12.5594 1.66446 13.1096C0.904363 13.4323 0.41428 14.1818 0.417978 15.0212L0.434624 18.8179C0.438322 19.6573 0.933954 20.4033 1.69775 20.7207C3.0034 21.2603 3.85041 22.4859 3.85596 23.842C3.86151 25.1981 3.02559 26.4308 1.72548 26.981C0.965393 27.3037 0.475309 28.0532 0.479008 28.8926L0.495652 32.6946C0.499351 33.534 0.994983 34.2817 1.76062 34.5974C3.06443 35.137 3.91144 36.3626 3.91699 37.7205C3.92254 39.0766 3.08662 40.3093 1.78467 40.8595C1.02457 41.1822 0.534489 41.9317 0.538188 42.7711L0.554832 46.5678C0.55853 47.4072 1.05416 48.1549 1.81795 48.4706C3.12361 49.012 3.97062 50.2358 3.97617 51.5937C3.98172 52.9498 3.1458 54.1824 1.84569 54.7326C1.0856 55.0554 0.595519 55.8048 0.599218 56.6442L0.606615 58.5259C0.608465 59.0919 0.843333 59.6245 1.26499 60.023C1.6848 60.4198 2.24146 60.6385 2.83141 60.6385C2.83511 60.6385 2.83696 60.6385 2.84066 60.6385L103.972 60.2399C106.648 60.2275 109.325 60.2082 112.002 60.2082L149.415 60.0601C150.008 60.0583 150.567 59.8344 150.985 59.4323C151.403 59.0302 151.632 58.4959 151.63 57.9298L151.623 56.0482C151.619 55.2088 151.123 54.4611 150.36 54.1454C149.054 53.604 148.207 52.3784 148.201 51.0223C148.196 49.6662 149.032 48.4336 150.332 47.8834C151.092 47.5606 151.582 46.8112 151.578 45.9718L151.562 42.175C151.558 41.3356 151.062 40.5879 150.299 40.2722C148.993 39.7309 148.146 38.5052 148.14 37.1491C148.135 35.793 148.971 34.5604 150.269 34.0102C151.031 33.6875 151.521 32.9362 151.517 32.0968L151.501 28.2948C151.497 27.4554 151.001 26.7094 150.238 26.392C148.932 25.8524 148.085 24.6268 148.079 23.2707C148.074 21.9146 148.91 20.6819 150.21 20.1317C150.97 19.809 151.46 19.0595 151.456 18.2201L151.44 14.4234C151.436 13.584 150.94 12.8363 150.176 12.5206C148.871 11.9792 148.024 10.7536 148.018 9.39927C148.013 8.04317 148.849 6.8105 150.149 6.2603C150.911 5.93758 151.401 5.18635 151.397 4.34694L151.39 2.46003C151.384 1.29262 150.387 0.347408 149.165 0.347408C149.161 0.347408 149.159 0.347408 149.156 0.347408L111.743 0.495544C109.002 0.508326 106.474 0.530805 103.724 0.530805Z" fill="#FFB909"/>
<path d="M3.0594 56.7856C5.12885 55.8157 6.4456 53.8 6.43636 51.5904C6.42711 49.379 5.09186 47.3757 3.01502 46.4217L3.00022 42.9124C5.06967 41.9425 6.38642 39.9268 6.37717 37.7172C6.36793 35.5058 5.03268 33.5008 2.95583 32.5468L2.94104 29.0322C5.01049 28.0623 6.32724 26.0466 6.318 23.837C6.30875 21.6274 4.9735 19.6223 2.89666 18.6683L2.88186 15.159C4.95131 14.1891 6.26806 12.1734 6.25881 9.96382C6.24957 7.75243 4.91432 5.74739 2.83747 4.79335L2.83008 3.27325C18.2248 3.21235 85.296 2.84119 111.901 2.84119C138.505 2.84119 148.94 2.69482 148.94 2.69482L148.947 4.21493C146.878 5.18483 145.561 7.20048 145.57 9.41186C145.579 11.6215 146.915 13.6265 148.992 14.5806L149.006 18.0899C146.937 19.0598 145.62 21.0754 145.629 23.285C145.639 25.4947 146.974 27.4997 149.051 28.4538L149.066 31.9683C146.998 32.9382 145.679 34.9521 145.689 37.1653C145.698 39.3766 147.033 41.3799 149.11 42.334L149.125 45.8433C147.055 46.8132 145.739 48.8288 145.748 51.0384C145.757 53.2481 147.092 55.2531 149.169 56.2071L149.176 57.722C149.176 57.722 151.062 57.8683 112.137 57.8683C73.2125 57.8683 39.2356 58.1573 3.0668 58.3004L3.0594 56.7856Z" fill="#FFD56B"/>
<path d="M48.8758 16.12H54.5358V18.62H48.8758V16.12ZM66.4782 20.36V23H55.8982V20.9L61.2982 15.8C61.8715 15.2533 62.2582 14.7867 62.4582 14.4C62.6582 14 62.7582 13.6067 62.7582 13.22C62.7582 12.66 62.5648 12.2333 62.1782 11.94C61.8048 11.6333 61.2515 11.48 60.5182 11.48C59.9048 11.48 59.3515 11.6 58.8582 11.84C58.3648 12.0667 57.9515 12.4133 57.6182 12.88L55.2582 11.36C55.8048 10.5467 56.5582 9.91333 57.5182 9.46C58.4782 8.99333 59.5782 8.76 60.8182 8.76C61.8582 8.76 62.7648 8.93333 63.5382 9.28C64.3248 9.61333 64.9315 10.0933 65.3582 10.72C65.7982 11.3333 66.0182 12.06 66.0182 12.9C66.0182 13.66 65.8582 14.3733 65.5382 15.04C65.2182 15.7067 64.5982 16.4667 63.6782 17.32L60.4582 20.36H66.4782ZM73.776 23.24C72.616 23.24 71.5827 22.9533 70.676 22.38C69.7693 21.8067 69.056 20.98 68.536 19.9C68.0293 18.8067 67.776 17.5067 67.776 16C67.776 14.4933 68.0293 13.2 68.536 12.12C69.056 11.0267 69.7693 10.1933 70.676 9.62C71.5827 9.04667 72.616 8.76 73.776 8.76C74.936 8.76 75.9693 9.04667 76.876 9.62C77.7827 10.1933 78.4893 11.0267 78.996 12.12C79.516 13.2 79.776 14.4933 79.776 16C79.776 17.5067 79.516 18.8067 78.996 19.9C78.4893 20.98 77.7827 21.8067 76.876 22.38C75.9693 22.9533 74.936 23.24 73.776 23.24ZM73.776 20.5C74.6293 20.5 75.296 20.1333 75.776 19.4C76.2693 18.6667 76.516 17.5333 76.516 16C76.516 14.4667 76.2693 13.3333 75.776 12.6C75.296 11.8667 74.6293 11.5 73.776 11.5C72.936 11.5 72.2693 11.8667 71.776 12.6C71.296 13.3333 71.056 14.4667 71.056 16C71.056 17.5333 71.296 18.6667 71.776 19.4C72.2693 20.1333 72.936 20.5 73.776 20.5ZM90.2543 16.56C89.2276 16.56 88.3876 16.2133 87.7343 15.52C87.0943 14.8133 86.7743 13.8733 86.7743 12.7C86.7743 11.5267 87.0943 10.5933 87.7343 9.9C88.3876 9.19333 89.2276 8.84 90.2543 8.84C91.2809 8.84 92.1143 9.19333 92.7543 9.9C93.3943 10.5933 93.7143 11.5267 93.7143 12.7C93.7143 13.8733 93.3943 14.8133 92.7543 15.52C92.1143 16.2133 91.2809 16.56 90.2543 16.56ZM98.5943 9H100.974L91.4143 23H89.0343L98.5943 9ZM90.2543 14.92C90.7076 14.92 91.0609 14.7333 91.3143 14.36C91.5809 13.9867 91.7143 13.4333 91.7143 12.7C91.7143 11.9667 91.5809 11.4133 91.3143 11.04C91.0609 10.6667 90.7076 10.48 90.2543 10.48C89.8143 10.48 89.4609 10.6733 89.1943 11.06C88.9276 11.4333 88.7943 11.98 88.7943 12.7C88.7943 13.42 88.9276 13.9733 89.1943 14.36C89.4609 14.7333 89.8143 14.92 90.2543 14.92ZM99.7543 23.16C99.0876 23.16 98.4876 23.0067 97.9543 22.7C97.4343 22.38 97.0276 21.9267 96.7343 21.34C96.4409 20.7533 96.2943 20.0733 96.2943 19.3C96.2943 18.5267 96.4409 17.8467 96.7343 17.26C97.0276 16.6733 97.4343 16.2267 97.9543 15.92C98.4876 15.6 99.0876 15.44 99.7543 15.44C100.781 15.44 101.614 15.7933 102.254 16.5C102.908 17.1933 103.234 18.1267 103.234 19.3C103.234 20.4733 102.908 21.4133 102.254 22.12C101.614 22.8133 100.781 23.16 99.7543 23.16ZM99.7543 21.52C100.208 21.52 100.561 21.3333 100.814 20.96C101.081 20.5733 101.214 20.02 101.214 19.3C101.214 18.58 101.081 18.0333 100.814 17.66C100.561 17.2733 100.208 17.08 99.7543 17.08C99.3143 17.08 98.9609 17.2667 98.6943 17.64C98.4276 18.0133 98.2943 18.5667 98.2943 19.3C98.2943 20.0333 98.4276 20.5867 98.6943 20.96C98.9609 21.3333 99.3143 21.52 99.7543 21.52Z" fill="#ED3A3A"/>
<path d="M24.3225 38.6V47H23.4705V40.28L20.1705 45.932H19.7505L16.4505 40.316V47H15.5985V38.6H16.3305L19.9785 44.828L23.5905 38.6H24.3225ZM29.0874 40.64C29.9114 40.64 30.5434 40.848 30.9834 41.264C31.4234 41.672 31.6434 42.28 31.6434 43.088V47H30.8274V46.016C30.6354 46.344 30.3514 46.6 29.9754 46.784C29.6074 46.968 29.1674 47.06 28.6554 47.06C27.9514 47.06 27.3914 46.892 26.9754 46.556C26.5594 46.22 26.3514 45.776 26.3514 45.224C26.3514 44.688 26.5434 44.256 26.9274 43.928C27.3194 43.6 27.9394 43.436 28.7874 43.436H30.7914V43.052C30.7914 42.508 30.6394 42.096 30.3354 41.816C30.0314 41.528 29.5874 41.384 29.0034 41.384C28.6034 41.384 28.2194 41.452 27.8514 41.588C27.4834 41.716 27.1674 41.896 26.9034 42.128L26.5194 41.492C26.8394 41.22 27.2234 41.012 27.6714 40.868C28.1194 40.716 28.5914 40.64 29.0874 40.64ZM28.7874 46.388C29.2674 46.388 29.6794 46.28 30.0234 46.064C30.3674 45.84 30.6234 45.52 30.7914 45.104V44.072H28.8114C27.7314 44.072 27.1914 44.448 27.1914 45.2C27.1914 45.568 27.3314 45.86 27.6114 46.076C27.8914 46.284 28.2834 46.388 28.7874 46.388ZM29.9274 39.632C29.7434 39.632 29.5794 39.592 29.4354 39.512C29.2914 39.424 29.1354 39.304 28.9674 39.152C28.8234 39.032 28.7074 38.948 28.6194 38.9C28.5394 38.844 28.4514 38.816 28.3554 38.816C28.1714 38.816 28.0234 38.884 27.9114 39.02C27.7994 39.156 27.7394 39.344 27.7314 39.584H27.2154C27.2314 39.184 27.3354 38.864 27.5274 38.624C27.7194 38.384 27.9754 38.264 28.2954 38.264C28.4794 38.264 28.6394 38.304 28.7754 38.384C28.9194 38.464 29.0834 38.584 29.2674 38.744C29.3954 38.856 29.5034 38.94 29.5914 38.996C29.6794 39.052 29.7714 39.08 29.8674 39.08C30.0434 39.08 30.1874 39.016 30.2994 38.888C30.4114 38.752 30.4754 38.568 30.4914 38.336H31.0074C30.9914 38.728 30.8874 39.044 30.6954 39.284C30.5034 39.516 30.2474 39.632 29.9274 39.632Z" fill="#0072BB"/>
<rect x="41" y="31" width="97" height="24" rx="4" fill="white"/>
<path d="M58.2478 40.52C59.0558 40.52 59.6958 40.756 60.1678 41.228C60.6398 41.692 60.8758 42.392 60.8758 43.328V47H59.3758V43.52C59.3758 42.96 59.2518 42.54 59.0038 42.26C58.7558 41.972 58.3998 41.828 57.9358 41.828C57.4318 41.828 57.0278 41.996 56.7238 42.332C56.4198 42.66 56.2678 43.132 56.2678 43.748V47H54.7678V43.52C54.7678 42.96 54.6438 42.54 54.3958 42.26C54.1478 41.972 53.7918 41.828 53.3278 41.828C52.8158 41.828 52.4078 41.992 52.1038 42.32C51.8078 42.648 51.6598 43.124 51.6598 43.748V47H50.1598V40.592H51.5878V41.408C51.8278 41.12 52.1278 40.9 52.4878 40.748C52.8478 40.596 53.2478 40.52 53.6878 40.52C54.1678 40.52 54.5918 40.612 54.9598 40.796C55.3358 40.972 55.6318 41.236 55.8478 41.588C56.1118 41.252 56.4518 40.992 56.8678 40.808C57.2838 40.616 57.7438 40.52 58.2478 40.52ZM65.7912 47.084C65.1272 47.084 64.5312 46.944 64.0032 46.664C63.4752 46.384 63.0632 45.996 62.7672 45.5C62.4712 44.996 62.3232 44.428 62.3232 43.796C62.3232 43.164 62.4712 42.6 62.7672 42.104C63.0632 41.608 63.4712 41.22 63.9912 40.94C64.5192 40.66 65.1192 40.52 65.7912 40.52C66.4232 40.52 66.9752 40.648 67.4472 40.904C67.9272 41.16 68.2872 41.528 68.5272 42.008L67.3752 42.68C67.1912 42.384 66.9592 42.164 66.6792 42.02C66.4072 41.868 66.1072 41.792 65.7792 41.792C65.2192 41.792 64.7552 41.976 64.3872 42.344C64.0192 42.704 63.8352 43.188 63.8352 43.796C63.8352 44.404 64.0152 44.892 64.3752 45.26C64.7432 45.62 65.2112 45.8 65.7792 45.8C66.1072 45.8 66.4072 45.728 66.6792 45.584C66.9592 45.432 67.1912 45.208 67.3752 44.912L68.5272 45.584C68.2792 46.064 67.9152 46.436 67.4352 46.7C66.9632 46.956 66.4152 47.084 65.7912 47.084ZM73.3173 40.52C73.9413 40.52 74.4973 40.656 74.9853 40.928C75.4813 41.2 75.8693 41.584 76.1493 42.08C76.4293 42.576 76.5693 43.148 76.5693 43.796C76.5693 44.444 76.4293 45.02 76.1493 45.524C75.8693 46.02 75.4813 46.404 74.9853 46.676C74.4973 46.948 73.9413 47.084 73.3173 47.084C72.8773 47.084 72.4733 47.008 72.1053 46.856C71.7453 46.704 71.4413 46.476 71.1933 46.172V47H69.7653V38.096H71.2653V41.372C71.5213 41.092 71.8213 40.88 72.1653 40.736C72.5173 40.592 72.9013 40.52 73.3173 40.52ZM73.1493 45.8C73.7013 45.8 74.1533 45.616 74.5053 45.248C74.8653 44.88 75.0453 44.396 75.0453 43.796C75.0453 43.196 74.8653 42.712 74.5053 42.344C74.1533 41.976 73.7013 41.792 73.1493 41.792C72.7893 41.792 72.4653 41.876 72.1773 42.044C71.8893 42.204 71.6613 42.436 71.4933 42.74C71.3253 43.044 71.2413 43.396 71.2413 43.796C71.2413 44.196 71.3253 44.548 71.4933 44.852C71.6613 45.156 71.8893 45.392 72.1773 45.56C72.4653 45.72 72.7893 45.8 73.1493 45.8ZM80.8718 47.084C80.2238 47.084 79.6398 46.944 79.1198 46.664C78.5998 46.384 78.1918 45.996 77.8958 45.5C77.6078 44.996 77.4638 44.428 77.4638 43.796C77.4638 43.164 77.6078 42.6 77.8958 42.104C78.1918 41.608 78.5998 41.22 79.1198 40.94C79.6398 40.66 80.2238 40.52 80.8718 40.52C81.5278 40.52 82.1158 40.66 82.6358 40.94C83.1558 41.22 83.5598 41.608 83.8478 42.104C84.1438 42.6 84.2918 43.164 84.2918 43.796C84.2918 44.428 84.1438 44.996 83.8478 45.5C83.5598 45.996 83.1558 46.384 82.6358 46.664C82.1158 46.944 81.5278 47.084 80.8718 47.084ZM80.8718 45.8C81.4238 45.8 81.8798 45.616 82.2398 45.248C82.5998 44.88 82.7798 44.396 82.7798 43.796C82.7798 43.196 82.5998 42.712 82.2398 42.344C81.8798 41.976 81.4238 41.792 80.8718 41.792C80.3198 41.792 79.8638 41.976 79.5038 42.344C79.1518 42.712 78.9758 43.196 78.9758 43.796C78.9758 44.396 79.1518 44.88 79.5038 45.248C79.8638 45.616 80.3198 45.8 80.8718 45.8ZM88.6062 47.084C87.9582 47.084 87.3742 46.944 86.8542 46.664C86.3342 46.384 85.9262 45.996 85.6302 45.5C85.3422 44.996 85.1982 44.428 85.1982 43.796C85.1982 43.164 85.3422 42.6 85.6302 42.104C85.9262 41.608 86.3342 41.22 86.8542 40.94C87.3742 40.66 87.9582 40.52 88.6062 40.52C89.2622 40.52 89.8502 40.66 90.3702 40.94C90.8902 41.22 91.2942 41.608 91.5822 42.104C91.8782 42.6 92.0262 43.164 92.0262 43.796C92.0262 44.428 91.8782 44.996 91.5822 45.5C91.2942 45.996 90.8902 46.384 90.3702 46.664C89.8502 46.944 89.2622 47.084 88.6062 47.084ZM88.6062 45.8C89.1582 45.8 89.6142 45.616 89.9742 45.248C90.3342 44.88 90.5142 44.396 90.5142 43.796C90.5142 43.196 90.3342 42.712 89.9742 42.344C89.6142 41.976 89.1582 41.792 88.6062 41.792C88.0542 41.792 87.5982 41.976 87.2382 42.344C86.8862 42.712 86.7102 43.196 86.7102 43.796C86.7102 44.396 86.8862 44.88 87.2382 45.248C87.5982 45.616 88.0542 45.8 88.6062 45.8ZM96.0766 44.252L94.9606 45.308V47H93.4606V38.096H94.9606V43.472L98.0686 40.592H99.8686L97.1926 43.28L100.121 47H98.2966L96.0766 44.252ZM102.87 47.084C102.35 47.084 101.842 47.016 101.346 46.88C100.85 46.744 100.454 46.572 100.158 46.364L100.734 45.224C101.022 45.416 101.366 45.572 101.766 45.692C102.174 45.804 102.574 45.86 102.966 45.86C103.862 45.86 104.31 45.624 104.31 45.152C104.31 44.928 104.194 44.772 103.962 44.684C103.738 44.596 103.374 44.512 102.87 44.432C102.342 44.352 101.91 44.26 101.574 44.156C101.246 44.052 100.958 43.872 100.71 43.616C100.47 43.352 100.35 42.988 100.35 42.524C100.35 41.916 100.602 41.432 101.106 41.072C101.618 40.704 102.306 40.52 103.17 40.52C103.61 40.52 104.05 40.572 104.49 40.676C104.93 40.772 105.29 40.904 105.57 41.072L104.994 42.212C104.45 41.892 103.838 41.732 103.158 41.732C102.718 41.732 102.382 41.8 102.15 41.936C101.926 42.064 101.814 42.236 101.814 42.452C101.814 42.692 101.934 42.864 102.174 42.968C102.422 43.064 102.802 43.156 103.314 43.244C103.826 43.324 104.246 43.416 104.574 43.52C104.902 43.624 105.182 43.8 105.414 44.048C105.654 44.296 105.774 44.648 105.774 45.104C105.774 45.704 105.514 46.184 104.994 46.544C104.474 46.904 103.766 47.084 102.87 47.084ZM109.514 40.52C110.458 40.52 111.178 40.748 111.674 41.204C112.178 41.652 112.43 42.332 112.43 43.244V47H111.014V46.22C110.83 46.5 110.566 46.716 110.222 46.868C109.886 47.012 109.478 47.084 108.998 47.084C108.518 47.084 108.098 47.004 107.738 46.844C107.378 46.676 107.098 46.448 106.898 46.16C106.706 45.864 106.61 45.532 106.61 45.164C106.61 44.588 106.822 44.128 107.246 43.784C107.678 43.432 108.354 43.256 109.274 43.256H110.93V43.16C110.93 42.712 110.794 42.368 110.522 42.128C110.258 41.888 109.862 41.768 109.334 41.768C108.974 41.768 108.618 41.824 108.266 41.936C107.922 42.048 107.63 42.204 107.39 42.404L106.802 41.312C107.138 41.056 107.542 40.86 108.014 40.724C108.486 40.588 108.986 40.52 109.514 40.52ZM109.31 45.992C109.686 45.992 110.018 45.908 110.306 45.74C110.602 45.564 110.81 45.316 110.93 44.996V44.252H109.382C108.518 44.252 108.086 44.536 108.086 45.104C108.086 45.376 108.194 45.592 108.41 45.752C108.626 45.912 108.926 45.992 109.31 45.992ZM117.907 40.52C118.531 40.52 119.087 40.656 119.575 40.928C120.071 41.2 120.459 41.584 120.739 42.08C121.019 42.576 121.159 43.148 121.159 43.796C121.159 44.444 121.019 45.02 120.739 45.524C120.459 46.02 120.071 46.404 119.575 46.676C119.087 46.948 118.531 47.084 117.907 47.084C117.043 47.084 116.359 46.796 115.855 46.22V49.328H114.355V40.592H115.783V41.432C116.031 41.128 116.335 40.9 116.695 40.748C117.063 40.596 117.467 40.52 117.907 40.52ZM117.739 45.8C118.291 45.8 118.743 45.616 119.095 45.248C119.455 44.88 119.635 44.396 119.635 43.796C119.635 43.196 119.455 42.712 119.095 42.344C118.743 41.976 118.291 41.792 117.739 41.792C117.379 41.792 117.055 41.876 116.767 42.044C116.479 42.204 116.251 42.436 116.083 42.74C115.915 43.044 115.831 43.396 115.831 43.796C115.831 44.196 115.915 44.548 116.083 44.852C116.251 45.156 116.479 45.392 116.767 45.56C117.055 45.72 117.379 45.8 117.739 45.8ZM126.134 40.52C126.758 40.52 127.314 40.656 127.802 40.928C128.298 41.2 128.686 41.584 128.966 42.08C129.246 42.576 129.386 43.148 129.386 43.796C129.386 44.444 129.246 45.02 128.966 45.524C128.686 46.02 128.298 46.404 127.802 46.676C127.314 46.948 126.758 47.084 126.134 47.084C125.27 47.084 124.586 46.796 124.082 46.22V49.328H122.582V40.592H124.01V41.432C124.258 41.128 124.562 40.9 124.922 40.748C125.29 40.596 125.694 40.52 126.134 40.52ZM125.966 45.8C126.518 45.8 126.97 45.616 127.322 45.248C127.682 44.88 127.862 44.396 127.862 43.796C127.862 43.196 127.682 42.712 127.322 42.344C126.97 41.976 126.518 41.792 125.966 41.792C125.606 41.792 125.282 41.876 124.994 42.044C124.706 42.204 124.478 42.436 124.31 42.74C124.142 43.044 124.058 43.396 124.058 43.796C124.058 44.196 124.142 44.548 124.31 44.852C124.478 45.156 124.706 45.392 124.994 45.56C125.282 45.72 125.606 45.8 125.966 45.8Z" fill="#0072BB"/>
</svg>
