<svg width="288" height="52" viewBox="0 0 288 52" fill="none" xmlns="http://www.w3.org/2000/svg">
<path d="M280.819 8.01561C280.83 9.14608 282.424 10.1157 284.698 10.5396C286.307 10.8388 287.295 11.5468 287.302 12.2985L287.333 15.535C287.34 16.2882 286.366 16.9977 284.765 17.3029C282.501 17.7343 280.924 18.71 280.935 19.8404C280.945 20.9709 282.54 21.9405 284.814 22.3644C286.422 22.6636 287.41 23.3716 287.417 24.1233L287.449 27.3643C287.456 28.1175 286.482 28.827 284.877 29.1337C282.613 29.5652 281.04 30.5378 281.051 31.6712C281.061 32.8017 282.655 33.7728 284.93 34.1953C286.538 34.4944 287.526 35.2025 287.533 35.9541L287.565 39.1907C287.572 39.9438 286.597 40.6534 284.996 40.9585C282.732 41.39 281.156 42.3656 281.166 43.4961C281.177 44.6265 282.771 45.5961 285.045 46.0201C286.654 46.3192 287.642 47.0273 287.649 47.7789L287.663 49.3829C287.673 50.4653 285.637 51.3462 283.114 51.3507L212.227 51.477C210.587 51.48 209.147 51.0816 208.26 50.4893C207.49 49.9737 206.137 49.6325 204.602 49.6355C203.067 49.6385 201.722 49.9827 200.961 50.5014C200.085 51.0967 198.656 51.4995 197.012 51.5025L5.39552 51.8423C2.87258 51.8468 0.819198 50.9734 0.808685 49.891L0.794669 48.287C0.787661 47.5339 1.76179 46.8243 3.36316 46.5192C5.62679 46.0877 7.20362 45.1121 7.19311 43.9816C7.1826 42.8512 5.58824 41.8815 3.3141 41.4576C1.70573 41.1585 0.71758 40.4504 0.710572 39.6988L0.679034 36.4622C0.672026 35.7106 1.64616 34.9995 3.24752 34.6943C5.51115 34.2629 7.08799 33.2873 7.07747 32.1568C7.06696 31.0233 5.47261 30.0552 3.20197 29.6328C1.59009 29.3336 0.601945 28.6256 0.594937 27.8725L0.563399 24.6314C0.556391 23.8782 1.53052 23.1687 3.13189 22.8635C5.39552 22.4321 6.97235 21.4565 6.96184 20.326C6.95133 19.1955 5.35697 18.2259 3.08283 17.802C1.47446 17.5028 0.48631 16.7948 0.479302 16.0431L0.447766 12.8066C0.440758 12.0534 1.41489 11.3439 3.01625 11.0387C5.27988 10.6073 6.85672 9.63164 6.8462 8.50117C6.83569 7.3677 5.24134 6.39959 2.9707 5.97716C1.35882 5.67801 0.370675 4.96997 0.363667 4.21682L0.34965 2.60831C0.339138 1.52595 2.37501 0.645025 4.89794 0.640516L196.518 0.300774C198.158 0.297767 199.598 0.696137 200.485 1.28843C201.256 1.80406 202.608 2.1453 204.143 2.14229C205.678 2.13929 207.023 1.79353 207.784 1.2764C208.66 0.681105 210.09 0.278225 211.733 0.275218L282.62 0.148943C285.143 0.144433 287.197 1.01784 287.207 2.1002L287.221 3.70871C287.228 4.46186 286.254 5.17141 284.649 5.47807C282.382 5.90801 280.809 6.88214 280.819 8.01561Z" fill="#FFB909"/>
<path d="M5.36828 52C4.06126 52 2.83483 51.7835 1.90626 51.3882C0.974171 50.9913 0.455568 50.4621 0.452063 49.8984L0.438047 48.2944C0.431039 47.4601 1.52081 46.7115 3.21678 46.3883C5.42785 45.9673 6.8505 45.0248 6.83999 43.9875C6.82948 42.9502 5.38931 42.0137 3.17123 41.6003C1.46825 41.2831 0.364463 40.539 0.357455 39.7047L0.325917 36.4681C0.318908 35.6338 1.40868 34.8851 3.10115 34.5619C5.31222 34.141 6.73487 33.1985 6.72436 32.1612C6.71385 31.1239 5.27717 30.1874 3.0591 29.774C1.35612 29.4568 0.248828 28.7127 0.24182 27.8768L0.210284 24.6358C0.203276 23.8015 1.29304 23.0528 2.98902 22.7296C5.20009 22.3087 6.62274 21.3661 6.61223 20.3304C6.60171 19.2931 5.16154 18.3566 2.94346 17.9432C1.24048 17.626 0.136697 16.8818 0.129689 16.0475L0.0981539 12.811C0.0911457 11.9766 1.18091 11.228 2.87338 10.9048C5.08445 10.4839 6.5071 9.54133 6.49659 8.50406C6.48608 7.4668 5.04941 6.53025 2.83133 6.11685C1.12835 5.79966 0.0210623 5.05553 0.0140542 4.21971L3.75665e-05 2.6112C-0.0104747 1.44766 2.18658 0.497587 4.89873 0.493077L196.516 0.153335C196.523 0.153335 196.53 0.153335 196.533 0.153335C198.201 0.153335 199.788 0.547195 200.777 1.21014C201.512 1.70171 202.763 1.99485 204.123 1.99485C204.13 1.99485 204.133 1.99485 204.14 1.99485C205.507 1.99185 206.758 1.6942 207.487 1.19812C208.468 0.530658 210.055 0.129283 211.73 0.126276L282.618 0C282.625 0 282.632 0 282.639 0C285.34 0 287.544 0.941054 287.555 2.10008L287.569 3.7086C287.576 4.54442 286.486 5.29155 284.787 5.61626C282.579 6.03718 281.16 6.97823 281.167 8.0155C281.177 9.05276 282.618 9.9893 284.836 10.4027C286.535 10.7199 287.642 11.464 287.65 12.2998L287.681 15.5364C287.688 16.3707 286.598 17.1194 284.902 17.4426C282.691 17.8635 281.269 18.806 281.279 19.8418C281.29 20.8791 282.73 21.8156 284.948 22.229C286.651 22.5462 287.755 23.2903 287.762 24.1247L287.793 27.3657C287.8 28.2001 286.71 28.9487 285.011 29.2734C282.803 29.6943 281.384 30.6354 281.391 31.6726C281.402 32.7099 282.842 33.6464 285.06 34.0598C286.759 34.377 287.867 35.1212 287.874 35.9555L287.905 39.1921C287.912 40.0264 286.823 40.775 285.127 41.0982C282.915 41.5191 281.493 42.4617 281.503 43.4974C281.514 44.5347 282.954 45.4712 285.172 45.8847C286.875 46.2018 287.979 46.946 287.986 47.7803L288 49.3843C288.007 49.948 287.499 50.4787 286.574 50.8786C285.649 51.2784 284.415 51.5009 283.101 51.5024L212.214 51.6287C212.207 51.6287 212.2 51.6287 212.196 51.6287C210.528 51.6287 208.941 51.2348 207.949 50.5719C207.213 50.0803 205.963 49.7872 204.603 49.7872C204.596 49.7872 204.592 49.7872 204.585 49.7872C203.219 49.7902 201.968 50.0878 201.239 50.5839C200.258 51.2514 198.671 51.6527 196.996 51.6558L5.37879 51.9955C5.3823 52 5.37529 52 5.36828 52ZM196.53 0.452488C196.523 0.452488 196.519 0.452488 196.512 0.452488L4.89523 0.79223C2.57203 0.79674 0.686838 1.61152 0.69735 2.60819L0.711367 4.2167C0.718375 4.93227 1.65747 5.56966 3.10815 5.83875C5.57853 6.29875 7.18339 7.34353 7.1939 8.49955C7.20442 9.65558 5.62057 10.7064 3.1537 11.1754C1.71353 11.4505 0.784951 12.0894 0.791959 12.805L0.823497 16.0415C0.830505 16.7571 1.7696 17.393 3.21678 17.6636C5.69065 18.1236 7.29552 19.1683 7.30604 20.3244C7.31655 21.4804 5.7327 22.5312 3.26934 23.0002C1.82916 23.2753 0.900586 23.9142 0.907594 24.6298L0.93913 27.8708C0.946138 28.5864 1.88523 29.2238 3.33592 29.4929C5.80629 29.9529 7.41116 30.9977 7.42167 32.1552C7.43218 33.3112 5.84834 34.362 3.38147 34.831C1.9413 35.1061 1.01272 35.745 1.01972 36.4606L1.05126 39.6972C1.05827 40.4127 1.99736 41.0501 3.44454 41.3192C5.91842 41.7807 7.52329 42.824 7.5338 43.9815C7.54431 45.1375 5.96047 46.1883 3.4971 46.6573C2.05693 46.9324 1.12835 47.5713 1.13536 48.2869L1.14938 49.8909C1.15288 50.3735 1.5979 50.8274 2.39683 51.1672C3.19225 51.5054 4.24698 51.6918 5.36478 51.6918C5.37179 51.6918 5.37529 51.6918 5.3823 51.6918L196.999 51.3521C198.432 51.3491 199.799 51.0018 200.654 50.4201C201.512 49.8368 202.984 49.4865 204.589 49.4835C204.596 49.4835 204.603 49.4835 204.61 49.4835C206.211 49.4835 207.68 49.8278 208.545 50.4065C209.407 50.9823 210.774 51.325 212.2 51.325C212.203 51.325 212.21 51.325 212.214 51.325L283.101 51.1988C284.226 51.1973 285.284 51.0063 286.076 50.6636C286.868 50.3208 287.303 49.8653 287.299 49.3828L287.285 47.7788C287.278 47.0632 286.339 46.4258 284.892 46.1567C282.418 45.6952 280.813 44.6505 280.803 43.4944C280.792 42.3384 282.376 41.2876 284.839 40.8186C286.279 40.5435 287.208 39.9046 287.201 39.189L287.169 35.9525C287.162 35.2369 286.223 34.5995 284.776 34.3304C282.302 33.8689 280.697 32.8241 280.687 31.6681C280.676 30.5121 282.26 29.4613 284.72 28.9923C286.164 28.7172 287.092 28.0768 287.085 27.3612L287.054 24.1201C287.047 23.4046 286.108 22.7687 284.661 22.4981C282.187 22.0381 280.582 20.9933 280.571 19.8373C280.561 18.6813 282.145 17.6305 284.608 17.1615C286.048 16.8864 286.977 16.2475 286.97 15.5319L286.938 12.2953C286.931 11.5798 285.992 10.9424 284.545 10.6733C282.071 10.2118 280.466 9.16701 280.456 8.01249C280.445 6.85647 282.029 5.80567 284.492 5.33665C285.936 5.06155 286.865 4.42115 286.858 3.70559L286.844 2.09708C286.833 1.10191 284.944 0.296147 282.628 0.296147C282.621 0.296147 282.618 0.296147 282.611 0.296147L211.723 0.422423C210.29 0.425429 208.923 0.772687 208.068 1.35295C207.21 1.93623 205.738 2.28649 204.133 2.2895C204.126 2.2895 204.119 2.2895 204.112 2.2895C202.511 2.2895 201.043 1.94525 200.177 1.36648C199.322 0.795236 197.959 0.452488 196.53 0.452488Z" fill="#FFB909"/>
<path d="M5.79388 48.407C9.71494 47.5802 12.2098 45.8619 12.1923 43.9783C12.1748 42.0932 9.64486 40.3855 5.70978 39.5722L5.68175 36.5807C9.60281 35.7539 12.0977 34.0356 12.0802 32.152C12.0627 30.2669 9.53273 28.5577 5.59765 27.7444L5.56962 24.7483C9.49068 23.9215 11.9856 22.2033 11.9681 20.3197C11.9505 18.4361 9.4206 16.7268 5.48552 15.9136L5.45749 12.922C9.37855 12.0952 11.8734 10.377 11.8559 8.49336C11.8384 6.60825 9.30847 4.89902 5.37339 4.08574L5.35938 2.78991L196.268 2.45168C197.828 3.49195 200.361 4.1564 203.227 4.27365C203.536 4.28568 203.848 4.29319 204.163 4.29169C207.373 4.28568 210.309 3.58816 212.019 2.42311L282.199 2.29834L282.213 3.59417C278.292 4.42097 275.797 6.13922 275.814 8.02434C275.832 9.90795 278.362 11.6172 282.297 12.4305L282.325 15.422C278.404 16.2488 275.909 17.967 275.926 19.8507C275.944 21.7343 278.474 23.4435 282.409 24.2568L282.437 27.2528C278.52 28.0796 276.021 29.7964 276.039 31.683C276.056 33.5681 278.586 35.2758 282.521 36.0891L282.549 39.0806C278.628 39.9074 276.133 41.6257 276.151 43.5093C276.168 45.3929 278.698 47.1021 282.633 47.9154L282.647 49.2067L212.468 49.3315C210.912 48.2912 208.375 47.6268 205.509 47.5095C205.2 47.4975 204.888 47.49 204.573 47.4915C201.367 47.4975 198.427 48.195 196.717 49.3601L5.8079 49.6998L5.79388 48.407Z" fill="#FFD56B"/>
<path d="M105.796 25.556H108.01V30.578C107.362 31.094 106.606 31.49 105.742 31.766C104.878 32.042 103.99 32.18 103.078 32.18C101.794 32.18 100.636 31.904 99.604 31.352C98.572 30.788 97.762 30.014 97.174 29.03C96.586 28.046 96.292 26.936 96.292 25.7C96.292 24.464 96.586 23.354 97.174 22.37C97.762 21.386 98.572 20.618 99.604 20.066C100.648 19.502 101.818 19.22 103.114 19.22C104.17 19.22 105.13 19.394 105.994 19.742C106.858 20.09 107.584 20.6 108.172 21.272L106.696 22.712C105.736 21.752 104.578 21.272 103.222 21.272C102.334 21.272 101.542 21.458 100.846 21.83C100.162 22.202 99.622 22.724 99.226 23.396C98.842 24.068 98.65 24.836 98.65 25.7C98.65 26.54 98.842 27.296 99.226 27.968C99.622 28.64 100.162 29.168 100.846 29.552C101.542 29.936 102.328 30.128 103.204 30.128C104.188 30.128 105.052 29.912 105.796 29.48V25.556ZM110.88 22.388H113.13V32H110.88V22.388ZM112.014 20.804C111.606 20.804 111.264 20.678 110.988 20.426C110.712 20.162 110.574 19.838 110.574 19.454C110.574 19.07 110.712 18.752 110.988 18.5C111.264 18.236 111.606 18.104 112.014 18.104C112.422 18.104 112.764 18.23 113.04 18.482C113.316 18.722 113.454 19.028 113.454 19.4C113.454 19.796 113.316 20.132 113.04 20.408C112.776 20.672 112.434 20.804 112.014 20.804ZM119.755 22.28C121.171 22.28 122.251 22.622 122.995 23.306C123.751 23.978 124.129 24.998 124.129 26.366V32H122.005V30.83C121.729 31.25 121.333 31.574 120.817 31.802C120.313 32.018 119.701 32.126 118.981 32.126C118.261 32.126 117.631 32.006 117.091 31.766C116.551 31.514 116.131 31.172 115.831 30.74C115.543 30.296 115.399 29.798 115.399 29.246C115.399 28.382 115.717 27.692 116.353 27.176C117.001 26.648 118.015 26.384 119.395 26.384H121.879V26.24C121.879 25.568 121.675 25.052 121.267 24.692C120.871 24.332 120.277 24.152 119.485 24.152C118.945 24.152 118.411 24.236 117.883 24.404C117.367 24.572 116.929 24.806 116.569 25.106L115.687 23.468C116.191 23.084 116.797 22.79 117.505 22.586C118.213 22.382 118.963 22.28 119.755 22.28ZM119.449 30.488C120.013 30.488 120.511 30.362 120.943 30.11C121.387 29.846 121.699 29.474 121.879 28.994V27.878H119.557C118.261 27.878 117.613 28.304 117.613 29.156C117.613 29.564 117.775 29.888 118.099 30.128C118.423 30.368 118.873 30.488 119.449 30.488ZM119.665 20.426C120.013 20.27 120.259 20.102 120.403 19.922C120.559 19.73 120.637 19.514 120.637 19.274C120.637 19.046 120.553 18.86 120.385 18.716C120.217 18.56 120.001 18.482 119.737 18.482C119.365 18.482 119.005 18.596 118.657 18.824L118.171 17.834C118.411 17.654 118.687 17.516 118.999 17.42C119.311 17.324 119.635 17.276 119.971 17.276C120.547 17.276 121.021 17.444 121.393 17.78C121.765 18.104 121.951 18.536 121.951 19.076C121.951 20.048 121.435 20.774 120.403 21.254L119.665 20.426ZM139.149 22.28C140.361 22.28 141.321 22.634 142.029 23.342C142.737 24.038 143.091 25.088 143.091 26.492V32H140.841V26.78C140.841 25.94 140.655 25.31 140.283 24.89C139.911 24.458 139.377 24.242 138.681 24.242C137.925 24.242 137.319 24.494 136.863 24.998C136.407 25.49 136.179 26.198 136.179 27.122V32H133.929V26.78C133.929 25.94 133.743 25.31 133.371 24.89C132.999 24.458 132.465 24.242 131.769 24.242C131.001 24.242 130.389 24.488 129.933 24.98C129.489 25.472 129.267 26.186 129.267 27.122V32H127.017V22.388H129.159V23.612C129.519 23.18 129.969 22.85 130.509 22.622C131.049 22.394 131.649 22.28 132.309 22.28C133.029 22.28 133.665 22.418 134.217 22.694C134.781 22.958 135.225 23.354 135.549 23.882C135.945 23.378 136.455 22.988 137.079 22.712C137.703 22.424 138.393 22.28 139.149 22.28ZM159.383 30.02V32H150.095V30.434L155.099 25.682C155.663 25.142 156.041 24.674 156.233 24.278C156.437 23.87 156.539 23.468 156.539 23.072C156.539 22.484 156.341 22.034 155.945 21.722C155.549 21.41 154.967 21.254 154.199 21.254C152.915 21.254 151.931 21.692 151.247 22.568L149.609 21.308C150.101 20.648 150.761 20.138 151.589 19.778C152.429 19.406 153.365 19.22 154.397 19.22C155.765 19.22 156.857 19.544 157.673 20.192C158.489 20.84 158.897 21.722 158.897 22.838C158.897 23.522 158.753 24.164 158.465 24.764C158.177 25.364 157.625 26.048 156.809 26.816L153.443 30.02H159.383ZM165.937 32.18C164.929 32.18 164.029 31.928 163.237 31.424C162.445 30.908 161.821 30.164 161.365 29.192C160.909 28.208 160.681 27.044 160.681 25.7C160.681 24.356 160.909 23.198 161.365 22.226C161.821 21.242 162.445 20.498 163.237 19.994C164.029 19.478 164.929 19.22 165.937 19.22C166.945 19.22 167.845 19.478 168.637 19.994C169.441 20.498 170.071 21.242 170.527 22.226C170.983 23.198 171.211 24.356 171.211 25.7C171.211 27.044 170.983 28.208 170.527 29.192C170.071 30.164 169.441 30.908 168.637 31.424C167.845 31.928 166.945 32.18 165.937 32.18ZM165.937 30.146C166.837 30.146 167.545 29.774 168.061 29.03C168.589 28.286 168.853 27.176 168.853 25.7C168.853 24.224 168.589 23.114 168.061 22.37C167.545 21.626 166.837 21.254 165.937 21.254C165.049 21.254 164.341 21.626 163.813 22.37C163.297 23.114 163.039 24.224 163.039 25.7C163.039 27.176 163.297 28.286 163.813 29.03C164.341 29.774 165.049 30.146 165.937 30.146ZM180.575 26.186C179.675 26.186 178.949 25.868 178.397 25.232C177.845 24.596 177.569 23.762 177.569 22.73C177.569 21.698 177.845 20.864 178.397 20.228C178.949 19.592 179.675 19.274 180.575 19.274C181.475 19.274 182.201 19.592 182.753 20.228C183.317 20.852 183.599 21.686 183.599 22.73C183.599 23.774 183.317 24.614 182.753 25.25C182.201 25.874 181.475 26.186 180.575 26.186ZM188.135 19.4H189.899L181.295 32H179.531L188.135 19.4ZM180.575 24.926C181.067 24.926 181.445 24.734 181.709 24.35C181.985 23.966 182.123 23.426 182.123 22.73C182.123 22.034 181.985 21.494 181.709 21.11C181.445 20.726 181.067 20.534 180.575 20.534C180.107 20.534 179.729 20.732 179.441 21.128C179.165 21.512 179.027 22.046 179.027 22.73C179.027 23.414 179.165 23.954 179.441 24.35C179.729 24.734 180.107 24.926 180.575 24.926ZM188.837 32.126C187.937 32.126 187.211 31.808 186.659 31.172C186.107 30.536 185.831 29.702 185.831 28.67C185.831 27.638 186.107 26.804 186.659 26.168C187.211 25.532 187.937 25.214 188.837 25.214C189.737 25.214 190.463 25.532 191.015 26.168C191.579 26.804 191.861 27.638 191.861 28.67C191.861 29.702 191.579 30.536 191.015 31.172C190.463 31.808 189.737 32.126 188.837 32.126ZM188.837 30.866C189.317 30.866 189.695 30.674 189.971 30.29C190.247 29.894 190.385 29.354 190.385 28.67C190.385 27.986 190.247 27.452 189.971 27.068C189.695 26.672 189.317 26.474 188.837 26.474C188.357 26.474 187.979 26.666 187.703 27.05C187.427 27.434 187.289 27.974 187.289 28.67C187.289 29.366 187.427 29.906 187.703 30.29C187.979 30.674 188.357 30.866 188.837 30.866Z" fill="#3F4254"/>
</svg>
