<svg width="205" height="28" viewBox="0 0 205 28" fill="none" xmlns="http://www.w3.org/2000/svg">
<rect y="13" width="1" height="2" fill="#ED3A3A"/>
<rect x="3" y="13" width="1" height="2" fill="#ED3A3A"/>
<rect x="6" y="13" width="1" height="2" fill="#ED3A3A"/>
<rect x="9" y="13" width="1" height="2" fill="#ED3A3A"/>
<rect x="12" y="13" width="1" height="2" fill="#ED3A3A"/>
<rect x="15" y="13" width="1" height="2" fill="#ED3A3A"/>
<rect x="18" y="13" width="1" height="2" fill="#ED3A3A"/>
<rect x="21" y="12" width="1" height="4" fill="#ED3A3A"/>
<rect x="24" y="9" width="1" height="10" fill="#ED3A3A"/>
<rect x="27" y="7" width="1" height="14" fill="#ED3A3A"/>
<rect x="30" y="10" width="1" height="8" fill="#ED3A3A"/>
<rect x="33" y="9" width="1" height="10" fill="#ED3A3A"/>
<rect x="36" y="6" width="1" height="16" fill="#ED3A3A"/>
<rect x="39" y="5" width="1" height="18" fill="#ED3A3A"/>
<rect x="42" y="2" width="1" height="24" fill="#ED3A3A"/>
<rect x="45" y="8" width="1" height="12" fill="#ED3A3A"/>
<rect x="48" y="8" width="1" height="12" fill="#ED3A3A"/>
<rect x="51" y="10" width="1" height="8" fill="#ED3A3A"/>
<rect x="54" y="11" width="1" height="6" fill="#ED3A3A"/>
<rect x="57" y="13" width="1" height="2" fill="#ED3A3A"/>
<rect x="60" y="13" width="1" height="2" fill="#ED3A3A"/>
<rect x="63" y="13" width="1" height="2" fill="#ED3A3A"/>
<rect x="66" y="13" width="1" height="2" fill="#ED3A3A"/>
<rect x="69" y="13" width="1" height="2" fill="#ED3A3A"/>
<rect x="72" y="10" width="1" height="8" fill="#ED3A3A"/>
<rect x="75" y="8" width="1" height="12" fill="#ED3A3A"/>
<rect x="78" y="5" width="1" height="18" fill="#ED3A3A"/>
<rect x="81" width="1" height="28" fill="#ED3A3A"/>
<rect x="84" y="5" width="1" height="18" fill="#ED3A3A"/>
<rect x="87" y="8" width="1" height="12" fill="#ED3A3A"/>
<rect x="90" y="6" width="1" height="16" fill="#ED3A3A"/>
<rect x="93" y="5" width="1" height="18" fill="#ED3A3A"/>
<rect x="96" y="8" width="1" height="12" fill="#ED3A3A"/>
<rect x="99" y="10" width="1" height="8" fill="#ED3A3A"/>
<rect x="102" y="12" width="1" height="4" fill="#ED3A3A"/>
<rect x="105" y="13" width="1" height="2" fill="#ED3A3A"/>
<rect x="108" y="13" width="1" height="2" fill="#ED3A3A"/>
<rect x="111" y="13" width="1" height="2" fill="#ED3A3A"/>
<rect x="114" y="13" width="1" height="2" fill="#ED3A3A"/>
<rect x="117" y="13" width="1" height="2" fill="#ED3A3A"/>
<rect x="120" y="13" width="1" height="2" fill="#ED3A3A"/>
<rect x="123" y="13" width="1" height="2" fill="#ED3A3A"/>
<rect x="126" y="13" width="1" height="2" fill="#ED3A3A"/>
<rect x="129" y="13" width="1" height="2" fill="#ED3A3A"/>
<rect x="132" y="13" width="1" height="2" fill="#ED3A3A"/>
<rect x="135" y="13" width="1" height="2" fill="#ED3A3A"/>
<rect x="138" y="13" width="1" height="2" fill="#ED3A3A"/>
<rect x="141" y="13" width="1" height="2" fill="#ED3A3A"/>
<rect x="144" y="13" width="1" height="2" fill="#ED3A3A"/>
<rect x="147" y="8" width="1" height="12" fill="#ED3A3A"/>
<rect x="150" y="4" width="1" height="20" fill="#ED3A3A"/>
<rect x="153" width="1" height="28" fill="#ED3A3A"/>
<rect x="156" y="6" width="1" height="16" fill="#ED3A3A"/>
<rect x="159" y="5" width="1" height="18" fill="#ED3A3A"/>
<rect x="162" y="10" width="1" height="8" fill="#ED3A3A"/>
<rect x="165" y="11" width="1" height="6" fill="#ED3A3A"/>
<rect x="168" y="7" width="1" height="14" fill="#ED3A3A"/>
<rect x="171" y="6" width="1" height="16" fill="#ED3A3A"/>
<rect x="174" y="12" width="1" height="4" fill="#ED3A3A"/>
<rect x="177" y="13" width="1" height="2" fill="#ED3A3A"/>
<rect x="180" y="13" width="1" height="2" fill="#ED3A3A"/>
<rect x="183" y="13" width="1" height="2" fill="#ED3A3A"/>
<rect x="186" y="13" width="1" height="2" fill="#ED3A3A"/>
<rect x="189" y="13" width="1" height="2" fill="#ED3A3A"/>
<rect x="192" y="13" width="1" height="2" fill="#ED3A3A"/>
<rect x="195" y="13" width="1" height="2" fill="#ED3A3A"/>
<rect x="198" y="13" width="1" height="2" fill="#ED3A3A"/>
<rect x="201" y="13" width="1" height="2" fill="#ED3A3A"/>
</svg>
