<svg width="24" height="24" viewBox="0 0 24 24" fill="none" xmlns="http://www.w3.org/2000/svg">
<circle cx="12" cy="12" r="12" fill="#FDE8E8"/>
<path d="M7.62188 6.40016C8.16035 6.08927 8.82377 6.08927 9.36224 6.40016C9.56221 6.51561 9.74283 6.69649 9.97061 6.92461L10.015 6.96909L11.1845 8.13851C11.4701 8.42414 11.6495 8.60204 11.7972 8.71473C11.9333 8.81861 11.9823 8.81897 12.0003 8.81897C12.0183 8.81897 12.0673 8.81861 12.2035 8.71473C12.3512 8.60204 12.5306 8.42414 12.8162 8.13851L13.9856 6.96909L14.03 6.92461C14.2578 6.69649 14.4384 6.51561 14.6384 6.40016C15.1769 6.08927 15.8403 6.08927 16.3788 6.40016C16.5787 6.51561 16.7594 6.69649 16.9871 6.92461L17.0316 6.96909L17.076 7.01352L17.0761 7.01353C17.3042 7.2413 17.485 7.42192 17.6005 7.62188C17.9114 8.16035 17.9114 8.82377 17.6005 9.36224C17.485 9.56221 17.3042 9.74283 17.076 9.97061L17.0316 10.015L15.8621 11.1845C15.5765 11.4701 15.3986 11.6495 15.2859 11.7972C15.182 11.9333 15.1817 11.9823 15.1817 12.0003C15.1817 12.0183 15.182 12.0673 15.2859 12.2035C15.3986 12.3512 15.5765 12.5306 15.8621 12.8162L17.0316 13.9856L17.076 14.0301L17.0761 14.0301C17.3042 14.2578 17.485 14.4384 17.6005 14.6384C17.9114 15.1769 17.9114 15.8403 17.6005 16.3788C17.485 16.5787 17.3042 16.7594 17.076 16.9871L17.0316 17.0316L16.9871 17.076L16.9871 17.0761C16.7593 17.3042 16.5787 17.485 16.3788 17.6005C15.8403 17.9114 15.1769 17.9114 14.6384 17.6005C14.4384 17.485 14.2578 17.3042 14.0301 17.076L13.9856 17.0316L12.8162 15.8621C12.5306 15.5765 12.3512 15.3986 12.2035 15.2859C12.0673 15.182 12.0183 15.1817 12.0003 15.1817C11.9823 15.1817 11.9333 15.182 11.7972 15.2859C11.6495 15.3986 11.4701 15.5765 11.1845 15.8621L10.015 17.0316L9.9706 17.076L9.9706 17.0761C9.74282 17.3042 9.56221 17.485 9.36224 17.6005C8.82377 17.9114 8.16035 17.9114 7.62188 17.6005C7.42192 17.485 7.2413 17.3042 7.01353 17.0761L7.01352 17.076L6.96909 17.0316L6.92461 16.9871C6.69649 16.7594 6.51561 16.5787 6.40016 16.3788C6.08927 15.8403 6.08927 15.1769 6.40016 14.6384C6.51561 14.4384 6.69648 14.2578 6.9246 14.0301L6.92461 14.03L6.96909 13.9856L8.13851 12.8162C8.42414 12.5306 8.60204 12.3512 8.71473 12.2035C8.81861 12.0673 8.81897 12.0183 8.81897 12.0003C8.81897 11.9823 8.81861 11.9333 8.71473 11.7972C8.60204 11.6495 8.42414 11.4701 8.13851 11.1845L6.96909 10.015L6.92461 9.97061C6.69649 9.74283 6.51561 9.56221 6.40016 9.36224C6.08927 8.82377 6.08927 8.16035 6.40016 7.62188C6.51561 7.42191 6.69649 7.2413 6.92461 7.01352L6.96909 6.96909L7.01352 6.92461L7.01352 6.92461C7.2413 6.69649 7.42191 6.51561 7.62188 6.40016Z" fill="#ED3A3A"/>
<path d="M7.62188 6.40016C8.16035 6.08927 8.82377 6.08927 9.36224 6.40016C9.56221 6.51561 9.74283 6.69649 9.97061 6.92461C10.3749 7.32954 10.7798 7.73388 11.1845 8.13851L15.8621 12.8162L17.0316 13.9856C17.2807 14.2347 17.4776 14.4256 17.6005 14.6384C17.9114 15.1769 17.9114 15.8403 17.6005 16.3788C17.485 16.5787 17.3042 16.7594 17.076 16.9871L16.9871 17.076L16.9871 17.0761C16.7593 17.3042 16.5787 17.485 16.3788 17.6005C15.8403 17.9114 15.1769 17.9114 14.6384 17.6005C14.4256 17.4776 14.2347 17.2807 13.9856 17.0316L12.8162 15.8621L8.13851 11.1845C7.73388 10.7798 7.32954 10.3749 6.92461 9.97061C6.69649 9.74283 6.51561 9.56221 6.40016 9.36224C6.08927 8.82377 6.08927 8.16035 6.40016 7.62188C6.51561 7.42191 6.69649 7.2413 6.92461 7.01352L7.01352 6.92461L7.01352 6.92461C7.2413 6.69649 7.42191 6.51561 7.62188 6.40016Z" fill="#ED3A3A"/>
</svg>
